
<svg version="1.1" id="Lag_1" xmlns="http://www.w3.org/2000/svg" xmlns:xlink="http://www.w3.org/1999/xlink" x="0px" y="0px"
	 viewBox="0 0 53 53" style="enable-background:new 0 0 53 53;" xml:space="preserve">
	   <defs>
    <linearGradient id="menugrad1" x1="0%" y1="0%" x2="100%" y2="0%">
      <stop offset="0%" style="stop-color:rgba(0,52,222);stop-opacity:0.6" />
      <stop offset="100%" style="stop-color:rgba(255,0, 0);stop-opacity:0.6" />
    </linearGradient>

    <linearGradient id="grad5" x1="0%" y1="0%" x2="100%" y2="0%">
      <stop offset="0%" style="stop-color:rgb(16,4,65);stop-opacity:1" />
      <stop offset="100%" style="stop-color:rgb(255,255,255);stop-opacity:1" />
    </linearGradient>
  </defs>
	 
<g id="Lag_2_00000078728677671357860160000001230692829187101337_">
	<g id="menu">
		<circle class="hide" id="circle" cx="26.5" cy="26.5" r="25" fill="url(#menugrad1)"/>
		<path id="bars" fill="url(#grad5)" d="M12.1,18.4h27.8c0.6,0,1.1-0.5,1.1-1c0,0,0,0,0,0v-2.7c0-0.6-0.5-1.1-1.1-1.1H12.1c-0.6,0-1.1,0.5-1.1,1.1v2.7
			C11.1,17.9,11.5,18.4,12.1,18.4C12.1,18.4,12.1,18.4,12.1,18.4z M12.1,29.1h27.8c0.6,0,1.1-0.5,1.1-1.1v-2.7
			c0-0.6-0.5-1.1-1.1-1.1H12.1c-0.6,0-1.1,0.5-1.1,1.1V28C11.1,28.6,11.6,29.1,12.1,29.1C12.1,29.1,12.1,29.1,12.1,29.1z M12.1,39.8
			h27.8c0.6,0,1.1-0.5,1.1-1c0,0,0,0,0,0v-2.7c0-0.6-0.5-1.1-1.1-1.1c0,0,0,0,0,0H12.1c-0.6,0-1.1,0.5-1.1,1c0,0,0,0,0,0v2.7
			C11.1,39.3,11.6,39.8,12.1,39.8C12.1,39.8,12.1,39.8,12.1,39.8z"/>
	</g>
</g>
</svg>
