<svg xmlns="http://www.w3.org/2000/svg" viewBox="0 0 241.87 353.73">
  <defs>
    <linearGradient id="grad1" x1="0%" y1="0%" x2="100%" y2="0%">
      <stop offset="0%" style="stop-color:rgb(225,225,225);stop-opacity:1" />
      <stop offset="100%" style="stop-color:rgb(0,0,190);stop-opacity:1" />
    </linearGradient>
  </defs>
        <g id="layer1" data-name="Layer 1-2">
          <path d="M58.85,19.38Q93.51.38,93.31,0h0c14.14,1.12,55.14,4.23,116.84,5.83,7.64.2,18.54.45,31.72.64q-.75,8.36-1.48,16.71Q234,90.08,227.53,157L205.39,185.9l-16.53-32q4.14-40.55,8.29-81.1L90.41,164.09a154.54,154.54,0,0,0-30.77,35.14c-13.07,20.59-17.86,38.33-23.14,57.83-5.84,21.61-14.63,53.43-27.26,96.67C3,331.06-15,254,26.59,181.88A197.41,197.41,0,0,1,65,134.36l106.85-91.3L90.6,38.67Z" fill="url(#grad1)"/>
        </g>
</svg>
