<svg xmlns="http://www.w3.org/2000/svg" xmlns:xlink="http://www.w3.org/1999/xlink" viewBox="0 0 2903 2364">
  <g pointer-events="none" id="shadow_Image" data-name="shadow Image">
    <image id="shadow_Image-2" data-name="shadow Image" width="2903" height="2364" xlink:href="shoeSVG1.png"/>
  </g>
  <g id="shoelace">
    <g id="_2laceFromTop" data-name="2laceFromTop" style="isolation: isolate">
      <path id="shoelace" d="M1505,658c14.83-.29,21.75,5.1,32,8h9c3.42.89,8.36,3.12,12,4,16.13,3.91,37.63-5,52,1,6.43,2.68,15.45,8.71,22,12s13.38,3.06,19,7c6,4.21,10.9,11.4,18,15a145.09,145.09,0,0,0,22,9c5.73,1.78,11.24.34,16,3,10.06,5.63,21.75,12.53,32,18,24.57,13.11,64.51,26.14,66,61-1.61,1.84-2.16,7.47-4,9-2.48,2.07-6-.12-9,5-1.73,3,.65,3.24,0,6-.88,3.74-10,12.36-13,14-15.29,8.37-55-10.61-64-17-10.71-7.57-26.6-8-38-15-14.38-8.85-30.17-19.27-45-27-4.19-2.19-8-1.79-12-4-4.71-2.58-10.1-8.94-15-11-1.24-.52-10.43.4-14-1-2.89-1.14-3.77-4.55-6-6l-9-2c-2.79-1.18-5.52-4.87-8-6-5.67-2.59-10.78,2-18,0-20.5-5.63-53.55-3.06-79-3-5.37-7-12-5.64-12-19,8.16-8.45,8.82-24.59,12-38,2.06-8.69-1.41-15.94,6-19C1483.1,657.54,1498.8,662.36,1505,658Z" fill="none" fill-rule="evenodd"/>
    </g>
    <g id="_1laceFromTop" data-name="1laceFromTop" style="isolation: isolate">
      <path id="shoelace" d="M1663,547c4.55,5.76-7.81,10.41-10,16,4.82.34,4.63.21,5,5,.85,7.25-8.55,14.53-10,23,5.18,1.78,5,5.22,8,9-1.14,4.14-4.52,7.56-3,14,.25,1.06,2.48,3.09,2,5l-3,2c-2.16,5.57.76,6.22,2,10h-23c-5.49,3.39-13.69-.3-21,2-.86.27-3.14,2.71-4,3l-18,1c-10.1,2.27-27.62,4.13-37,8-11.52,4.75-9.77,13.79-26,14-3.85,2.17-9.64-1.48-13-2-5.49-.84-9.52,2.89-16,3v-1c17.41-11.75,14.92-49.67,31-59,9.15-5.31,20.36-5.73,29-11,14.38-8.77,27.27-16.54,44-24,3.15-1.4,5.62-4.81,9-6,8.22-2.9,16-1.46,25-4,4.42-1.24,9.6-4.68,14-6S1659.39,549.29,1663,547Z" fill="none" fill-rule="evenodd"/>
    </g>
    <g id="midLaceStomp" style="isolation: isolate">
      <path id="shoelace" d="M1449,775l11,11,13,3c1.83.78,14.25,13.89,15,16h-1c-8.55,7.83-26.23,10-37,16-7.41,4.15-18.83,14.85-25,21l-7,8c-5.8,3.24-19.13,2.73-26,6v-5c-4.77-6.92,7.24-23.46,12-25,5.59-4,14.53-2.69,22-5,9.29-2.87,13.62-7.82,20-13,4-3.2,11.71-5.52,10-14C1454.6,787,1450.23,783.64,1449,775Z" fill="none" fill-rule="evenodd"/>
    </g>
    <g id="_6fromtop" data-name="6fromtop" style="isolation: isolate">
      <path id="shoelace" d="M1285,936c6.86.77,12.73,2,21,2,2.72,3.57,7.87,6.91,12,9,.26,10.64,4.94,19.85,7,28-.33,3.67-.67,7.33-1,11,1.39,6.67,1.7,14.76,4,22,1.12,3.55,4.68,6.33,6,9q1,5.5,2,11c5.83,14,14.24,28.69,19,44q-.49,13.5-1,27c-7.85,5.39-7.56,11.17-22,11-1.78-4.6-3.48-8-9-9-2.74,3.86-10.2,8.43-16,9-3.48-2.17-12.43-3.1-16-4-2.14-8-8-10.45-12-16-7.45-10.22-11.57-21.54-19-32l-7-6c-.33-2.33-.67-4.67-1-7-3.38-6.71-10.24-14.79-13-22-1.62-4.24.49-13.21,1-16,.84-4.63-.07-21.79,0-28,11.61-7.65,19-23.36,29-33C1273.56,941.62,1281.07,941.07,1285,936Z" fill="none" fill-rule="evenodd"/>
    </g>
    <g id="_5fromtTop" data-name="5fromtTop" style="isolation: isolate">
      <path id="shoelace" d="M1349,893c.48,18-4.24,30.75-6,42-1.1,7,2.08,15-3,18-7.14-6-16.18-5-26-9-3.69-1.51-7.44-4.74-12-6l-16-1-5,5-9,3V935c1-1.44,1.56-3.92,2-6,7.43-3.66,13.52-9.34,19-15l3-5c2.18-1.45,4.8-.86,7-2C1316.37,900.08,1328.66,893.25,1349,893Z" fill="none" fill-rule="evenodd"/>
    </g>
    <g id="Layer_1" data-name="Layer 1" style="isolation: isolate">
      <path id="shoelace" d="M1240,977c.23,14.91,1.31,33.53-3,44-19.54,2.74-24.75,4-39-5-4.76-3-9-3.2-11-9C1200.07,991.37,1211.31,977.08,1240,977Z" fill="none" fill-rule="evenodd"/>
    </g>
    <g id="_4laceFromtto" data-name="4laceFromtto" style="isolation: isolate">
      <path id="shoelace" d="M1412,851c3.16.4,3.8,1,6,2v2c-4.61,3.27-18,22.42-19,29,3.53,5.07,2.88,12.49,5,19,2.47,7.6,7.47,15.73,12,22,6.36,8.79,18.8,16.08,28,22,2,1.31,4.77,1,6,3,6.65,10.7,6,20.44,6,36-5.87,4-11.1,10.13-19,12s-25.44-3.09-31-5c-26-8.94-51.41-18-65-39,4.45-4.33.23-14.74,2-22,1.21-5,3.76-12.14,5-17,2-7.84-.29-16.44,3-23,5.89-11.74,24-29.12,36-35C1394.33,853.4,1405.54,855.47,1412,851Z" fill="none" fill-rule="evenodd"/>
    </g>
    <g id="_3laceFromTop" data-name="3laceFromTop" style="isolation: isolate">
      <path id="shoelace" d="M1516,731c9.68,1.11,18.66,7.83,27,13,6.53,4,14.73,4.76,21,9,10.06,6.81,19.68,19.24,27,29,5.9,7.87,14.88,12.85,21,21,7.82,10.42,23,21.23,29,33,7.61,15,4.52,30.61,4,49-5.55,3.92-8.64,10.78-15,14-8.54,4.32-23.84,3.64-34,1-.91-.24-7-2.14-8-2-6.17.92-21.94-15.94-27-21l-43-43c-6.36-8.72-12.35-19.74-21-26-4.09-3-9-4-13-7l-8-9c-10.13-6.88-25.76-3.92-26-21,.93-1.9.38-1.17,0-4l22-20c3.6-5,2.53-10.64,9-13C1488.54,728.42,1507.66,736.16,1516,731Z" fill="none" fill-rule="evenodd"/>
    </g>
    <g id="loneShoelace" style="isolation: isolate">
      <path id="shoelace" d="M1797,532c6.18,3,7.21,11.47,11,17,7.13,10.41,19.88,20.4,30,28,4.32,3.24,6.73,10,11,13,3.4,2.43,7.65,2.67,11,5,3.84,2.67,7.24,7.3,11,10,11.29,8.11,23.16,14.33,34,23,3.64,2.91,6.23,8.18,10,11,5.76,4.31,17.23,7.91,21,14,12.88,20.78,17.64,45.27,28,69,22.63,51.82,40.42,109.29,63,162,5.65,13.18,7.39,26.14,12,40,4.25,12.78,10.62,27.4,15,40,1.45,4.18.41,6.88,2,11,19.47,50.56,47.05,102.08,69,153,4.45,10.33,5.74,19.58,10,30,11.89,29.06,21.16,60.64,31,92,4.47,14.24,2.88,28.33,7,43l11,41,5,5c4.54,6.78,6.56,14.25,11,21,5.25,8,13.53,15.72,18,24,13.21,24.46,27,46.55,42,69,8.53,12.79,17.08,25,25,38,1.64,2.68,5.89,12,5,13-5.61,10.4-9.37,10.71-17,18l-7-2c-9.63-17.35-22.74-32.77-33-49-14.94-23.64-29.38-46.82-44-70-3.72-5.91-5.32-12-9-18-3.16-5.15-8.19-10.6-11-16-2.6-5-3.35-13.28-8-16-2.59-2.11-7.31-1.8-10-4-5.39-4.41-10.2-12.38-16-16-7.91-4.94-15.58-10.72-21-18-10.21-13.73-16.91-29.1-26-44-3.22-5.28-9.89-11.21-12-17-4-10.87-2.32-21.29-7-31-2.71-5.63-7.76-12.15-10-18q-2.51-10.5-5-21c-4.24-8.51-11.18-18.36-15-27q-4-12-8-24c-3.65-8.36-10.45-15.88-14-24-4.57-10.45-5.37-22.4-11-32-3.19-5.44-9.15-10.61-12-16-2.47-4.68-1.32-19.17-3-22l-3-1c-4.26-6.29-4.8-13.56-8-21-.64-1.48-3.46-3.76-4-5-5.34-12.3-5.89-25.56-11-38-3.6-8.77-9.33-19.11-12-28-2.42-8.07-1.15-14.52-4-22-3.61-9.46-11.6-18-15-27q-1-7.5-2-15c-3.87-11.2-10.61-23.47-15-34-5.63-13.5-6.34-26.91-12-40-1.69-3.91-6.19-6.72-8-10q-2.51-11.5-5-23c-2.77-7.47-8.37-16.13-11-23-2.87-7.51-2.19-13.36-5-21-5.11-13.92-13.47-27.31-19-40-5.18-11.89-7.81-22.32-13-34l-9-14-3-13c-5.84-13.79-16.12-23.62-21-38C1805.4,573.5,1788.33,554.67,1797,532Z" fill="none" fill-rule="evenodd"/>
    </g>
  </g>
  <g id="BackLayer">
    <g id="topPartOfBackLayer" style="isolation: isolate">
      <path id="backlayer" d="M2131,177a68.75,68.75,0,0,1,37,10c4.33,2.65,8.9,3.17,13,6,20.82,14.39,28.22,42.38,43,63,9.12,12.72,21.83,25.07,33,36l10,8c7,9.59,10.12,28.54,20,35,7.26,4.75,16.9,3,26,6a899.82,899.82,0,0,0,88,24c7.53,1.66,21.06-2.84,27-1,5.09,1.57,8.87,7.39,13,10l9,3c3,1.93,6.4,5.43,10,7,22.37,9.75,45.09,15.42,67,25,13.29,5.81,25.51,15.49,37,23,12.51,8.18,31.85,14.48,45,18,4.2,6.61,12,13.81,15,21,3.15,7.54,2.89,13.2,5,22,.62,2.58,2.85,9.84,2,13-3,11.24-19.41,15.86-15,34,2.29,9.43,8.12,18.84,11,29,3.19,11.27,3.6,23.42,6,34v12a457.65,457.65,0,0,1,11,80h-1c-3.52-5.25-9.31-9-13-14-39.33-53.68-92.36-91.62-147-130-35.18-24.71-70.39-51.88-107-75-56.78-35.86-114.78-70.14-170-107-15.12-10.09-31.55-16.53-47-26-26.35-16.15-53.46-33-81-48-11.19-6.09-23.76-12.07-35-18-5.57-2.94-11.06-2.17-12-10,3.45-3.61,5-8.95,8-13,6.18-8.32,18.7-18.14,29-22,13.61-5.11,34.14-2.81,47-8,2-4.16,4.07-8.43,6-13-4.54-2.75-21-13.75-23-18,10.46-2.16,14.75-8.38,22-13Z" fill="none" fill-rule="evenodd"/>
    </g>
    <g id="_1_2midTopPartBL" data-name="1/2midTopPartBL" style="isolation: isolate">
      <path id="backlayer" d="M1938,654c16.84,9.54,30.35,23.54,46,34,9.81,6.56,20,10.7,30,17,15.21,9.61,29.35,22.76,44,33,11.57,8.08,23.54,13.79,35,22,8.56,6.13,17.17,15.62,26,21,21.07,12.84,40.61,25.56,60,40l15,15c15.1,11.25,31.34,25.47,42,41,6,8.79,10.66,18.11,17,27,2.37,3.32,7.26,6.12,9,10,6.16,13.7,7.13,29,11,44,1.94,7.53,5.21,31,0,38-4.55-2.74-10.59-.52-17-2-12.13-2.81-25.71-3-38-7-14.53-4.71-31.44-9.51-46-14l-12-2c-20.5-8.57-44.29-18.16-65-26-13.66-5.17-47.34-11.35-55-21-5.51-7.38-5.53-19.67-9-29-7.09-19.07-14-38.58-22-58-15.41-37.17-28.28-76-44-114C1955.9,701,1944.46,677.54,1938,654Z" fill="none" fill-rule="evenodd"/>
    </g>
    <g id="_2_2midTopPartBL" data-name="2/2midTopPartBL" style="isolation: isolate">
      <path id="backlayer" d="M1868,713c8.79,9.82,7.91,25,13,39,2.17,5.94,7.52,12.17,10,18l6,25c2.21,5.2,7.52,10,10,15,5.37,10.76,5.31,25.92,10,37,4.4,10.41,12.17,20.53,14,33h-1c-5.5-4.8-11.39-2.49-20-5-5.71-1.66-12.43-6.06-18-8-4.48-1.56-10.16-.18-12-4V850c3.7-5.82-2.38-29.83-4-36-3.5-13.29-5.12-28.67-8-41C1864.09,756.29,1869.89,728.24,1868,713Z" fill="none" fill-rule="evenodd"/>
    </g>
    <g id="_1_2midPartOfBackLayer" data-name="1/2midPartOfBackLayer" style="isolation: isolate">
      <path id="backlayer" d="M2080,1262c5.47,3.53,24.77,27.85,21,39-1,2.83-3.15,2.94-4,7,2.27,1.47,3,2.1,4,5-7.57,6.47-7.42,16.11-11,27-2.67,8.13-6.55,17.32-9,26-3.09,10.94-2.86,20.07-6,31-15.82,55.16-32.34,112-50,165-5.15,15.47-9.3,30.85-14,45-4.24,12.78-5,28.08-22,28-8.83,5.28-32.11,1.37-44,4-27.8,6.14-60.19,2.91-88,9l-22,1c-20.41,4.51-45,1.36-66,6-17.26,3.81-36.61.94-55,5-13.68,3-29.18.73-44,4-39.7,8.77-85.52,4.43-125,13l-35,1c-29.41,6.61-66.31,6.54-95,13-9,2-17.82.32-25,3v-2c-2.51-4-2.06-9.42-4-14-4.91-11.57-10.57-23.67-16-36-7.11-16.13-18.34-29.12-27-43-3.66-5.86-3.59-15.58-8-21-1.53-1.88-4.39-1.84-6-4,33.21-1.21,61.43-11.13,88-20,25.62-8.55,49.7-15.92,74-25,11.73-4.38,22.83-6.12,34-11,11.5-5,22.59-13,34-18,103-45.46,203.74-94.92,306-140,48-21.16,94.74-44.19,142-65,19.54-8.6,38.54-16.8,57-26C2069.48,1266.27,2075.54,1265.65,2080,1262Z" fill="none" fill-rule="evenodd"/>
    </g>
    <g id="_2_2midPartOfBackLayer" data-name="2/2midPartOfBackLayer" style="isolation: isolate">
      <path id="backlayer" d="M2033,1138c-22.45-5-41.35-16.73-61-25-9.81-4.13-20.48-3.56-30-8-1.71-.8-4.31-4.14-6-5-5.21-2.64-10.21-2.06-16-4l-17-7c-7.41-2.42-17.35-.22-24-3-15.13-6.31-28.66-16.85-43-23-7.41-3.18-13.54-3.82-21-7-10-4.28-20.28-10.15-31-14-5.3-1.9-16.21.76-21-2-8.87-.72-10.47-7.1-16-11-5-3.49-11.6-7.7-17-10-5.74-2.45-12.07-2-17-5-5.62-3.42-11.5-9.55-18-9,1.14-12.11,12.94-33.3,6-41-3.32-2.65-10.9-2.23-17-2-2.46,1.67-5.62.92-9,2-16.35,5.24-34.34,7.72-52,13-29.86,8.93-61.15,17.7-84,34-32.65,23.28-53.85,58.07-77,91-28.11,40-78.4,82-130,98l-25,2c-6,13.07-9,54-3,71l9,15c3.27,6.37,4.31,13,8,19,8.37,13.52,24.14,30.21,39,37,10.52,4.81,21.27,4.8,34,8,8.22,2.07,26,4.55,37,2,3.78-.88,10.43-2.18,14-3h17c21-5.35,47.21-8.07,68-15,52.55-17.52,105.67-36.64,158-53,46.86-14.65,92.22-28.31,137-45,18.14-6.76,35.87-10.22,54-17,38.13-14.26,78.2-24.43,117-39,10.6-4,38.19-16.54,48-15C2042.34,1157,2036.68,1147.4,2033,1138Z" fill="none" fill-rule="evenodd"/>
    </g>
    <g id="_1partOfBL" data-name="1partOfBL" style="isolation: isolate">
      <path id="backlayer" d="M781,1305c8.36,7,16.06,35.56,22,47,3.44,6.63,6.74,14.53,11,21,6.5,9.87,16.51,18,20,31,3,11.34-8.85,26.75-4,44,6.36,22.63,16.83,37.41,17,68-10,6.67-19.2,16-31,21-22.6,9.48-39.86.3-54-10-27-19.64-39.32-53.86-72-68-21.49-9.3-72.16-21-105-14-17.18,3.68-40.62-1.52-57,2H501c-15.53,0-29.41,1.25-42,4H415c-12.82,2.78-29.31,3.21-42,6H350c-11.73,2.52-29.92,4.82-43,2-20.16-4.34-39,9.22-39-17,5.14-3.24,9.12-9.65,15-12l10-1c7.79-2.29,17-6,25-8,11.93-3,21.82-.67,33-4,5.24-1.56,10.9-4.55,17-6,9.94-2.36,17.94,0,26-2,21.34-5.24,47.4-10.76,69-16h9c6.25-1.54,13.14-4.47,19-6l12-1c2.91-1.32,6.44-4.82,10-6l32-4c4.7-1.67,10.39-5.48,16-7,7.67-2.08,14.63.4,23-2,37.46-10.75,80.43-21.74,115-36l19-3c12.88-4.17,27.33-9.09,39-14C765.12,1310.58,775.19,1310.6,781,1305Z" fill="none" fill-rule="evenodd"/>
    </g>
  </g>
  <g id="Ribbon">
    <g id="bigPartRibbon" style="isolation: isolate">
      <path id="ribbon" d="M2157,1216c23-2.16,48.7-14.1,65-24,6.86-4.16,14.66-9.39,24-11v1c-4.24,2.48-7.48,5.69-12,8,.67,2,1.33,4,2,6l-6,6-3,12h13c1,3.3,1.85,4.13,2,9-3,3.46-3.16,8.19-3,15h2c2.71-2,7.18-3.44,11-4,4.14,6.66,10.71,12.19,15,19,1.34,2.14,1.88,6.9,4,8h5c3.77-3.81,9.65-5.79,15-8,.81,4.24,2.52,11,5,14,1-.8.27-.35,2-1,2.09-4.94,3.53-15.61,7-20,2.2,3.33,10,11.64,15,12a19.17,19.17,0,0,1,4-2c2.53-4.58,3-11.08,5-17,5.77,3.5,8.27,8.27,17,9,3.72-5.46,7.89-6.43,8-16-.88-1.29-.89-2.47-1-5h1c2.59,4.17,5.47,6.62,12,7,1-.8.27-.35,2-1,3.87-6.38,7.58-13.91,11-21,6,2.37,10.18,6.07,16,8,2.82-2.32,4.59-2,6-6a32.31,32.31,0,0,1-4-6c4.28-2.74,6.74-6,13-7,.15-21.1-11.06-26.91-16-40,6.11.37,8.3.9,13-1a14.17,14.17,0,0,0,1-4c-3.55-4.76-2.28-7.93-11-8-1.55-1-4.09-1-7-1v-1c3.89-3.08,5-10.16,5-17-3.73-2.54-4.66-5.93-10-7-1.29.88-2.47.89-5,1,.33-3.33.67-6.67,1-10-2.09-1.12-1.83-1.43-5-2-6.45,11-22,22.17-40,22v-11c24.44.63,49.11-20.07,65-30,10.5-6.56,22.55-9.58,33-16,21.24-13,42.56-27.32,65-39,15.64-8.14,49-17,51-37-2.12-1.46-2.79-2.62-4-5-25.08-3.67-52.43,10.52-73,19-9.83,4.06-20.67,6.29-31,9-5.12,1.34-8.67.17-13,2-6.33,2.67-10.41,9-16,12-5,2.68-10.26,2-16,4-9.45,3.22-20,6.87-30,11-15,6.18-29.87,15.52-46,20l-28-1c-14.69,4.1-27.22,12.79-39,20-5.58,3.42-12.49,3.46-14,11,1.12,2,.6,1.81,0,4-16.54,1.65-33.36,8.9-47,14l-17,4c-12.59,5.27-30.22,16-48,13-3.42-16.45-13.76-30.84-20-45-19-43.1-38.46-80.76-54-128-4.08-12.41-11.89-24.74-14-38h2c10.16,9,27.67,10.21,42,15,11.83,4,24.07,8,36,13,31.44,13,68.9,25,104,35,24,6.83,51.94,5.5,76,11h18c13.81,3,34.31-.1,47-3h18c8.62-2,19.09-3.94,28-6h17c22.69-5.5,48.33-8.88,71-15l18-2c29.61-7.44,61.27-12,90-19,10-2.45,18.77-.39,28-3,23.05-6.51,38.61-13.84,65-7l12,1c13.08,5.8,14.84,47.22,20,63,8.65,26.44,14,53.18,21,83q-.49,42-1,84c1.55,5.6,6.22,10.67,8,16,4.71,14.14,4.39,26.64,8,42,.32,1.38,2.31,6.22,2,8-1.91,10.94-18.07,14.46-25,21-15.36-4.53-45.45,0-60,4-8,2.17-14.44,1.53-22,4-13.63,4.45-29.77,10-44,13l-9-1c-10.74,2.64-23.51,6.11-33,9l-18,2c-9.39,3.24-22.08,8.4-32,11-8.29,2.17-15.18.46-23,3-12.43,4-25.23,11-37,15-13.5,4.54-28.48,3.85-41,9-30.35,12.47-58.58,35.51-75,62-6,9.7-7.31,20.6-12,32-6.52,15.88-13.46,33.94-18,52-3.6,14.35-1.38,28.46-5,42-3.53,13.21-5.79,28.1-9,42q-.49,9.49-1,19c-2.16,9.2-7.22,20.78-6,29-28.57,2.89-63.95,3.65-91,10h-20c-16,3.5-33.12,2.53-49,6l-50,1c-8.66,1.89-19.59-.1-29,2-19.13,4.28-42.36,4.39-64,7v-1c9.79-7,10.76-20.2,15-33,5.48-16.54,9.7-34,16-51,19.25-51.85,32.64-108.58,50-162,3.51-10.81,2.5-22.53,6-33,3.33-9.94,6.58-23.6,11-34,.9-2.11,4.26-5.14,5-7,2.61-6.54.11-15.6,2-21,.8,1,.35.27,1,2,5.42,6.53,8.09,15.91,14,22,5.54,5.71,13.55,9.2,20,14l10,12c4.67,4.57,14.64,5.26,18,11,3.46,5.91,3.52,12.43,7,18,15.62,25,32.37,51.26,48,76,11.91,18.85,23.68,36.35,36,54,3.53,5.06,5.44,14.15,11,17,1.9-.89,4.15,1.06,8,0l10-5c.64-7.83,3.8-11.48,4-21-5.79-4.28-7.87-10.93-12-17-11.13-16.37-22.09-32.69-33-50-10.26-16.28-19.59-35.07-31-51-3.36-4.69-8.78-9.17-12-14-4.91-7.36-7.1-15.63-12-23l-6-6c-2.42-5.09-1.39-9.76-3-15-3.53-11.52-7.12-25-10-37-2.49-10.39-.16-19.64-3-29C2163.54,1240.61,2157.75,1230.07,2157,1216Z" fill="none" fill-rule="evenodd"/>
    </g>
    <g id="smallPartRibbon" style="isolation: isolate">
      <path id="ribbon" d="M1880,865c12.68,1.26,21.7,7.93,32,11,8.06,2.4,13.82,2.07,20,5,1.58,18.21,11.75,27.37,17,41,3.94,10.23,2.94,21.45,7,31s9.54,19.6,13,30q2,9.5,4,19c5,12.3,13.35,25.76,18,38,2.58,6.79,1.23,13.83,4,20,3.29,7.34,10.72,13.33,14,21,4.33,10.12,5,20.77,10,30,4.69,8.73,11.41,15.94,13,28h-1c-5.88-5-15.48-5.73-23-9-10.87-4.73-22.07-11.47-33-16-9-3.72-18.63-3.4-28-7-12.45-4.79-27.52-12.5-41-17-10.47-3.49-22.51-2-32-6-9.32-4-18.55-10.84-27-16-9.9-6-21.57-7.14-33-12-8.65-3.67-17.94-9.69-27-13l-23-3c-9.77-3.07-16.1-11.1-24-16-14-8.7-33.5-10-45-21,2.37-3.27,9.86-29.62,8-36-.65-2.23-2.85-4.14-4-6,13.59.08,29.23-1.38,41-4,12.83-2.85,24.08.69,36-2,14-3.17,30.76-2.82,43-8,8.39-3.55,15.56-10.36,23-15,5.59-3.48,12.16-5.92,16-11,7.45-9.86,16.14-23.32,20-36C1880.1,878.1,1878.17,870.36,1880,865Z" fill="none" fill-rule="evenodd"/>
    </g>
  </g>
  <g id="ribbonTag" style="isolation: isolate">
    <path id="ribbonTag" d="M2380,1123l8-1c3.87,5.59,7.1,5.57,7,16-1.94,2.45-3.48,6.39-5,9,3.1.25,11.57.38,14,2,2.13,2.22,3.2,5.44,4,9-2.79,1.84-2.83,3.19-7,4-1.55-1-4.09-1-7-1v1c7.29,5.7,16,24.43,16,38-5.11,2-8.77,4.43-13,7v2c2.51,1.58,3.94,2.86,5,6-2.85,3.33-2.82,4.64-9,5-3.34-3.25-9.32-7.48-14-9v1c-6.86,5.21-4.22,20.06-14,22-1.2-.85-3.23-.07-5-1-3.55-1.86-3.37-6.3-8-8v2c1.52,2.29,1.83,7.67,2,11-4.28,3.45-5.15,8.93-11,11a170.79,170.79,0,0,0-15-11c-.16,9.75-.7,20.26-12,20a27.4,27.4,0,0,0-12-12c-.53,7.29-1.84,17.89-8,20l-1,1v-2q-2-6-4-12c-4.57,1.17-17.09,9.53-19,8-4.73-4.69-6.29-10-10-16l-10-12c-4.44,1.78-8,3.79-13,5v-10c2-2.48,3.19-6.44,4-10-1.62-1.25-2-2.1-3-4a32.7,32.7,0,0,1-13,0v-2c1.38-2,.89-4.39,2-7,1.71-4,5.46-6.62,7-11-1.62-1.35-1.12-.64-2-3,7.51-3.66,13.06-11.34,20-16,2.88-1.93,9.57-4,11-7v-5c-3.54-6.09-2.1-17.16-6-25-6-12.14-16.9-24.07-19-39,7-6.39,15.66-8.57,24-14,14-9.11,27.18-16.62,51-14,6.1,9.79,8.87,22.31,14,34,1.26,2.86,5.06,6.23,6,9,1.71,5,1,14.62,2,19h11c11.43-7.54,22.41-11.37,30-23l1,1c1.83,1.57,1.4.88,2,4C2379.86,1116.69,2379.93,1119.9,2380,1123Z" fill="none" fill-rule="evenodd"/>
  </g>
  <g id="topSole" style="isolation: isolate">
    <path id="topSole" d="M101,1602c.57,5.78,2.88,15.88,6,20,27.17,27.82,67.82,38.9,111,51,8.21,2.3,14.91.8,24,3,54,13,115,15.89,170,29l25,1c6.12,1.37,14.88,2.63,21,4h19c16,3.51,38.53,1.62,54,5h32c17.52,3.81,42.27,3.59,62,4h28c9.33,2,22.71-.5,34,2,20.5,4.54,49.1,3,74,3H889c30.09,0,55.76-1,83-1,22.5,0,46.76,2.34,66-2h39c18.66-4.08,40.67-2.18,58-6h42c6.65-1.65,16.21-3.3,24-5h26c33.65-7.58,74.23-7.12,108-15h22c20.33-4.53,47.45-1,69-6,24.18-5.63,54.94-4.54,80-10,9.57-2.08,20.22-.29,28-2l25-1c16.39-3.7,38-2.09,56-6l22-1c7-1.58,16.67-2.4,24-4l25-1c15.39-3.52,35.21-2.35,52-6h18c35-7.68,76.76-5.26,112-13l31-1c18.27-4,39.35-3.22,56-7,9.62-2.19,18.32,1.59,26,0a99.33,99.33,0,0,1,16-2h16c7.71-1.69,17.52-.1,26-2,42.29-9.5,96.15-2.66,139-12l28-1c25.18-5.63,56-3.33,81-9h24c9.93-2.18,21.33-.55,32-3,9.84-2.26,21.1-4.84,30-7,10.26-2.49,19.51,2.55,31,0,16.69-3.71,37.09-3.39,53-7h19c7.54-1.68,17.45-2.34,25-4l26-1c23-5.13,49.41-4.69,71-10,11.73-2.88,21.71-.27,33-3,30-7.25,66-10,95-18,9.69-2.69,24.47-.41,34-4,7.49-2.82,13.56-10.79,19-16,3.62,4.38,10.1,3.81,15,7,4.42,2.87,6.41,8.27,10,12-2,14.34-.38,36.36,3,50q-.49,28-1,56c2.85,12.27,1.47,26.88,5,40,2.32,8.62,5.82,18.22,8,26,.33,3.67.67,7.33,1,11,1.73,6.17,4.56,13.74,5,21q.49,6.49,1,13l-3,1c-6,9.53-6.12,19.59-15,26-9.79,7.07-22.93,6.71-36,11-33.13,10.88-78.92,14.79-112,23-11.43,2.84-23.8,1.54-34,4h-13c-27.36,6.41-52.59,7.32-81,14h-18c-12.38,2.93-26.71,2.38-40,6-12.56,3.42-23.33-4.64-37-2-4.87.94-16.16,3.24-24,2l-4-2c-.73.12-4.84,2.7-6,3l-22,1c-9.24,2.16-20.2,3.69-30,6h-18c-10.79,2.51-29.22,1.44-40,4h-38c-20.54,4.76-53.93,2.78-76,4-10.14.56-20.11-1.83-28,0h-24c-13.07,3-31.91,1.68-48,2-25.34.5-54.9,0-83,0-16.62,0-39.21-1.45-54,2-10.58,2.47-24.63-1.18-34,1h-17c-15.86,0-36.3-1.43-51,2h-26c-12.42,0-31.21-.75-43,2-10.58,2.47-24.63-1.18-34,1l-114,2c-11.81,2.69-28.1,2-41,2h-15c-8.37,1.9-19.2,2.29-29,2l-8-1c-6.41,1.19-17.38-.73-25,1-7.8,1.77-20-1-29,1-8.12,1.84-20.66-1.12-30,1-7.8,1.77-20-1-29,1-10,2.27-24.77-1.57-36,1-6.72,1.54-15.55,2.47-22,4l-90-2c-16.7,3.94-40.09,6.31-58,4-10.87-1.4-27.87-6.25-42-3-36.82,8.47-67.9,5-113,5-26.4,0-53.9,3.48-77-2H926c-10.7-2.45-26.26.92-39-2a80.11,80.11,0,0,0-33,0c-8.63,2-17.24-2-27-2-13.7,0-24.86,1.59-36-1l-24,1c-18.22-4.45-41.08-5.28-61-10H676c-6.12-1.46-15.77-2.51-22-4-10-2.38-17.83.51-28-2-84.9-21-170.1-31.52-250-56-10.34-3.17-17.67-2.93-28-6-43.65-13-90.12-24.77-133-39-15.54-5.16-30.26-5.79-46-11-6-2-12.44-5.91-18-8-6.5-2.44-12.23-1.92-18-5-3.23-1.72-5.76-6.31-9-8-4-2.1-15.39.3-21-2-5.35-2.2-31.85-22.7-35-27-11.29-15.42-6.74-48-2-67v-10c2.09-5.51,6.47-12.22,4-20C82.49,1617.48,83.34,1602.58,101,1602Z" fill="none" fill-rule="evenodd"/>
  </g>
  <g id="lowerSole" style="isolation: isolate">
    <path id="sole" d="M1846,1915c.76-12.74-1.26-21.73-4-32h-7a19.17,19.17,0,0,1-4,2l-1,1c1.92,9.07,0,18.68-2,26-13.47,7.93-75.92,8.11-91,1,1.15-4.53.13-21.35-3-26-1.69-1.14-4.9-1.07-8-1a19.17,19.17,0,0,1-4,2c-1.66,4.87-1.08,13.52-1,20-1.73,2.64-2.34,8.8-3,12h-15c-4.23,2.69-12.72.55-18,2-1.67.46-6,2.53-8,3h-31c-17.16,3.82-34.43,4.56-34-21l-3-11c-3-1.59-5.72-2.08-11-2-4.26,7.55-4.57,22.77-5,34-32.31.16-65.11,4.21-92-2v-12c1.76-2.63,2.75-7.34,4-10h-10c-1.07-.75-1-.6-3-1-5,7.32-8.42,19.52-4,31h-87c-1.25,1.93-7.21,7.21-8,6-6.2-7-5.84-27.85-8-38a28.89,28.89,0,0,0-9-1c-1,.8-.27.35-2,1-3.32,8.78-2.27,25.75-1,36-36.27-.27-58.41,5.74-94,6v-2c-4.68-6.8-4.19-24.53-6-33-3.54-2.23-5.37-3.1-12-3-.33,1-.67,2-1,3-4.32,6.64,1.75,27.39,2,36-32.65,3.58-56,4.87-91,5-2-3.63-4.86-7.54-6-12-3.5-13.64,5.25-28-12-28a11.55,11.55,0,0,1-3,2c-1.33,11.5-5.2,21.42-3,33h-4c-7.4,4.42-22.61-1.21-32,1-13.34,3.14-30.89,3-44,9-1.28-12.11-1.55-31.13-4-43h-2c-1.84-1.24-5.7-1.09-9-1-7.93,18.6,4.23,40.8-25,40-6.68-4.24-47.07-.73-56,0l-1-3c-9.2-11.36,5.65-36.17-16-36l-1,3c-4.66,6.63-1.59,23.89,0,31H925c-6.62,4.63-38.76,1.89-49,3l-1-1c-.84-9.33-2.64-35.33-10-38-2.35-1.54-4.28-.59-7,0-1.31,10.33-1,23.85,1,33-24.08,1.72-46-.93-71-1-2-3.8-4.8-8.25-6-13-2.1-8.3,1.93-20-4-24H768v2c-3.94,6-3,24.55-3,33-23.87,0-44.69-2.45-66-1-1.17-11.67-1-32.09-5-42a18.26,18.26,0,0,0-6-1c-1-.59-1.91-.11-5,0,.16,11.89-.75,37-11,39-6.35-4-28.46-1.17-37-1-14.31-21.29-33,.28-60-6-7.3-1.7-18.58-.76-27-3-12-3.17-26.53-7.77-40-11H497c-4.44-1.09-9.21-3.83-13-5l-19-1c-4-1-10.6-3-15-4-5.08-1.18-12.58,1.29-16,1-14.52-1.21-32.63-5.77-46-9l-21-1c-13.69-3.76-32.05-7.47-46-11-7.32-1.85-18.61,2.75-24,1-1.05-.34-3.69-3.45-5-4-8.31-3.48-16.21-2.67-25-6-1.7-.64-4.3-3.36-6-4-7.84-3-15.72-1.9-23-5l-13-8-21-4c-8.43-2.78-17-7.25-26-10-5.41-1.64-10.38-.45-15-3l-6-6c-9.36-5.85-20.13-9.66-29-15l-11-4c-8.86-5.76-17.61-17.54-24-26l-15-14c-5-8.21-7.12-16.77-11-26-5.1-12.12-12-33.06-6-50h1c.65,23,25.32,42.23,42,49l20,2,4,5c7.83,4.71,17,5.21,26,9,5.15,2.17,11.47,6.14,17,8l49,11c40.32,13.39,84.75,24.76,126,38l23,4,48,14c9.2,2.61,16.71,2.37,26,5,30.27,8.56,65,12.72,96,21,8.1,2.16,15.5.61,24,3,20.66,5.8,44.54,10.94,66,16h20c8.28,1.9,19.21,3.06,28,5h33c16.64,4.12,39.2,6.18,56,10l29-1c10.07,2.18,24.29.34,36,1a113.43,113.43,0,0,1,13,2c6.11,1.27,18.47-.8,24-2,9.09-2,18.36,1.52,25,3,9.34,2.09,21.89-.77,30,1h59c19.48,5.06,47.46,2,70,2,43.82,0,86.24,2,122-6,11.1-2.49,33.63,2.93,43,5,15.56,3.44,40.83-2.29,53-5l90,2c8-1.78,18-3.23,26-5,3.62-.8,8.93.55,11,1,8.13,1.76,18.66-.66,25-2,2.9-.61,6.65.71,8,1,7.55,1.61,17-.86,23-2l7,1c7.4.64,14.36-.78,20-2,3.14-.68,7.41.66,9,1,7.2,1.54,17.21-.74,23-2,5.62-1.22,14.94.12,19,1,10.66,2.32,25.88-.22,34-2h47c12.89-2.84,31.86,1.28,47-2,17.31-3.75,46.5-2,65-2h41c15.42-3.39,34.93-3,54-3h23c14.65-3.2,35.33-2,53-2h19c5.54-1.11,15.91,1.79,24,0,20.71-4.58,49.84-3,75-3h102c6.17-1.34,35.63-4.92,42-1a14.35,14.35,0,0,0-5,1c-.87,8.55-1.28,18.13-2,28-1.81,1.32-3.28,5.19-5,6h-22c-3.87-2.56-37.36-3.84-45-2-5,1.19-9.32,3.69-14,5-1-1.77-1.26-1.68-2-4-6.93-12,3.66-31.26-16-31-.33,1-.67,2-1,3-1.8,2.77-6,26.82-7,31h-77c-1.07.75-1,.6-3,1-2-4.87-6-29.89-9-32-2.44-1.75-4.45-.44-7,0-4.51,9.24-5.69,20.9-3,33-5.91.47-9.68,2.85-14,4-14.55,3.87-33.68-1.61-44-4Z" fill="none" fill-rule="evenodd"/>
    <path id="sole" d="M2707,1865c-4.89.61-7.73,3-11,4-10.93,3.42-25-2.37-35,1-3.52,1.18-6.46,5.32-10,4l-3-1c-.37-9.27-1-20.35-1-31h-2c-1.29-.88-2.47-.89-5-1-3.27,6.24-2.12,19.59-2,29-1.62,1.67-2.3,3.3-3,6-12.22,1.25-30.77-2.12-44,1-9.57,2.26-20,6.43-29,8-6.31,1.1-19-2.06-28,0-16,3.65-34.51,9-48,6-3.5-7.66-3.08-20.25-3-32-3.3.11-6.08.54-8,2-4.62,1.3-5.2,2.84-5,9,2.79,4.43,1.45,19.72,2,25-32.1-.09-60.68,1.92-91,2q-2-15.49-4-31h-2c-2.95-2.15-8.89-.79-11,1-3.36,5.23-1.13,21.52-1,29-.8,1.18-.77,1.68-1,4-13.06,1.41-34.56-2.13-48,1-10.94,2.55-22.82,3.93-38,4q-2-15.49-4-31c-3.6-1.92-8.8-2.12-15-2-2,5.9-1.08,16.42-1,24,1.09,1.63,1.59,5.86,2,8a693,693,0,0,1-90,0c-.88-7.68-1-17.85-1-27l-1-1c-2.33-.2-2.83-.19-4-1,30.24.29,64.33,1.72,90-4h40c11.35-2.49,27.71-1.53,39-4h18c17-3.9,40.26-6.33,57-10,3.3-.72,7.67,1.48,10,2l29-2c9.79.06,19.7,4.67,31,2,10.91-2.57,25.65-3.49,37-6l26-1c22.32-5.51,49.85-7.8,72-13,13.39-3.14,25,1,38-2,40.45-9.18,86.42-15.08,124-26,8.27-2.4,15-1.15,23-4,8.2-2.92,16.81-9.87,21-17,3.29-5.6,1.63-12.4,8-15l1-1v2c2.29,3.55-4.7,31.38-5,41-9.45,6.12-17.86,17-28,22-4.21,2.09-16.58,4.83-21,6a107.18,107.18,0,0,0-3-27c-2.4-1.16-1.74-2-4-1-2.64,1.54-2.18,3.87-2,8,2.71,4.19,1.13,16.8,1,23h-2c-11.26,7.6-29.91,6.66-43,12-.52-9.5-1.23-22.72-3-31l-5-1-1,1Z" fill="none" fill-rule="evenodd"/>
  </g>
  <g id="frontLayer">
    <g id="_2_2endPartOfFrontLayer" data-name="2/2endPartOfFrontLayer" style="isolation: isolate">
      <path id="frontLayer" d="M2748,1263c-.64,39.07,6.64,79,15,111q2,21.49,4,43c4.07,17.8,3.85,41,8,59v31c2.16,9.56,2.92,21.22,3,33-5.45,3.4-10.53,10.15-16,13-7.63,4-14.23.47-21,2-17.14,3.86-38.18,7.62-56,12-11.58,2.84-21.88,1-33,4-36.23,9.7-80.14,8.19-119,17l-40,3c-18.41,4.15-40.71,2.84-59,7l-20,1c-15.65,3.52-33.22,1.23-50,5-19.76,4.44-44.12,6-65,7a14.17,14.17,0,0,1-1-4c9.13-10.51,7.75-44.58,12-61,3.25-12.58,5.65-27.82,9-41q1-13,2-26c5.47-19.27,11.8-40.19,19-57,3.24-7.57,3.9-15.21,8-22,18.87-31.29,43.47-53.45,79-68,13.49-5.53,32.25-6.35,44-10,10.4-3.24,21.63-10.53,33-14l19-2c6.34-1.82,14-5.14,20-7,3.85-1.19,6.74.89,9,0,2.54-1,4.24-5,8-6h14c5.68-1.43,10.78-4.58,16-6,11.33-3.09,21.94-.85,33-4C2659.16,1272.69,2701.41,1257.52,2748,1263Z" fill="none" fill-rule="evenodd"/>
    </g>
    <g id="_1_2endPartOfFrontLayer" data-name="1/2endPartOfFrontLayer" style="isolation: isolate">
      <path id="frontLayer"d="M1926,238c43.64-1.28,62.86,15.06,92,28,55.2,24.52,104.77,54.73,154,85,10.86,6.68,22.41,10.34,33,17,29.92,18.81,60,40,90,59,42.63,27,86.19,50.33,127,79,20.9,14.68,41.05,32.28,62,47,52.76,37.08,104.67,73.57,143,125l24,24c6.44,9.91,3.87,27.23,7,38,1.81,6.24,7.92,12.46,10,19l3,26c3.28,14.06,4.53,31.21,8,45q.49,8,1,16c8.31,32.58,19.65,53.21,11,94h-10c-6.29,3.74-15.37,1.36-23,4-8,2.76-18.85,6.71-28,9l-23,2c-56.66,14.67-122.1,21.82-180,36-6.3,1.54-13-.86-17,0-8.49,1.81-19.73,4-28,6h-17c-22.16,5-76.55,4.76-93-3,5.84-16.63-6.06-45.44-10-58-4.41-14-5-28.68-12-40-8.37-13.49-22.93-23.93-34-35-6.87-6.87-15.23-14.22-21-22-4.39-5.92-8.19-12.63-14-17-6.86-5.15-13.89-9-21-14-26.47-18.61-54.22-36.11-81-55-10.83-7.64-20.33-18.31-31-26-9.23-6.65-20-10.41-29-17-5.48-4-10-10.27-16-14-7.1-4.42-14.68-5.83-22-10-2.56-1.46-5.26-5.68-8-7l-7-1c-2.37-1.43-3.3-5.73-5-8s-19.4-16.54-22-18l-7-1c-16.54-8-28.43-24.74-43-35-27.48-19.36-60.9-38.7-80-66-8.11-11.59-14.56-28.66-20-42s-1-49.23,2-61q.49-7,1-14,4-12.5,8-25c-.33-1.67-.67-3.33-1-5,.54-2.06,4.07-5.78,5-8,2.4-5.7,2.32-13,4-17,1.28-3.05,5.54-6.6,7-10,2.19-5.1,1.84-10,4-15,4.32-9.92,11.13-20.6,16-30,1.75-3.38.3-6.17,2-10,2.79-6.27,8.72-13,12-19,3.51-6.4,4.91-13,9-19l20-20,5-7c8.14-5.39,22.88-6.41,33-9C1919.59,238.08,1923.58,239.47,1926,238Z" fill="none" fill-rule="evenodd"/>
    </g>
    <g id="next2FirstPartFL" style="isolation: isolate">
      <path id="frontLayer" d="M1166,1012c20.67-.27,31.31,6.16,46,10l26,1c4.23,7.27,11.24,13.72,14,22-4.74,3.41-13.11,13.49-11,23,6,27,1,62,0,91-.27,8.1,3.31,26.9,2,31-2,6.15-8.51,12-12,17-9.25,13.18-18.59,26.68-27,40-6.93,11-8.74,24.82-15,37l-13,21c-2.25,6.72-.56,12.13-3,18-5.74,13.8-14,28.65-19,44-3.14,9.72-1.21,20.48-4,31-4.59,17.31-11.4,47.51-5,69a152.43,152.43,0,0,0,21,43c14.54,20.68,34.61,33.87,58,46,28.11,14.58,66,18,109,18,5.06,20.49,19,37.89,29,54,6.27,10.11,9.49,20.2,15,31,2.46,4.83,14.31,26.53,11,32-5.5,3.29-14.94.37-22,2-16.17,3.74-38.91,2.63-54,6h-12c-20.79,5.5-46,5.28-67,10l-33,1c-10.43,2.34-26.33,2.57-37,5h-35c-31.65,7.07-73.26,6.83-110,7-2.67-11.4-12-21.49-16-32-13.26-34.9-23.16-69.29-38-103-3.3-7.51-9.67-15-13-22-4.17-8.77-5.18-17.11-10-25-6.45-10.56-13.62-21.72-21-32-3.68-5.12-9.63-9.53-13-15-1.56-2.53-.43-5.07-2-8l-10-9c-8.1-10.69-20.47-26-31-34-8.2-6.2-23-18.31-28-27-2.35-4.07.13-8.92-2-14-5-11.87-14.59-20.77-21-31-8.43-13.46-13.33-27.74-20-43-4.45-10.2-14.49-23.36-10-42,3.26-13.54,13.65-39.82,23-47,4.15-3.19,10-4.55,14-8,15.51-13.25,29.29-28.81,47-40,23.87-15.08,49-24.41,75-38,4.93-2.58,9.32-8.58,14-11,17-8.8,33.14-17.94,48-29,9.4-7,15.52-18.94,25-26,23.74-17.69,48-36.25,73-52,11.91-7.52,26.65-13.33,41-18C1148.86,1014.09,1161.38,1014.9,1166,1012Z" fill="none" fill-rule="evenodd"/>
    </g>
    <g id="firstPartFL" style="isolation: isolate">
      <path id="frontLayer"d="M834,1414l16,17c35.32,26.61,69.13,71,92,110,5.11,8.72,6.26,19.24,11,28,4.49,8.29,11.1,17,15,26,10.51,24.16,15.75,50,26,75,4.06,9.91,8,21.47,13,31,3.76,7.12,8.71,12.73,11,22H926c-3.32,2.08-11.93,1-17,1H716c-10.78-.36-23.73-1.8-33-4-7.72-1.83-18.48.52-25-1H628c-21.43,0-44.71.28-63-4H544c-12.73,0-24.17-.48-35-3H491c-8.84-2-20.52.44-31-2-10.11-2.36-22.15-2.47-33-5H412c-18-4.31-38.59-6.4-57-11l-28-3c-23.61-5.77-50.52-6.81-73-13l-36-5c-35.88-10.88-92.89-25.2-111-52-10.93-16.17-2.41-34.44,3-52q.5-10.5,1-21c1.27-3.06,5.66-6.54,7-10,.33-2.67.67-5.33,1-8,3.46-6.73,16.35-18.33,22-24,12.34-12.38,22.8-25.34,37-36l10-10c4-2.68,8.22-3.29,12-6l7-7,4,1c4.05-.92,12.9-2,18-4,2.83-1.12,6-4.75,9-6,5.3-2.22,10.07-1.29,16-3,4.13-1.19,7.84-4.73,11-6h18v2c-9.14.84-11.2,7.88-16,13-.14,5.71.51,9.4,2,13,9.11,4.09,19,.08,32,2,13.91,2,36.73,1,50-2h21c13.61-3.06,32.48-3.11,45-6h43c13.17-2.93,28.68-4,44-4h26c14.54-3.18,34.52-1,52-2,5.48-.3,14.16-2.51,21-1,9.06,2,22.72-1.32,33,1,27.24,6.15,48.7,9.18,68,22,28.25,18.76,41.38,57.27,74,71,23.14,9.74,41.64-2,55-11,4.24-2.86,11.93-6.39,14-11v-19c-2.74-4.26-2-11.17-4-16C834.64,1460.32,820.14,1436.27,834,1414Z" fill="none" fill-rule="evenodd"/>
    </g>
    <g id="bigMidPartFL" style="isolation: isolate">
      <path id="frontLayer" d="M1849,238l41,1v1c-3.58,2.91-4.78,7.76-8,11-6.31,6.35-14.64,11.81-20,19-12.18,16.33-19.36,35.1-28,55-7.4,17.05-18.48,36.29-26,54-9.12,21.49-11.27,43-17,68-2.6,11.35-7.59,36.72-4,52,2.14,9.1,6.66,16.85,9,24,4,12.12-3.36,27.18,2,40,7.92,19,19.63,37.8,29,55,3.74,6.87,3.88,15.78,8,23,3.82,6.7,10.69,14.27,14,21,.33,3,.67,6,1,9,1.29,4.19,3.07,9.42,5,14,3.89,9.22,10.21,17.78,13,28,1.2,4.41-.35,12.12-1,15-2.11,9.31-1.1,38.41,1,47,6.65,27.15,16.93,59,10,89v19c-6,15.94-15.12,35.62-28,45-4.5,3.28-9.43,4.8-14,8-6.14,4.3-11.92,9.35-20,12-17.52,5.75-38.54,4.65-58,9-4,.9-10.66-1.45-17,0-14,3.21-32.94,1.78-47,5h-11c-61.91,15.69-113.7,26.61-158,60-6,4.56-11.38,11.88-16,18-4.21,5.59-10.81,10.29-15,16-10.79,14.68-19.63,29.76-30,45-19.21,28.22-49.79,54.5-79,73-19.35,12.25-48.13,32.81-79,26v-2c5.81-8,5.69-22,9-32,5.88-17.71,13.67-35.3,18-55,12.17-3.82,21.61-6,21-23,2-3.47,1.19-17.18-1-23-7.22-19.19-17.28-39.51-25-60-1.94-5.15-6.21-21.94-2-29,2.41-7.11,10-12.88,14-19l1,1c6.31,3.2,9.55,9.65,15,13,16,9.85,32.6,14.93,52,22,7.45,2.71,25.14,8.52,34,3,11.56-3.75,14.52-12.49,14-29-4.86-7.58-2.76-14-11-20-11.37-8.29-25.18-14.29-33-26-6.64-9.93-9.08-24.56-13-37,5.17-6.48,7.21-15.31,12-22,14.76-20.62,52.48-53.59,84-56l12,12c16.18,21.7,34.11,39.22,53,58,6.22,6.19,18.57,21.34,27,21l9,3c9.47,2.73,29.06,3.74,36-2,3.69-3,10.22-9.36,12-14,.33-3.67.67-7.33,1-11,10.07-43.48-27.86-57.52-43-80h2c4.59-3.4,44.16-7.34,53-8,11,13.72,33.62,16.43,51,24,15.33,6.67,48.78,31.6,71,20,2.19-1.14,9.83-6.84,11-9,2-3.61.58-8.06,3-11l9-6c5-8.09.54-14.35,0-24-8.09-5.16-12.34-15.4-20-21-13.31-9.72-29.44-14.15-44-23-6.26-3.8-13.53-10-20-13-6.78-3.18-36.43-9.14-39-14-2.69-4.27-.55-9.81-2-16-1.92-8.2-4.18-20.11-9-26-1-.69-4-1.29-5-2,1.75-3.64-2-12.8-2-20a71.76,71.76,0,0,0-2-16V594c-1.43-5.91-4.59-13.23-2-21,1.12-3.34,5-6.49,6-9,1.33-3.24-1.31-9.62,1-15,3.15-7.33,9-15.75,12-24,6.19-17,7.44-33.19,13-50,10.93-33,26.51-67.16,40-98,6.46-14.76,8.81-29.74,15-45a265.24,265.24,0,0,1,30-54c5.3-7.28,28.54-24.72,37-29C1820.88,244,1840.43,243.68,1849,238Z" fill="none" fill-rule="evenodd"/>
    </g>
    <g id="smallMidPartFL" style="isolation: isolate">
      <path id="frontLayer" d="M1251,1046c13.22,14.16,21.33,34.52,33,50,2.68,3.55,8.75,9.21,13,11,4.52,1.91,8.77,1.15,12,4h-1c-10,15.73-26,27-37,42-7.45,10.14-17.18,29.11-27,36a153.1,153.1,0,0,0-3-23c-1.29-6.14,1.12-13.33,2-18q-.49-7-1-14c1.28-6,1.87-16.5,2-23q-.49-17-1-34c-.75-3.39-3.25-9.19-2-14C1242.89,1055.69,1247.47,1051.3,1251,1046Z" fill="none" fill-rule="evenodd"/>
    </g>
  </g>
  <g id="LOGO">
    <g id="midpartLOGO" style="isolation: isolate">
      <path id="LOGO" d="M2231,1107c5.36,0,8.72,1,13,2,5.6,12,27.36,45.91,18,61-8.47,8.31-20.82,11.26-32,17-19.52,10-46.43,27.89-73,29-10.74-24.27-18-50.18-28-76h2c4.77-3.15,19.45-7,25-5,6.53-3.25,14.75-9,22-12l12-2c5.5-1.68,12.21-5,17-7C2214.6,1110.85,2224.69,1111.59,2231,1107Z" fill="none" fill-rule="evenodd"/>
    </g>
    <g id="frontpartLOGO" style="isolation: isolate">
      <path id="LOGO" d="M1324,1100c5.63,3.5,8.22,7.36,8,17-4.89,6.68-4.71,18-8,26-9.78,23.69-17,48.91-22,78-2.34,13.7,1,37.18,1,53,11,7.93,11.37,22.59,19,34,9.71,14.53,24,29.78,41,37,20.57,8.74,58.22,12.49,85,6h10c11.8-2.82,26-5.07,37-8l13-1c21.9-6.66,46.81-13.83,68-21,80.3-27.16,159.88-53.27,239-80,10.52-3.55,19.68-4.16,30-8s22-9.34,33-13l24-5c13-4.91,29.21-11.41,43-16l13-2c7.27-3.12,15.18-9.4,23-12,10.52-3.51,19.5-2.92,30-6,12.43-3.64,19.53-9.16,35-9l9,18c2.51,6.79,2.18,12.82,5,19,7.17,15.74,16.59,28.32,17,51-2.79,2-4.18,6.15-7,8l-21,7c-31.35,17.86-64.16,30.81-99,46-15.37,6.71-31.83,17-47,24l-10,2c-9.19,3.91-19,10.85-28,15-21,9.69-40.54,17.6-62,27-14.34,6.28-28.93,15.83-43,22-71.26,31.26-137.27,64.12-209,95-6.58,2.83-13.44,8.13-20,11-20.81,9.1-41.32,14.2-63,23-9.83,4-21.7,9.66-32,13-5.47,1.77-9.07.4-14,2-18.06,5.88-37.86,11-57,16-25.09,6.54-73.49,6.4-98,0-9.89-2.58-17-1.69-26-5-47.4-17.42-87-53.44-98-107-.8-3.92,1.85-46.43,4-52,.22-.57,2.71-3,3-4q1-13,2-26c4-13.14,8.84-26.91,14-40,1.68-4.25,6.31-9.07,8-13q1-8.51,2-17c2.75-8.27,9.41-13.43,13-20,4.46-8.18,2.59-16.35,9-23-.68-2.49-2.36-1.86-1-3,27.59-43.9,56.28-81.32,87-122l13-12c4.36-5.76,9.27-12.74,15-17C1315.86,1105.13,1321,1103.71,1324,1100Z" fill="none" fill-rule="evenodd"/>
    </g>
    <g id="endpartLOGO" style="isolation: isolate">
      <path id="LOGO" d="M2532,993c6.08-.08,9.48,1,14,2a22.14,22.14,0,0,0,5,6c-10.64,24.72-39.25,27.56-61,41-21.55,13.32-45.11,26.66-67,40-6.47,3.94-13.61,5-20,9-3.92,2.42-8,6.61-12,9-7.06,4.19-14.07,5.77-21,10-5.7,3.48-11.85,9-19,11-4.61,1.29-11.36.28-15,1-2.44-10-8.74-20-12-30-2.08-6.36-1.1-15-3-19,3.1-1.91,6-4.86,10-6,2.18-.62,6.55,1.2,7,1,2.52-1.11,5.11-5.67,8-7,15.74-7.28,33.64-12.66,49-19,6.35-2.62,12.64-2,19-5,5-2.37,5.58-9.32,11-11,6.69-3.92,19.6-2.58,29-6,18.37-6.67,39.78-13.54,58-21C2518.28,996.43,2526.5,996.73,2532,993Z" fill="none" fill-rule="evenodd"/>
    </g>
  </g>
</svg>
