<?xml version="1.0" encoding="utf-8"?>
<!-- Generator: Adobe Illustrator 25.4.1, SVG Export Plug-In . SVG Version: 6.00 Build 0)  -->
<svg version="1.1" id="Lag_1" focusable="false" xmlns="http://www.w3.org/2000/svg" xmlns:xlink="http://www.w3.org/1999/xlink"
	 x="0px" y="0px" viewBox="0 0 448 512" style="enable-background:new 0 0 448 512;" xml:space="preserve">
<path d="M1.2,428.3H32c0.7,0,1.2-0.5,1.2-1.2v-3c0-0.7-0.5-1.2-1.2-1.2H1.2c-0.7,0-1.2,0.5-1.2,1.2v3C0,427.8,0.5,428.3,1.2,428.3z
	 M1.2,440.2H32c0.7,0,1.2-0.5,1.2-1.2v-3c0-0.7-0.5-1.2-1.2-1.2H1.2c-0.7,0-1.2,0.5-1.2,1.2v3C0,439.6,0.5,440.2,1.2,440.2z
	 M1.2,452H32c0.7,0,1.2-0.5,1.2-1.2v-3c0-0.7-0.5-1.2-1.2-1.2H1.2c-0.7,0-1.2,0.5-1.2,1.2v3C0,451.5,0.5,452,1.2,452z"/>
</svg>
