<svg id="Lag_1" data-name="Lag 1" xmlns="http://www.w3.org/2000/svg" viewBox="0 0 50 50">
  <defs>
    <linearGradient id="grad3" x1="0%" y1="0%" x2="100%" y2="0%">
      <stop offset="0%" style="stop-color:rgb(0,52,222);stop-opacity:1" />
      <stop offset="100%" style="stop-color:rgb(255,0,0);stop-opacity:1" />
    </linearGradient>

    <linearGradient id="grad4" x1="0%" y1="0%" x2="100%" y2="0%">
      <stop offset="0%" style="stop-color:rgba(0,52,222,255);stop-opacity:1" />
      <stop offset="100%" style="stop-color:rgba(255,0,0,0);stop-opacity:1" />
    </linearGradient>


  </defs>
  <g id="Lag_2" data-name="Lag 2">
    <g id="menu">
      <circle class="hide" id="circle" cx="25" cy="25" r="25" fill="url(#grad4)" />
      <path id="bars" d="M12.15,18.43H39.93A1.05,1.05,0,0,0,41,17.38V14.69a1.07,1.07,0,0,0-1.07-1.07H12.15a1.07,1.07,0,0,0-1.07,1.07v2.67a1.05,1.05,0,0,0,1.05,1.07Zm0,10.69H39.93A1.07,1.07,0,0,0,41,28.05V25.38a1.07,1.07,0,0,0-1.07-1.07H12.15a1.07,1.07,0,0,0-1.07,1.07v2.67a1.07,1.07,0,0,0,1.07,1.07Zm0,10.68H39.93a1.05,1.05,0,0,0,1.07-1h0V36.06A1.05,1.05,0,0,0,39.94,35H12.15a1.05,1.05,0,0,0-1.07,1h0v2.68a1.05,1.05,0,0,0,1.06,1.06Z" fill="url(#grad1)" transform="translate(-1.5 -1.5)"/>
    </g>
  </g>
</svg>
