<svg xmlns="http://www.w3.org/2000/svg" viewBox="0 0 294.16 300.91">
  <g id="Lag_2" data-name="Lag 2">
    <g id="Lag_1-2" data-name="Lag 1">
      <g id="star_1">
        <polygon points="84.95 183.11 1.13 132.08 92.61 96.59 115.24 1.1 177.27 77.14 275.07 69.16 221.92 151.64 259.74 242.19 164.86 217.13 90.43 281.08 84.95 183.11" fill="#fff"/>
        <path d="M115.49,2.2l61.22,75.05.33.41.53,0,96.53-7.88-52.46,81.41-.28.44.2.49,37.33,89.37-93.65-24.73-.51-.14-.39.35L90.87,280l-5.41-96.7,0-.52-.45-.28L2.25,132.18l90.3-35L93,97l.12-.51L115.49,2.2M115,0,92.19,96.22,0,132,84.46,183.4,90,282.12l75-64.44,95.6,25.26-38.11-91.25L276,68.57l-98.55,8.05L115,0Z"/>
      </g>
      <g id="star_2">
        <polygon points="110.5 214.97 12.65 207.56 78.05 134.4 54.86 39.05 144.65 78.65 228.17 27.13 218.26 124.76 293.07 188.27 197.15 209.01 159.87 299.78 110.5 214.97" fill="#fff"/>
        <path d="M227.57,28.08l-9.78,96.36,0,.53.4.34L292,188l-94.66,20.48-.52.11-.2.48-36.8,89.59L111.07,215l-.27-.46-.52,0L13.7,207.14l64.55-72.21.35-.39-.12-.51L55.59,39.92,144.21,79l.48.21.45-.28,82.43-50.85m1.2-1.91L144.61,78.08,54.14,38.19,77.5,134.27,11.6,208l98.6,7.47L160,300.91l37.57-91.47,96.64-20.9-75.38-64,10-98.38Z"/>
      </g>
      <g id="star_3">
        <polygon points="128.01 226.08 33.5 252.5 70.01 161.42 15.67 79.71 113.58 86.28 174.5 9.35 198.51 104.5 290.5 138.67 207.42 190.9 203.35 288.94 128.01 226.08" fill="#fff"/>
        <path d="M174.27,10.45,198,104.37l.13.51.49.18,90.8,33.72-82,51.56-.44.27,0,.53-4,96.77-74.37-62.05-.4-.34-.51.15L34.34,251.75l36-89.9.19-.49-.29-.44L16.65,80.27l96.64,6.49.52,0,.33-.42,60.13-75.93m.47-2.21L113.35,85.76,14.7,79.14l54.75,82.34L32.66,253.26l95.23-26.63L203.81,290l4.1-98.8,83.71-52.63-92.69-34.43L174.74,8.24Z"/>
      </g>
    </g>
  </g>
</svg>
