<svg id="Lag_1" data-name="Lag 1" xmlns="http://www.w3.org/2000/svg" viewBox="0 0 353.09 346.47">
  <g id="Polygon_3" data-name="Polygon 3">
    <path d="M321,272.81,217.58,213.13,383.31,45.43Z" transform="translate(-127.33 -44.73)" fill="#fff"/>
    <path d="M382.91,46.14l-165,166.94L320.83,272.5,382.91,46.14m.81-1.41L321.08,273.12l-103.83-60Z" transform="translate(-127.33 -44.73)" fill="#717070"/>
  </g>
  <g id="Polygon_4" data-name="Polygon 4">
    <path d="M241.67,288.46,138.3,228.78,304,61.09Z" transform="translate(-127.33 -44.73)" fill="#fff"/>
    <path d="M303.63,61.79l-165,166.94,102.9,59.42L303.63,61.79m.81-1.41L241.8,288.77,138,228.82Z" transform="translate(-127.33 -44.73)" fill="#717070"/>
  </g>
  <g id="Polygon_1" data-name="Polygon 1">
    <path d="M336.36,272.91h-198l99-192.32Z" transform="translate(-127.33 -44.73)" fill="#fff"/>
    <path d="M237.33,81,138.64,272.71H336L237.33,81m0-.9,99.36,193H138Z" transform="translate(-127.33 -44.73)" fill="#717070"/>
  </g>
  <g id="Polygon_5" data-name="Polygon 5">
    <path d="M207.24,390.83,174.18,76.28,480,203.15Z" transform="translate(-127.33 -44.73)" fill="#fff"/>
    <path d="M479.57,203.2,174.42,76.6l33,313.87L479.57,203.2m.85-.09L207.07,391.2,173.94,76Z" transform="translate(-127.33 -44.73)" fill="#717070"/>
  </g>
  <g id="Polygon_6" data-name="Polygon 6">
    <path d="M246.25,289.13l84.94-121.2L415.6,317.46Z" transform="translate(-127.33 -44.73)" fill="#fff"/>
    <path d="M415.21,317.19l-84-148.87L246.6,289l168.61,28.21m.78.54-170.1-28.45,85.32-121.73Z" transform="translate(-127.33 -44.73)" fill="#717070"/>
  </g>
  <g id="Polygon_2" data-name="Polygon 2">
    <path d="M284.26,368.33,127.7,145l271.8-24Z" transform="translate(-127.33 -44.73)" fill="#fff"/>
    <path d="M399.17,121.25l-271.1,23.88L284.22,367.92l115-246.67m.67-.47-115.55,248-157-223.95Z" transform="translate(-127.33 -44.73)" fill="#717070"/>
  </g>
</svg>
