<svg id="Layer_1" data-name="Layer 1" xmlns="http://www.w3.org/2000/svg" width="1920" height="1080" viewBox="0 0 1920 1080">
  <defs>
    <style>
      .cls-1 {
        fill: #8e9291;
      }

      .cls-2 {
        fill: #178b00;
      }

      .cls-3 {
        fill: #995110;
      }

      .cls-4 {
        fill: #00c5e7;
      }

      .cls-5 {
        fill: #d00500;
      }

      .cls-6 {
        fill: #fff;
      }

      .cls-7 {
        fill: #e60c00;
      }

      .cls-8 {
        fill: #adebff;
      }

      .cls-9 {
        fill: #82b0bf;
      }

      .cls-10 {
        opacity: 0.1;
      }

      .cls-11 {
        fill: #9a6800;
      }

      .cls-12 {
        fill: #c5c2c2;
      }

      .cls-13 {
        fill: #ee2d00;
      }
    </style>
  </defs>
  <rect class="cls-1" y="443" width="1920" height="637"/>
  <rect class="cls-2" x="-0.29" y="255.14" width="1920" height="188"/>
  <rect class="cls-3" x="-0.29" y="83.14" width="1920" height="173"/>
  <rect class="cls-4" x="-0.29" y="0.14" width="1920" height="82"/>
  <polygon class="cls-3" points="-0.09 83.13 19.4 49.34 38.91 83.14 -0.09 83.13"/>
  <polygon class="cls-3" points="29.91 83.13 49.4 49.34 68.92 83.14 29.91 83.13"/>
  <polygon class="cls-3" points="61.39 83.13 80.88 49.34 100.39 83.14 61.39 83.13"/>
  <polygon class="cls-3" points="91.39 83.13 110.88 49.34 130.39 83.14 91.39 83.13"/>
  <polygon class="cls-3" points="123.65 83.13 143.14 49.34 162.65 83.14 123.65 83.13"/>
  <polygon class="cls-3" points="153.65 83.13 173.14 49.34 192.65 83.14 153.65 83.13"/>
  <polygon class="cls-3" points="185.13 83.13 204.61 49.34 224.13 83.14 185.13 83.13"/>
  <polygon class="cls-3" points="215.13 83.13 234.61 49.34 254.13 83.14 215.13 83.13"/>
  <polygon class="cls-3" points="247.49 83.13 266.97 49.34 286.49 83.14 247.49 83.13"/>
  <polygon class="cls-3" points="277.49 83.13 296.97 49.34 316.49 83.14 277.49 83.13"/>
  <polygon class="cls-3" points="308.96 83.13 328.45 49.34 347.96 83.14 308.96 83.13"/>
  <polygon class="cls-3" points="338.96 83.13 358.45 49.34 377.96 83.14 338.96 83.13"/>
  <polygon class="cls-3" points="371.22 83.13 390.71 49.34 410.23 83.14 371.22 83.13"/>
  <polygon class="cls-3" points="401.22 83.13 420.71 49.34 440.23 83.14 401.22 83.13"/>
  <polygon class="cls-3" points="432.7 83.13 452.19 49.34 471.7 83.14 432.7 83.13"/>
  <polygon class="cls-3" points="462.7 83.13 482.19 49.34 501.7 83.14 462.7 83.13"/>
  <polygon class="cls-3" points="492.45 83.13 511.93 49.34 531.45 83.14 492.45 83.13"/>
  <polygon class="cls-3" points="522.45 83.13 541.93 49.34 561.45 83.14 522.45 83.13"/>
  <polygon class="cls-3" points="553.92 83.13 573.41 49.34 592.93 83.14 553.92 83.13"/>
  <polygon class="cls-3" points="583.92 83.13 603.41 49.34 622.93 83.14 583.92 83.13"/>
  <polygon class="cls-3" points="616.18 83.13 635.67 49.34 655.19 83.14 616.18 83.13"/>
  <polygon class="cls-3" points="646.18 83.13 665.67 49.34 685.19 83.14 646.18 83.13"/>
  <polygon class="cls-3" points="677.66 83.13 697.15 49.34 716.66 83.14 677.66 83.13"/>
  <polygon class="cls-3" points="707.66 83.13 727.15 49.34 746.66 83.14 707.66 83.13"/>
  <polygon class="cls-3" points="740.02 83.13 759.51 49.34 779.02 83.14 740.02 83.13"/>
  <polygon class="cls-3" points="770.02 83.13 789.51 49.34 809.02 83.14 770.02 83.13"/>
  <polygon class="cls-3" points="801.5 83.13 820.98 49.34 840.5 83.14 801.5 83.13"/>
  <polygon class="cls-3" points="831.5 83.13 850.98 49.34 870.5 83.14 831.5 83.13"/>
  <polygon class="cls-3" points="863.76 83.13 883.25 49.34 902.76 83.14 863.76 83.13"/>
  <polygon class="cls-3" points="893.76 83.13 913.25 49.34 932.76 83.14 893.76 83.13"/>
  <polygon class="cls-3" points="925.23 83.13 944.72 49.34 964.24 83.14 925.23 83.13"/>
  <polygon class="cls-3" points="955.23 83.13 974.72 49.34 994.24 83.14 955.23 83.13"/>
  <polygon class="cls-3" points="986.59 83.13 1006.08 49.34 1025.6 83.14 986.59 83.13"/>
  <polygon class="cls-3" points="1016.59 83.13 1036.08 49.34 1055.6 83.14 1016.59 83.13"/>
  <polygon class="cls-3" points="1048.07 83.13 1067.56 49.34 1087.07 83.14 1048.07 83.13"/>
  <polygon class="cls-3" points="1078.07 83.13 1097.56 49.34 1117.07 83.14 1078.07 83.13"/>
  <polygon class="cls-3" points="1110.33 83.13 1129.82 49.34 1149.34 83.14 1110.33 83.13"/>
  <polygon class="cls-3" points="1140.33 83.13 1159.82 49.34 1179.34 83.14 1140.33 83.13"/>
  <polygon class="cls-3" points="1171.81 83.13 1191.29 49.34 1210.81 83.14 1171.81 83.13"/>
  <polygon class="cls-3" points="1201.81 83.13 1221.29 49.34 1240.81 83.14 1201.81 83.13"/>
  <polygon class="cls-3" points="1234.17 83.13 1253.65 49.34 1273.17 83.14 1234.17 83.13"/>
  <polygon class="cls-3" points="1264.17 83.13 1283.65 49.34 1303.17 83.14 1264.17 83.13"/>
  <polygon class="cls-3" points="1295.64 83.13 1315.13 49.34 1334.65 83.14 1295.64 83.13"/>
  <polygon class="cls-3" points="1325.64 83.13 1345.13 49.34 1364.65 83.14 1325.64 83.13"/>
  <polygon class="cls-3" points="1357.9 83.13 1377.39 49.34 1396.91 83.14 1357.9 83.13"/>
  <polygon class="cls-3" points="1387.9 83.13 1407.39 49.34 1426.91 83.14 1387.9 83.13"/>
  <polygon class="cls-3" points="1419.38 83.13 1438.87 49.34 1458.38 83.14 1419.38 83.13"/>
  <polygon class="cls-3" points="1449.38 83.13 1468.87 49.34 1488.38 83.14 1449.38 83.13"/>
  <polygon class="cls-3" points="1479.13 83.13 1498.62 49.34 1518.13 83.14 1479.13 83.13"/>
  <polygon class="cls-3" points="1509.13 83.13 1528.62 49.34 1548.13 83.14 1509.13 83.13"/>
  <polygon class="cls-3" points="1540.6 83.13 1560.09 49.34 1579.61 83.14 1540.6 83.13"/>
  <polygon class="cls-3" points="1570.6 83.13 1590.09 49.34 1609.61 83.14 1570.6 83.13"/>
  <polygon class="cls-3" points="1602.87 83.13 1622.35 49.34 1641.87 83.14 1602.87 83.13"/>
  <polygon class="cls-3" points="1632.87 83.13 1652.35 49.34 1671.87 83.14 1632.87 83.13"/>
  <polygon class="cls-3" points="1664.34 83.13 1683.83 49.34 1703.35 83.14 1664.34 83.13"/>
  <polygon class="cls-3" points="1694.34 83.13 1713.83 49.34 1733.35 83.14 1694.34 83.13"/>
  <polygon class="cls-3" points="1726.7 83.13 1746.19 49.34 1765.71 83.14 1726.7 83.13"/>
  <polygon class="cls-3" points="1756.7 83.13 1776.19 49.34 1795.71 83.14 1756.7 83.13"/>
  <polygon class="cls-3" points="1788.18 83.13 1807.66 49.34 1827.18 83.14 1788.18 83.13"/>
  <polygon class="cls-3" points="1818.18 83.13 1837.66 49.34 1857.18 83.14 1818.18 83.13"/>
  <polygon class="cls-3" points="1850.44 83.13 1869.93 49.34 1889.44 83.14 1850.44 83.13"/>
  <polygon class="cls-3" points="1880.44 83.13 1899.93 49.34 1919.44 83.14 1880.44 83.13"/>
  <rect class="cls-5" x="-0.29" y="0.14" width="173" height="1080"/>
  <rect x="85.71" y="443.14" width="57" height="637"/>
  <rect class="cls-6" x="160.71" y="150.14" width="23" height="199"/>
  <rect class="cls-7" x="179.71" y="160.14" width="6" height="126"/>
  <rect class="cls-1" x="142.71" y="444.14" width="37" height="636"/>
  <path class="cls-8" d="M114.71,1048.14l14-18q-.5-290.49-1-581-6.49,12-13,24Z"/>
  <path class="cls-9" d="M99.71,1063.14l14-15v-575q-7,12-14,24Z"/>
  <polygon class="cls-1" points="142.71 1080.14 99.71 1080.14 142.71 1033.14 142.71 1080.14"/>
  <polygon class="cls-10" points="142.71 1033.14 296.97 49.34 281.98 75.33 266.97 49.34 250.8 77.38 234.61 49.34 219.62 75.33 204.61 49.34 188.88 76.61 173.14 49.34 172.21 150.14 183.71 150.14 183.71 160.14 185.71 160.14 185.71 286.14 183.71 286.14 183.71 349.14 172.71 349.14 172.21 443.14 142.71 444.14 142.71 1033.14"/>
  <rect class="cls-11" x="472" y="324" width="11" height="177"/>
  <path class="cls-12" d="M575.15,279c-.4,0-.79.17-.86.32s.26.12.74,0,.57-.3.12-.27Z"/>
  <rect class="cls-13" x="418" y="235" width="122" height="122" rx="13.49"/>
  <rect class="cls-6" x="500" y="308" width="2" height="2"/>
  <path d="M451.93,309.36h42.63l-.95,4.93h-39a3.65,3.65,0,0,0-3.4,4.52l.8,3.75a8.68,8.68,0,0,0-4.59,7.77,8.15,8.15,0,1,0,16.28.24,8.86,8.86,0,0,0-2.44-6.41h30.49a8.89,8.89,0,0,0-2.45,6.17,8.15,8.15,0,1,0,16.28.47,8.76,8.76,0,0,0-4.08-8l10.21-53h10.17a3.61,3.61,0,0,0,3.49-3.7V263.7a3.61,3.61,0,0,0-3.49-3.7H506.93a3.55,3.55,0,0,0-3.42,3l-1.34,6.91H445.05a3.65,3.65,0,0,0-3.4,4.52l6.87,32.08A3.55,3.55,0,0,0,451.93,309.36Z"/>
  <path class="cls-6" d="M475.16,302.68v-7.25h10.1a2,2,0,0,0,2-2v-4a2,2,0,0,0-2-2h-10.1v-7.24a2,2,0,0,0-3.45-1.43L460.42,290a2,2,0,0,0,0,2.86l11.29,11.29a2,2,0,0,0,3.45-1.43Z"/>
</svg>
