<svg id="Layer_1" data-name="Layer 1" xmlns="http://www.w3.org/2000/svg" width="1920" height="1080" viewBox="0 0 1920 1080">
  <defs>
    <style>
      .cls-1 {
        fill: #8e9291;
      }

      .cls-2 {
        fill: #178b00;
      }

      .cls-3 {
        fill: #995110;
      }

      .cls-4 {
        fill: #00c5e7;
      }

      .cls-5 {
        fill: #d00500;
      }

      .cls-31, .cls-6 {
        fill: #fff;
      }

      .cls-7 {
        fill: #e60c00;
      }

      .cls-8 {
        fill: #adebff;
      }

      .cls-9 {
        fill: #82b0bf;
      }

      .cls-10 {
        opacity: 0.1;
      }

      .cls-11 {
        fill: #ecbcb4;
      }

      .cls-12, .cls-19, .cls-29, .cls-30, .cls-31 {
        stroke: #000;
        stroke-miterlimit: 10;
      }

      .cls-13 {
        fill: #070073;
      }

      .cls-14 {
        fill: #080045;
      }

      .cls-15 {
        fill: #32ff17;
      }

      .cls-16 {
        fill: #8b2c00;
      }

      .cls-17 {
        fill: #ff0d21;
      }

      .cls-18 {
        fill: #2effe0;
      }

      .cls-19 {
        fill: none;
      }

      .cls-20 {
        fill: #07d000;
      }

      .cls-21 {
        fill: #72ff2e;
      }

      .cls-22 {
        fill: #0a00a2;
      }

      .cls-23 {
        fill: #faf0be;
      }

      .cls-24 {
        fill: #202020;
      }

      .cls-25 {
        fill: #9a6800;
      }

      .cls-26 {
        fill: #ee2d00;
      }

      .cls-27 {
        opacity: 0.5;
      }

      .cls-28, .cls-29 {
        fill: #4657ff;
      }

      .cls-29, .cls-30, .cls-31 {
        stroke-width: 0.2px;
      }
    </style>
  </defs>
  <rect class="cls-1" y="443" width="1920" height="637"/>
  <rect class="cls-2" y="255" width="1920" height="188"/>
  <rect class="cls-3" y="83" width="1920" height="173"/>
  <rect class="cls-4" width="1920" height="82"/>
  <polygon class="cls-3" points="0.2 82.98 19.68 49.2 39.2 83 0.2 82.98"/>
  <polygon class="cls-3" points="30.2 82.98 49.69 49.2 69.2 83 30.2 82.98"/>
  <polygon class="cls-3" points="61.67 82.98 81.16 49.2 100.68 83 61.67 82.98"/>
  <polygon class="cls-3" points="91.67 82.98 111.16 49.2 130.68 83 91.67 82.98"/>
  <polygon class="cls-3" points="123.94 82.98 143.42 49.2 162.94 83 123.94 82.98"/>
  <polygon class="cls-3" points="153.94 82.98 173.42 49.2 192.94 83 153.94 82.98"/>
  <polygon class="cls-3" points="185.41 82.98 204.9 49.2 224.41 83 185.41 82.98"/>
  <polygon class="cls-3" points="215.41 82.98 234.9 49.2 254.41 83 215.41 82.98"/>
  <polygon class="cls-3" points="247.77 82.98 267.26 49.2 286.77 83 247.77 82.98"/>
  <polygon class="cls-3" points="277.77 82.98 297.26 49.2 316.77 83 277.77 82.98"/>
  <polygon class="cls-3" points="309.25 82.98 328.73 49.2 348.25 83 309.25 82.98"/>
  <polygon class="cls-3" points="339.25 82.98 358.73 49.2 378.25 83 339.25 82.98"/>
  <polygon class="cls-3" points="371.51 82.98 391 49.2 410.51 83 371.51 82.98"/>
  <polygon class="cls-3" points="401.51 82.98 421 49.2 440.51 83 401.51 82.98"/>
  <polygon class="cls-3" points="432.98 82.98 452.47 49.2 471.99 83 432.98 82.98"/>
  <polygon class="cls-3" points="462.98 82.98 482.47 49.2 501.99 83 462.98 82.98"/>
  <polygon class="cls-3" points="492.73 82.98 512.22 49.2 531.74 83 492.73 82.98"/>
  <polygon class="cls-3" points="522.73 82.98 542.22 49.2 561.74 83 522.73 82.98"/>
  <polygon class="cls-3" points="554.21 82.98 573.7 49.2 593.21 83 554.21 82.98"/>
  <polygon class="cls-3" points="584.21 82.98 603.7 49.2 623.21 83 584.21 82.98"/>
  <polygon class="cls-3" points="616.47 82.98 635.96 49.2 655.47 83 616.47 82.98"/>
  <polygon class="cls-3" points="646.47 82.98 665.96 49.2 685.47 83 646.47 82.98"/>
  <polygon class="cls-3" points="677.95 82.98 697.43 49.2 716.95 83 677.95 82.98"/>
  <polygon class="cls-3" points="707.95 82.98 727.43 49.2 746.95 83 707.95 82.98"/>
  <polygon class="cls-3" points="740.31 82.98 759.79 49.2 779.31 83 740.31 82.98"/>
  <polygon class="cls-3" points="770.31 82.98 789.79 49.2 809.31 83 770.31 82.98"/>
  <polygon class="cls-3" points="801.78 82.98 821.27 49.2 840.79 83 801.78 82.98"/>
  <polygon class="cls-3" points="831.78 82.98 851.27 49.2 870.79 83 831.78 82.98"/>
  <polygon class="cls-3" points="864.04 82.98 883.53 49.2 903.05 83 864.04 82.98"/>
  <polygon class="cls-3" points="894.04 82.98 913.53 49.2 933.05 83 894.04 82.98"/>
  <polygon class="cls-3" points="925.52 82.98 945.01 49.2 964.52 83 925.52 82.98"/>
  <polygon class="cls-3" points="955.52 82.98 975.01 49.2 994.52 83 955.52 82.98"/>
  <polygon class="cls-3" points="986.88 82.98 1006.37 49.2 1025.88 83 986.88 82.98"/>
  <polygon class="cls-3" points="1016.88 82.98 1036.37 49.2 1055.88 83 1016.88 82.98"/>
  <polygon class="cls-3" points="1048.35 82.98 1067.84 49.2 1087.36 83 1048.35 82.98"/>
  <polygon class="cls-3" points="1078.35 82.98 1097.84 49.2 1117.36 83 1078.35 82.98"/>
  <polygon class="cls-3" points="1110.62 82.98 1130.1 49.2 1149.62 83 1110.62 82.98"/>
  <polygon class="cls-3" points="1140.62 82.98 1160.1 49.2 1179.62 83 1140.62 82.98"/>
  <polygon class="cls-3" points="1172.09 82.98 1191.58 49.2 1211.1 83 1172.09 82.98"/>
  <polygon class="cls-3" points="1202.09 82.98 1221.58 49.2 1241.1 83 1202.09 82.98"/>
  <polygon class="cls-3" points="1234.45 82.98 1253.94 49.2 1273.46 83 1234.45 82.98"/>
  <polygon class="cls-3" points="1264.45 82.98 1283.94 49.2 1303.46 83 1264.45 82.98"/>
  <polygon class="cls-3" points="1295.93 82.98 1315.41 49.2 1334.93 83 1295.93 82.98"/>
  <polygon class="cls-3" points="1325.93 82.98 1345.41 49.2 1364.93 83 1325.93 82.98"/>
  <polygon class="cls-3" points="1358.19 82.98 1377.68 49.2 1397.19 83 1358.19 82.98"/>
  <polygon class="cls-3" points="1388.19 82.98 1407.68 49.2 1427.19 83 1388.19 82.98"/>
  <polygon class="cls-3" points="1419.66 82.98 1439.15 49.2 1458.67 83 1419.66 82.98"/>
  <polygon class="cls-3" points="1449.66 82.98 1469.15 49.2 1488.67 83 1449.66 82.98"/>
  <polygon class="cls-3" points="1479.41 82.98 1498.9 49.2 1518.42 83 1479.41 82.98"/>
  <polygon class="cls-3" points="1509.41 82.98 1528.9 49.2 1548.42 83 1509.41 82.98"/>
  <polygon class="cls-3" points="1540.89 82.98 1560.38 49.2 1579.89 83 1540.89 82.98"/>
  <polygon class="cls-3" points="1570.89 82.98 1590.38 49.2 1609.89 83 1570.89 82.98"/>
  <polygon class="cls-3" points="1603.15 82.98 1622.64 49.2 1642.16 83 1603.15 82.98"/>
  <polygon class="cls-3" points="1633.15 82.98 1652.64 49.2 1672.16 83 1633.15 82.98"/>
  <polygon class="cls-3" points="1664.63 82.98 1684.12 49.2 1703.63 83 1664.63 82.98"/>
  <polygon class="cls-3" points="1694.63 82.98 1714.12 49.2 1733.63 83 1694.63 82.98"/>
  <polygon class="cls-3" points="1726.99 82.98 1746.47 49.2 1765.99 83 1726.99 82.98"/>
  <polygon class="cls-3" points="1756.99 82.98 1776.47 49.2 1795.99 83 1756.99 82.98"/>
  <polygon class="cls-3" points="1788.46 82.98 1807.95 49.2 1827.47 83 1788.46 82.98"/>
  <polygon class="cls-3" points="1818.46 82.98 1837.95 49.2 1857.47 83 1818.46 82.98"/>
  <polygon class="cls-3" points="1850.72 82.98 1870.21 49.2 1889.73 83 1850.72 82.98"/>
  <polygon class="cls-3" points="1880.72 82.98 1900.21 49.2 1919.73 83 1880.72 82.98"/>
  <rect class="cls-5" width="173" height="1080"/>
  <rect x="86" y="443" width="57" height="637"/>
  <rect class="cls-6" x="161" y="150" width="23" height="199"/>
  <rect class="cls-7" x="180" y="160" width="6" height="126"/>
  <rect class="cls-1" x="143" y="444" width="37" height="636"/>
  <path class="cls-8" d="M115,1048l14-18q-.5-290.5-1-581l-13,24Z"/>
  <path class="cls-9" d="M100,1063l14-15V473l-14,24Z"/>
  <polygon class="cls-1" points="143 1080 100 1080 143 1033 143 1080"/>
  <polygon class="cls-10" points="143 1033 297.26 49.2 282.26 75.19 267.26 49.2 251.09 77.23 234.9 49.2 219.91 75.19 204.9 49.2 189.17 76.47 173.42 49.2 172.5 150 184 150 184 160 186 160 186 286 184 286 184 349 173 349 172.5 443 143 444 143 1033"/>
  <g>
    <circle class="cls-11" cx="1622.17" cy="390.76" r="68.44"/>
    <g>
      <path class="cls-11" d="M1647.88,411.49a32.22,32.22,0,0,1-3.39-.18l1.65-13.32,1.61-13.33a27.58,27.58,0,0,1,13.81,5.72c3.59,3,5.34,6.58,4.91,10.07-.77,6.4-8.59,11-18.59,11Z"/>
      <path d="M1648.19,385.23c10.54,1.62,18.61,8.42,17.79,15.16-.74,6-8.52,10.6-18.1,10.6-.94,0-1.88,0-2.83-.13l1.58-12.81,1.56-12.82m-.87-1.13-1.68,13.83-1.71,13.82h0a32.85,32.85,0,0,0,3.92.24c10,0,18.27-4.75,19.09-11.48.92-7.58-8-15-19.65-16.41Z"/>
    </g>
    <g>
      <path class="cls-11" d="M1651,407.77l.69-8.61.6-8.62a8.65,8.65,0,0,1-1.1,17.23Z"/>
      <path d="M1652.77,391.12a8.15,8.15,0,0,1-1.21,16.14l.65-8.07.56-8.07m-.92-1.13-.64,9.13-.73,9.12h.09l.64,0a9.15,9.15,0,0,0,.64-18.28Z"/>
    </g>
    <path d="M1546.77,329.15c27.08-.44,53.9-.06,81-.06l33.82-.23c-.15-16.28-15.37-29.61-33.82-29.61-18.3,0-33.4,13.1-33.82,29.16"/>
    <circle class="cls-12" cx="1628.13" cy="296.46" r="2.39"/>
    <rect class="cls-13" x="1554.13" y="459.6" width="136.87" height="165.52" rx="39.39"/>
    <rect class="cls-14" x="1599.49" y="459.6" width="38.99" height="165.52" rx="16.74"/>
    <rect class="cls-15" x="1593.92" y="625.91" width="50.13" height="187.01" rx="25.07"/>
    <ellipse class="cls-16" cx="1610.63" cy="816.1" rx="34.22" ry="3.18"/>
    <path class="cls-12" d="M1583.29,412.8l-.33,32.3c-9.7-2.73-18.49-12.56-22.45-25.12a46.32,46.32,0,0,1-1.21-4.63Z"/>
    <ellipse class="cls-6" cx="1594.72" cy="371.5" rx="11.54" ry="14.72"/>
    <circle cx="1590.35" cy="375.08" r="3.98"/>
  </g>
  <g>
    <circle class="cls-11" cx="1440.89" cy="345.42" r="62.74"/>
    <g>
      <path class="cls-11" d="M1464.47,364.38a28.67,28.67,0,0,1-3.06-.17l1.5-12.17,1.48-12.17A25.1,25.1,0,0,1,1477,345.1c3.28,2.74,4.88,6,4.49,9.2-.71,5.84-7.86,10.08-17,10.08Z"/>
      <path d="M1464.82,340.44a24.48,24.48,0,0,1,11.84,5c3.15,2.63,4.68,5.74,4.32,8.76-.67,5.49-7.77,9.64-16.51,9.64-.83,0-1.67,0-2.5-.11l1.44-11.67,1.41-11.66m-.87-1.13L1462.41,352l-1.56,12.67h0a31.29,31.29,0,0,0,3.59.22c9.18,0,16.75-4.36,17.5-10.52.84-7-7.29-13.75-18-15.05Z"/>
    </g>
    <g>
      <path class="cls-11" d="M1467.39,361l.63-7.85.55-7.86a7.93,7.93,0,0,1,6.82,8.37,7.92,7.92,0,0,1-7.87,7.34Z"/>
      <path d="M1469,345.84a7.41,7.41,0,0,1,4.06,2.4,7.32,7.32,0,0,1,1.8,5.35,7.42,7.42,0,0,1-7,6.87l.59-7.31.51-7.31m-.92-1.13-.59,8.37-.67,8.36h.09l.58,0a8.39,8.39,0,0,0,.59-16.76Z"/>
    </g>
    <path class="cls-17" d="M1371.77,288.93c24.83-.4,49.42-.05,74.23-.05l31-.21c-.13-14.93-14.09-27.15-31-27.15s-30.62,12-31,26.74"/>
    <circle class="cls-12" cx="1446.36" cy="258.96" r="2.19"/>
    <rect class="cls-13" x="1378.52" y="408.52" width="125.48" height="151.75" rx="39.39"/>
    <rect class="cls-14" x="1420.1" y="408.52" width="35.75" height="151.75" rx="16.74"/>
    <rect class="cls-15" x="1414.99" y="561" width="45.96" height="171.45" rx="22.98"/>
    <ellipse class="cls-16" cx="1430.31" cy="735.37" rx="31.37" ry="2.92"/>
    <path class="cls-12" d="M1405.25,365.62l-.3,29.61c-8.9-2.5-17-11.51-20.59-23a42.09,42.09,0,0,1-1.1-4.25Z"/>
    <ellipse class="cls-6" cx="1419.97" cy="335.23" rx="10.58" ry="13.5"/>
    <circle cx="1415.95" cy="338.52" r="3.65"/>
  </g>
  <g>
    <circle class="cls-11" cx="1531.04" cy="625.75" r="69.56"/>
    <path class="cls-18" d="M1470.34,609.49l-.24.09c-20.83,8.88-30.83,32.23-22.33,52.16s32.25,28.89,53.08,20l.24-.11Z"/>
    <ellipse class="cls-6" cx="1512.84" cy="601.89" rx="11.73" ry="14.96"/>
    <circle cx="1508.39" cy="605.53" r="4.04"/>
    <g>
      <path class="cls-11" d="M1557.17,646.82a33.36,33.36,0,0,1-3.45-.18l1.67-13.55,1.65-13.55a27.92,27.92,0,0,1,14,5.81c3.66,3.06,5.43,6.69,5,10.25-.79,6.5-8.74,11.22-18.91,11.22Z"/>
      <path d="M1557.47,620.11c10.74,1.64,19,8.56,18.11,15.43-.74,6.15-8.66,10.78-18.41,10.78-1,0-1.91,0-2.89-.13l1.61-13,1.58-13m-.87-1.13-1.7,14-1.74,14.05h0a33.84,33.84,0,0,0,4,.24c10.18,0,18.58-4.83,19.41-11.66.93-7.71-8.08-15.24-20-16.68Z"/>
    </g>
    <g>
      <path class="cls-11" d="M1560.35,643l.71-8.76.61-8.77a8.85,8.85,0,0,1,7.67,9.34,8.83,8.83,0,0,1-8.78,8.19Z"/>
      <path d="M1562.13,626.09a8.3,8.3,0,0,1-1.24,16.45l.67-8.23.57-8.22m-.92-1.13-.65,9.28-.75,9.27h.1l.65,0a9.3,9.3,0,0,0,.65-18.58Z"/>
    </g>
    <path d="M1454.41,563.12c27.52-.44,54.79,0,82.29,0l34.37-.24c-.14-16.55-15.61-30.09-34.37-30.09-18.6,0-33.94,13.31-34.36,29.64"/>
    <circle class="cls-12" cx="1537.1" cy="529.91" r="2.43"/>
    <path class="cls-19" d="M1554.68,647.33A147.86,147.86,0,0,1,1541,664.45c-5.29,5.71-11.24,11.14-18.57,13.78-6.93,2.5-14.51,2.3-21.88,2.06"/>
    <rect class="cls-20" x="1461.89" y="695.71" width="139.11" height="168.23" rx="39.39"/>
    <rect class="cls-21" x="1507.99" y="695.71" width="39.63" height="168.23" rx="16.74"/>
    <rect class="cls-22" x="1502.33" y="864.75" width="50.95" height="190.07" rx="25.48"/>
    <ellipse class="cls-16" cx="1519.31" cy="1058.05" rx="34.78" ry="3.24"/>
    <path class="cls-19" d="M1469.53,610.3c31.18,22.32,86.27,9.49,86.27,9.49"/>
  </g>
  <g>
    <circle class="cls-11" cx="1796.43" cy="556.41" r="54.84"/>
    <ellipse class="cls-6" cx="1782.08" cy="537.6" rx="9.25" ry="11.8"/>
    <circle cx="1778.57" cy="540.47" r="3.19"/>
    <g>
      <path class="cls-11" d="M1817,572.92a25.31,25.31,0,0,1-2.6-.14l1.3-10.57,1.29-10.58a21.88,21.88,0,0,1,10.91,4.55c2.85,2.38,4.24,5.22,3.9,8-.6,5-7,8.76-14.8,8.76Z"/>
      <path d="M1817.45,552.2c8.25,1.34,14.53,6.65,13.89,11.9-.58,4.74-6.73,8.32-14.31,8.32q-1,0-2-.09l1.24-10.06,1.22-10.07m-.87-1.13-1.34,11.08-1.37,11.07h0a26,26,0,0,0,3.14.19c8,0,14.65-3.81,15.3-9.2.74-6.07-6.37-12-15.75-13.15Z"/>
    </g>
    <g>
      <path class="cls-11" d="M1819.65,569.94l.55-6.79.48-6.81a6.84,6.84,0,0,1-1,13.6Z"/>
      <path d="M1821.14,556.94a6.38,6.38,0,0,1,4.88,6.61,6.36,6.36,0,0,1-5.82,5.87l.5-6.24.44-6.24m-.93-1.15-.51,7.32-.59,7.31h.08l.51,0a7.33,7.33,0,0,0,.51-14.65Z"/>
    </g>
    <path class="cls-20" d="M1767,744.21h59.44a25.12,25.12,0,0,0,25.12-25.12v-82.4a25.12,25.12,0,0,0-25.12-25.12H1767a40.88,40.88,0,0,0-17.77,7.36c-13.26,9.77-15.91,24.6-16.44,28.08.22,1.62.61,4.08,1.28,7,3.33,14.65,9.05,21,12.11,30,2,5.81,3.47,14.53.64,26.79-4.61,8.8-3.59,19.21,2.41,26.07C1755.89,744.41,1765.61,744.25,1767,744.21Z"/>
    <rect class="cls-21" x="1778.25" y="611.57" width="31.25" height="132.64" rx="15.62"/>
    <rect class="cls-22" x="1773.79" y="744.85" width="40.17" height="149.86" rx="20.09"/>
    <ellipse class="cls-16" cx="1787.18" cy="897.25" rx="27.42" ry="2.55"/>
    <path class="cls-23" d="M1751.77,524.57l20.64-8.29,3,9.52,13-9.52a125.38,125.38,0,0,0,51,87,41.34,41.34,0,0,0,43.69-16.8,178.21,178.21,0,0,0-25.83-91.87l-13.81-18.81a157,157,0,0,0-91.59,11.82l-23.38,9.67c-.66.58-8.58,7.84-7.05,18.37a20.52,20.52,0,0,0,7.05,12.43c.36.47,4.57,5.79,11.45,5.42A13.7,13.7,0,0,0,1751.77,524.57Z"/>
    <g>
      <path class="cls-24" d="M1823.73,572.21c.07-.05.17-.22.07-.25l-.24.23Z"/>
      <path class="cls-24" d="M1823.56,571.31a1,1,0,0,0-.57.51c.28-.19.22-.07.54-.3.1,0,.07.18,0,.27s.08.15.24,0c0-.29-.08-.39-.33-.32C1823.44,571.41,1823.52,571.36,1823.56,571.31Z"/>
      <path class="cls-24" d="M1816.94,564.79v.08A.22.22,0,0,0,1816.94,564.79Z"/>
      <path class="cls-24" d="M1813.4,560.3a.09.09,0,0,0,.1,0S1813.42,560.27,1813.4,560.3Z"/>
      <path class="cls-24" d="M1813.12,559.3v.06S1813.15,559.3,1813.12,559.3Z"/>
      <path class="cls-24" d="M1816.94,564.79l0-.18C1816.82,564.68,1816.9,564.72,1816.94,564.79Z"/>
      <path class="cls-24" d="M1822.06,571.17a.19.19,0,0,0,.12,0l-.09,0Z"/>
      <path class="cls-24" d="M1818.89,566.41l0,0,.12-.07Z"/>
      <path class="cls-24" d="M1820.34,567.67s-.22.16-.31.24c.09-.07.15-.09.2-.08A1.42,1.42,0,0,0,1820.34,567.67Z"/>
      <path class="cls-24" d="M1822.4,570h0Z"/>
      <path class="cls-24" d="M1817.94,565.4l.06-.08Z"/>
      <path class="cls-24" d="M1803.19,514.92l0,0S1803.2,514.91,1803.19,514.92Z"/>
      <polygon class="cls-24" points="1805.18 513.15 1805.19 513.19 1805.33 513.25 1805.18 513.15"/>
      <path class="cls-24" d="M1812.44,557.63h0C1812.5,557.66,1812.48,557.64,1812.44,557.63Z"/>
      <path class="cls-24" d="M1805.59,543c-.19.25-.4-.2-.59.14C1805.1,543.11,1805.49,543.29,1805.59,543Z"/>
      <path class="cls-24" d="M1822,571.11l-.07-.05S1822,571.11,1822,571.11Z"/>
      <path class="cls-24" d="M1805,543.16h0l0,0Z"/>
      <path class="cls-24" d="M1810.2,554.24a.32.32,0,0,0-.08.09A.24.24,0,0,0,1810.2,554.24Z"/>
      <path class="cls-24" d="M1811.39,557.07V557A.22.22,0,0,0,1811.39,557.07Z"/>
      <path class="cls-24" d="M1809.09,553s0-.08,0-.11l0,0S1809.1,553,1809.09,553Z"/>
      <polygon class="cls-24" points="1808.38 551.55 1808.34 551.6 1808.37 551.64 1808.38 551.55"/>
      <path class="cls-24" d="M1802.1,520l.26,0C1802.16,520,1802.14,519.74,1802.1,520Z"/>
      <path class="cls-24" d="M1822.15,571c-.05.05-.08.07-.11.07l0,0A.24.24,0,0,0,1822.15,571Z"/>
      <path class="cls-24" d="M1807.08,554l-.1-.26A1.06,1.06,0,0,0,1807.08,554Z"/>
      <path class="cls-24" d="M1801.44,532.3l0-.06A.07.07,0,0,0,1801.44,532.3Z"/>
      <path class="cls-24" d="M1806.61,553a.5.5,0,0,0,.11-.22h-.08Z"/>
      <path class="cls-24" d="M1802.08,518.11c-.06.26.33.2.52.3,0,.32-.29.08-.5.14.06.22.36.43.32.57s-.09,0-.16,0c.25.26-.11.6.2.9l-.09,0a1.83,1.83,0,0,1,.5,0c0,.12.19.25-.06.25,0-.07-.07-.09-.14-.13l.08.13c-.36.05-.08-.18-.34-.23.07.26.29.57.16.73-.34,0,0-.43-.37-.24l.18-.26c-.57.12.07-.16-.53-.06-.17.35.07.43-.07.78.17.12.27,0,.45.13.27.57-.89.29-.49.74.21.13.63.23.37.47l-.37-.15c-.08.36.53.28.23.62-.15-.09-.1-.3-.15-.25-.33.2.2.2.17.38h-.34c0,.39.2.83.22,1.26-.1,0-.2-.12-.31,0a3.26,3.26,0,0,1-.38,1.63l.28.22s-.13.08-.19,0c-.11.2.19,0,.3.13s-.17.14-.26.06c.24.37.5,1,.17,1.39l-.08-.07c-.13.29.59.34.3.6l0,0c-.15.63.09,1.32-.31,1.8.43.08-.16.63.43.65-.28.37-.39.27-.56.79,0,.13.38.18.44.35h-.3l.33.21-.36.15.08.15a.27.27,0,0,1,.22-.14c.15.24-.18.61-.34.63l.28.56c-.12,0-.17-.1-.25-.17.33.29-.32.08,0,.35.07-.05.18,0,.25,0a.67.67,0,0,0,0,.71l-.21,0a12.75,12.75,0,0,0,.26,1.38c.08-.18.45-.19.5,0l-.31.09c.21.07.1-.16.37,0,0,.18-.35.16-.47.07l.14.21c-.1,0-.16,0-.28,0,.21.06-.28.42.09.5l-.1,0c.06.48.2.68.26,1.07.28,0,.24.13.48.21a2.66,2.66,0,0,0-.1,1c.19.22.25,0,.44.11-.25.06-.16.4-.37.26a2.86,2.86,0,0,0,.46,1c.09-.08.12-.15.22-.14s-.07.24-.19.25l0,0c.49.49-.47,1.51.17,1.85l0,0,.41.4c0,.23-.23-.08-.34.12.56.4.17.82.57,1.16-.64.53.37,1.14,0,1.72l.17-.08c.2.06-.06.16-.08.26.13-.05.12-.17.23-.13a10.74,10.74,0,0,1,.63,3c.09.37.94-.13.7.47h-.35a2.32,2.32,0,0,1,.57,1,2.48,2.48,0,0,0,.59,1c-.08,0-.18,0-.2,0-.16.24.22.53.4.45,0,.12-.15.1-.21.21s.44.23.26.4-.09,0-.12,0c.15,0,.17.44.39.24,0,.3.33.42.27.7.34,0,.06.49.48.34-.42.18-.14.61.15.66-.15,0,0,.2-.26.22.11.18.27.3.46.16-.3.58.74.44.23,1a9.83,9.83,0,0,1,1.26,1.22c-.4.21-.33-.49-.73-.24.41.35.89.41,1,.9,0,.15-.2,0-.29,0,.4.35.5.85.94,1.1,0,0-.1,0-.15,0s.05.21.22.09l-.09,0c.17-.28.71,0,.85-.12-.57.2.12.45-.63.66a.3.3,0,0,0,.29-.05c0,.09,0,.16-.21.17.26.2.38,0,.54.23-.09.06-.15,0-.26.07.24,0,.48,0,.54.27,0,0-.1.09-.14,0,.25.33.81.3.91.78-.43.14,0,.21-.32.45l.23.14.09-.19c.12.18.46.16.48.38l-.23,0,.31.27,0-.26c.29,0,.37-.3.46,0-.07,0,.13.17,0,.39h0c.16,0,.32,0,.35.2s-.35.23-.4.3c.31-.11.38.34.72.24a.51.51,0,0,0-.26.17l.25-.09c0,.13,0,.17-.16.25.15.26.31-.37.37,0,0,0,0,0-.12,0,.14.35.55.44.65.77-.23.32-.24-.16-.42.13.34.33,1,.47,1.2.85l0-.09c.45-.3,0,.43.38.43-.07,0-.27.14-.21.11.14.29.53.39,1,.62l-.14.05c0,.22.28.4.37.59.14,0,.2.05.29-.14-.13,1,1.07.58,1,1.39,0,0-.2,0-.16,0l.43.23c.13-.2,0-.15.1-.34a.4.4,0,0,1,.4,0c-.26,0-.26.27-.28.42a1.14,1.14,0,0,1,.16-.15c-.11.46.35-.32.4.11l-.1.07c.13,0,.33,0,.4.11-.14.24-.18,0-.34.16.15.12.62-.12.56.19-.11,0-.19-.08-.3-.08-.08.36,0,.32.06.44h0l.14.32v-.12c.64-.36.44.23,1,.09-.51.13-.2.16-.41.37,0,.12,0,.27,0,.32.27-.09.06.31.45.18-.06.08.11.12-.07.28.19.07.07-.16.16-.24.43,0,.3.74.93.66.41.08.67-.14,1-.06,0,.19-.3.22-.3.22a.39.39,0,0,0,.4.31c-.08,0-.09.12-.12.24.13.07.29-.22.35,0a1.36,1.36,0,0,1-.34.23c.18,0,.42,0,.61,0-.06.16-.23.14-.35.2.2,0,.49.18.7,0l0-.15c.06,0-.11.21-.18.22-.26.07-.14-.22-.08-.31l.13,0c.24-.54-.44-.22-.62-.4l.33-.27-.41.12c0-.12.14-.32.27-.3,0-.27-.21,0-.19-.25,0,0,0,0,.05,0h-.22c.08,0,.16-.25.21-.14-.1-.37-.59-.05-.48-.37h0c-.42-.15-.22.21-.7.3l.31-.72-.23.21a.12.12,0,0,1,0-.19c-.27.07-.07.12-.27.22,0-.33-.53-.28-.25-.68-.2.13,0,.27-.24.24.3-.44-.25-.1-.23-.42.22-.16.26.07.27-.24-.38.27-.21-.33-.38-.37-.25.27-.36-.12-.65-.22.1-.08-.24-.49-.33-.75l0,0c-.28.23-.43,0-.62-.07a.48.48,0,0,1,.38-.19l-.13-.12a.31.31,0,0,1-.31,0l.22-.16c-.18-.15-.58-.08-.66-.43-.2.16-.34.68-.68.56.09-.1.25-.28.34-.26s-.15,0-.14-.07l.25-.07c0-.18-.19.08-.25,0,.14-.13,0-.16.17-.25s0,.13.09.1a.54.54,0,0,1,0-.45c-.07.09-.18.19-.27.14s.12-.23.1-.4c-.14.05-.14-.16-.35.05-.05-.06,0-.16.08-.24-.18,0-.41-.39-.55-.07v0h0c-.48-.1-.44-.73-.81-.94l.08-.06c-.25-.1-.41-.35-.69-.33,0-.06,0-.24.13-.3-.17-.09-.28,0-.32-.33.25,0,.07-.15.21.06-.08-.23,0-.38-.35-.41a.2.2,0,0,0,0-.38l0,.25a.69.69,0,0,1-.21-.28l.29-.17c0-.63-1.07-.25-.76-1-.27,0,0,.31-.26.39-.1-.21.14-.68.1-.73,0-.35-.56.07-.66-.26-.07.1-.3.33-.54.2s.23-.51.4-.45,0,.07,0,.1.18.07.23-.08l-.12,0c0-.16-.16-.39,0-.45-.2-.06-.2.06-.18.2,0-.33-.28-.35-.34-.67,0,.08-.11.2-.14.16-.12-.44-.29,0-.49-.24.06-.25.39-.2.1-.36,0-.22.24-.21.36-.21-.34-.09-.15-.49-.2-.64l.16.06a.37.37,0,0,1-.17-.15l-.15.2c0-.1,0-.15,0-.21-.17,0-.29.28-.56.25,0-.15-.29-.21,0-.41.1.35.24-.21.44,0-.06,0-.09-.08-.1-.18s.06,0,.08,0c.06-.43-.38.07-.56-.22.17-.06.24-.25.18-.28s-.21.22-.4.19c0-.26-.22-.15-.27-.25l0,.14c-.17.06-.22-.05-.35-.14.11-.09.16.06.18,0-.36,0,.06-.49-.25-.58,0-.15.28-.18.3-.3-.34-.11.07-.37-.23-.52-.17.19-.11.18-.41.12l.37.32-.44-.08c.06.12.27.18.27.27-.23,0-.17,0-.31.12.21-.35-.36-.22-.26-.54l.51-.29c.07-.42-.55-.36-.62-.81l0,.17c-.23.06-.15-.22-.3-.29.18-.09.2-.2.28-.31-.13.08-.14-.28-.51-.12l.14-.29c-.08-.36-.69-.09-.79-.41.24,0,.29-.21.53-.08,0-.1-.07-.21-.19-.14.08-.12-.39-.15-.27-.33-.1,0-.29.08-.34,0a.2.2,0,0,1,.09,0c-.09,0-.2-.12-.35.08.41-.59-.44-.86-.09-1.36a4.3,4.3,0,0,1-.45-.63c.06,0,.09,0,.09,0,0-.35-.59.06-.55-.34.22-.29.24.1.3,0,.57-.31-.26-.35,0-.71l0,0c.13-.25-.4-.3-.48-.58a.2.2,0,0,0,.09,0,1.24,1.24,0,0,1-.81-.6c.27,0,.17.07.39-.07-.08-.11-.37.19-.52,0,.1-.13.15-.35.4-.47l.09.22c.29-.25-.12-.28-.1-.42l.15-.05c-.17-.32-.54-.18-.65-.56l-.1.08c-.43-.07.15-.24-.2-.34l.35-.2a3.15,3.15,0,0,1-.68-.55,2.42,2.42,0,0,1,.79.38c0-.13-.19-.43-.4-.43.06,0,.17.07.13.14a.76.76,0,0,1-.66-.48c.74-.2-.07-.74.46-1.12-.41-.39-.15-1-.35-1.5-.52.36-.06-.15-.64.05-.07-.12-.08-.17,0-.19l.24-.49c.15-.14.17.09.29,0,0-.29.22-.19.33-.41-.2.09-.33,0-.3-.2l-.21.3c-.42-.31.41-.47,0-.78l.22.08c-.17-.17-.2-.74-.7-.83.06,0,.21-.14.27-.06,0-.5-.73-1-.51-1.42h.15c-.06-.08-.3-.1-.18-.25s.15,0,.15,0-.3-.19-.24-.33l.19.07c.09-.51-.56-.66-.74-1,.44-.08.49-.48.54-.68h.06c0-.57-.47-.9-.71-1.4.44-.38.06-1.12.27-1.67-.07.09-.35,0-.4-.06s-.35-.31.06-.33v0c.39-.13.24-.36.25-.56h-.53c.74-.57-.34-1.34.33-1.66-.13-.12-.14-.27-.28-.39h.29a2.28,2.28,0,0,0,0-.94l.2.08c0-.24-.83-.29-.85-.51l.41-.07c0-.43.37-.84,0-1.26.06,0,.18,0,.2.09,0-.2.31-.76-.27-.7.38,0,0-.43-.11-.66l.28,0c-.35-.2-.45-.21-.53-.49,0-.06.22,0,.15,0,.15-.21-.26-.18-.1-.43l.17.11c0-.22-.07-.21-.27-.34s.09-.41.34-.43c-.15,0-.35-.17-.28-.3a.19.19,0,0,1,.18.07c.2-.35-.26-.57,0-.79a.29.29,0,0,0,.17,0,1.47,1.47,0,0,1-.1.49c.26,0,.33-.2.66,0-.17-.2-.55-.56-.4-.77l.09,0,0,0c0-.05,0-.09,0-.14a.41.41,0,0,0,.1-.18c.21,0,.15-.25.17-.37-.28,0-.22-.16-.47,0,0,0,0,0,0,.11l0,0h0l0,.29c-.13-.11-.24-.22-.07-.33l-.43-.21c.41-.12.66-.4.9-.41-.11-.37,0-.84-.5-1.14,0-.11.17-.09.25-.12s0,.13.1.18c-.11-.22,0-.61-.34-.71.2-.23.31.19.31-.16l.1.06c.72-.57-.7-1.27.2-1.88a.2.2,0,0,1-.14.06c.52-.78,0-1.85.79-2.55.17-.21,0-.29-.18-.48l.31,0-.26-.34c-.14-.43.89-.4.56-1H1805c.08-.14,0-.54.25-.44,0,0-.18-.12-.07-.14l.16,0-.14-.48c.2-.26.58.25.74-.18,0-.18-.3-.61-.42-.59a.22.22,0,0,1-.29.09l0-.17c-.43-.18-.85-.46-1.27-.19l.19.36h-.24l.05-.23c-.24.06-.08.2,0,.33a.43.43,0,0,0-.27,0l.35.39c-.18,0-.31-.22-.46-.08.16.18.42,0,.49.25-.24.06-.39,0-.26.18a.25.25,0,0,1-.22-.15c.1.18,0,.37.17.51-.29.06-.07.47-.49.33a.74.74,0,0,1,.24.46c-.44-.37-.16.44-.69.23.41.29,0,.65.19,1,0,0-.09-.07-.06-.09-.09.15-.25.16-.36.25.38.12.41.4.62.59-.41.12-.42-.23-.79-.25.31.07.23.43.51.42-.26.11-.14.11-.48.12.48.14,0,.17.32.36-.28.18-.46,0-.37.24C1802.2,518.37,1802.08,518.11,1802.08,518.11Zm-.12,6.13h0v0Zm-.06.5a1.24,1.24,0,0,0,0-.22c.1,0,.2,0,.19.07S1802,524.67,1801.9,524.74Zm2.07-.86c0,.08,0,.1-.09.11a.39.39,0,0,0,0-.14h0Z"/>
      <path class="cls-24" d="M1803.62,523.71s0,0,0,0l-.07,0,.09,0Z"/>
      <path class="cls-24" d="M1817,564.88h0l0,0Z"/>
      <polygon class="cls-24" points="1801.28 531.74 1801.35 531.74 1801.28 531.69 1801.28 531.74"/>
      <path class="cls-24" d="M1818.2,567.51a.19.19,0,0,0,0,.08S1818.19,567.54,1818.2,567.51Z"/>
      <path class="cls-24" d="M1819,568.36l.06.19A1.08,1.08,0,0,0,1819,568.36Z"/>
      <path class="cls-24" d="M1819.63,569.09l.1-.08h0Z"/>
      <path class="cls-24" d="M1809.84,558.12l0,0C1809.71,558.06,1809.76,558.09,1809.84,558.12Z"/>
      <path class="cls-24" d="M1812.87,561.34a.64.64,0,0,1-.2,0C1812.7,561.39,1812.74,561.44,1812.87,561.34Z"/>
      <polygon class="cls-24" points="1807.09 554.02 1807.09 554.01 1807.08 553.99 1807.09 554.02"/>
      <path class="cls-24" d="M1812.55,561.15a.17.17,0,0,0,.12.16A.21.21,0,0,0,1812.55,561.15Z"/>
      <path class="cls-24" d="M1822.7,571.69l0,0,0,0Z"/>
      <path class="cls-24" d="M1822.76,571.69h.06S1822.78,571.67,1822.76,571.69Z"/>
      <path class="cls-24" d="M1822.94,571.7h-.12A.08.08,0,0,0,1822.94,571.7Z"/>
      <path class="cls-24" d="M1821.8,570.84l-.07.08Z"/>
      <path class="cls-24" d="M1821.49,570.64c0,.07,0,.31.18.33l.06-.05C1821.59,571,1821.66,570.56,1821.49,570.64Z"/>
      <path class="cls-24" d="M1821.06,568.73a2.35,2.35,0,0,0,.19.25c0-.12.06-.27.19-.21C1821.34,568.29,1821.34,569,1821.06,568.73Z"/>
      <path class="cls-24" d="M1820.47,568c.15.07.1-.12.15-.16C1820.48,567.82,1820.44,567.82,1820.47,568Z"/>
      <path class="cls-24" d="M1815.67,563.17l.21-.16C1815.77,562.94,1815.8,563.08,1815.67,563.17Z"/>
      <polygon class="cls-24" points="1813.83 562.99 1813.79 563.19 1814 563.09 1813.83 562.99"/>
      <polygon class="cls-24" points="1814.78 561.24 1814.84 561.26 1814.64 561.16 1814.78 561.24"/>
      <path class="cls-24" d="M1808.72,551.71l-.27.17C1808.54,551.93,1808.87,551.79,1808.72,551.71Z"/>
      <path class="cls-24" d="M1806.52,547.31c.13-.1.18-.27,0-.29C1806.54,547.13,1806.47,547.27,1806.52,547.31Z"/>
      <polygon class="cls-24" points="1803.86 532.9 1803.96 532.99 1803.87 532.82 1803.86 532.9"/>
    </g>
    <g>
      <path class="cls-24" d="M1837.1,567.41c.08,0,.2-.18.11-.23l-.28.18Z"/>
      <path class="cls-24" d="M1837.1,566.5a.93.93,0,0,0-.66.4c.31-.14.23,0,.58-.2.1,0,0,.19-.06.27.09,0,0,.16.24,0,.09-.27,0-.39-.27-.37C1837,566.57,1837.05,566.54,1837.1,566.5Z"/>
      <path class="cls-24" d="M1831.74,558.9V559A.08.08,0,0,0,1831.74,558.9Z"/>
      <path class="cls-24" d="M1829.07,553.85a.1.1,0,0,0,.1,0S1829.1,553.82,1829.07,553.85Z"/>
      <path class="cls-24" d="M1829,552.82v.06S1829,552.82,1829,552.82Z"/>
      <path class="cls-24" d="M1831.74,558.9v-.18C1831.65,558.77,1831.72,558.83,1831.74,558.9Z"/>
      <path class="cls-24" d="M1835.64,566.09s.07,0,.12,0l-.08,0Z"/>
      <path class="cls-24" d="M1833.37,560.84l0,0,.13,0Z"/>
      <path class="cls-24" d="M1834.58,562.34s-.24.12-.35.18c.1,0,.17-.06.21,0Z"/>
      <path class="cls-24" d="M1836.18,565h0Z"/>
      <path class="cls-24" d="M1832.63,559.68l.07-.07Z"/>
      <path class="cls-24" d="M1827.16,507.38l0,0S1827.17,507.36,1827.16,507.38Z"/>
      <polygon class="cls-24" points="1829.44 505.99 1829.44 506.02 1829.57 506.11 1829.44 505.99"/>
      <path class="cls-24" d="M1828.61,551.05h0C1828.66,551.08,1828.64,551.06,1828.61,551.05Z"/>
      <path class="cls-24" d="M1824.48,535.45c-.23.21-.35-.27-.6,0C1824,535.45,1824.34,535.69,1824.48,535.45Z"/>
      <path class="cls-24" d="M1835.63,566l-.06-.06A.17.17,0,0,0,1835.63,566Z"/>
      <path class="cls-24" d="M1823.88,535.48h0l0,0Z"/>
      <path class="cls-24" d="M1827,547.31a.39.39,0,0,0-.1.08A.22.22,0,0,0,1827,547.31Z"/>
      <path class="cls-24" d="M1827.68,550.31v-.09A.14.14,0,0,0,1827.68,550.31Z"/>
      <path class="cls-24" d="M1826.13,545.93s0-.07,0-.11l0,0S1826.16,545.87,1826.13,545.93Z"/>
      <polygon class="cls-24" points="1825.7 544.34 1825.65 544.38 1825.68 544.43 1825.7 544.34"/>
      <path class="cls-24" d="M1825.17,512.21a1.23,1.23,0,0,1,.27,0C1825.24,512.18,1825.27,511.92,1825.17,512.21Z"/>
      <path class="cls-24" d="M1835.75,566c-.06,0-.09.06-.12,0l0,0A.18.18,0,0,0,1835.75,566Z"/>
      <path class="cls-24" d="M1824,546.5l0-.27A.66.66,0,0,0,1824,546.5Z"/>
      <path class="cls-24" d="M1822.32,524.16l0-.07A.05.05,0,0,0,1822.32,524.16Z"/>
      <path class="cls-24" d="M1823.7,545.46a.74.74,0,0,0,.15-.2h-.08Z"/>
      <path class="cls-24" d="M1825.44,512.23Z"/>
      <path class="cls-24" d="M1825.5,510.31c-.11.24.28.25.46.39,0,.32-.31,0-.52.05,0,.22.27.49.21.61s-.1,0-.15-.05c.19.3-.22.57,0,.92h-.1a1.89,1.89,0,0,1,.49.15c0,.1.14.27-.11.23,0-.06,0-.1-.11-.16l0,.15c-.36,0,0-.2-.29-.29,0,.26.18.62,0,.75-.33-.08.06-.43-.32-.31l.23-.22c-.58,0,.1-.14-.51-.16-.23.32,0,.44-.22.76.16.15.27.07.43.21.16.61-.93.12-.62.64.19.16.58.33.29.52l-.34-.2c-.14.33.46.36.11.64-.13-.11,0-.31-.1-.27-.36.14.16.23.1.41l-.34-.06c-.06.38,0,.85,0,1.27-.09,0-.17-.15-.3-.08a3.25,3.25,0,0,1-.66,1.54l.24.26s-.15,0-.19,0c-.16.17.17.06.27.18s-.2.1-.27,0c.16.41.31,1.1-.08,1.4l-.07-.09c-.18.26.52.44.19.65l0-.06c-.26.59-.15,1.31-.63,1.72.4.16-.27.59.3.72-.33.31-.42.19-.69.67,0,.13.34.25.38.42l-.31,0,.29.27-.38.07.06.17c0-.06.15-.11.24-.09.11.25-.29.56-.45.55l.18.6c-.12,0-.15-.12-.22-.21.27.34-.33,0-.08.34.07,0,.18,0,.24.05-.2.12-.22.44-.15.69l-.21-.06a13.33,13.33,0,0,0,0,1.4c.1-.17.47-.11.5,0l-.33,0c.19.1.13-.14.36.06,0,.18-.37.1-.47,0l.1.23c-.1,0-.15-.05-.27-.07.2.1-.35.37,0,.51h-.09c0,.49.07.71.06,1.1.28,0,.21.17.43.29a2.74,2.74,0,0,0-.27,1c.15.24.24.07.41.18-.26,0-.23.36-.41.18a2.89,2.89,0,0,0,.28,1.06c.1-.06.14-.12.23-.09s-.1.22-.22.21l0,0c.4.57-.73,1.4-.17,1.85l0,0,.33.47c0,.23-.21-.12-.35.06.48.49,0,.84.34,1.24-.72.41.17,1.19-.27,1.7l.18,0c.18.09-.09.15-.12.24.14,0,.15-.14.25-.08a10.74,10.74,0,0,1,.07,3.11c0,.38.94,0,.6.59l-.34-.07a2.2,2.2,0,0,1,.38,1.09,2.46,2.46,0,0,0,.41,1.07c-.09,0-.18,0-.2-.07-.19.2.13.56.32.51,0,.12-.16.07-.24.16s.39.31.18.45c0,0-.09,0-.11,0,.14.07.09.47.33.31-.06.3.25.48.15.74.33,0,0,.5.4.42-.44.11-.24.58,0,.68-.15,0-.08.18-.29.17.07.19.21.34.42.24-.4.51.65.57.06,1a9.25,9.25,0,0,1,1,1.42c-.43.13-.23-.55-.67-.37.34.42.79.57.85,1.08,0,.14-.2,0-.29,0,.33.42.33.92.73,1.25a.23.23,0,0,1-.15,0c0,.07,0,.21.2.12l-.08-.05c.22-.24.71.08.86,0-.6.08,0,.46-.74.53a.34.34,0,0,0,.3,0c0,.09-.07.15-.25.13.23.25.38.06.49.32-.09,0-.15,0-.27,0,.24.06.47.12.49.37-.06,0-.12.07-.15,0,.2.38.75.44.76.94-.44,0-.07.2-.4.38l.21.17.12-.16c.09.19.42.24.4.46l-.21-.08.25.33,0-.27c.27.11.41-.22.45.07-.06,0,.1.19-.05.39h0c.15,0,.32.08.31.26s-.39.16-.44.22c.32,0,.31.4.66.36a.65.65,0,0,0-.29.12l.26,0c0,.13,0,.16-.2.22.1.28.38-.31.36.1,0,0-.06,0-.12,0,.08.37.46.53.51.88-.29.27-.22-.21-.44,0,.27.4.84.64,1,1.06v-.09c.49-.22,0,.42.3.49-.06,0-.29.09-.23.07.09.31.45.47.84.78l-.14,0c0,.22.2.45.25.65.15,0,.19.08.32-.08-.31.94,1,.76.76,1.55,0-.06-.19-.06-.16,0l.38.3c.17-.17.08-.13.17-.31a.38.38,0,0,1,.38.09c-.25-.07-.3.22-.35.37,0,0,.13-.07.18-.12-.18.43.4-.25.38.18l-.11.06c.12.06.32.05.37.18-.18.2-.18,0-.36.09.13.14.63,0,.52.28-.11,0-.18-.1-.29-.12-.13.33-.06.3,0,.44h0l.08.34,0-.12c.69-.24.39.3.94.27-.52,0-.23.11-.48.28,0,.12,0,.28-.1.3.28,0,0,.32.41.26-.07.07.09.14-.12.27.18.1.1-.15.21-.21.42,0,.15.79.79.81.39.15.68,0,1,.13,0,.19-.33.17-.33.17a.38.38,0,0,0,.34.37c-.09,0-.12.11-.16.22.11.09.32-.17.34.06a1.9,1.9,0,0,1-.38.17c.18.06.42.06.6.12-.09.15-.25.1-.38.13.19.1.46.27.69.13v-.16s-.15.19-.22.18c-.26,0-.09-.24,0-.31l.13,0c.33-.48-.4-.29-.54-.5l.38-.21-.43.05c0-.11.19-.29.32-.25,0-.26-.21,0-.14-.28a.05.05,0,0,1,0,0l-.2,0c.08,0,.2-.22.22-.1,0-.39-.56-.16-.41-.45h0c-.39-.22-.26.17-.74.17l.42-.65-.26.17a.13.13,0,0,1,0-.19c-.26,0-.08.11-.29.16.06-.32-.47-.36-.13-.71-.22.09,0,.28-.28.2.37-.38-.22-.15-.15-.46.24-.12.24.11.31-.19-.42.19-.15-.36-.31-.43-.29.22-.33-.19-.6-.33.11-.06-.15-.53-.19-.81l0,0c-.32.18-.43-.06-.6-.17a.48.48,0,0,1,.41-.12l-.11-.14a.38.38,0,0,1-.31,0l.25-.13c-.15-.18-.56-.18-.58-.54-.22.13-.45.61-.77.43.11-.09.3-.23.39-.19s-.15,0-.13-.1l.26,0c0-.18-.2.05-.24-.06.17-.11.07-.15.21-.23s0,.13.07.12a.55.55,0,0,1,.08-.44c-.09.07-.22.15-.29.09s.15-.21.16-.38c-.14,0-.11-.18-.35,0,0-.06.07-.14.12-.21-.17,0-.34-.46-.53-.17v0h0c-.46-.19-.31-.8-.63-1.07l.09-.05c-.23-.14-.34-.41-.62-.45,0-.06.07-.23.18-.27-.15-.11-.27-.07-.26-.38.24.07.1-.13.21.1,0-.25.07-.38-.28-.47a.2.2,0,0,0,.07-.37l-.08.23a.64.64,0,0,1-.15-.31l.31-.11c.14-.61-1-.44-.58-1.08-.26,0,0,.31-.31.33-.07-.22.25-.64.22-.7,0-.35-.57,0-.6-.37-.09.09-.35.27-.57.1-.06-.22.32-.46.47-.38s0,.08,0,.1.16.11.23,0l-.12,0c.06-.15-.09-.42.12-.44-.18-.1-.21,0-.21.16,0-.33-.21-.39-.21-.71,0,.07-.15.17-.17.13,0-.46-.28-.08-.44-.33.1-.23.41-.13.16-.33,0-.22.27-.17.39-.14-.31-.15-.06-.52-.08-.67l.14.09a.34.34,0,0,1-.13-.18l-.19.16c0-.09,0-.15.07-.19-.17,0-.33.22-.6.15.07-.15-.25-.26,0-.42,0,.36.27-.16.44.09a.18.18,0,0,1-.08-.19s.06,0,.09,0c.13-.41-.39,0-.51-.32.18,0,.28-.2.22-.24,0,.13-.25.17-.43.11,0-.25-.18-.18-.21-.29v.14c-.19,0-.21-.08-.32-.2.12-.07.14.09.18,0-.36,0,.15-.48-.14-.62.07-.14.31-.13.34-.25-.31-.16.14-.35-.13-.55-.2.16-.14.16-.42,0l.3.38-.42-.16c0,.13.24.23.22.32-.22-.07-.16-.07-.33.06.28-.31-.31-.29-.16-.58l.56-.2c.14-.4-.47-.45-.47-.9l-.05.16c-.24,0-.12-.24-.25-.34.19,0,.23-.16.33-.25-.14.05-.09-.3-.48-.22l.19-.26c0-.36-.66-.2-.7-.54.23,0,.32-.15.54,0,0-.1,0-.21-.17-.17.1-.1-.35-.21-.2-.36-.1,0-.3,0-.33-.1a.19.19,0,0,1,.1,0c-.1,0-.18-.15-.37,0,.51-.51-.28-.93.16-1.36a3.63,3.63,0,0,1-.32-.7c.06,0,.09,0,.08,0,.11-.34-.59-.05-.48-.44.27-.24.21.14.3,0,.62-.2-.19-.39.13-.7l.05,0c.17-.22-.35-.36-.38-.65a.27.27,0,0,0,.1,0,1.29,1.29,0,0,1-.69-.73c.27,0,.15.1.4,0-.06-.11-.4.12-.52-.11.13-.11.22-.31.48-.39l.06.23c.33-.19-.07-.3,0-.43l.16,0c-.11-.34-.5-.28-.54-.67l-.11.06c-.42-.14.19-.21-.13-.37l.37-.13a3.23,3.23,0,0,1-.57-.66,2.44,2.44,0,0,1,.71.51c0-.13-.11-.46-.31-.5,0,0,.15.11.1.17a.78.78,0,0,1-.57-.6c.77-.06.06-.74.65-1-.32-.45,0-1-.07-1.53-.57.26,0-.16-.63-.07-.06-.13-.05-.18,0-.2l.32-.43c.17-.11.15.11.28.09,0-.29.25-.14.39-.34-.21.05-.32-.08-.25-.25l-.26.25c-.36-.37.48-.38.12-.76l.2.11c-.14-.2-.06-.76-.54-.94.06,0,.23-.1.28,0,.06-.49-.55-1.09-.25-1.49l.15,0c0-.09-.29-.16-.14-.28s.15,0,.16,0-.27-.24-.18-.36l.17.1c.19-.49-.43-.74-.54-1.16.45,0,.57-.37.66-.56h.06c.08-.56-.31-1-.45-1.51.49-.3.26-1.09.56-1.59-.09.07-.34,0-.38-.14s-.29-.37.11-.31v0c.41-.06.3-.32.34-.51l-.52-.08c.84-.43-.09-1.38.63-1.58-.12-.14-.09-.29-.21-.43l.28,0a2.06,2.06,0,0,0,.17-.93l.19.12c0-.23-.77-.43-.75-.66h.42c0-.42.51-.76.22-1.24.06,0,.18,0,.18.12,0-.19.44-.68-.14-.73.37.07.13-.41,0-.67l.26.09c-.31-.26-.4-.29-.44-.58,0-.05.23,0,.14.07.19-.18-.22-.23,0-.44l.16.13c.06-.21,0-.21-.21-.38s.16-.39.41-.36c-.14-.06-.32-.23-.22-.34a.23.23,0,0,1,.17.1c.26-.31-.16-.61.17-.78a.34.34,0,0,0,.17,0c-.09.27-.17.49-.19.46.25.07.36-.14.65.13-.13-.23-.44-.65-.26-.83h.1l0,0s0-.09,0-.14a.61.61,0,0,0,.13-.16c.21,0,.19-.22.23-.33-.27-.07-.18-.21-.45-.14,0,0,0,0,0,.11a.13.13,0,0,0,0,.06l0,0-.07.29c-.11-.13-.2-.26,0-.34a4.47,4.47,0,0,1-.38-.29c.42,0,.71-.27,1-.24,0-.38.15-.82-.28-1.21,0-.12.17-.06.26-.07s0,.14.07.19c-.07-.23.13-.59-.21-.76.24-.18.28.25.34-.1l.08.08c.81-.43-.45-1.37.54-1.81-.06,0-.09.05-.15,0,.65-.67.35-1.82,1.23-2.37.21-.17,0-.29-.09-.5l.3.08-.2-.38c-.06-.44.95-.23.73-.85l-.21-.05c.11-.12.14-.52.33-.38,0,0-.16-.15,0-.16l.14.07,0-.49c.24-.23.53.34.76-.05,0-.18-.18-.65-.3-.65a.23.23,0,0,1-.3,0V506c-.4-.25-.75-.6-1.22-.4l.12.38-.23,0,.09-.21c-.25,0-.12.18,0,.32a.36.36,0,0,0-.27,0l.27.45c-.18-.06-.27-.28-.44-.17.13.21.42.09.44.34-.25,0-.38-.1-.29.13a.26.26,0,0,1-.19-.19c.07.19-.11.36.08.54-.3,0-.16.44-.54.23.07.09.2.37.15.49-.36-.44-.24.41-.72.11.35.36-.09.65,0,1,0,0-.08-.09-.05-.11-.11.14-.27.12-.39.19.34.18.33.46.49.69-.42,0-.37-.3-.73-.39.3.12.16.47.43.51a.73.73,0,0,1-.49,0c.44.22,0,.17.25.41-.31.12-.45-.12-.41.18C1825.57,510.59,1825.5,510.31,1825.5,510.31Zm-1.22,6h0l0-.12Zm-.14.48c0-.06,0-.13.07-.21s.19.06.17.1S1824.24,516.75,1824.14,516.8Zm2.18-.47c0,.08,0,.09-.1.09v-.14l0,0A.4.4,0,0,1,1826.32,516.33Z"/>
      <path class="cls-24" d="M1826,516.09s0,0,0,0l-.08,0,.08,0Z"/>
      <path class="cls-24" d="M1831.74,559v0s0,0,0,0Z"/>
      <polygon class="cls-24" points="1822.26 523.58 1822.33 523.58 1822.28 523.53 1822.26 523.58"/>
      <path class="cls-24" d="M1832.5,561.8a.16.16,0,0,0,0,.07S1832.49,561.83,1832.5,561.8Z"/>
      <path class="cls-24" d="M1833.18,562.79l0,.2A1,1,0,0,0,1833.18,562.79Z"/>
      <path class="cls-24" d="M1833.63,563.61l.1-.06h0Z"/>
      <path class="cls-24" d="M1826,551.07l0,0C1825.85,551,1825.89,551,1826,551.07Z"/>
      <path class="cls-24" d="M1828.36,554.78a.75.75,0,0,1-.18-.07C1828.19,554.79,1828.22,554.85,1828.36,554.78Z"/>
      <polygon class="cls-24" points="1823.99 546.53 1823.99 546.53 1823.98 546.5 1823.99 546.53"/>
      <path class="cls-24" d="M1828.09,554.53a.14.14,0,0,0,.09.18C1828.16,554.65,1828.15,554.57,1828.09,554.53Z"/>
      <path class="cls-24" d="M1836.18,566.72l0,0,0,0Z"/>
      <path class="cls-24" d="M1836.24,566.73l0,0A0,0,0,0,0,1836.24,566.73Z"/>
      <path class="cls-24" d="M1836.41,566.78l-.12,0S1836.34,566.81,1836.41,566.78Z"/>
      <path class="cls-24" d="M1835.44,565.73l-.08,0A.15.15,0,0,0,1835.44,565.73Z"/>
      <path class="cls-24" d="M1835.17,565.47c0,.08,0,.31.12.36l.07-.05C1835.21,565.84,1835.36,565.42,1835.17,565.47Z"/>
      <path class="cls-24" d="M1835.1,563.51c0,.1.09.19.13.28,0-.11.12-.25.23-.17C1835.45,563.13,1835.32,563.84,1835.1,563.51Z"/>
      <path class="cls-24" d="M1834.65,562.66c.14.1.12-.1.17-.13C1834.69,562.51,1834.65,562.51,1834.65,562.66Z"/>
      <path class="cls-24" d="M1830.79,557.08l.23-.12C1830.92,556.87,1830.94,557,1830.79,557.08Z"/>
      <polygon class="cls-24" points="1829.01 556.58 1828.93 556.76 1829.16 556.7 1829.01 556.58"/>
      <polygon class="cls-24" points="1830.25 555.02 1830.31 555.05 1830.13 554.91 1830.25 555.02"/>
      <path class="cls-24" d="M1826,544.56l-.29.12C1825.79,544.74,1826.14,544.67,1826,544.56Z"/>
      <path class="cls-24" d="M1824.63,539.84c.15-.08.23-.24.06-.29C1824.69,539.66,1824.58,539.79,1824.63,539.84Z"/>
      <polygon class="cls-24" points="1824.59 525.18 1824.68 525.29 1824.62 525.1 1824.59 525.18"/>
    </g>
    <g>
      <path class="cls-24" d="M1858.14,568.05c.08,0,.21-.19.12-.23l-.28.18Z"/>
      <path class="cls-24" d="M1858.14,567.14a1,1,0,0,0-.65.39c.3-.13.23,0,.58-.2.09,0,0,.2-.06.28.08,0,0,.16.23,0,.1-.27,0-.4-.26-.37C1858,567.21,1858.09,567.18,1858.14,567.14Z"/>
      <path class="cls-24" d="M1852.79,559.54v.07A.09.09,0,0,0,1852.79,559.54Z"/>
      <path class="cls-24" d="M1850.12,554.48a.07.07,0,0,0,.09,0S1850.14,554.46,1850.12,554.48Z"/>
      <path class="cls-24" d="M1850,553.46v.06S1850,553.46,1850,553.46Z"/>
      <path class="cls-24" d="M1852.79,559.54v-.18C1852.7,559.4,1852.77,559.46,1852.79,559.54Z"/>
      <path class="cls-24" d="M1856.68,566.73h.12l-.08,0Z"/>
      <path class="cls-24" d="M1854.42,561.48l0,0a.55.55,0,0,0,.13,0Z"/>
      <path class="cls-24" d="M1855.63,563s-.25.12-.36.18c.11,0,.17-.06.21,0Z"/>
      <path class="cls-24" d="M1857.23,565.64h0Z"/>
      <path class="cls-24" d="M1853.67,560.32l.08-.07A.27.27,0,0,0,1853.67,560.32Z"/>
      <path class="cls-24" d="M1848.21,508l0,0S1848.21,508,1848.21,508Z"/>
      <polygon class="cls-24" points="1850.48 506.63 1850.48 506.66 1850.61 506.75 1850.48 506.63"/>
      <path class="cls-24" d="M1849.65,551.68h0S1849.68,551.7,1849.65,551.68Z"/>
      <path class="cls-24" d="M1845.52,536.09c-.23.21-.35-.27-.6,0C1845,536.09,1845.38,536.33,1845.52,536.09Z"/>
      <path class="cls-24" d="M1856.67,566.67l-.05-.06S1856.65,566.66,1856.67,566.67Z"/>
      <path class="cls-24" d="M1844.92,536.12h0l0,0Z"/>
      <path class="cls-24" d="M1848.06,548a.31.31,0,0,0-.11.08Z"/>
      <path class="cls-24" d="M1848.72,550.94v-.08A.11.11,0,0,0,1848.72,550.94Z"/>
      <path class="cls-24" d="M1847.17,546.57c0-.05,0-.07,0-.11l0,0S1847.2,546.51,1847.17,546.57Z"/>
      <polygon class="cls-24" points="1846.74 544.98 1846.69 545.02 1846.72 545.07 1846.74 544.98"/>
      <path class="cls-24" d="M1846.21,512.85a.82.82,0,0,1,.27,0C1846.28,512.82,1846.31,512.56,1846.21,512.85Z"/>
      <path class="cls-24" d="M1856.8,566.62c-.06,0-.1.06-.13,0l0,0S1856.79,566.65,1856.8,566.62Z"/>
      <path class="cls-24" d="M1845,547.14l0-.27A.91.91,0,0,0,1845,547.14Z"/>
      <path class="cls-24" d="M1843.37,524.79l0-.06S1843.34,524.77,1843.37,524.79Z"/>
      <path class="cls-24" d="M1844.74,546.1a.57.57,0,0,0,.15-.2l-.08,0Z"/>
      <path class="cls-24" d="M1846.48,512.87Z"/>
      <path class="cls-24" d="M1846.54,511c-.11.24.29.25.46.39,0,.32-.3,0-.52.05,0,.22.28.48.21.61s-.09,0-.15-.05c.2.3-.22.57,0,.92h-.1a2.24,2.24,0,0,1,.49.14c0,.11.14.28-.1.24,0-.07-.06-.1-.12-.16l.06.15c-.37,0-.06-.2-.3-.29,0,.26.19.61,0,.75-.34-.08,0-.43-.32-.31l.22-.22c-.58,0,.1-.15-.51-.16-.23.31,0,.44-.21.76.15.14.27.07.42.21.17.61-.93.12-.62.63.19.17.59.34.29.53l-.34-.21c-.14.34.47.37.11.65-.12-.11,0-.31-.1-.27-.36.14.16.23.1.41l-.33-.07c-.06.39,0,.86,0,1.28-.09,0-.17-.15-.3-.08a3.19,3.19,0,0,1-.66,1.54l.24.26s-.15.05-.19,0c-.15.17.18.05.27.17s-.2.11-.27,0c.17.41.31,1.1-.08,1.4l-.07-.09c-.18.26.52.44.2.65l0-.06c-.27.59-.16,1.31-.64,1.72.41.15-.27.58.31.72-.34.31-.43.19-.69.66,0,.14.33.25.37.43l-.3,0,.29.27-.39.07.06.17a.26.26,0,0,1,.24-.1c.11.26-.29.57-.45.56l.18.6c-.12,0-.15-.12-.22-.21.27.34-.33,0-.08.34.08,0,.18,0,.24.05-.19.12-.21.44-.15.69l-.21-.07a13.26,13.26,0,0,0,0,1.4c.11-.16.47-.1.5,0l-.33,0c.2.1.13-.14.37.06,0,.18-.38.1-.48,0l.1.23c-.1,0-.14-.05-.27-.07.2.1-.35.36,0,.51h-.1c0,.48.07.71.06,1.1.28,0,.21.17.43.29a2.68,2.68,0,0,0-.27.95c.15.25.24.07.41.18-.25,0-.22.37-.41.19a2.89,2.89,0,0,0,.28,1.06c.1-.06.15-.13.24-.1s-.11.22-.23.21l0,0c.4.57-.73,1.4-.16,1.85l0,0,.32.47c0,.23-.2-.12-.35.06.48.49,0,.83.35,1.24-.72.41.16,1.19-.27,1.69l.17,0c.19.09-.08.15-.12.24.14,0,.15-.14.25-.08a10.39,10.39,0,0,1,.07,3.11c0,.38.95,0,.61.58l-.35-.07a2.27,2.27,0,0,1,.38,1.1,2.51,2.51,0,0,0,.41,1.07c-.08,0-.18,0-.2-.08-.19.21.14.57.33.52,0,.12-.17.07-.25.16s.39.31.18.45c0,0-.08,0-.11,0,.14.07.09.47.33.31-.06.3.25.48.15.74.33.05,0,.5.41.42-.44.1-.25.58,0,.68-.15,0-.09.18-.29.17.07.19.21.34.42.24-.4.51.65.57,0,1a9.76,9.76,0,0,1,1,1.42c-.43.14-.23-.54-.67-.36.34.42.8.56.86,1.07,0,.15-.21,0-.3,0,.33.42.34.92.73,1.25a.24.24,0,0,1-.15,0c0,.08,0,.22.2.13l-.08-.06c.22-.24.71.09.86,0-.6.09,0,.46-.74.53a.31.31,0,0,0,.3,0c0,.09-.07.15-.25.13.23.25.39.06.5.32-.1,0-.15,0-.27,0,.23.06.47.11.49.37-.07,0-.13.07-.15,0,.19.37.75.44.75.93-.44.06-.06.21-.39.39l.2.17.12-.16c.09.19.43.24.4.45l-.21-.07.25.33,0-.27c.28.11.42-.23.45.07-.06,0,.1.19,0,.39h0c.16,0,.32.08.31.26s-.38.16-.44.22c.32,0,.31.4.66.36a.71.71,0,0,0-.29.12l.27,0c0,.12-.06.16-.2.22.1.28.37-.31.36.1,0,0-.06,0-.12,0,.07.36.46.53.5.88-.28.27-.21-.21-.44,0,.27.39.85.64,1,1.06v-.09c.49-.22,0,.42.29.49-.06,0-.29.09-.23.07.1.31.46.47.85.78l-.15,0c0,.22.2.45.26.65.14,0,.19.08.31-.08-.3.94,1,.76.76,1.54,0,0-.19,0-.16,0l.39.3c.16-.17.07-.13.16-.32a.4.4,0,0,1,.38.1c-.25-.07-.3.22-.35.37,0-.06.13-.08.19-.13-.19.44.39-.24.37.19l-.11,0c.13.06.32.06.38.18-.18.21-.18,0-.36.1.12.14.62,0,.51.28-.11,0-.17-.11-.28-.12-.14.33-.06.3,0,.44h0l.08.33,0-.11c.69-.25.39.3.93.26-.52,0-.22.12-.47.29,0,.12,0,.27-.11.3.28,0,0,.32.41.26-.07.07.09.14-.12.27.18.1.1-.15.21-.21.43,0,.16.78.79.81.39.15.68,0,1,.13,0,.18-.32.16-.32.16a.38.38,0,0,0,.33.38c-.09,0-.11.1-.16.22.12.09.33-.17.35.06a1.68,1.68,0,0,1-.39.16c.18.07.43.06.61.13-.1.15-.26.1-.38.13.18.09.45.27.68.13V567c.06,0-.14.18-.21.18-.27,0-.1-.24,0-.32l.12,0c.34-.48-.39-.3-.54-.5l.38-.21-.42.05c0-.11.19-.3.31-.25,0-.27-.21,0-.14-.28,0,0,0,0,.06,0l-.21,0c.09,0,.2-.21.22-.1,0-.38-.56-.15-.4-.45h0c-.39-.22-.25.17-.74.16l.43-.64-.26.16a.11.11,0,0,1,0-.18c-.27,0-.08.1-.3.16.06-.33-.47-.36-.12-.71-.23.09,0,.27-.28.2.36-.39-.23-.15-.16-.46.25-.12.24.11.32-.19-.43.19-.15-.36-.32-.43-.29.21-.33-.19-.59-.33.11-.06-.15-.53-.2-.81l0,0c-.32.18-.42-.07-.6-.17a.49.49,0,0,1,.41-.13l-.1-.14a.31.31,0,0,1-.31,0l.25-.12c-.15-.18-.56-.19-.58-.54-.22.13-.46.61-.77.43.1-.09.29-.23.39-.19s-.15,0-.13-.1l.26,0c0-.17-.2.05-.24,0,.16-.11.07-.15.21-.23s0,.13.07.12a.5.5,0,0,1,.07-.44c-.09.07-.22.15-.29.08s.15-.2.17-.37c-.15,0-.11-.18-.36,0,0-.06.07-.14.12-.21-.17,0-.33-.46-.52-.18v0h0c-.47-.18-.31-.79-.63-1.06l.08-.05c-.22-.15-.34-.42-.62-.45,0-.06.07-.24.19-.27-.16-.12-.28-.07-.26-.39.23.08.1-.12.2.1,0-.24.07-.37-.28-.46a.21.21,0,0,0,.08-.38l-.09.24a.64.64,0,0,1-.15-.31l.32-.11c.13-.62-1-.44-.58-1.08-.27,0,0,.3-.32.33-.06-.22.25-.64.22-.7,0-.35-.56,0-.6-.37-.09.09-.35.26-.56.1s.32-.46.47-.38a.06.06,0,0,1,0,.1c.07,0,.16.1.24,0l-.12,0c.06-.16-.1-.42.11-.44-.18-.1-.21,0-.21.16,0-.33-.21-.39-.21-.71,0,.07-.15.17-.17.12,0-.45-.28-.08-.44-.32.1-.23.42-.13.16-.34,0-.21.28-.16.39-.13-.31-.15,0-.52-.07-.68l.14.09a.3.3,0,0,1-.14-.18l-.19.17c0-.09,0-.15.08-.19-.18,0-.34.21-.6.14.07-.14-.25-.25,0-.41,0,.36.28-.16.44.09a.21.21,0,0,1-.08-.2.1.1,0,0,1,.09,0c.13-.41-.38,0-.51-.31.18,0,.28-.2.22-.24.05.13-.25.17-.42.11,0-.26-.19-.18-.22-.3v.15c-.18,0-.2-.09-.32-.21.13-.06.15.1.18,0-.35,0,.15-.47-.14-.61.07-.14.31-.13.35-.25-.32-.16.13-.35-.14-.55-.2.16-.14.16-.42,0l.3.38-.41-.16c0,.13.23.22.22.32-.23-.07-.17-.08-.33.06.27-.31-.32-.29-.16-.58l.55-.2c.15-.4-.47-.45-.46-.91l-.06.17c-.24,0-.11-.24-.25-.34.19,0,.23-.16.33-.25-.13.05-.08-.3-.47-.22l.18-.26c0-.36-.66-.2-.7-.54.24,0,.32-.15.54,0,0-.1,0-.21-.16-.17.1-.1-.36-.22-.21-.37-.1,0-.3,0-.32-.1a.2.2,0,0,1,.09,0c-.1,0-.18-.15-.36,0,.5-.5-.28-.92.15-1.35a4.78,4.78,0,0,1-.32-.7c.06,0,.1,0,.09,0,.1-.34-.6,0-.49-.43.27-.24.22.14.31,0,.62-.2-.19-.38.12-.69l0,0c.17-.22-.35-.36-.37-.66a.16.16,0,0,0,.09,0,1.31,1.31,0,0,1-.69-.74c.27,0,.16.1.4,0-.05-.12-.4.12-.51-.12.12-.1.21-.31.48-.38l.05.23c.33-.19-.06-.3,0-.43l.15,0c-.11-.34-.5-.28-.54-.67l-.1.06c-.42-.14.18-.21-.14-.37l.38-.13a3.54,3.54,0,0,1-.58-.66,2.27,2.27,0,0,1,.71.51c0-.14-.1-.46-.31-.5,0,0,.16.1.1.17a.76.76,0,0,1-.56-.6c.76-.06.06-.74.65-1-.33-.45,0-1-.07-1.53-.58.26,0-.16-.64-.07,0-.13,0-.18,0-.2l.33-.43c.16-.11.14.11.28.09,0-.29.24-.14.39-.35-.22.06-.32-.07-.26-.24l-.25.25c-.37-.38.47-.38.11-.76l.21.11c-.14-.2-.07-.76-.55-.94.07,0,.23-.1.28,0,.06-.5-.54-1.09-.25-1.49l.15,0c0-.1-.28-.16-.13-.28s.15,0,.15,0-.26-.24-.18-.37l.17.11c.19-.49-.42-.75-.53-1.16.44,0,.56-.38.65-.57h.06c.09-.56-.31-1-.45-1.5.5-.3.26-1.09.56-1.59-.08.07-.34,0-.38-.14s-.28-.37.12-.31v0c.4-.06.3-.32.34-.51l-.52-.09c.83-.43-.1-1.37.62-1.57-.11-.14-.09-.29-.2-.43l.28,0a2.16,2.16,0,0,0,.16-.92l.19.12c0-.24-.76-.43-.75-.66h.43c0-.42.51-.76.22-1.23,0,0,.17,0,.17.12.06-.19.45-.68-.14-.73.38.07.13-.42,0-.68l.26.1c-.3-.26-.4-.29-.43-.58,0-.05.23,0,.14.06.19-.17-.22-.22,0-.44l.15.14c.07-.21,0-.21-.21-.38s.16-.39.41-.36c-.14-.07-.31-.23-.21-.34a.2.2,0,0,1,.16.1c.26-.31-.16-.61.17-.78.09,0,.14,0,.17,0a1.82,1.82,0,0,1-.18.47c.24.07.36-.14.64.12-.13-.22-.44-.64-.26-.82h.1l0,0s0-.09,0-.15a.33.33,0,0,0,.13-.16c.21,0,.19-.22.23-.32-.27-.08-.18-.21-.44-.14,0,0,0,0,0,.11a.13.13,0,0,0,0,.06l0,0-.07.28c-.11-.13-.19-.25,0-.33l-.39-.29c.42,0,.72-.27,1-.24,0-.38.14-.82-.29-1.21,0-.12.18-.06.27-.07s0,.14.07.19c-.07-.24.12-.59-.21-.76.23-.19.27.25.33-.1l.09.08c.81-.43-.46-1.37.53-1.82a.17.17,0,0,1-.15,0c.65-.67.36-1.82,1.23-2.37.21-.17,0-.29-.08-.51l.29.09-.19-.38c-.06-.44,1-.23.73-.86l-.21,0c.11-.13.13-.52.32-.39,0,0-.16-.14,0-.15l.14.07-.06-.49c.25-.23.53.34.77-.05,0-.18-.18-.66-.3-.65a.24.24,0,0,1-.31,0v-.18c-.39-.25-.75-.6-1.21-.41l.12.39-.24,0,.09-.22c-.24,0-.12.18,0,.33a.43.43,0,0,0-.27,0l.27.46c-.18-.06-.26-.28-.43-.17.12.21.41.09.43.34-.24,0-.38-.1-.29.12a.22.22,0,0,1-.18-.18c.06.19-.12.36.07.53-.3,0-.15.45-.54.24a.72.72,0,0,1,.16.49c-.37-.44-.25.41-.73.11.35.36-.09.65,0,1,0,0-.08-.1,0-.11s-.27.12-.39.19c.35.18.33.46.5.69-.43,0-.38-.3-.73-.39.29.12.15.47.42.51-.27.05-.16.08-.49,0,.44.22,0,.17.25.41-.31.12-.44-.12-.4.17C1846.61,511.23,1846.54,511,1846.54,511Zm-1.22,6h0l0-.12Zm-.14.49a1,1,0,0,0,.07-.21c.1,0,.19.06.17.1S1845.28,517.39,1845.18,517.44Zm2.18-.47c0,.08,0,.09-.1.08s0-.07,0-.13l0,0A.35.35,0,0,1,1847.36,517Z"/>
      <path class="cls-24" d="M1847.05,516.73s0,0,0,0l-.07,0,.07,0Z"/>
      <path class="cls-24" d="M1852.79,559.62h0l0,0Z"/>
      <polygon class="cls-24" points="1843.31 524.21 1843.38 524.22 1843.32 524.17 1843.31 524.21"/>
      <path class="cls-24" d="M1853.54,562.44a.15.15,0,0,0,0,.07A.24.24,0,0,0,1853.54,562.44Z"/>
      <path class="cls-24" d="M1854.22,563.43l0,.2A.81.81,0,0,0,1854.22,563.43Z"/>
      <path class="cls-24" d="M1854.67,564.25l.11-.06h0Z"/>
      <path class="cls-24" d="M1847,551.7l0,0Z"/>
      <path class="cls-24" d="M1849.4,555.42a1,1,0,0,1-.18-.07C1849.24,555.43,1849.26,555.49,1849.4,555.42Z"/>
      <polygon class="cls-24" points="1845.03 547.17 1845.04 547.17 1845.03 547.14 1845.03 547.17"/>
      <path class="cls-24" d="M1849.13,555.17a.16.16,0,0,0,.09.18A.23.23,0,0,0,1849.13,555.17Z"/>
      <path class="cls-24" d="M1857.22,567.36l0,0,0,0Z"/>
      <path class="cls-24" d="M1857.28,567.37l.06,0S1857.31,567.36,1857.28,567.37Z"/>
      <path class="cls-24" d="M1857.46,567.41l-.12,0S1857.38,567.45,1857.46,567.41Z"/>
      <path class="cls-24" d="M1856.49,566.36l-.09.06Z"/>
      <path class="cls-24" d="M1856.21,566.11c0,.08,0,.31.13.36l.06-.05C1856.25,566.48,1856.4,566.06,1856.21,566.11Z"/>
      <path class="cls-24" d="M1856.14,564.15a2.44,2.44,0,0,0,.14.28c0-.11.11-.25.22-.17C1856.5,563.77,1856.36,564.48,1856.14,564.15Z"/>
      <path class="cls-24" d="M1855.69,563.3c.14.1.13-.1.18-.13C1855.73,563.15,1855.69,563.14,1855.69,563.3Z"/>
      <path class="cls-24" d="M1851.84,557.71l.23-.11C1852,557.51,1852,557.65,1851.84,557.71Z"/>
      <polygon class="cls-24" points="1850.06 557.21 1849.97 557.4 1850.21 557.34 1850.06 557.21"/>
      <polygon class="cls-24" points="1851.3 555.66 1851.36 555.69 1851.18 555.55 1851.3 555.66"/>
      <path class="cls-24" d="M1847.05,545.19l-.29.12C1846.83,545.38,1847.18,545.3,1847.05,545.19Z"/>
      <path class="cls-24" d="M1845.68,540.47c.14-.08.22-.23,0-.29C1845.73,540.3,1845.63,540.43,1845.68,540.47Z"/>
      <polygon class="cls-24" points="1845.63 525.82 1845.73 525.93 1845.66 525.74 1845.63 525.82"/>
    </g>
    <ellipse class="cls-12" cx="1751.95" cy="573.99" rx="6.7" ry="2.55"/>
  </g>
  <g>
    <rect class="cls-25" x="439.8" y="314.87" width="11" height="177"/>
    <rect class="cls-26" x="385.8" y="225.87" width="122" height="122" rx="13.49"/>
    <path d="M419.73,300.23h42.63l-.95,4.94h-39a3.65,3.65,0,0,0-3.4,4.52l.8,3.74a8.7,8.7,0,0,0-4.59,7.78,8.15,8.15,0,1,0,16.28.24A8.84,8.84,0,0,0,429,315h30.49a8.87,8.87,0,0,0-2.45,6.17,8.15,8.15,0,1,0,16.28.46,8.77,8.77,0,0,0-4.08-7.95l10.21-53h10.17a3.61,3.61,0,0,0,3.49-3.71v-2.46a3.61,3.61,0,0,0-3.49-3.71H474.72a3.55,3.55,0,0,0-3.41,3L470,260.75H412.85a3.65,3.65,0,0,0-3.4,4.52l6.87,32.08A3.55,3.55,0,0,0,419.73,300.23Z"/>
    <path class="cls-6" d="M443,293.55v-7.24h10.1a2,2,0,0,0,2-2v-4a2,2,0,0,0-2-2H443V271a2,2,0,0,0-3.45-1.43l-11.29,11.29a2,2,0,0,0,0,2.86L439.51,295a2,2,0,0,0,3.45-1.43Z"/>
  </g>
  <rect class="cls-27" y="-2" width="1920" height="1080"/>
  <g>
    <path d="M716.34,113.09l18.82,29.83,18.76-30.79,18.22.48-28.92,47.14.48,47-16.42,1-.72-49.24-28.32-45.58Z"/>
    <path d="M794.56,124.58a18.79,18.79,0,0,1,2.74-4.69,20.36,20.36,0,0,1,5-4.51,30,30,0,0,1,7.22-3.4,30.57,30.57,0,0,1,9.53-1.35q11.84,0,19,2.16a20.56,20.56,0,0,1,11.21,7.88q4,5.72,5.38,15.87A205.87,205.87,0,0,1,856,162.7a154.91,154.91,0,0,1-1.11,20,30.52,30.52,0,0,1-4.93,13.8,21.58,21.58,0,0,1-11,7.88q-7.15,2.46-19.24,2.1a20.89,20.89,0,0,1-12-1.44,23.1,23.1,0,0,1-8.63-7,38.34,38.34,0,0,1-5.68-11,72.57,72.57,0,0,1-3.12-13.53,113.39,113.39,0,0,1-1-14.46,129.15,129.15,0,0,1,.6-13.92,91.62,91.62,0,0,1,1.9-11.81,37.41,37.41,0,0,1,2.73-8.18Zm11.19,46.18q.84,2.58,1.71,6a38.37,38.37,0,0,0,2.29,6.46,16.24,16.24,0,0,0,3.69,5.23,8.2,8.2,0,0,0,5.84,2.14,35.19,35.19,0,0,0,8.5-1,12.33,12.33,0,0,0,6.65-3.9,11,11,0,0,0,2-3.85,46.33,46.33,0,0,0,1.36-5.41,55.47,55.47,0,0,0,.81-6.59c.16-2.38.24-4.82.24-7.3a131.76,131.76,0,0,0-1.12-19.75q-1.11-6.94-3.51-10.17a9,9,0,0,0-6-3.75,60.31,60.31,0,0,0-8.69-.54c-5.5,0-9.3,2.11-11.43,6.34s-3.18,10.89-3.18,20Z"/>
    <path d="M935.62,109.67l4,57.24c.16,2.64.24,5.31.24,8a56.77,56.77,0,0,1-.54,7.85,35.16,35.16,0,0,1-1.84,7.4,20.14,20.14,0,0,1-3.75,6.34c-.85.88-1.54,1.59-2.08,2.13A15.36,15.36,0,0,1,930,200a9.78,9.78,0,0,1-1.71,1.05l-2.26,1c-1.32.48-2.27.84-2.86,1.08s-1.15.45-1.71.64a23.36,23.36,0,0,1-2.28.57c-1,.2-2.43.54-4.39,1-1.05.24-2,.47-2.8.69a15.28,15.28,0,0,1-2.4.45c-.79.08-1.65.14-2.59.18a31.24,31.24,0,0,1-3.28-.06,50,50,0,0,1-6.16-.69,21.43,21.43,0,0,1-4.9-1.65,36.75,36.75,0,0,1-4.39-2.26,15.48,15.48,0,0,1-3.09-2.46,13.73,13.73,0,0,1-2.23-3.13,38.12,38.12,0,0,1-1.89-4.36,35.93,35.93,0,0,1-1.36-5c-.42-2-.77-4.06-1.05-6.16s-.52-4.08-.72-5.93-.34-3.28-.42-4.32l-3.37-56.82,16.42-1.09L895,176.41q.48,7.4,3.36,10.94t10,3.07q7-.36,10.74-4.6t3.27-11.64l-5.17-63.43Z"/>
    <path d="M1014.75,111.23l5.65,44.25,14.13-42.39,6.19.37,6.74,45.57,12.2-44.91,16.66,1.68-26,90.91-7.64-.54-8.47-40.71L1021.36,205l-9.08-.6-12.69-93.62Z"/>
    <path d="M1099.83,124.58a18.73,18.73,0,0,1,2.73-4.69,20.36,20.36,0,0,1,5-4.51,30.16,30.16,0,0,1,7.22-3.4,30.57,30.57,0,0,1,9.53-1.35q11.84,0,19,2.16a20.52,20.52,0,0,1,11.21,7.88q4,5.72,5.38,15.87a205.87,205.87,0,0,1,1.35,26.16,154.91,154.91,0,0,1-1.11,20,30.52,30.52,0,0,1-4.93,13.8,21.54,21.54,0,0,1-11,7.88q-7.15,2.46-19.24,2.1a20.89,20.89,0,0,1-12-1.44,23.17,23.17,0,0,1-8.63-7,38.59,38.59,0,0,1-5.68-11,72.57,72.57,0,0,1-3.12-13.53,113.39,113.39,0,0,1-1-14.46,126.55,126.55,0,0,1,.61-13.92,91.71,91.71,0,0,1,1.89-11.81,36.83,36.83,0,0,1,2.74-8.18ZM1111,170.76q.84,2.58,1.71,6a38.37,38.37,0,0,0,2.29,6.46,16.24,16.24,0,0,0,3.69,5.23,8.2,8.2,0,0,0,5.84,2.14,35.19,35.19,0,0,0,8.5-1,12.33,12.33,0,0,0,6.65-3.9,11,11,0,0,0,2-3.85,46.33,46.33,0,0,0,1.36-5.41,55.47,55.47,0,0,0,.81-6.59c.16-2.38.24-4.82.24-7.3a133.38,133.38,0,0,0-1.11-19.75q-1.12-6.94-3.52-10.17a9,9,0,0,0-6-3.75,60.31,60.31,0,0,0-8.69-.54q-8.23,0-11.43,6.34t-3.18,20Z"/>
    <path d="M1202.22,110.75l17.86,43.83,4.09-42.21,18.33,1.57-8,93.37-14.43-2.82-20.57-43.11-3.9,42.63-18-1.75L1185.5,109Z"/>
    <path d="M1281.89,186v21.64H1261.2V186Zm.12-66.5v20l-.12,40.77h-20.32l-.13-40.77v-20Z"/>
  </g>
  <circle class="cls-11" cx="968.54" cy="546.2" r="216.12"/>
  <ellipse class="cls-6" cx="915.77" cy="497.2" rx="56.54" ry="45.23" transform="translate(121.37 1171.57) rotate(-68.83)"/>
  <ellipse cx="927.08" cy="499.71" rx="11.31" ry="13.82"/>
  <path class="cls-28" d="M1109.27,377.83H827.81l32.67-82.93c9.58-8.52,50.69-43.12,113.09-42.72,58.65.37,97.71,31.42,108.06,40.21Q1095.44,335.11,1109.27,377.83Z"/>
  <path d="M1116.81,377.83a1436.92,1436.92,0,0,0-294,0,13.37,13.37,0,0,0-12.56,7.54,13.1,13.1,0,0,0,0,10.05,1199.75,1199.75,0,0,1,309.1-5,7.29,7.29,0,0,0,2.52-7.54A7.72,7.72,0,0,0,1116.81,377.83Z"/>
  <ellipse class="cls-6" cx="1016.65" cy="499.27" rx="45.23" ry="56.54" transform="translate(-115.83 481.08) rotate(-25.24)"/>
  <ellipse cx="1004.98" cy="499.71" rx="11.31" ry="13.82"/>
  <path class="cls-29" d="M827.81,377.83,966,375.32V305C958.77,309,933,322,900.69,315a92.32,92.32,0,0,1-40.21-20.1,89.38,89.38,0,0,0-32.67,82.93Z"/>
  <path class="cls-29" d="M968.54,375.32l140.73,2.51c1.86-8.69,6.12-34.25-7.54-60.31a85.31,85.31,0,0,0-20.1-25.13A140.61,140.61,0,0,1,968.54,305Z"/>
  <ellipse class="cls-30" cx="972.31" cy="249.78" rx="6.28" ry="5.14" transform="matrix(1, -0.09, 0.09, 1, -17.77, 83.89)"/>
  <path class="cls-31" d="M1067.85,641.34s-176.42,103.54-216.57-1.22Z"/>
</svg>
