<?xml version="1.0" encoding="utf-8"?>
<!-- Generator: Adobe Illustrator 25.0.0, SVG Export Plug-In . SVG Version: 6.00 Build 0)  -->
<svg version="1.1" id="Layer_1" xmlns="http://www.w3.org/2000/svg" xmlns:xlink="http://www.w3.org/1999/xlink" x="0px" y="0px"
	 viewBox="0 0 1920 1080" style="enable-background:new 0 0 1920 1080;" xml:space="preserve">
<style type="text/css">
	.st0{fill:#8E9291;}
	.st1{fill:#178B00;}
	.st2{fill:#995110;}
	.st3{fill:#00C5E7;}
	.st4{fill:#D00500;}
	.st5{fill:#FFFFFF;}
	.st6{fill:#E60C00;}
	.st7{fill:#ADEBFF;}
	.st8{fill:#82B0BF;}
	.st9{opacity:0.1;enable-background:new    ;}
	.st10{fill:#ECBCB4;}
	.st11{stroke:#000000;stroke-miterlimit:10;}
	.st12{fill:#070073;}
	.st13{fill:#080045;}
	.st14{fill:#32FF17;}
	.st15{fill:#8B2C00;}
	.st16{fill:#FF0D21;}
	.st17{fill:#2EFFE0;}
	.st18{fill:none;stroke:#000000;stroke-miterlimit:10;}
	.st19{fill:#07D000;}
	.st20{fill:#72FF2E;}
	.st21{fill:#0A00A2;}
	.st22{fill:#FAF0BE;}
	.st23{fill:#202020;}
	.st24{fill:#9A6800;}
	.st25{fill:#EE2D00;}
	.st26{opacity:0.5;enable-background:new    ;}
	.st27{fill:#4657FF;}
	.st28{fill:#4657FF;stroke:#000000;stroke-width:0.2;stroke-miterlimit:10;}
	.st29{stroke:#000000;stroke-width:0.2;stroke-miterlimit:10.04;}
	.st30{fill:#FFFFFF;stroke:#000000;stroke-width:0.2;stroke-miterlimit:10;}
	.st31{fill:none;}
	.st32{font-family:'southpark';}
	.st33{font-size:48px;}
</style>
<rect y="443" class="st0" width="1920" height="637"/>
<rect y="255" class="st1" width="1920" height="188"/>
<rect y="83" class="st2" width="1920" height="173"/>
<rect class="st3" width="1920" height="82"/>
<polygon class="st2" points="0.2,83 19.7,49.2 39.2,83 "/>
<polygon class="st2" points="30.2,83 49.7,49.2 69.2,83 "/>
<polygon class="st2" points="61.7,83 81.2,49.2 100.7,83 "/>
<polygon class="st2" points="91.7,83 111.2,49.2 130.7,83 "/>
<polygon class="st2" points="123.9,83 143.4,49.2 162.9,83 "/>
<polygon class="st2" points="153.9,83 173.4,49.2 192.9,83 "/>
<polygon class="st2" points="185.4,83 204.9,49.2 224.4,83 "/>
<polygon class="st2" points="215.4,83 234.9,49.2 254.4,83 "/>
<polygon class="st2" points="247.8,83 267.3,49.2 286.8,83 "/>
<polygon class="st2" points="277.8,83 297.3,49.2 316.8,83 "/>
<polygon class="st2" points="309.2,83 328.7,49.2 348.2,83 "/>
<polygon class="st2" points="339.2,83 358.7,49.2 378.2,83 "/>
<polygon class="st2" points="371.5,83 391,49.2 410.5,83 "/>
<polygon class="st2" points="401.5,83 421,49.2 440.5,83 "/>
<polygon class="st2" points="433,83 452.5,49.2 472,83 "/>
<polygon class="st2" points="463,83 482.5,49.2 502,83 "/>
<polygon class="st2" points="492.7,83 512.2,49.2 531.7,83 "/>
<polygon class="st2" points="522.7,83 542.2,49.2 561.7,83 "/>
<polygon class="st2" points="554.2,83 573.7,49.2 593.2,83 "/>
<polygon class="st2" points="584.2,83 603.7,49.2 623.2,83 "/>
<polygon class="st2" points="616.5,83 636,49.2 655.5,83 "/>
<polygon class="st2" points="646.5,83 666,49.2 685.5,83 "/>
<polygon class="st2" points="678,83 697.4,49.2 717,83 "/>
<polygon class="st2" points="708,83 727.4,49.2 747,83 "/>
<polygon class="st2" points="740.3,83 759.8,49.2 779.3,83 "/>
<polygon class="st2" points="770.3,83 789.8,49.2 809.3,83 "/>
<polygon class="st2" points="801.8,83 821.3,49.2 840.8,83 "/>
<polygon class="st2" points="831.8,83 851.3,49.2 870.8,83 "/>
<polygon class="st2" points="864,83 883.5,49.2 903,83 "/>
<polygon class="st2" points="894,83 913.5,49.2 933,83 "/>
<polygon class="st2" points="925.5,83 945,49.2 964.5,83 "/>
<polygon class="st2" points="955.5,83 975,49.2 994.5,83 "/>
<polygon class="st2" points="986.9,83 1006.4,49.2 1025.9,83 "/>
<polygon class="st2" points="1016.9,83 1036.4,49.2 1055.9,83 "/>
<polygon class="st2" points="1048.3,83 1067.8,49.2 1087.4,83 "/>
<polygon class="st2" points="1078.3,83 1097.8,49.2 1117.4,83 "/>
<polygon class="st2" points="1110.6,83 1130.1,49.2 1149.6,83 "/>
<polygon class="st2" points="1140.6,83 1160.1,49.2 1179.6,83 "/>
<polygon class="st2" points="1172.1,83 1191.6,49.2 1211.1,83 "/>
<polygon class="st2" points="1202.1,83 1221.6,49.2 1241.1,83 "/>
<polygon class="st2" points="1234.4,83 1253.9,49.2 1273.5,83 "/>
<polygon class="st2" points="1264.4,83 1283.9,49.2 1303.5,83 "/>
<polygon class="st2" points="1295.9,83 1315.4,49.2 1334.9,83 "/>
<polygon class="st2" points="1325.9,83 1345.4,49.2 1364.9,83 "/>
<polygon class="st2" points="1358.2,83 1377.7,49.2 1397.2,83 "/>
<polygon class="st2" points="1388.2,83 1407.7,49.2 1427.2,83 "/>
<polygon class="st2" points="1419.7,83 1439.2,49.2 1458.7,83 "/>
<polygon class="st2" points="1449.7,83 1469.2,49.2 1488.7,83 "/>
<polygon class="st2" points="1479.4,83 1498.9,49.2 1518.4,83 "/>
<polygon class="st2" points="1509.4,83 1528.9,49.2 1548.4,83 "/>
<polygon class="st2" points="1540.9,83 1560.4,49.2 1579.9,83 "/>
<polygon class="st2" points="1570.9,83 1590.4,49.2 1609.9,83 "/>
<polygon class="st2" points="1603.2,83 1622.6,49.2 1642.2,83 "/>
<polygon class="st2" points="1633.2,83 1652.6,49.2 1672.2,83 "/>
<polygon class="st2" points="1664.6,83 1684.1,49.2 1703.6,83 "/>
<polygon class="st2" points="1694.6,83 1714.1,49.2 1733.6,83 "/>
<polygon class="st2" points="1727,83 1746.5,49.2 1766,83 "/>
<polygon class="st2" points="1757,83 1776.5,49.2 1796,83 "/>
<polygon class="st2" points="1788.5,83 1807.9,49.2 1827.5,83 "/>
<polygon class="st2" points="1818.5,83 1837.9,49.2 1857.5,83 "/>
<polygon class="st2" points="1850.7,83 1870.2,49.2 1889.7,83 "/>
<polygon class="st2" points="1880.7,83 1900.2,49.2 1919.7,83 "/>
<rect class="st4" width="173" height="1080"/>
<rect x="86" y="443" width="57" height="637"/>
<rect x="161" y="150" class="st5" width="23" height="199"/>
<rect x="180" y="160" class="st6" width="6" height="126"/>
<rect x="143" y="444" class="st0" width="37" height="636"/>
<path class="st7" d="M115,1048l14-18c-0.3-193.7-0.7-387.3-1-581l-13,24V1048z"/>
<path class="st8" d="M100,1063l14-15V473l-14,24V1063z"/>
<polygon class="st0" points="143,1080 100,1080 143,1033 "/>
<polygon class="st9" points="143,1033 297.3,49.2 282.3,75.2 267.3,49.2 251.1,77.2 234.9,49.2 219.9,75.2 204.9,49.2 189.2,76.5 
	173.4,49.2 172.5,150 184,150 184,160 186,160 186,286 184,286 184,349 173,349 172.5,443 143,444 "/>
<g>
	<circle class="st10" cx="1622.2" cy="390.8" r="68.4"/>
	<g>
		<path class="st10" d="M1647.9,411.5c-1.1,0-2.3-0.1-3.4-0.2l1.7-13.3l1.6-13.3c11.2,1.5,19.6,8.5,18.7,15.8
			C1665.7,406.9,1657.9,411.5,1647.9,411.5L1647.9,411.5z"/>
		<path d="M1648.2,385.2c10.5,1.6,18.6,8.4,17.8,15.2c-0.7,6-8.5,10.6-18.1,10.6c-0.9,0-1.9,0-2.8-0.1l1.6-12.8L1648.2,385.2
			 M1647.3,384.1l-1.7,13.8l-1.7,13.8l0,0c1.3,0.2,2.6,0.2,3.9,0.2c10,0,18.3-4.8,19.1-11.5C1667.9,392.9,1658.9,385.5,1647.3,384.1
			L1647.3,384.1z"/>
	</g>
	<g>
		<path class="st10" d="M1651,407.8l0.7-8.6l0.6-8.6c4.7,0.6,8.1,4.9,7.5,9.7c-0.6,4.3-4.2,7.6-8.6,7.6L1651,407.8z"/>
		<path d="M1652.8,391.1c4.4,0.9,7.3,5.1,6.4,9.6c-0.7,3.7-3.9,6.4-7.6,6.6l0.7-8.1L1652.8,391.1 M1651.9,390l-0.6,9.1l-0.7,9.1h0.7
			c5.1,0,9.2-4.1,9.2-9.1C1660.4,394.3,1656.7,390.3,1651.9,390L1651.9,390z"/>
	</g>
	<path d="M1546.8,329.1c27.1-0.4,53.9-0.1,81-0.1l33.8-0.2c-0.2-16.3-15.4-29.6-33.8-29.6c-18.3,0-33.4,13.1-33.8,29.2"/>
	<circle class="st11" cx="1628.1" cy="296.5" r="2.4"/>
	<path class="st12" d="M1593.5,459.6h58.1c21.8,0,39.4,17.6,39.4,39.4v86.7c0,21.8-17.6,39.4-39.4,39.4h-58.1
		c-21.8,0-39.4-17.6-39.4-39.4V499C1554.1,477.2,1571.8,459.6,1593.5,459.6z"/>
	<path class="st13" d="M1616.2,459.6h5.5c9.2,0,16.7,7.5,16.7,16.7v132c0,9.2-7.5,16.7-16.7,16.7h-5.5c-9.2,0-16.7-7.5-16.7-16.7
		v-132C1599.5,467.1,1607,459.6,1616.2,459.6z"/>
	<path class="st14" d="M1619,625.9L1619,625.9c13.9,0,25.1,11.2,25.1,25.1v136.9c0,13.8-11.2,25.1-25.1,25.1h0
		c-13.8,0-25.1-11.2-25.1-25.1V651C1593.9,637.1,1605.1,625.9,1619,625.9z"/>
	<ellipse class="st15" cx="1610.6" cy="816.1" rx="34.2" ry="3.2"/>
	<path class="st11" d="M1583.3,412.8l-0.3,32.3c-9.7-2.7-18.5-12.6-22.4-25.1c-0.5-1.5-0.9-3.1-1.2-4.6L1583.3,412.8z"/>
	<ellipse class="st5" cx="1594.7" cy="371.5" rx="11.5" ry="14.7"/>
	<circle cx="1590.3" cy="375.1" r="4"/>
</g>
<g>
	<circle class="st10" cx="1440.9" cy="345.4" r="62.7"/>
	<g>
		<path class="st10" d="M1464.5,364.4c-1,0-2-0.1-3.1-0.2l1.5-12.2l1.5-12.2c4.6,0.5,9,2.4,12.6,5.2c3.3,2.7,4.9,6,4.5,9.2
			C1480.8,360.1,1473.6,364.4,1464.5,364.4L1464.5,364.4z"/>
		<path d="M1464.8,340.4c4.3,0.6,8.4,2.3,11.8,5c3.2,2.6,4.7,5.7,4.3,8.8c-0.7,5.5-7.8,9.6-16.5,9.6c-0.8,0-1.7,0-2.5-0.1l1.4-11.7
			L1464.8,340.4 M1463.9,339.3l-1.5,12.7l-1.6,12.7l0,0c1.2,0.1,2.4,0.2,3.6,0.2c9.2,0,16.8-4.4,17.5-10.5
			C1482.8,347.4,1474.7,340.6,1463.9,339.3L1463.9,339.3z"/>
	</g>
	<g>
		<path class="st10" d="M1467.4,361l0.6-7.9l0.6-7.9c4.3,0.6,7.4,4.5,6.8,8.9c-0.5,3.9-3.8,6.8-7.8,6.8H1467.4z"/>
		<path d="M1469,345.8c4,0.8,6.6,4.7,5.8,8.7c-0.7,3.3-3.5,5.7-6.9,5.9l0.6-7.3L1469,345.8 M1468.1,344.7l-0.6,8.4l-0.7,8.4h0.7
			c4.6,0,8.4-3.7,8.4-8.4C1475.9,348.6,1472.5,345,1468.1,344.7L1468.1,344.7z"/>
	</g>
	<path class="st16" d="M1371.8,288.9c24.8-0.4,49.4,0,74.2,0l31-0.2c-0.1-14.9-14.1-27.1-31-27.1s-30.6,12-31,26.7"/>
	<circle class="st11" cx="1446.4" cy="259" r="2.2"/>
	<path class="st12" d="M1417.9,408.5h46.7c21.8,0,39.4,17.6,39.4,39.4v73c0,21.8-17.6,39.4-39.4,39.4h-46.7
		c-21.8,0-39.4-17.6-39.4-39.4v-73C1378.5,426.2,1396.2,408.5,1417.9,408.5z"/>
	<path class="st13" d="M1436.8,408.5h2.3c9.2,0,16.7,7.5,16.7,16.7v118.3c0,9.2-7.5,16.7-16.7,16.7h-2.3c-9.2,0-16.7-7.5-16.7-16.7
		V425.3C1420.1,416,1427.6,408.5,1436.8,408.5z"/>
	<path class="st14" d="M1438,561L1438,561c12.7,0,23,10.3,23,23v125.5c0,12.7-10.3,23-23,23l0,0l0,0c-12.7,0-23-10.3-23-23l0,0V584
		C1415,571.3,1425.3,561,1438,561z"/>
	<ellipse class="st15" cx="1430.3" cy="735.4" rx="31.4" ry="2.9"/>
	<path class="st11" d="M1405.2,365.6l-0.3,29.6c-8.9-2.5-17-11.5-20.6-23c-0.4-1.4-0.8-2.8-1.1-4.2L1405.2,365.6z"/>
	<ellipse class="st5" cx="1420" cy="335.2" rx="10.6" ry="13.5"/>
	<circle cx="1415.9" cy="338.5" r="3.7"/>
</g>
<g>
	<circle class="st10" cx="1531" cy="625.8" r="69.6"/>
	<path class="st17" d="M1470.3,609.5l-0.2,0.1c-20.8,8.9-30.8,32.2-22.3,52.2s32.2,28.9,53.1,20l0.2-0.1L1470.3,609.5z"/>
	<ellipse class="st5" cx="1512.8" cy="601.9" rx="11.7" ry="15"/>
	<circle cx="1508.4" cy="605.5" r="4"/>
	<g>
		<path class="st10" d="M1557.2,646.8c-1.2,0-2.3-0.1-3.4-0.2l1.7-13.5l1.7-13.5c5.1,0.6,10,2.6,14,5.8c3.7,3.1,5.4,6.7,5,10.2
			C1575.3,642.1,1567.3,646.8,1557.2,646.8L1557.2,646.8z"/>
		<path d="M1557.5,620.1c10.7,1.6,19,8.6,18.1,15.4c-0.7,6.2-8.7,10.8-18.4,10.8c-1,0-1.9,0-2.9-0.1l1.6-13L1557.5,620.1
			 M1556.6,619.1l-1.7,14l-1.7,14l0,0c1.3,0.2,2.7,0.2,4,0.2c10.2,0,18.6-4.8,19.4-11.7C1577.5,628,1568.5,620.5,1556.6,619.1
			L1556.6,619.1z"/>
	</g>
	<g>
		<path class="st10" d="M1560.3,643l0.7-8.8l0.6-8.8c4.8,0.6,8.2,5,7.6,9.8c-0.6,4.4-4.3,7.7-8.7,7.7H1560.3z"/>
		<path d="M1562.1,626.1c4.5,0.9,7.5,5.2,6.6,9.7c-0.7,3.8-4,6.6-7.9,6.8l0.7-8.2L1562.1,626.1 M1561.2,625l-0.7,9.3l-0.8,9.3h0.8
			c5.1,0,9.3-4.1,9.3-9.3C1569.9,629.3,1566.1,625.3,1561.2,625L1561.2,625z"/>
	</g>
	<path d="M1454.4,563.1c27.5-0.4,54.8,0,82.3,0l34.4-0.2c-0.1-16.5-15.6-30.1-34.4-30.1c-18.6,0-33.9,13.3-34.4,29.6"/>
	<circle class="st11" cx="1537.1" cy="529.9" r="2.4"/>
	<path class="st18" d="M1554.7,647.3c-4.1,6-8.7,11.8-13.7,17.1c-5.3,5.7-11.2,11.1-18.6,13.8c-6.9,2.5-14.5,2.3-21.9,2.1"/>
	<path class="st19" d="M1501.3,695.7h60.3c21.8,0,39.4,17.6,39.4,39.4v89.4c0,21.8-17.6,39.4-39.4,39.4h-60.3
		c-21.8,0-39.4-17.6-39.4-39.4v-89.4C1461.9,713.3,1479.5,695.7,1501.3,695.7z"/>
	<path class="st20" d="M1524.7,695.7h6.2c9.2,0,16.7,7.5,16.7,16.7v134.8c0,9.2-7.5,16.7-16.7,16.7h-6.2c-9.2,0-16.7-7.5-16.7-16.7
		V712.5C1508,703.2,1515.5,695.7,1524.7,695.7z"/>
	<path class="st21" d="M1527.8,864.8L1527.8,864.8c14.1,0,25.5,11.4,25.5,25.5v139.1c0,14.1-11.4,25.5-25.5,25.5l0,0
		c-14.1,0-25.5-11.4-25.5-25.5V890.2C1502.3,876.2,1513.7,864.8,1527.8,864.8z"/>
	<ellipse class="st15" cx="1519.3" cy="1058.1" rx="34.8" ry="3.2"/>
	<path class="st18" d="M1469.5,610.3c31.2,22.3,86.3,9.5,86.3,9.5"/>
</g>
<g>
	<circle class="st10" cx="1796.4" cy="556.4" r="54.8"/>
	<ellipse class="st5" cx="1782.1" cy="537.6" rx="9.2" ry="11.8"/>
	<circle cx="1778.6" cy="540.5" r="3.2"/>
	<g>
		<path class="st10" d="M1817,572.9c-0.9,0-1.7,0-2.6-0.1l1.3-10.6l1.3-10.6c4,0.5,7.8,2.1,10.9,4.5c2.8,2.4,4.2,5.2,3.9,8
			C1831.2,569.2,1824.8,572.9,1817,572.9L1817,572.9z"/>
		<path d="M1817.4,552.2c3.7,0.5,7.2,2,10.2,4.4c2.7,2.3,4,5,3.7,7.5c-0.6,4.7-6.7,8.3-14.3,8.3c-0.7,0-1.3,0-2-0.1l1.2-10.1
			L1817.4,552.2 M1816.6,551.1l-1.3,11.1l-1.4,11.1l0,0c1,0.1,2.1,0.2,3.1,0.2c8,0,14.7-3.8,15.3-9.2
			C1833.1,558.1,1826,552.2,1816.6,551.1L1816.6,551.1z"/>
	</g>
	<g>
		<path class="st10" d="M1819.7,569.9l0.6-6.8l0.5-6.8c3.7,0.6,6.3,4.1,5.7,7.8C1825.9,567.5,1823,569.9,1819.7,569.9L1819.7,569.9z
			"/>
		<path d="M1821.1,556.9c3.4,0.8,5.5,4.2,4.7,7.6c-0.6,2.7-2.9,4.7-5.7,4.9l0.5-6.2L1821.1,556.9 M1820.2,555.8l-0.5,7.3l-0.6,7.3
			h0.6c4,0.1,7.4-3.1,7.5-7.2C1827.3,559.3,1824.2,556,1820.2,555.8L1820.2,555.8z"/>
	</g>
	<path class="st19" d="M1767,744.2h59.4c13.9,0,25.1-11.2,25.1-25.1v-82.4c0-13.9-11.2-25.1-25.1-25.1H1767
		c-6.4,1-12.5,3.5-17.8,7.4c-13.3,9.8-15.9,24.6-16.4,28.1c0.2,1.6,0.6,4.1,1.3,7c3.3,14.7,9,21,12.1,30c2,5.8,3.5,14.5,0.6,26.8
		c-4.6,8.8-3.6,19.2,2.4,26.1C1755.9,744.4,1765.6,744.2,1767,744.2z"/>
	<path class="st20" d="M1793.9,611.6L1793.9,611.6c8.6,0,15.6,7,15.6,15.6v101.4c0,8.6-7,15.6-15.6,15.6h0c-8.6,0-15.6-7-15.6-15.6
		V627.2C1778.2,618.6,1785.2,611.6,1793.9,611.6z"/>
	<path class="st21" d="M1793.9,744.8L1793.9,744.8c11.1,0,20.1,9,20.1,20.1v109.7c0,11.1-9,20.1-20.1,20.1h0
		c-11.1,0-20.1-9-20.1-20.1V764.9C1773.8,753.8,1782.8,744.8,1793.9,744.8z"/>
	<ellipse class="st15" cx="1787.2" cy="897.2" rx="27.4" ry="2.5"/>
	<path class="st22" d="M1751.8,524.6l20.6-8.3l3,9.5l13-9.5c4.1,34.9,22.6,66.4,51,87c16.6,4,34-2.7,43.7-16.8
		c-0.1-32.4-9-64.2-25.8-91.9l-13.8-18.8c-31-5.3-62.9-1.2-91.6,11.8l-23.4,9.7c-0.7,0.6-8.6,7.8-7,18.4c0.8,4.8,3.3,9.3,7,12.4
		c0.4,0.5,4.6,5.8,11.4,5.4C1745.3,533.1,1749.9,529.6,1751.8,524.6z"/>
	<g>
		<path class="st23" d="M1823.7,572.2c0.1,0,0.2-0.2,0.1-0.2l-0.2,0.2L1823.7,572.2z"/>
		<path class="st23" d="M1823.6,571.3c-0.2,0.1-0.5,0.3-0.6,0.5c0.3-0.2,0.2-0.1,0.5-0.3c0.1,0,0.1,0.2,0,0.3s0.1,0.2,0.2,0
			c0-0.3-0.1-0.4-0.3-0.3C1823.4,571.4,1823.5,571.4,1823.6,571.3z"/>
		<path class="st23" d="M1816.9,564.8L1816.9,564.8z"/>
		<path class="st23" d="M1813.4,560.3C1813.4,560.3,1813.5,560.3,1813.4,560.3C1813.5,560.3,1813.4,560.3,1813.4,560.3z"/>
		<path class="st23" d="M1813.1,559.3L1813.1,559.3C1813.1,559.4,1813.2,559.3,1813.1,559.3z"/>
		<path class="st23" d="M1816.9,564.8v-0.2C1816.8,564.7,1816.9,564.7,1816.9,564.8z"/>
		<path class="st23" d="M1822.1,571.2L1822.1,571.2z"/>
		<path class="st23" d="M1818.9,566.4L1818.9,566.4l0.1-0.1L1818.9,566.4z"/>
		<path class="st23" d="M1820.3,567.7c0,0-0.2,0.2-0.3,0.2c0.1-0.1,0.2-0.1,0.2-0.1C1820.3,567.8,1820.3,567.7,1820.3,567.7z"/>
		<path class="st23" d="M1817.9,565.4L1817.9,565.4L1817.9,565.4z"/>
		<path class="st23" d="M1803.2,514.9"/>
		<polygon class="st23" points="1805.2,513.2 1805.2,513.2 1805.3,513.2 		"/>
		<path class="st23" d="M1812.4,557.6L1812.4,557.6C1812.5,557.7,1812.5,557.6,1812.4,557.6z"/>
		<path class="st23" d="M1805.6,543c-0.2,0.2-0.4-0.2-0.6,0.1C1805.1,543.1,1805.5,543.3,1805.6,543z"/>
		<path class="st23" d="M1822,571.1L1822,571.1L1822,571.1z"/>
		<path class="st23" d="M1810.2,554.2C1810.2,554.3,1810.1,554.3,1810.2,554.2C1810.2,554.3,1810.2,554.3,1810.2,554.2z"/>
		<path class="st23" d="M1811.4,557.1L1811.4,557.1z"/>
		<path class="st23" d="M1809.1,553v-0.1l0,0C1809.1,552.9,1809.1,553,1809.1,553z"/>
		<polygon class="st23" points="1808.4,551.5 1808.3,551.6 1808.4,551.6 		"/>
		<path class="st23" d="M1802.1,520h0.3C1802.2,520,1802.1,519.7,1802.1,520z"/>
		<path class="st23" d="M1822.2,571c-0.1,0-0.1,0.1-0.1,0.1l0,0C1822,571.1,1822.2,571.1,1822.2,571z"/>
		<path class="st23" d="M1807.1,554l-0.1-0.3C1807,553.8,1807,553.9,1807.1,554z"/>
		<path class="st23" d="M1801.4,532.3L1801.4,532.3C1801.4,532.3,1801.4,532.3,1801.4,532.3z"/>
		<path class="st23" d="M1806.6,553c0.1-0.1,0.1-0.1,0.1-0.2h-0.1L1806.6,553z"/>
		<path class="st23" d="M1802.1,518.1c-0.1,0.3,0.3,0.2,0.5,0.3c0,0.3-0.3,0.1-0.5,0.1c0.1,0.2,0.4,0.4,0.3,0.6s-0.1,0-0.2,0
			c0.2,0.3-0.1,0.6,0.2,0.9h-0.1c0.2,0,0.3,0,0.5,0c0,0.1,0.2,0.2-0.1,0.2c0-0.1-0.1-0.1-0.1-0.1l0.1,0.1c-0.4,0-0.1-0.2-0.3-0.2
			c0.1,0.3,0.3,0.6,0.2,0.7c-0.3,0,0-0.4-0.4-0.2l0.2-0.3c-0.6,0.1,0.1-0.2-0.5-0.1c-0.2,0.3,0.1,0.4-0.1,0.8c0.2,0.1,0.3,0,0.4,0.1
			c0.3,0.6-0.9,0.3-0.5,0.7c0.2,0.1,0.6,0.2,0.4,0.5l-0.4-0.2c-0.1,0.4,0.5,0.3,0.2,0.6c-0.2-0.1-0.1-0.3-0.2-0.2
			c-0.3,0.2,0.2,0.2,0.2,0.4h-0.3c0,0.4,0.2,0.8,0.2,1.3c-0.1,0-0.2-0.1-0.3,0c0,0.6-0.1,1.1-0.4,1.6l0.3,0.2c0,0-0.1,0.1-0.2,0
			c-0.1,0.2,0.2,0,0.3,0.1s-0.2,0.1-0.3,0.1c0.2,0.4,0.5,1,0.2,1.4l-0.1-0.1c-0.1,0.3,0.6,0.3,0.3,0.6l0,0c-0.2,0.6,0.1,1.3-0.3,1.8
			c0.4,0.1-0.2,0.6,0.4,0.7c-0.3,0.4-0.4,0.3-0.6,0.8c0,0.1,0.4,0.2,0.4,0.3h-0.3l0.3,0.2l-0.4,0.2l0.1,0.2c0-0.1,0.1-0.1,0.2-0.1
			c0.2,0.2-0.2,0.6-0.3,0.6l0.3,0.6c-0.1,0-0.2-0.1-0.2-0.2c0.3,0.3-0.3,0.1,0,0.3c0.1,0,0.2,0,0.2,0c-0.1,0.2-0.1,0.5,0,0.7h-0.2
			c0.1,0.5,0.1,0.9,0.3,1.4c0.1-0.2,0.4-0.2,0.5,0l-0.3,0.1c0.2,0.1,0.1-0.2,0.4,0c0,0.2-0.3,0.2-0.5,0.1l0.1,0.2h-0.3
			c0.2,0.1-0.3,0.4,0.1,0.5h-0.1c0.1,0.5,0.2,0.7,0.3,1.1c0.3,0,0.2,0.1,0.5,0.2c-0.1,0.3-0.1,0.7-0.1,1c0.2,0.2,0.2,0,0.4,0.1
			c-0.2,0.1-0.2,0.4-0.4,0.3c0.1,0.4,0.2,0.7,0.5,1c0.1-0.1,0.1-0.2,0.2-0.1s-0.1,0.2-0.2,0.2l0,0c0.5,0.5-0.5,1.5,0.2,1.8l0,0
			l0.4,0.4c0,0.2-0.2-0.1-0.3,0.1c0.6,0.4,0.2,0.8,0.6,1.2c-0.6,0.5,0.4,1.1,0,1.7l0.2-0.1c0.2,0.1-0.1,0.2-0.1,0.3s0.1-0.2,0.2-0.1
			c0.3,1,0.6,2,0.6,3c0.1,0.4,0.9-0.1,0.7,0.5h-0.3c0.3,0.3,0.5,0.6,0.6,1c0.1,0.4,0.3,0.7,0.6,1h-0.2c-0.2,0.2,0.2,0.5,0.4,0.5
			c0,0.1-0.2,0.1-0.2,0.2s0.4,0.2,0.3,0.4s-0.1,0-0.1,0c0.2,0,0.2,0.4,0.4,0.2c0,0.3,0.3,0.4,0.3,0.7c0.3,0,0.1,0.5,0.5,0.3
			c-0.4,0.2-0.1,0.6,0.2,0.7c-0.2,0,0,0.2-0.3,0.2c0.1,0.2,0.3,0.3,0.5,0.2c-0.3,0.6,0.7,0.4,0.2,1c0.5,0.4,0.9,0.8,1.3,1.2
			c-0.4,0.2-0.3-0.5-0.7-0.2c0.4,0.3,0.9,0.4,1,0.9c0,0.2-0.2,0-0.3,0c0.4,0.3,0.5,0.8,0.9,1.1h-0.1c0,0,0,0.2,0.2,0.1h-0.1
			c0.2-0.3,0.7,0,0.8-0.1c-0.6,0.2,0.1,0.5-0.6,0.7c0.1,0,0.2,0,0.3,0c0,0.1,0,0.2-0.2,0.2c0.3,0.2,0.4,0,0.5,0.2
			c-0.1,0.1-0.2,0-0.3,0.1c0.2,0,0.5,0,0.5,0.3c0,0-0.1,0.1-0.1,0c0.2,0.3,0.8,0.3,0.9,0.8c-0.4,0.1,0,0.2-0.3,0.5l0.2,0.1l0.1-0.2
			c0.1,0.2,0.5,0.2,0.5,0.4h-0.2l0.3,0.3v-0.3c0.3,0,0.4-0.3,0.5,0c-0.1,0,0.1,0.2,0,0.4l0,0c0.2,0,0.3,0,0.3,0.2s-0.3,0.2-0.4,0.3
			c0.3-0.1,0.4,0.3,0.7,0.2c-0.1,0-0.2,0.1-0.3,0.2l0.2-0.1c0,0.1,0,0.2-0.2,0.2c0.2,0.3,0.3-0.4,0.4,0h-0.1
			c0.1,0.3,0.6,0.4,0.7,0.8c-0.2,0.3-0.2-0.2-0.4,0.1c0.3,0.3,1,0.5,1.2,0.8v-0.1c0.4-0.3,0,0.4,0.4,0.4c-0.1,0-0.3,0.1-0.2,0.1
			c0.1,0.3,0.5,0.4,1,0.6h-0.1c0,0.2,0.3,0.4,0.4,0.6c0.1,0,0.2,0,0.3-0.1c-0.1,1,1.1,0.6,1,1.4h-0.2l0.4,0.2c0.1-0.2,0-0.2,0.1-0.3
			c0.1-0.1,0.3-0.1,0.4,0c-0.3,0-0.3,0.3-0.3,0.4c0-0.1,0.1-0.1,0.2-0.2c-0.1,0.5,0.3-0.3,0.4,0.1l-0.1,0.1c0.1,0,0.3,0,0.4,0.1
			c-0.1,0.2-0.2,0-0.3,0.2c0.2,0.1,0.6-0.1,0.6,0.2c-0.1,0-0.2-0.1-0.3-0.1c-0.1,0.4,0,0.3,0.1,0.4l0,0l0.1,0.3v-0.1
			c0.6-0.4,0.4,0.2,1,0.1c-0.5,0.1-0.2,0.2-0.4,0.4v0.3c0.3-0.1,0.1,0.3,0.4,0.2c-0.1,0.1,0.1,0.1-0.1,0.3c0.2,0.1,0.1-0.2,0.2-0.2
			c0.4,0,0.3,0.7,0.9,0.7c0.4,0.1,0.7-0.1,1-0.1c0,0.2-0.3,0.2-0.3,0.2c0,0.2,0.2,0.3,0.4,0.3c-0.1,0-0.1,0.1-0.1,0.2
			c0.1,0.1,0.3-0.2,0.3,0c-0.1,0.1-0.2,0.2-0.3,0.2h0.6c-0.1,0.2-0.2,0.1-0.3,0.2c0.2,0,0.5,0.2,0.7,0v-0.2c0.1,0-0.1,0.2-0.2,0.2
			c-0.3,0.1-0.1-0.2-0.1-0.3h0.1c0.2-0.5-0.4-0.2-0.6-0.4l0.3-0.3l-0.4,0.1c0-0.1,0.1-0.3,0.3-0.3c0-0.3-0.2,0-0.2-0.2h-0.2
			c0.1,0,0.2-0.2,0.2-0.1c-0.1-0.4-0.6,0-0.5-0.4l0,0c-0.4-0.2-0.2,0.2-0.7,0.3l0.3-0.7l-0.2,0.2c0,0,0-0.1,0-0.2c0,0,0,0,0,0l0,0
			c-0.3,0.1-0.1,0.1-0.3,0.2c0-0.3-0.5-0.3-0.2-0.7c-0.2,0.1,0,0.3-0.2,0.2c0.3-0.4-0.2-0.1-0.2-0.4c0.2-0.2,0.3,0.1,0.3-0.2
			c-0.4,0.3-0.2-0.3-0.4-0.4c-0.2,0.3-0.4-0.1-0.7-0.2c0.1-0.1-0.2-0.5-0.3-0.8l0,0c-0.3,0.2-0.4,0-0.6-0.1c0.1-0.1,0.2-0.2,0.4-0.2
			l-0.1-0.1c-0.1,0.1-0.2,0.1-0.3,0l0.2-0.2c-0.2-0.2-0.6-0.1-0.7-0.4c-0.2,0.2-0.3,0.7-0.7,0.6c0.1-0.1,0.2-0.3,0.3-0.3
			s-0.2,0-0.1-0.1l0.2-0.1c0-0.2-0.2,0.1-0.2,0c0.1-0.1,0-0.2,0.2-0.2s0,0.1,0.1,0.1c-0.1-0.1-0.1-0.3,0-0.5
			c-0.1,0.1-0.2,0.2-0.3,0.1s0.1-0.2,0.1-0.4c-0.1,0-0.1-0.2-0.3,0c0-0.1,0-0.2,0.1-0.2c-0.2,0-0.4-0.4-0.6-0.1l0,0
			c-0.5-0.1-0.4-0.7-0.8-0.9l0.1-0.1c-0.2-0.1-0.4-0.3-0.7-0.3c0-0.1,0-0.2,0.1-0.3c-0.2-0.1-0.3,0-0.3-0.3c0.2,0,0.1-0.2,0.2,0.1
			c-0.1-0.2,0-0.4-0.3-0.4c0.1,0,0.2-0.1,0.1-0.2c0-0.1-0.1-0.1-0.1-0.1v0.2c-0.1-0.1-0.2-0.2-0.2-0.3l0.3-0.2c0-0.6-1.1-0.2-0.8-1
			c-0.3,0,0,0.3-0.3,0.4c-0.1-0.2,0.1-0.7,0.1-0.7c0-0.3-0.6,0.1-0.7-0.3c-0.1,0.1-0.3,0.3-0.5,0.2s0.2-0.5,0.4-0.5s0,0.1,0,0.1
			s0.2,0.1,0.2-0.1h-0.1c0-0.2-0.2-0.4,0-0.5c-0.2-0.1-0.2,0.1-0.2,0.2c0-0.3-0.3-0.3-0.3-0.7c0,0.1-0.1,0.2-0.1,0.2
			c-0.1-0.4-0.3,0-0.5-0.2c0.1-0.2,0.4-0.2,0.1-0.4c0-0.2,0.2-0.2,0.4-0.2c-0.3-0.1-0.2-0.5-0.2-0.6l0.2,0.1c-0.1,0-0.1-0.1-0.2-0.2
			l-0.2,0.2v-0.2c-0.2,0-0.3,0.3-0.6,0.2c0-0.2-0.3-0.2,0-0.4c0.1,0.3,0.2-0.2,0.4,0c-0.1,0-0.1-0.1-0.1-0.2s0.1,0,0.1,0
			c0.1-0.4-0.4,0.1-0.6-0.2c0.2-0.1,0.2-0.2,0.2-0.3s-0.2,0.2-0.4,0.2c0-0.3-0.2-0.2-0.3-0.2v0.1c-0.2,0.1-0.2,0-0.3-0.1
			c0.1-0.1,0.2,0.1,0.2,0c-0.4,0,0.1-0.5-0.2-0.6c0-0.2,0.3-0.2,0.3-0.3c-0.3-0.1,0.1-0.4-0.2-0.5c-0.2,0.2-0.1,0.2-0.4,0.1l0.4,0.3
			l-0.4-0.1c0.1,0.1,0.3,0.2,0.3,0.3c-0.2,0-0.2,0-0.3,0.1c0.2-0.3-0.4-0.2-0.3-0.5l0.5-0.3c0.1-0.4-0.6-0.4-0.6-0.8v0.2
			c-0.2,0.1-0.2-0.2-0.3-0.3c0.2-0.1,0.2-0.2,0.3-0.3c-0.1,0.1-0.1-0.3-0.5-0.1l0.1-0.3c-0.1-0.4-0.7-0.1-0.8-0.4
			c0.2,0,0.3-0.2,0.5-0.1c0-0.1-0.1-0.2-0.2-0.1c0.1-0.1-0.4-0.2-0.3-0.3c-0.1,0-0.3,0.1-0.3,0h0.1c-0.1,0-0.2-0.1-0.3,0.1
			c0.4-0.6-0.4-0.9-0.1-1.4c-0.2-0.2-0.3-0.4-0.4-0.6h0.1c0-0.3-0.6,0.1-0.6-0.3c0.2-0.3,0.2,0.1,0.3,0c0.6-0.3-0.3-0.3,0-0.7l0,0
			c0.1-0.2-0.4-0.3-0.5-0.6h0.1c-0.3-0.1-0.6-0.3-0.8-0.6c0.3,0,0.2,0.1,0.4-0.1c-0.1-0.1-0.4,0.2-0.5,0c0.1-0.1,0.2-0.3,0.4-0.5
			l0.1,0.2c0.3-0.2-0.1-0.3-0.1-0.4h0.2c-0.2-0.3-0.5-0.2-0.7-0.6l-0.1,0.1c-0.4-0.1,0.2-0.2-0.2-0.3l0.3-0.2
			c-0.3-0.1-0.5-0.3-0.7-0.5c0.3,0.1,0.5,0.2,0.8,0.4c0-0.1-0.2-0.4-0.4-0.4c0.1,0,0.2,0.1,0.1,0.1c-0.3,0-0.5-0.2-0.7-0.5
			c0.7-0.2-0.1-0.7,0.5-1.1c-0.4-0.4-0.2-1-0.3-1.5c-0.5,0.4-0.1-0.2-0.6,0c-0.1-0.1-0.1-0.2,0-0.2l0.2-0.5c0.2-0.1,0.2,0.1,0.3,0
			c0-0.3,0.2-0.2,0.3-0.4c-0.2,0.1-0.3,0-0.3-0.2l-0.2,0.3c-0.4-0.3,0.4-0.5,0-0.8l0.2,0.1c-0.2-0.2-0.2-0.7-0.7-0.8
			c0.1,0,0.2-0.1,0.3-0.1c0-0.5-0.7-1-0.5-1.4h0.2c-0.1-0.1-0.3-0.1-0.2-0.2s0.2,0,0.2,0s-0.3-0.2-0.2-0.3l0.2,0.1
			c0.1-0.5-0.6-0.7-0.7-1c0.4-0.1,0.5-0.5,0.5-0.7h0.1c0-0.6-0.5-0.9-0.7-1.4c0.4-0.4,0.1-1.1,0.3-1.7c-0.1,0.1-0.3,0-0.4-0.1
			s-0.3-0.3,0.1-0.3l0,0c0.4-0.1,0.2-0.4,0.2-0.6h-0.5c0.7-0.6-0.3-1.3,0.3-1.7c-0.1-0.1-0.1-0.3-0.3-0.4h0.3c0.1-0.3,0.1-0.6,0-0.9
			l0.2,0.1c0-0.2-0.8-0.3-0.8-0.5l0.4-0.1c0-0.4,0.4-0.8,0-1.3c0.1,0,0.2,0,0.2,0.1c0-0.2,0.3-0.8-0.3-0.7c0.4,0,0-0.4-0.1-0.7h0.3
			c-0.3-0.2-0.4-0.2-0.5-0.5c0-0.1,0.2,0,0.2,0c0.2-0.2-0.3-0.2-0.1-0.4l0.2,0.1c0-0.2-0.1-0.2-0.3-0.3s0.1-0.4,0.3-0.4
			c-0.2,0-0.3-0.2-0.3-0.3c0.1,0,0.1,0,0.2,0.1c0.2-0.3-0.3-0.6,0-0.8c0.1,0,0.1,0,0.2,0c0,0.2,0,0.3-0.1,0.5c0.3,0,0.3-0.2,0.7,0
			c-0.2-0.2-0.6-0.6-0.4-0.8h0.1v-0.1c0-0.1,0.1-0.1,0.1-0.2c0.2,0,0.2-0.2,0.2-0.4c-0.3,0-0.2-0.2-0.5,0v0.2l0,0v0.3
			c-0.1-0.1-0.2-0.2-0.1-0.3l-0.4-0.2c0.4-0.1,0.7-0.4,0.9-0.4c-0.1-0.4,0-0.8-0.5-1.1c0-0.1,0.2-0.1,0.2-0.1s0,0.1,0.1,0.2
			c-0.1-0.2,0-0.6-0.3-0.7c0.2-0.2,0.3,0.2,0.3-0.2l0.1,0.1c0.7-0.6-0.7-1.3,0.2-1.9c0,0-0.1,0.1-0.1,0.1c0.5-0.8,0-1.8,0.8-2.5
			c0.2-0.2,0-0.3-0.2-0.5h0.3l-0.3-0.3c-0.1-0.4,0.9-0.4,0.6-1h-0.4c0.1-0.1,0-0.5,0.2-0.4c0,0-0.2-0.1-0.1-0.1h0.2l-0.1-0.5
			c0.2-0.3,0.6,0.2,0.7-0.2c0-0.2-0.3-0.6-0.4-0.6c-0.1,0.1-0.2,0.1-0.3,0.1v-0.2c-0.4-0.2-0.8-0.5-1.3-0.2l0.2,0.4h-0.2v-0.2
			c-0.2,0.1-0.1,0.2,0,0.3c-0.1,0-0.2,0-0.3,0l0.3,0.4c-0.2,0-0.3-0.2-0.5-0.1c0.2,0.2,0.4,0,0.5,0.2c-0.2,0.1-0.4,0-0.3,0.2
			c-0.1,0-0.2-0.1-0.2-0.2c0.1,0.2,0,0.4,0.2,0.5c-0.3,0.1-0.1,0.5-0.5,0.3c0.1,0.1,0.2,0.3,0.2,0.5c-0.4-0.4-0.2,0.4-0.7,0.2
			c0.4,0.3,0,0.7,0.2,1c0,0-0.1-0.1-0.1-0.1c-0.1,0.2-0.2,0.2-0.4,0.2c0.4,0.1,0.4,0.4,0.6,0.6c-0.4,0.1-0.4-0.2-0.8-0.2
			c0.3,0.1,0.2,0.4,0.5,0.4c-0.3,0.1-0.1,0.1-0.5,0.1c0.5,0.1,0,0.2,0.3,0.4c-0.3,0.2-0.5,0-0.4,0.2
			C1802.2,518.4,1802.1,518.1,1802.1,518.1z M1801.9,524.7c0-0.1,0-0.1,0-0.2c0.1,0,0.2,0,0.2,0.1S1802,524.7,1801.9,524.7
			L1801.9,524.7z M1804,523.9c0,0.1,0,0.1-0.1,0.1C1803.9,523.9,1803.9,523.9,1804,523.9L1804,523.9L1804,523.9z"/>
		<polygon class="st23" points="1801.3,531.7 1801.3,531.7 1801.3,531.7 		"/>
		<path class="st23" d="M1818.2,567.5C1818.2,567.5,1818.2,567.6,1818.2,567.5C1818.2,567.6,1818.2,567.5,1818.2,567.5z"/>
		<path class="st23" d="M1819,568.4l0.1,0.2C1819.1,568.5,1819,568.4,1819,568.4z"/>
		<path class="st23" d="M1819.6,569.1L1819.6,569.1L1819.6,569.1L1819.6,569.1z"/>
		<path class="st23" d="M1809.8,558.1L1809.8,558.1C1809.7,558.1,1809.8,558.1,1809.8,558.1z"/>
		<path class="st23" d="M1812.9,561.3h-0.2C1812.7,561.3,1812.7,561.4,1812.9,561.3z"/>
		<polygon class="st23" points="1807.1,554 1807.1,554 1807.1,554 		"/>
		<path class="st23" d="M1812.6,561.2c0,0.1,0,0.1,0.1,0.2C1812.7,561.2,1812.6,561.2,1812.6,561.2z"/>
		<path class="st23" d="M1822.8,571.7L1822.8,571.7C1822.8,571.7,1822.8,571.7,1822.8,571.7z"/>
		<path class="st23" d="M1822.9,571.7h-0.1C1822.9,571.7,1822.9,571.7,1822.9,571.7L1822.9,571.7z"/>
		<path class="st23" d="M1821.8,570.8L1821.8,570.8L1821.8,570.8z"/>
		<path class="st23" d="M1821.5,570.6c0.1,0.1,0,0.3,0.2,0.3l0.1,0C1821.6,571,1821.7,570.6,1821.5,570.6z"/>
		<path class="st23" d="M1821.1,568.7c0.1,0.1,0.1,0.2,0.2,0.2c0-0.1,0.1-0.3,0.2-0.2C1821.3,568.3,1821.3,569,1821.1,568.7z"/>
		<path class="st23" d="M1820.5,568c0.2,0.1,0.1-0.1,0.2-0.2C1820.5,567.8,1820.4,567.8,1820.5,568z"/>
		<path class="st23" d="M1815.7,563.2l0.2-0.2C1815.8,562.9,1815.8,563.1,1815.7,563.2z"/>
		<polygon class="st23" points="1813.8,563 1813.8,563.2 1814,563.1 		"/>
		<polygon class="st23" points="1814.8,561.2 1814.8,561.3 1814.6,561.2 		"/>
		<path class="st23" d="M1808.7,551.7l-0.3,0.2C1808.5,551.9,1808.9,551.8,1808.7,551.7z"/>
		<path class="st23" d="M1806.5,547.3c0.1-0.1,0.2-0.3,0-0.3C1806.5,547.1,1806.5,547.3,1806.5,547.3z"/>
		<polygon class="st23" points="1803.9,532.9 1804,533 1803.9,532.8 		"/>
	</g>
	<g>
		<path class="st23" d="M1837.1,567.4c0.1,0,0.2-0.2,0.1-0.2l-0.3,0.2L1837.1,567.4z"/>
		<path class="st23" d="M1837.1,566.5c-0.3,0-0.5,0.2-0.7,0.4c0.3-0.1,0.2,0,0.6-0.2c0.1,0,0,0.2-0.1,0.3s0,0.2,0.2,0
			c0.1-0.3,0-0.4-0.3-0.4C1837,566.6,1837,566.5,1837.1,566.5z"/>
		<path class="st23" d="M1831.7,558.9L1831.7,558.9C1831.8,559,1831.8,558.9,1831.7,558.9z"/>
		<path class="st23" d="M1829.1,553.8C1829.1,553.9,1829.1,553.9,1829.1,553.8C1829.2,553.8,1829.1,553.8,1829.1,553.8z"/>
		<path class="st23" d="M1831.7,558.9v-0.2C1831.7,558.8,1831.7,558.8,1831.7,558.9z"/>
		<path class="st23" d="M1834.6,562.3l-0.3,0.2c0.1,0,0.2-0.1,0.2,0L1834.6,562.3z"/>
		<path class="st23" d="M1832.6,559.7L1832.6,559.7L1832.6,559.7z"/>
		<path class="st23" d="M1827.2,507.4"/>
		<polygon class="st23" points="1829.4,506 1829.4,506 1829.6,506.1 		"/>
		<path class="st23" d="M1828.6,551L1828.6,551C1828.7,551.1,1828.6,551.1,1828.6,551z"/>
		<path class="st23" d="M1824.5,535.5c-0.2,0.2-0.3-0.3-0.6,0C1824,535.5,1824.3,535.7,1824.5,535.5z"/>
		<path class="st23" d="M1835.6,566L1835.6,566C1835.6,566,1835.6,566,1835.6,566z"/>
		<path class="st23" d="M1827,547.3C1827,547.3,1826.9,547.4,1827,547.3C1826.9,547.4,1827,547.3,1827,547.3z"/>
		<path class="st23" d="M1827.7,550.3L1827.7,550.3C1827.7,550.2,1827.7,550.3,1827.7,550.3z"/>
		<path class="st23" d="M1826.1,545.9v-0.1l0,0C1826.1,545.9,1826.1,545.9,1826.1,545.9z"/>
		<polygon class="st23" points="1825.7,544.3 1825.7,544.4 1825.7,544.4 		"/>
		<path class="st23" d="M1825.2,512.2h0.3C1825.2,512.2,1825.3,511.9,1825.2,512.2z"/>
		<path class="st23" d="M1835.8,566c-0.1,0-0.1,0.1-0.1,0H1835.8z"/>
		<path class="st23" d="M1824,546.5v-0.3C1824,546.3,1824,546.4,1824,546.5z"/>
		<path class="st23" d="M1822.3,524.2L1822.3,524.2L1822.3,524.2z"/>
		<path class="st23" d="M1823.7,545.5c0.1-0.1,0.1-0.1,0.2-0.2h-0.1L1823.7,545.5z"/>
		<path class="st23" d="M1825.5,510.3c-0.1,0.2,0.3,0.2,0.5,0.4c0,0.3-0.3,0-0.5,0c0,0.2,0.3,0.5,0.2,0.6s-0.1,0-0.2,0
			c0.2,0.3-0.2,0.6,0,0.9h-0.1c0.2,0,0.3,0.1,0.5,0.2c0,0.1,0.1,0.3-0.1,0.2c0-0.1,0-0.1-0.1-0.2v0.2c-0.4,0,0-0.2-0.3-0.3
			c0,0.3,0.2,0.6,0,0.8c-0.3-0.1,0-0.4-0.3-0.3l0.2-0.2c-0.6,0,0.1-0.1-0.5-0.2c-0.2,0.3,0,0.4-0.2,0.8c0.2,0.2,0.3,0.1,0.4,0.2
			c0.2,0.6-0.9,0.1-0.6,0.6c0.2,0.2,0.6,0.3,0.3,0.5l-0.3-0.2c-0.1,0.3,0.5,0.4,0.1,0.6c-0.1-0.1,0-0.3-0.1-0.3
			c-0.4,0.1,0.2,0.2,0.1,0.4l-0.3-0.1c0,0.4,0,0.8,0,1.3c-0.1,0-0.2-0.2-0.3-0.1c-0.1,0.6-0.3,1.1-0.7,1.5l0.2,0.3h-0.2
			c-0.2,0.2,0.2,0.1,0.3,0.2s-0.2,0.1-0.3,0c0.2,0.4,0.3,1.1-0.1,1.4l-0.1-0.1c-0.2,0.3,0.5,0.4,0.2,0.7v-0.1
			c-0.3,0.6-0.2,1.3-0.6,1.7c0.4,0.2-0.3,0.6,0.3,0.7c-0.3,0.3-0.4,0.2-0.7,0.7c0,0.1,0.3,0.2,0.4,0.4h-0.3l0.3,0.3l-0.4,0.1
			l0.1,0.2c0-0.1,0.2-0.1,0.2-0.1c0.1,0.2-0.3,0.6-0.4,0.5l0.2,0.6c-0.1,0-0.2-0.1-0.2-0.2c0.3,0.3-0.3,0-0.1,0.3c0.1,0,0.2,0,0.2,0
			c-0.2,0.1-0.2,0.4-0.2,0.7l-0.2-0.1c0,0.5,0,0.9,0,1.4c0.1-0.2,0.5-0.1,0.5,0h-0.3c0.2,0.1,0.1-0.1,0.4,0.1c0,0.2-0.4,0.1-0.5,0
			l0.1,0.2c-0.1,0-0.2,0-0.3-0.1c0.2,0.1-0.3,0.4,0,0.5h-0.1c0,0.5,0.1,0.7,0.1,1.1c0.3,0,0.2,0.2,0.4,0.3c-0.2,0.3-0.2,0.7-0.3,1
			c0.2,0.2,0.2,0.1,0.4,0.2c-0.3,0-0.2,0.4-0.4,0.2c0,0.4,0.1,0.7,0.3,1.1c0.1-0.1,0.1-0.1,0.2-0.1s-0.1,0.2-0.2,0.2l0,0
			c0.4,0.6-0.7,1.4-0.2,1.8l0,0l0.3,0.5c0,0.2-0.2-0.1-0.3,0.1c0.5,0.5,0,0.8,0.3,1.2c-0.7,0.4,0.2,1.2-0.3,1.7h0.2
			c0.2,0.1-0.1,0.2-0.1,0.2c0.1,0,0.2-0.1,0.2-0.1c0.2,1,0.2,2.1,0.1,3.1c0,0.4,0.9,0,0.6,0.6l-0.3-0.1c0.2,0.3,0.4,0.7,0.4,1.1
			c0.1,0.4,0.2,0.8,0.4,1.1c-0.1,0-0.2,0-0.2-0.1c-0.2,0.2,0.1,0.6,0.3,0.5c0,0.1-0.2,0.1-0.2,0.2s0.4,0.3,0.2,0.5h-0.1
			c0.1,0.1,0.1,0.5,0.3,0.3c-0.1,0.3,0.2,0.5,0.2,0.7c0.3,0,0,0.5,0.4,0.4c-0.4,0.1-0.2,0.6,0,0.7c-0.2,0-0.1,0.2-0.3,0.2
			c0.1,0.2,0.2,0.3,0.4,0.2c-0.4,0.5,0.7,0.6,0.1,1c0.4,0.4,0.7,0.9,1,1.4c-0.4,0.1-0.2-0.5-0.7-0.4c0.3,0.4,0.8,0.6,0.8,1.1
			c0,0.1-0.2,0-0.3,0c0.3,0.4,0.3,0.9,0.7,1.2c0,0-0.1,0-0.2,0c0,0.1,0,0.2,0.2,0.1l-0.1,0c0.2-0.2,0.7,0.1,0.9,0
			c-0.6,0.1,0,0.5-0.7,0.5c0.1,0,0.2,0,0.3,0c0,0.1-0.1,0.2-0.2,0.1c0.2,0.2,0.4,0.1,0.5,0.3h-0.3c0.2,0.1,0.5,0.1,0.5,0.4
			c-0.1,0-0.1,0.1-0.2,0c0.2,0.4,0.8,0.4,0.8,0.9c-0.4,0-0.1,0.2-0.4,0.4l0.2,0.2l0.1-0.2c0.1,0.2,0.4,0.2,0.4,0.5l-0.2-0.1l0.2,0.3
			v-0.3c0.3,0.1,0.4-0.2,0.4,0.1c-0.1,0,0.1,0.2,0,0.4l0,0c0.2,0,0.3,0.1,0.3,0.3s-0.4,0.2-0.4,0.2c0.3,0,0.3,0.4,0.7,0.4
			c-0.1,0-0.2,0.1-0.3,0.1h0.3c0,0.1,0,0.2-0.2,0.2c0.1,0.3,0.4-0.3,0.4,0.1h-0.1c0.1,0.4,0.5,0.5,0.5,0.9c-0.3,0.3-0.2-0.2-0.4,0
			c0.3,0.4,0.8,0.6,1,1.1V558c0.5-0.2,0,0.4,0.3,0.5c-0.1,0-0.2,0-0.2,0.1c0.1,0.3,0.4,0.5,0.8,0.8h-0.1c0,0.2,0.2,0.5,0.2,0.7
			c0.2,0,0.2,0.1,0.3-0.1c-0.3,0.9,1,0.8,0.8,1.5c0-0.1-0.2-0.1-0.2,0l0.4,0.3c0.2-0.2,0.1-0.1,0.2-0.3c0.1,0,0.3,0,0.4,0.1
			c-0.2-0.1-0.3,0.2-0.3,0.4c0.1,0,0.1-0.1,0.2-0.1c-0.2,0.4,0.4-0.2,0.4,0.2l-0.1,0.1c0.1,0.1,0.3,0,0.4,0.2
			c-0.2,0.2-0.2,0-0.4,0.1c0.1,0.1,0.6,0,0.5,0.3c-0.1,0-0.2-0.1-0.3-0.1c-0.1,0.3-0.1,0.3,0,0.4l0,0l0.1,0.3v-0.1
			c0.7-0.2,0.4,0.3,0.9,0.3c-0.5,0-0.2,0.1-0.5,0.3c0,0.1,0,0.3-0.1,0.3c0.3,0,0,0.3,0.4,0.3c-0.1,0.1,0.1,0.1-0.1,0.3
			c0.2,0.1,0.1-0.2,0.2-0.2c0.4,0,0.2,0.8,0.8,0.8c0.4,0.2,0.7,0,1,0.1c0,0.2-0.3,0.2-0.3,0.2c0,0.2,0.1,0.3,0.3,0.4
			c-0.1,0-0.1,0.1-0.2,0.2s0.3-0.2,0.3,0.1c-0.1,0.1-0.2,0.1-0.4,0.2c0.2,0.1,0.4,0.1,0.6,0.1c-0.1,0.2-0.2,0.1-0.4,0.1
			c0.2,0.1,0.5,0.3,0.7,0.1v-0.2c0,0-0.2,0.2-0.2,0.2c-0.3,0-0.1-0.2,0-0.3h0.1c0.3-0.5-0.4-0.3-0.5-0.5l0.4-0.2h-0.4
			c0-0.1,0.2-0.3,0.3-0.2c0-0.3-0.2,0-0.2-0.3h-0.1c0.1,0,0.2-0.2,0.2-0.1c0-0.4-0.6-0.2-0.4-0.5l0,0c-0.4-0.2-0.3,0.2-0.7,0.2
			l0.4-0.7l-0.3,0.2c0-0.1,0-0.1,0-0.2l0,0c-0.3,0-0.1,0.1-0.3,0.2c0.1-0.3-0.5-0.4-0.1-0.7c-0.2,0.1,0,0.3-0.3,0.2
			c0.4-0.4-0.2-0.2-0.2-0.5c0.2-0.1,0.2,0.1,0.3-0.2c-0.4,0.2-0.2-0.4-0.3-0.4c-0.3,0.2-0.3-0.2-0.6-0.3c0.1-0.1-0.2-0.5-0.2-0.8
			l0,0c-0.3,0.2-0.4-0.1-0.6-0.2c0.1-0.1,0.3-0.1,0.4-0.1l-0.1-0.1c-0.1,0-0.2,0-0.3,0l0.2-0.1c-0.2-0.2-0.6-0.2-0.6-0.5
			c-0.2,0.1-0.4,0.6-0.8,0.4c0.1-0.1,0.3-0.2,0.4-0.2s-0.2,0-0.1-0.1h0.3c0-0.2-0.2,0-0.2-0.1c0.2-0.1,0.1-0.2,0.2-0.2
			s0,0.1,0.1,0.1c0-0.2,0-0.3,0.1-0.4c-0.1,0.1-0.2,0.2-0.3,0.1s0.2-0.2,0.2-0.4c-0.1,0-0.1-0.2-0.3,0c0-0.1,0.1-0.1,0.1-0.2
			c-0.2,0-0.3-0.5-0.5-0.2l0,0c-0.5-0.2-0.3-0.8-0.6-1.1h0.1c-0.2-0.1-0.3-0.4-0.6-0.5c0-0.1,0.1-0.2,0.2-0.3
			c-0.2-0.1-0.3-0.1-0.3-0.4c0.2,0.1,0.1-0.1,0.2,0.1c0-0.2,0.1-0.4-0.3-0.5c0.1,0,0.2-0.1,0.2-0.2c0-0.1,0-0.1-0.1-0.1l-0.1,0.2
			c-0.1-0.1-0.1-0.2-0.2-0.3l0.3-0.1c0.1-0.6-1-0.4-0.6-1.1c-0.3,0,0,0.3-0.3,0.3c-0.1-0.2,0.2-0.6,0.2-0.7c0-0.3-0.6,0-0.6-0.4
			c-0.1,0.1-0.3,0.3-0.6,0.1c-0.1-0.2,0.3-0.5,0.5-0.4s0,0.1,0,0.1s0.2,0.1,0.2,0h-0.1c0.1-0.2-0.1-0.4,0.1-0.4
			c-0.2-0.1-0.2,0-0.2,0.2c0-0.3-0.2-0.4-0.2-0.7c0,0.1-0.2,0.2-0.2,0.1c0-0.5-0.3-0.1-0.4-0.3c0.1-0.2,0.4-0.1,0.2-0.3
			c0-0.2,0.3-0.2,0.4-0.1c-0.3-0.2-0.1-0.5-0.1-0.7l0.1,0.1c-0.1,0-0.1-0.1-0.1-0.2l-0.2,0.2c0-0.1,0-0.2,0.1-0.2
			c-0.2,0-0.3,0.2-0.6,0.2c0.1-0.2-0.2-0.3,0-0.4c0,0.4,0.3-0.2,0.4,0.1c-0.1,0-0.1-0.1-0.1-0.2h0.1c0.1-0.4-0.4,0-0.5-0.3
			c0.2,0,0.3-0.2,0.2-0.2c0,0.1-0.2,0.2-0.4,0.1c0-0.2-0.2-0.2-0.2-0.3v0.1c-0.2,0-0.2-0.1-0.3-0.2c0.1-0.1,0.1,0.1,0.2,0
			c-0.4,0,0.2-0.5-0.1-0.6c0.1-0.1,0.3-0.1,0.3-0.2c-0.3-0.2,0.1-0.3-0.1-0.5c-0.2,0.2-0.1,0.2-0.4,0l0.3,0.4l-0.4-0.2
			c0,0.1,0.2,0.2,0.2,0.3c-0.2-0.1-0.2-0.1-0.3,0.1c0.3-0.3-0.3-0.3-0.2-0.6l0.6-0.2c0.1-0.4-0.5-0.5-0.5-0.9v0.2
			c-0.2,0-0.1-0.2-0.2-0.3c0.2,0,0.2-0.2,0.3-0.2c-0.1,0-0.1-0.3-0.5-0.2l0.2-0.3c0-0.4-0.7-0.2-0.7-0.5c0.2,0,0.3-0.2,0.5,0
			c0-0.1,0-0.2-0.2-0.2c0.1-0.1-0.3-0.2-0.2-0.4c-0.1,0-0.3,0-0.3-0.1h0.1c-0.1,0-0.2-0.2-0.4,0c0.5-0.5-0.3-0.9,0.2-1.4
			c-0.1-0.2-0.2-0.5-0.3-0.7h0.1c0.1-0.3-0.6,0-0.5-0.4c0.3-0.2,0.2,0.1,0.3,0c0.6-0.2-0.2-0.4,0.1-0.7l0,0c0.2-0.2-0.3-0.4-0.4-0.7
			h0.1c-0.3-0.1-0.6-0.4-0.7-0.7c0.3,0,0.2,0.1,0.4,0c-0.1-0.1-0.4,0.1-0.5-0.1c0.1-0.1,0.2-0.3,0.5-0.4l0.1,0.2
			c0.3-0.2-0.1-0.3,0-0.4h0.2c-0.1-0.3-0.5-0.3-0.5-0.7l-0.1,0.1c-0.4-0.1,0.2-0.2-0.1-0.4l0.4-0.1c-0.2-0.2-0.4-0.4-0.6-0.7
			c0.3,0.1,0.5,0.3,0.7,0.5c0-0.1-0.1-0.5-0.3-0.5c0,0,0.2,0.1,0.1,0.2c-0.3-0.1-0.5-0.3-0.6-0.6c0.8-0.1,0.1-0.7,0.7-1
			c-0.3-0.5,0-1-0.1-1.5c-0.6,0.3,0-0.2-0.6-0.1c-0.1-0.1,0-0.2,0-0.2l0.3-0.4c0.2-0.1,0.2,0.1,0.3,0.1c0-0.3,0.2-0.1,0.4-0.3
			c-0.2,0-0.3-0.1-0.2-0.2l-0.3,0.2c-0.4-0.4,0.5-0.4,0.1-0.8l0.2,0.1c-0.1-0.2-0.1-0.8-0.5-0.9c0.1,0,0.2-0.1,0.3,0
			c0.1-0.5-0.6-1.1-0.2-1.5h0.2c0-0.1-0.3-0.2-0.1-0.3s0.2,0,0.2,0s-0.3-0.2-0.2-0.4l0.2,0.1c0.2-0.5-0.4-0.7-0.5-1.2
			c0.4,0,0.6-0.4,0.7-0.6h0.1c0.1-0.6-0.3-1-0.4-1.5c0.5-0.3,0.3-1.1,0.6-1.6c-0.1,0.1-0.3,0-0.4-0.1c0-0.1-0.3-0.4,0.1-0.3l0,0
			c0.4-0.1,0.3-0.3,0.3-0.5l-0.5-0.1c0.8-0.4-0.1-1.4,0.6-1.6c-0.1-0.1-0.1-0.3-0.2-0.4h0.3c0.1-0.3,0.2-0.6,0.2-0.9l0.2,0.1
			c0-0.2-0.8-0.4-0.8-0.7h0.4c0-0.4,0.5-0.8,0.2-1.2c0.1,0,0.2,0,0.2,0.1c0-0.2,0.4-0.7-0.1-0.7c0.4,0.1,0.1-0.4,0-0.7l0.3,0.1
			c-0.3-0.3-0.4-0.3-0.4-0.6c0,0,0.2,0,0.1,0.1c0.2-0.2-0.2-0.2,0-0.4l0.2,0.1c0.1-0.2,0-0.2-0.2-0.4s0.2-0.4,0.4-0.4
			c-0.1-0.1-0.3-0.2-0.2-0.3c0.1,0,0.1,0,0.2,0.1c0.3-0.3-0.2-0.6,0.2-0.8h0.2c0,0.2-0.1,0.3-0.2,0.5c0.2,0.1,0.4-0.1,0.7,0.1
			c-0.1-0.2-0.4-0.7-0.3-0.8h0.1v-0.1c0.1,0,0.1-0.1,0.1-0.2c0.2,0,0.2-0.2,0.2-0.3c-0.3-0.1-0.2-0.2-0.4-0.1v0.2l0,0l-0.1,0.3
			c-0.1-0.1-0.2-0.3,0-0.3l-0.4-0.3c0.4,0,0.7-0.3,1-0.2c0-0.4,0.2-0.8-0.3-1.2c0-0.1,0.2-0.1,0.3-0.1s0,0.1,0.1,0.2
			c-0.1-0.2,0.1-0.6-0.2-0.8c0.2-0.2,0.3,0.2,0.3-0.1l0.1,0.1c0.8-0.4-0.4-1.4,0.5-1.8c-0.1,0-0.1,0-0.2,0c0.7-0.7,0.3-1.8,1.2-2.4
			c0.2-0.2,0-0.3-0.1-0.5l0.3,0.1l-0.2-0.4c-0.1-0.4,1-0.2,0.7-0.9l-0.2,0c0.1-0.1,0.1-0.5,0.3-0.4c0,0-0.2-0.1,0-0.2l0.1,0.1V507
			c0.2-0.2,0.5,0.3,0.8,0c0-0.2-0.2-0.6-0.3-0.6c-0.1,0.1-0.2,0.1-0.3,0V506c-0.4-0.2-0.8-0.6-1.2-0.4l0.1,0.4h-0.2l0.1-0.2
			c-0.2,0-0.1,0.2,0,0.3c-0.1,0-0.2,0-0.3,0l0.3,0.5c-0.2-0.1-0.3-0.3-0.4-0.2c0.1,0.2,0.4,0.1,0.4,0.3c-0.2,0-0.4-0.1-0.3,0.1
			c-0.1,0-0.2-0.1-0.2-0.2c0.1,0.2-0.1,0.4,0.1,0.5c-0.3,0-0.2,0.4-0.5,0.2c0.1,0.1,0.2,0.4,0.2,0.5c-0.4-0.4-0.2,0.4-0.7,0.1
			c0.3,0.4-0.1,0.6,0,1c0,0-0.1-0.1-0.1-0.1c-0.1,0.1-0.3,0.1-0.4,0.2c0.3,0.2,0.3,0.5,0.5,0.7c-0.4,0-0.4-0.3-0.7-0.4
			c0.3,0.1,0.2,0.5,0.4,0.5c-0.2,0.1-0.3,0.1-0.5,0c0.4,0.2,0,0.2,0.2,0.4c-0.3,0.1-0.4-0.1-0.4,0.2
			C1825.6,510.6,1825.5,510.3,1825.5,510.3z M1824.3,516.3L1824.3,516.3L1824.3,516.3z M1824.1,516.8c0-0.1,0-0.2,0.1-0.2
			c0.1-0.1,0.2,0.1,0.2,0.1S1824.2,516.7,1824.1,516.8L1824.1,516.8z M1826.3,516.3C1826.3,516.4,1826.3,516.4,1826.3,516.3
			L1826.3,516.3L1826.3,516.3L1826.3,516.3L1826.3,516.3z"/>
		<polygon class="st23" points="1822.3,523.6 1822.3,523.6 1822.3,523.5 		"/>
		<path class="st23" d="M1832.5,561.8C1832.5,561.8,1832.5,561.8,1832.5,561.8C1832.5,561.8,1832.5,561.8,1832.5,561.8z"/>
		<path class="st23" d="M1833.2,562.8v0.2C1833.2,562.9,1833.2,562.9,1833.2,562.8z"/>
		<path class="st23" d="M1833.6,563.6L1833.6,563.6L1833.6,563.6L1833.6,563.6z"/>
		<path class="st23" d="M1826,551.1L1826,551.1C1825.8,551,1825.9,551,1826,551.1z"/>
		<path class="st23" d="M1828.4,554.8l-0.2-0.1C1828.2,554.8,1828.2,554.8,1828.4,554.8z"/>
		<polygon class="st23" points="1824,546.5 1824,546.5 1824,546.5 		"/>
		<path class="st23" d="M1828.1,554.5c0,0.1,0,0.2,0.1,0.2c0,0,0,0,0,0l0,0C1828.2,554.7,1828.2,554.6,1828.1,554.5z"/>
		<path class="st23" d="M1836.4,566.8h-0.1C1836.3,566.8,1836.4,566.8,1836.4,566.8z"/>
		<path class="st23" d="M1835.4,565.7L1835.4,565.7z"/>
		<path class="st23" d="M1835.2,565.5c0,0.1,0,0.3,0.1,0.4l0.1,0C1835.2,565.8,1835.4,565.4,1835.2,565.5z"/>
		<path class="st23" d="M1835.1,563.5c0,0.1,0.1,0.2,0.1,0.3c0-0.1,0.1-0.2,0.2-0.2C1835.4,563.1,1835.3,563.8,1835.1,563.5z"/>
		<path class="st23" d="M1834.7,562.7c0.1,0.1,0.1-0.1,0.2-0.1C1834.7,562.5,1834.7,562.5,1834.7,562.7z"/>
		<path class="st23" d="M1830.8,557.1l0.2-0.1C1830.9,556.9,1830.9,557,1830.8,557.1z"/>
		<polygon class="st23" points="1829,556.6 1828.9,556.8 1829.2,556.7 		"/>
		<polygon class="st23" points="1830.2,555 1830.3,555 1830.1,554.9 		"/>
		<path class="st23" d="M1826,544.6l-0.3,0.1C1825.8,544.7,1826.1,544.7,1826,544.6z"/>
		<path class="st23" d="M1824.6,539.8c0.2-0.1,0.2-0.2,0.1-0.3C1824.7,539.7,1824.6,539.8,1824.6,539.8z"/>
		<polygon class="st23" points="1824.6,525.2 1824.7,525.3 1824.6,525.1 		"/>
	</g>
	<g>
		<path class="st23" d="M1858.1,568c0.1,0,0.2-0.2,0.1-0.2l-0.3,0.2L1858.1,568z"/>
		<path class="st23" d="M1858.1,567.1c-0.3,0-0.5,0.2-0.7,0.4c0.3-0.1,0.2,0,0.6-0.2c0.1,0,0,0.2-0.1,0.3s0,0.2,0.2,0s0-0.4-0.3-0.4
			C1858,567.2,1858.1,567.2,1858.1,567.1z"/>
		<path class="st23" d="M1852.8,559.5L1852.8,559.5C1852.8,559.6,1852.8,559.6,1852.8,559.5z"/>
		<path class="st23" d="M1850.1,554.5C1850.1,554.5,1850.2,554.5,1850.1,554.5C1850.2,554.5,1850.1,554.5,1850.1,554.5z"/>
		<path class="st23" d="M1852.8,559.5v-0.2C1852.7,559.4,1852.8,559.5,1852.8,559.5z"/>
		<path class="st23" d="M1854.4,561.5"/>
		<path class="st23" d="M1855.6,563l-0.4,0.2c0.1,0,0.2-0.1,0.2,0L1855.6,563z"/>
		<path class="st23" d="M1853.7,560.3L1853.7,560.3C1853.7,560.3,1853.7,560.3,1853.7,560.3z"/>
		<polygon class="st23" points="1850.5,506.6 1850.5,506.7 1850.6,506.8 		"/>
		<path class="st23" d="M1849.7,551.7"/>
		<path class="st23" d="M1845.5,536.1c-0.2,0.2-0.3-0.3-0.6,0C1845,536.1,1845.4,536.3,1845.5,536.1z"/>
		<path class="st23" d="M1856.7,566.7L1856.7,566.7C1856.6,566.6,1856.6,566.7,1856.7,566.7z"/>
		<path class="st23" d="M1848.1,548l-0.1,0.1L1848.1,548z"/>
		<path class="st23" d="M1848.7,550.9L1848.7,550.9C1848.7,550.9,1848.7,550.9,1848.7,550.9z"/>
		<path class="st23" d="M1847.2,546.6v-0.1l0,0C1847.2,546.5,1847.2,546.5,1847.2,546.6z"/>
		<polygon class="st23" points="1846.7,545 1846.7,545 1846.7,545.1 		"/>
		<path class="st23" d="M1846.2,512.8h0.3C1846.3,512.8,1846.3,512.6,1846.2,512.8z"/>
		<path class="st23" d="M1856.8,566.6c-0.1,0-0.1,0.1-0.1,0l0,0C1856.7,566.6,1856.8,566.7,1856.8,566.6z"/>
		<path class="st23" d="M1845,547.1v-0.3C1845,547,1845,547.1,1845,547.1z"/>
		<path class="st23" d="M1843.4,524.8L1843.4,524.8C1843.4,524.7,1843.3,524.8,1843.4,524.8z"/>
		<path class="st23" d="M1844.7,546.1c0.1-0.1,0.1-0.1,0.2-0.2h-0.1L1844.7,546.1z"/>
		<path class="st23" d="M1846.5,511c-0.1,0.2,0.3,0.2,0.5,0.4c0,0.3-0.3,0-0.5,0c0,0.2,0.3,0.5,0.2,0.6c-0.1,0.1-0.1,0-0.2,0
			c0.2,0.3-0.2,0.6,0,0.9h-0.1c0.2,0,0.3,0.1,0.5,0.1c0,0.1,0.1,0.3-0.1,0.2c0-0.1-0.1-0.1-0.1-0.2l0.1,0.2c-0.4,0-0.1-0.2-0.3-0.3
			c0,0.3,0.2,0.6,0,0.8c-0.3-0.1,0-0.4-0.3-0.3l0.2-0.2c-0.6,0,0.1-0.2-0.5-0.2c-0.2,0.3,0,0.4-0.2,0.8c0.2,0.1,0.3,0.1,0.4,0.2
			c0.2,0.6-0.9,0.1-0.6,0.6c0.2,0.2,0.6,0.3,0.3,0.5l-0.3-0.2c-0.1,0.3,0.5,0.4,0.1,0.7c-0.1-0.1,0-0.3-0.1-0.3
			c-0.4,0.1,0.2,0.2,0.1,0.4l-0.3-0.1c0,0.4,0,0.9,0,1.3c-0.1,0-0.2-0.2-0.3-0.1c-0.1,0.6-0.3,1.1-0.7,1.5l0.2,0.3c0,0-0.2,0-0.2,0
			c-0.2,0.2,0.2,0,0.3,0.2s-0.2,0.1-0.3,0c0.2,0.4,0.3,1.1-0.1,1.4l-0.1-0.1c-0.2,0.3,0.5,0.4,0.2,0.7v-0.1
			c-0.3,0.6-0.2,1.3-0.6,1.7c0.4,0.2-0.3,0.6,0.3,0.7c-0.3,0.3-0.4,0.2-0.7,0.7c0,0.1,0.3,0.2,0.4,0.4h-0.3l0.3,0.3l-0.4,0.1
			l0.1,0.2c0.1-0.1,0.1-0.1,0.2-0.1c0.1,0.3-0.3,0.6-0.4,0.6l0.2,0.6c-0.1,0-0.2-0.1-0.2-0.2c0.3,0.3-0.3,0-0.1,0.3
			c0.1,0,0.2,0,0.2,0c-0.2,0.1-0.2,0.4-0.2,0.7l-0.2-0.1c0,0.5,0,0.9,0,1.4c0.1-0.2,0.5-0.1,0.5,0h-0.3c0.2,0.1,0.1-0.1,0.4,0.1
			c0,0.2-0.4,0.1-0.5,0l0.1,0.2c-0.1,0-0.1,0-0.3-0.1c0.2,0.1-0.3,0.4,0,0.5h-0.1c0,0.5,0.1,0.7,0.1,1.1c0.3,0,0.2,0.2,0.4,0.3
			c-0.1,0.3-0.2,0.6-0.3,1c0.2,0.2,0.2,0.1,0.4,0.2c-0.2,0-0.2,0.4-0.4,0.2c0,0.4,0.1,0.7,0.3,1.1c0.1-0.1,0.2-0.1,0.2-0.1
			s-0.1,0.2-0.2,0.2l0,0c0.4,0.6-0.7,1.4-0.2,1.8l0,0l0.3,0.5c0,0.2-0.2-0.1-0.3,0.1c0.5,0.5,0,0.8,0.3,1.2
			c-0.7,0.4,0.2,1.2-0.3,1.7h0.2c0.2,0.1-0.1,0.2-0.1,0.2c0.1,0,0.2-0.1,0.2-0.1c0.2,1,0.2,2.1,0.1,3.1c0,0.4,1,0,0.6,0.6l-0.3-0.1
			c0.2,0.3,0.3,0.7,0.4,1.1c0.1,0.4,0.2,0.8,0.4,1.1c-0.1,0-0.2,0-0.2-0.1c-0.2,0.2,0.1,0.6,0.3,0.5c0,0.1-0.2,0.1-0.2,0.2
			s0.4,0.3,0.2,0.5h-0.1c0.1,0.1,0.1,0.5,0.3,0.3c0,0.3,0.2,0.5,0.2,0.7c0.3,0,0,0.5,0.4,0.4c-0.4,0.1-0.2,0.6,0,0.7
			c-0.2,0-0.1,0.2-0.3,0.2c0.1,0.2,0.2,0.3,0.4,0.2c-0.4,0.5,0.7,0.6,0,1c0.4,0.4,0.7,0.9,1,1.4c-0.4,0.1-0.2-0.5-0.7-0.4
			c0.3,0.4,0.8,0.6,0.9,1.1c0,0.2-0.2,0-0.3,0c0.3,0.4,0.3,0.9,0.7,1.2c0,0-0.1,0-0.2,0c0,0.1,0,0.2,0.2,0.1l-0.1-0.1
			c0.2-0.2,0.7,0.1,0.9,0c-0.6,0.1,0,0.5-0.7,0.5c0.1,0,0.2,0,0.3,0c0,0.1-0.1,0.2-0.2,0.1c0.2,0.2,0.4,0.1,0.5,0.3h-0.3
			c0.2,0.1,0.5,0.1,0.5,0.4c-0.1,0-0.1,0.1-0.2,0c0.2,0.4,0.7,0.4,0.8,0.9c-0.4,0.1-0.1,0.2-0.4,0.4l0.2,0.2l0.1-0.2
			c0.1,0.2,0.4,0.2,0.4,0.5l-0.2-0.1l0.2,0.3v-0.3c0.3,0.1,0.4-0.2,0.4,0.1c-0.1,0,0.1,0.2,0,0.4l0,0c0.2,0,0.3,0.1,0.3,0.3
			s-0.4,0.2-0.4,0.2c0.3,0,0.3,0.4,0.7,0.4c-0.1,0-0.2,0.1-0.3,0.1h0.3c0,0.1-0.1,0.2-0.2,0.2c0.1,0.3,0.4-0.3,0.4,0.1h-0.1
			c0.1,0.4,0.5,0.5,0.5,0.9c-0.3,0.3-0.2-0.2-0.4,0c0.3,0.4,0.8,0.6,1,1.1v-0.1c0.5-0.2,0,0.4,0.3,0.5c-0.1,0-0.2,0-0.2,0.1
			c0.1,0.3,0.4,0.5,0.8,0.8h-0.2c0,0.2,0.2,0.5,0.3,0.7c0.1,0,0.2,0.1,0.3-0.1c-0.3,0.9,1,0.8,0.8,1.5h-0.2l0.4,0.3
			c0.2-0.2,0.1-0.1,0.2-0.3c0.1,0,0.3,0,0.4,0.1c-0.2-0.1-0.3,0.2-0.3,0.4c0-0.1,0.1-0.1,0.2-0.1c-0.2,0.4,0.4-0.2,0.4,0.2h-0.1
			c0.1,0.1,0.3,0.1,0.4,0.2c-0.2,0.2-0.2,0-0.4,0.1c0.1,0.1,0.6,0,0.5,0.3c-0.1,0-0.2-0.1-0.3-0.1c-0.1,0.3-0.1,0.3,0,0.4l0,0
			l0.1,0.3v-0.1c0.7-0.2,0.4,0.3,0.9,0.3c-0.5,0-0.2,0.1-0.5,0.3c0,0.1,0,0.3-0.1,0.3c0.3,0,0,0.3,0.4,0.3c-0.1,0.1,0.1,0.1-0.1,0.3
			c0.2,0.1,0.1-0.2,0.2-0.2c0.4,0,0.2,0.8,0.8,0.8c0.4,0.2,0.7,0,1,0.1c0,0.2-0.3,0.2-0.3,0.2c0,0.2,0.1,0.4,0.3,0.4
			c-0.1,0-0.1,0.1-0.2,0.2c0.1,0.1,0.3-0.2,0.3,0.1c-0.1,0.1-0.3,0.1-0.4,0.2c0.2,0.1,0.4,0.1,0.6,0.1c-0.1,0.2-0.3,0.1-0.4,0.1
			c0.2,0.1,0.4,0.3,0.7,0.1V567c0.1,0-0.1,0.2-0.2,0.2c-0.3,0-0.1-0.2,0-0.3h0.1c0.3-0.5-0.4-0.3-0.5-0.5l0.4-0.2l-0.4,0
			c0-0.1,0.2-0.3,0.3-0.2c0-0.3-0.2,0-0.1-0.3h-0.1c0.1,0,0.2-0.2,0.2-0.1c0-0.4-0.6-0.2-0.4-0.5l0,0c-0.4-0.2-0.2,0.2-0.7,0.2
			l0.4-0.6l-0.3,0.2c0,0,0-0.1,0-0.2l0,0c-0.3,0-0.1,0.1-0.3,0.2c0.1-0.3-0.5-0.4-0.1-0.7c-0.2,0.1,0,0.3-0.3,0.2
			c0.4-0.4-0.2-0.2-0.2-0.5c0.2-0.1,0.2,0.1,0.3-0.2c-0.4,0.2-0.2-0.4-0.3-0.4c-0.3,0.2-0.3-0.2-0.6-0.3c0.1-0.1-0.2-0.5-0.2-0.8
			l0,0c-0.3,0.2-0.4-0.1-0.6-0.2c0.1-0.1,0.3-0.1,0.4-0.1l-0.1-0.1c-0.1,0.1-0.2,0.1-0.3,0l0.2-0.1c-0.2-0.2-0.6-0.2-0.6-0.5
			c-0.2,0.1-0.5,0.6-0.8,0.4c0.1-0.1,0.3-0.2,0.4-0.2s-0.2,0-0.1-0.1h0.3c0-0.2-0.2,0-0.2,0c0.2-0.1,0.1-0.2,0.2-0.2s0,0.1,0.1,0.1
			c0-0.1,0-0.3,0.1-0.4c-0.1,0.1-0.2,0.2-0.3,0.1s0.2-0.2,0.2-0.4c-0.1,0-0.1-0.2-0.3,0c0-0.1,0.1-0.1,0.1-0.2
			c-0.2,0-0.3-0.5-0.5-0.2l0,0c-0.5-0.2-0.3-0.8-0.6-1.1h0.1c-0.2-0.2-0.3-0.4-0.6-0.5c0-0.1,0.1-0.2,0.2-0.3
			c-0.2-0.1-0.3-0.1-0.3-0.4c0.2,0.1,0.1-0.1,0.2,0.1c0-0.2,0.1-0.4-0.3-0.5c0.1,0,0.2-0.1,0.2-0.2c0-0.1,0-0.1-0.1-0.1l-0.1,0.2
			c-0.1-0.1-0.1-0.2-0.2-0.3l0.3-0.1c0.1-0.6-1-0.4-0.6-1.1c-0.3,0,0,0.3-0.3,0.3c-0.1-0.2,0.2-0.6,0.2-0.7c0-0.3-0.6,0-0.6-0.4
			c-0.1,0.1-0.3,0.3-0.6,0.1s0.3-0.5,0.5-0.4c0,0,0,0.1,0,0.1l0,0c0.1,0,0.2,0.1,0.2,0h-0.1c0.1-0.2-0.1-0.4,0.1-0.4
			c-0.2-0.1-0.2,0-0.2,0.2c0-0.3-0.2-0.4-0.2-0.7c0,0.1-0.2,0.2-0.2,0.1c0-0.5-0.3-0.1-0.4-0.3c0.1-0.2,0.4-0.1,0.2-0.3
			c0-0.2,0.3-0.2,0.4-0.1c-0.3-0.2,0-0.5-0.1-0.7l0.1,0.1c-0.1,0-0.1-0.1-0.1-0.2l-0.2,0.2c0-0.1,0-0.2,0.1-0.2
			c-0.2,0-0.3,0.2-0.6,0.1c0.1-0.1-0.2-0.2,0-0.4c0,0.4,0.3-0.2,0.4,0.1c-0.1,0-0.1-0.1-0.1-0.2h0.1c0.1-0.4-0.4,0-0.5-0.3
			c0.2,0,0.3-0.2,0.2-0.2c0,0.1-0.2,0.2-0.4,0.1c0-0.3-0.2-0.2-0.2-0.3v0.2c-0.2,0-0.2-0.1-0.3-0.2c0.1-0.1,0.2,0.1,0.2,0
			c-0.3,0,0.2-0.5-0.1-0.6c0.1-0.1,0.3-0.1,0.3-0.2c-0.3-0.2,0.1-0.3-0.1-0.5c-0.2,0.2-0.1,0.2-0.4,0l0.3,0.4l-0.4-0.2
			c0,0.1,0.2,0.2,0.2,0.3c-0.2-0.1-0.2-0.1-0.3,0.1c0.3-0.3-0.3-0.3-0.2-0.6l0.6-0.2c0.2-0.4-0.5-0.5-0.5-0.9l-0.1,0.2
			c-0.2,0-0.1-0.2-0.2-0.3c0.2,0,0.2-0.2,0.3-0.2c-0.1,0-0.1-0.3-0.5-0.2l0.2-0.3c0-0.4-0.7-0.2-0.7-0.5c0.2,0,0.3-0.2,0.5,0
			c0-0.1,0-0.2-0.2-0.2c0.1-0.1-0.4-0.2-0.2-0.4c-0.1,0-0.3,0-0.3-0.1h0.1c-0.1,0-0.2-0.2-0.4,0c0.5-0.5-0.3-0.9,0.2-1.3
			c-0.1-0.2-0.2-0.5-0.3-0.7h0.1c0.1-0.3-0.6,0-0.5-0.4c0.3-0.2,0.2,0.1,0.3,0c0.6-0.2-0.2-0.4,0.1-0.7l0,0c0.2-0.2-0.3-0.4-0.4-0.7
			c0,0,0.1,0,0.1,0c-0.3-0.1-0.6-0.4-0.7-0.7c0.3,0,0.2,0.1,0.4,0c0-0.1-0.4,0.1-0.5-0.1c0.1-0.1,0.2-0.3,0.5-0.4v0.2
			c0.3-0.2-0.1-0.3,0-0.4h0.2c-0.1-0.3-0.5-0.3-0.5-0.7l-0.1,0.1c-0.4-0.1,0.2-0.2-0.1-0.4l0.4-0.1c-0.2-0.2-0.4-0.4-0.6-0.7
			c0.3,0.1,0.5,0.3,0.7,0.5c0-0.1-0.1-0.5-0.3-0.5c0,0,0.2,0.1,0.1,0.2c-0.3-0.1-0.5-0.3-0.6-0.6c0.8-0.1,0.1-0.7,0.7-1
			c-0.3-0.5,0-1-0.1-1.5c-0.6,0.3,0-0.2-0.6-0.1v-0.2l0.3-0.4c0.2-0.1,0.1,0.1,0.3,0.1c0-0.3,0.2-0.1,0.4-0.3
			c-0.2,0.1-0.3-0.1-0.3-0.2l-0.3,0.2c-0.4-0.4,0.5-0.4,0.1-0.8l0.2,0.1c-0.1-0.2-0.1-0.8-0.6-0.9c0.1,0,0.2-0.1,0.3,0
			c0.1-0.5-0.5-1.1-0.2-1.5h0.2c0-0.1-0.3-0.2-0.1-0.3s0.2,0,0.2,0s-0.3-0.2-0.2-0.4l0.2,0.1c0.2-0.5-0.4-0.8-0.5-1.2
			c0.4,0,0.6-0.4,0.7-0.6h0.1c0.1-0.6-0.3-1-0.4-1.5c0.5-0.3,0.3-1.1,0.6-1.6c-0.1,0.1-0.3,0-0.4-0.1c0-0.1-0.3-0.4,0.1-0.3l0,0
			c0.4-0.1,0.3-0.3,0.3-0.5l-0.5-0.1c0.8-0.4-0.1-1.4,0.6-1.6c-0.1-0.1-0.1-0.3-0.2-0.4h0.3c0.1-0.3,0.2-0.6,0.2-0.9l0.2,0.1
			c0-0.2-0.8-0.4-0.8-0.7h0.4c0-0.4,0.5-0.8,0.2-1.2c0,0,0.2,0,0.2,0.1c0.1-0.2,0.4-0.7-0.1-0.7c0.4,0.1,0.1-0.4,0-0.7l0.3,0.1
			c-0.3-0.3-0.4-0.3-0.4-0.6c0,0,0.2,0,0.1,0.1c0.2-0.2-0.2-0.2,0-0.4l0.2,0.1c0.1-0.2,0-0.2-0.2-0.4s0.2-0.4,0.4-0.4
			c-0.1-0.1-0.3-0.2-0.2-0.3c0.1,0,0.1,0,0.2,0.1c0.3-0.3-0.2-0.6,0.2-0.8h0.2c0,0.2-0.1,0.3-0.2,0.5c0.2,0.1,0.4-0.1,0.6,0.1
			c-0.1-0.2-0.4-0.6-0.3-0.8h0.1v-0.2c0.1,0,0.1-0.1,0.1-0.2c0.2,0,0.2-0.2,0.2-0.3c-0.3-0.1-0.2-0.2-0.4-0.1v0.2l0,0
			c0,0.1,0,0.2-0.1,0.3c-0.1-0.1-0.2-0.2,0-0.3l-0.4-0.3c0.4,0,0.7-0.3,1-0.2c0-0.4,0.1-0.8-0.3-1.2c0-0.1,0.2-0.1,0.3-0.1
			s0,0.1,0.1,0.2c-0.1-0.2,0.1-0.6-0.2-0.8c0.2-0.2,0.3,0.2,0.3-0.1l0.1,0.1c0.8-0.4-0.5-1.4,0.5-1.8c0,0-0.1,0-0.2,0
			c0.7-0.7,0.4-1.8,1.2-2.4c0.2-0.2,0-0.3-0.1-0.5l0.3,0.1l-0.2-0.4c-0.1-0.4,1-0.2,0.7-0.9h-0.2c0.1-0.1,0.1-0.5,0.3-0.4
			c0,0-0.2-0.1,0-0.1l0.1,0.1l-0.1-0.5c0.2-0.2,0.5,0.3,0.8,0c0-0.2-0.2-0.7-0.3-0.6c-0.1,0.1-0.2,0.1-0.3,0v-0.2
			c-0.4-0.2-0.8-0.6-1.2-0.4l0.1,0.4h-0.2l0.1-0.2c-0.2,0-0.1,0.2,0,0.3c-0.1,0-0.2,0-0.3,0l0.3,0.5c-0.2-0.1-0.3-0.3-0.4-0.2
			c0.1,0.2,0.4,0.1,0.4,0.3c-0.2,0-0.4-0.1-0.3,0.1c-0.1,0-0.2-0.1-0.2-0.2c0.1,0.2-0.1,0.4,0.1,0.5c-0.3,0-0.2,0.5-0.5,0.2
			c0.1,0.1,0.2,0.3,0.2,0.5c-0.4-0.4-0.2,0.4-0.7,0.1c0.3,0.4-0.1,0.6,0,1c0,0-0.1-0.1,0-0.1s-0.3,0.1-0.4,0.2
			c0.3,0.2,0.3,0.5,0.5,0.7c-0.4,0-0.4-0.3-0.7-0.4c0.3,0.1,0.2,0.5,0.4,0.5c-0.3,0-0.2,0.1-0.5,0c0.4,0.2,0,0.2,0.2,0.4
			c-0.3,0.1-0.4-0.1-0.4,0.2C1846.6,511.2,1846.5,511,1846.5,511z M1845.3,517L1845.3,517L1845.3,517z M1845.2,517.5
			c0-0.1,0.1-0.1,0.1-0.2c0.1,0,0.2,0.1,0.2,0.1S1845.3,517.4,1845.2,517.5L1845.2,517.5z M1847.4,517
			C1847.4,517.1,1847.4,517.1,1847.4,517C1847.2,517.1,1847.3,517,1847.4,517L1847.4,517L1847.4,517L1847.4,517z"/>
		<polygon class="st23" points="1843.3,524.2 1843.4,524.2 1843.3,524.2 		"/>
		<path class="st23" d="M1853.5,562.4C1853.5,562.5,1853.5,562.5,1853.5,562.4L1853.5,562.4z"/>
		<path class="st23" d="M1854.2,563.4v0.2C1854.2,563.6,1854.2,563.5,1854.2,563.4z"/>
		<path class="st23" d="M1854.7,564.2l0.1-0.1l0,0L1854.7,564.2z"/>
		<path class="st23" d="M1849.4,555.4l-0.2-0.1C1849.2,555.4,1849.3,555.5,1849.4,555.4z"/>
		<polygon class="st23" points="1845,547.2 1845,547.2 1845,547.1 		"/>
		<path class="st23" d="M1849.1,555.2c0,0.1,0,0.1,0.1,0.2C1849.2,555.3,1849.2,555.2,1849.1,555.2z"/>
		<path class="st23" d="M1857.3,567.4L1857.3,567.4z"/>
		<path class="st23" d="M1857.5,567.4h-0.1C1857.3,567.4,1857.4,567.5,1857.5,567.4z"/>
		<path class="st23" d="M1856.5,566.4L1856.5,566.4L1856.5,566.4z"/>
		<path class="st23" d="M1856.2,566.1c0,0.1,0,0.3,0.1,0.4l0.1,0C1856.2,566.5,1856.4,566.1,1856.2,566.1z"/>
		<path class="st23" d="M1856.1,564.2c0,0.1,0.1,0.2,0.1,0.3c0-0.1,0.1-0.2,0.2-0.2C1856.5,563.8,1856.4,564.5,1856.1,564.2z"/>
		<path class="st23" d="M1855.7,563.3c0.1,0.1,0.1-0.1,0.2-0.1C1855.7,563.2,1855.7,563.1,1855.7,563.3z"/>
		<path class="st23" d="M1851.8,557.7l0.2-0.1C1852,557.5,1852,557.7,1851.8,557.7z"/>
		<polygon class="st23" points="1850.1,557.2 1850,557.4 1850.2,557.3 		"/>
		<polygon class="st23" points="1851.3,555.7 1851.4,555.7 1851.2,555.5 		"/>
		<path class="st23" d="M1847.1,545.2l-0.3,0.1C1846.8,545.4,1847.2,545.3,1847.1,545.2z"/>
		<path class="st23" d="M1845.7,540.5c0.1-0.1,0.2-0.2,0-0.3C1845.7,540.3,1845.6,540.4,1845.7,540.5z"/>
		<polygon class="st23" points="1845.6,525.8 1845.7,525.9 1845.7,525.7 		"/>
	</g>
	<ellipse class="st11" cx="1751.9" cy="574" rx="6.7" ry="2.5"/>
</g>
<g>
	<rect x="439.8" y="314.9" class="st24" width="11" height="177"/>
	<path class="st25" d="M399.3,225.9h95c7.5,0,13.5,6,13.5,13.5v95c0,7.5-6,13.5-13.5,13.5h-95c-7.5,0-13.5-6-13.5-13.5v-95
		C385.8,231.9,391.8,225.9,399.3,225.9z"/>
	<path d="M419.7,300.2h42.6l-1,4.9h-39c-2,0.1-3.6,1.8-3.5,3.8c0,0.2,0,0.5,0.1,0.7l0.8,3.7c-2.9,1.5-4.6,4.5-4.6,7.8
		c-0.3,4.5,3.1,8.4,7.6,8.6c4.5,0.3,8.4-3.1,8.6-7.6l0,0c0-0.3,0-0.5,0-0.8c0.1-2.4-0.8-4.7-2.5-6.4h30.5c-1.6,1.7-2.5,3.9-2.5,6.2
		c-0.2,4.5,3.2,8.3,7.7,8.6c4.4,0.2,8.2-3.1,8.6-7.5c0-0.2,0-0.4,0-0.7c0.2-3.2-1.4-6.2-4.1-8l10.2-53h10.2c2-0.1,3.5-1.7,3.5-3.7
		v-2.5c0.1-2-1.5-3.6-3.5-3.7h-14.9c-1.7,0-3.1,1.3-3.4,3l-1.3,7h-57.1c-2,0.1-3.6,1.8-3.5,3.8c0,0.2,0,0.5,0.1,0.7l6.9,32.1
		C416.6,299,418.1,300.2,419.7,300.2z"/>
	<path class="st5" d="M443,293.5v-7.2h10.1c1.1,0,2-0.9,2-2v-4c0-1.1-0.9-2-2-2H443V271c0-1.1-0.8-2-1.9-2.1c-0.6,0-1.1,0.2-1.5,0.6
		l-11.3,11.3c-0.8,0.8-0.8,2,0,2.8c0,0,0,0,0,0l0,0l11.3,11.3c0.8,0.8,2,0.8,2.8,0.1c0,0,0,0,0,0C442.7,294.7,443,294.1,443,293.5
		L443,293.5z"/>
</g>
<rect y="-2" class="st26" width="1920" height="1080"/>
<g>
	<path d="M674.2,140.3l23.5-2.7l1.6,20.9c-0.9,4.2-2.8,8.2-5.5,11.6c-2.6,3.1-6,5.4-9.8,6.8c-2.8,1.1-5.7,1.9-8.7,2.6
		c-3.7,0.8-7.4,1.4-11.2,1.7c-3.7,0.4-7.5,0.5-11.2,0.2c-2.2-0.2-4.4-0.8-6.4-1.8c-1.6-0.9-3-2.1-4.1-3.6c-1.1-1.5-2.5-3.2-4.2-5.2
		c-1.5-1.7-2.7-3.8-3.4-6c-0.9-2.6-1.6-5.3-2.1-8c-0.5-2.8-0.9-5.6-1.2-8.5s-0.5-5.4-0.7-7.7c-0.5-4.8-1-9.4-1.6-13.9
		c-0.6-4.2-0.8-8.4-0.8-12.6c0-3.7,0.6-7.3,1.8-10.8c1.2-3.3,3.3-6.3,6.1-8.4c1.3-1,2.6-2,4-2.9c1.4-0.9,2.9-1.6,4.4-2.3
		c1.7-0.7,3.5-1.2,5.3-1.6c2-0.4,4.2-0.7,6.8-1c4.8-0.4,8.9-0.6,12.2-0.7c2.9-0.1,5.7,0.1,8.5,0.7c2.1,0.5,3.8,1,5.2,1.4
		c1.2,0.4,2.3,0.9,3.4,1.5c0.8,0.5,1.6,1.1,2.2,1.8c0.6,0.7,1.1,1.5,1.6,2.3c1.1,2,1.9,4.2,2.3,6.5c0.4,2.5,0.8,5.3,1.2,8.4
		l-17.4,1.8c-0.2-3-1-5.3-2.2-6.7c-1.2-1.4-2.8-2.3-4.6-2.7c-2-0.4-4.1-0.4-6.2-0.1c-2.3,0.3-4.6,0.7-7,1.1c-3.6,0.7-6.2,2-7.8,4.1
		c-1.7,2.3-2.7,5.1-2.9,7.9c-0.4,3.8-0.3,7.7,0.1,11.5c0.4,4.4,0.9,9.4,1.4,14.8c0.4,4.3,1,8.7,1.9,12.9c0.5,2.7,1.5,5.2,3,7.5
		c1,1.6,2.6,2.8,4.5,3.3c2.1,0.5,4.3,0.5,6.5,0.1c0.9-0.1,1.9-0.2,2.8-0.2h2.2c0.9,0,1.7-0.1,2.5-0.3c1.4-0.3,2.7-0.8,4-1.3l2.7-1.5
		c1.2-1.1,2.2-2.4,3-3.7c0.7-1.1,1.1-2.3,1.2-3.5c0-1-0.5-2-1.3-2.6c-0.9-0.7-2.5-1-4.8-1L674.2,140.3z"/>
	<path d="M733.8,171.4l-4.1,9.4l-18-1l38.2-92.8l14.2,0.2l22.3,95.6l-19.3-0.8l-2-8.7L733.8,171.4z M754.6,116.9l-15.2,38.9
		l23.3,1.5L754.6,116.9z"/>
	<path d="M815.8,89.8L839,135l18.1-48.3l15.3-1.3l6.2,90.1l-17.5,1.2l-2.7-41.7l-16.7,40.8L820.1,136l1.8,44.5l-15.1,0.7l-6.2-90.4
		L815.8,89.8z"/>
	<path d="M952.7,86.2l-0.5,14.2l-37.8,0.2l2.5,30.2l30.5-2.5l1,14.9l-30.3-0.3l2.1,29.2l34.9-1.1l0.5,9.9l-55.6,1.2l-1.9-94.3
		L952.7,86.2z"/>
	<path d="M1020.9,100.6c0.7-1.7,1.6-3.3,2.7-4.7c1.4-1.8,3.1-3.3,5-4.5c2.2-1.4,4.7-2.6,7.2-3.4c3.1-1,6.3-1.4,9.5-1.3
		c7.9,0,14.2,0.7,19,2.2c4.5,1.3,8.5,4,11.2,7.9c2.7,3.8,4.5,9.1,5.4,15.9c1,8.7,1.5,17.4,1.3,26.2c0.1,6.7-0.3,13.4-1.1,20
		c-0.5,4.9-2.2,9.7-4.9,13.8c-2.7,3.7-6.6,6.5-11,7.9c-4.8,1.6-11.2,2.3-19.2,2.1c-4.1,0.7-8.2,0.2-12-1.4c-3.4-1.6-6.4-4-8.6-7
		c-2.5-3.3-4.4-7-5.7-11c-1.5-4.4-2.5-8.9-3.1-13.5c-0.6-4.8-1-9.6-1-14.5c-0.1-4.6,0.2-9.3,0.6-13.9c0.4-4,1-7.9,1.9-11.8
		c0.6-2.8,1.5-5.6,2.7-8.2L1020.9,100.6z M1032.1,146.8c0.6,1.7,1.1,3.7,1.7,6c0.6,2.2,1.3,4.4,2.3,6.5c0.9,2,2.1,3.8,3.7,5.2
		c1.6,1.5,3.7,2.2,5.8,2.1c2.9,0,5.7-0.3,8.5-1c2.6-0.6,4.9-1.9,6.6-3.9c0.9-1.1,1.6-2.4,2-3.9c0.6-1.8,1-3.6,1.4-5.4
		c0.4-2.2,0.7-4.4,0.8-6.6c0.2-2.4,0.2-4.8,0.2-7.3c0.1-6.6-0.3-13.2-1.1-19.8c-0.7-4.6-1.9-8-3.5-10.2c-1.4-2-3.6-3.4-6-3.8
		c-2.9-0.4-5.8-0.6-8.7-0.5c-5.5,0-9.3,2.1-11.4,6.3s-3.2,10.9-3.2,20L1032.1,146.8z"/>
	<path d="M1117,87.5l10.9,45.9l13.6-45.4l17.6,0.5l-30.3,94.2l-4.6-0.1l-23.4-95.5L1117,87.5z"/>
	<path d="M1233.2,86.2l-0.5,14.2l-37.8,0.2l2.5,30.2l30.5-2.5l1,14.9l-30.3-0.2l2.1,29.2l34.9-1.1l0.5,9.9l-55.6,1.2l-1.9-94.3
		L1233.2,86.2z"/>
	<path d="M1261.1,86.4l34.6,1.9c2.1,0.2,3.7,0.3,5,0.5c1.1,0.1,2.1,0.3,3.1,0.6c0.8,0.2,1.6,0.6,2.4,0.9c0.9,0.4,1.8,0.8,2.7,1.2
		c4.3,1.6,7.9,4.7,10.2,8.7c0.7,1.3,1.1,2.6,1.4,4c0.4,1.7,0.7,3.5,0.9,5.3c0.2,1.8,0.3,3.7,0.3,5.5s0,3.5-0.1,4.9
		c-0.3,4.4-1.7,8.7-4,12.4c-2.3,3.4-5.5,6.2-9.2,8c-1.6,0.7-3.3,1-5,1.1c-2.2,0.2-4.4,0.4-6.4,0.8c0.2,0.4,0.8,1.3,1.7,2.6
		s2.2,3.6,4.1,6.6c1.8,3,4.3,7.1,7.3,12.2s6.9,11.8,11.4,19.9l-18.6-1.2l-16.6-26.8c-0.6-1-1.2-2-1.7-3.1c-0.6-1.3-1.3-2.6-2-3.8
		s-1.3-2.4-1.9-3.4c-0.4-0.7-0.8-1.4-1.3-2c-0.3-0.2-0.7-0.5-1-0.8c-0.2-0.2-0.4-0.3-0.6-0.4l-0.7-0.1h-1.3l-2.5-0.2l-3.5,36.9
		l-15.7-1.5L1261.1,86.4z M1286.5,123.3c0.6,0,1.3,0,1.9,0.1c0.9,0.1,2,0.1,3.2,0.1s2.3,0,3.6-0.1c1.1,0,2.2-0.2,3.2-0.3
		c1.9-0.2,3.6-1,4.8-2.4c1.4-1.4,2.2-3.2,2.3-5.1c0.1-0.8,0.1-1.5,0.2-2.2c0-0.7,0-1.3-0.2-2c-0.2-0.8-0.5-1.5-0.8-2.2
		c-0.5-1-1.2-1.8-2-2.6c-0.7-0.8-1.5-1.4-2.5-1.8c-1.1-0.4-2.2-0.8-3.3-1c-1.2-0.2-2.4-0.4-3.6-0.5s-2.3-0.2-3.3-0.4l-13.4-0.8
		l-1.7,20.7L1286.5,123.3z"/>
</g>
<circle class="st10" cx="968.5" cy="546.2" r="216.1"/>
<ellipse transform="matrix(0.3611 -0.9325 0.9325 0.3611 121.4172 1171.5507)" class="st5" cx="915.7" cy="497.2" rx="56.5" ry="45.2"/>
<ellipse cx="927.1" cy="499.7" rx="11.3" ry="13.8"/>
<path class="st27" d="M1109.3,377.8H827.8l32.7-82.9c9.6-8.5,50.7-43.1,113.1-42.7c58.7,0.4,97.7,31.4,108.1,40.2
	C1090.8,320.9,1100,349.3,1109.3,377.8z"/>
<path d="M1116.8,377.8c-97.7-10.1-196.3-10-294,0c-5.3-0.2-10.2,2.8-12.6,7.5c-1.3,3.2-1.3,6.8,0,10c102.4-15,206.3-16.7,309.1-5
	c2.3-1.8,3.2-4.7,2.5-7.5C1121.1,380.5,1119.2,378.6,1116.8,377.8z"/>
<ellipse transform="matrix(0.9045 -0.4264 0.4264 0.9045 -115.7928 481.1676)" class="st5" cx="1016.7" cy="499.2" rx="45.2" ry="56.5"/>
<ellipse cx="1005" cy="499.7" rx="11.3" ry="13.8"/>
<path class="st28" d="M827.8,377.8l138.2-2.5V305c-7.2,4-33,17-65.3,10c-14.9-3.3-28.7-10.2-40.2-20.1
	C835.6,314.8,823.2,346.3,827.8,377.8z"/>
<path class="st28" d="M968.5,375.3l140.7,2.5c1.9-8.7,6.1-34.2-7.5-60.3c-5-9.6-11.9-18.1-20.1-25.1c-34.2,20-75.3,24.5-113.1,12.6
	V375.3z"/>
<ellipse transform="matrix(0.996 -8.958964e-02 8.958964e-02 0.996 -18.129 88.5204)" class="st29" cx="977" cy="246.2" rx="6.3" ry="5.2"/>
<path class="st30" d="M851.3,685.8c0,0,176.4-103.5,216.6,1.2L851.3,685.8z"/>
<ellipse class="st25" cx="1513.2" cy="350.2" rx="228.6" ry="189.7"/>
<g>
	<path d="M1367.6,243.8c1.3,0,2.6,0.1,3.8,0.2c1,0.1,1.9,0.4,2.8,0.7c0.8,0.3,1.5,0.8,2.1,1.3c0.7,0.6,1.3,1.2,1.8,1.9
		c0.7,0.9,1.1,1.9,1.3,3c0.3,1.3,0.5,2.6,0.7,3.9c0.1,1.4,0.2,2.8,0.2,4.2v3.8c0,0.9,0,1.6,0,2.3s0,1.3,0,2s-0.1,1.4-0.2,2.3
		s-0.2,2-0.4,3.3c-0.1,0.6-0.3,1.2-0.5,1.8c-0.3,0.6-0.6,1.2-1.1,1.8c-0.4,0.6-1,1-1.6,1.5c-0.6,0.4-1.3,0.7-2,0.9
		c-0.6,0.2-1.2,0.3-1.8,0.5l-2,0.4c-0.7,0.1-1.3,0.2-1.9,0.3c-0.5,0.1-1.1,0.1-1.6,0.1h-8.8v-36.2H1367.6z M1365.1,272.2l1-0.2
		c0.4-0.1,0.9-0.2,1.3-0.3s0.9-0.2,1.3-0.4c0.3-0.1,0.7-0.2,1-0.4l0.7-0.4c0.3-0.2,0.6-0.4,0.8-0.7c0.3-0.4,0.6-0.8,0.9-1.2
		c0.3-0.6,0.6-1.3,0.7-1.9c0.1-0.4,0.2-0.8,0.3-1.4s0.2-1.1,0.3-1.7s0.2-1.3,0.2-1.9c0.1-0.6,0.1-1.3,0-1.9
		c-0.2-1.5-0.3-2.6-0.5-3.5c-0.1-0.7-0.3-1.5-0.5-2.2c-0.1-0.5-0.3-1-0.6-1.4c-0.2-0.4-0.5-0.7-0.8-1c-0.4-0.3-0.8-0.6-1.3-0.7
		c-0.6-0.2-1.2-0.3-1.9-0.3c-0.7-0.1-1.3-0.1-1.9-0.1s-1.1,0-1.5,0.1L1365.1,272.2z"/>
	<path d="M1410.6,243.7l1.5,21.4c0.1,1,0.1,2,0.1,3c0,1-0.1,2-0.2,2.9c-0.1,0.9-0.4,1.9-0.7,2.8c-0.3,0.9-0.8,1.7-1.4,2.4
		c-0.3,0.3-0.6,0.6-0.8,0.8c-0.2,0.2-0.4,0.4-0.6,0.5c-0.2,0.2-0.4,0.3-0.6,0.4c-0.2,0.1-0.5,0.2-0.8,0.4l-1.1,0.4l-0.6,0.2
		l-0.8,0.2c-0.4,0.1-0.9,0.2-1.6,0.4l-1,0.3c-0.3,0.1-0.6,0.1-0.9,0.2l-1,0.1c-0.3,0-0.8,0-1.2,0c-0.8,0-1.5-0.1-2.3-0.3
		c-0.6-0.1-1.2-0.3-1.8-0.6c-0.6-0.2-1.1-0.5-1.6-0.9c-0.4-0.3-0.8-0.6-1.2-0.9c-0.3-0.3-0.6-0.7-0.8-1.2c-0.3-0.5-0.5-1.1-0.7-1.6
		c-0.2-0.6-0.4-1.2-0.5-1.9c-0.2-0.8-0.3-1.5-0.4-2.3s-0.2-1.5-0.3-2.2s-0.1-1.2-0.2-1.6l-1.3-21.2l6.1-0.4l1.7,23.7
		c0,1.5,0.4,2.9,1.2,4.1c0.7,0.9,2,1.3,3.8,1.1c1.5,0,3-0.6,4-1.7c1-1.2,1.4-2.8,1.2-4.4l-1.9-23.7L1410.6,243.7z"/>
	<path d="M1439.7,245.2l8.7,16.9l6.8-18l5.7-0.5l2.3,33.7l-6.5,0.5l-1-15.6l-6.2,15.2l-8.1-14.9l0.7,16.6l-5.6,0.3l-2.4-33.8
		L1439.7,245.2z"/>
	<path d="M1478.7,243.5l0.5,36.8h-8v-36.8H1478.7z"/>
	<path d="M1492.7,271.4c0,0.3,0.1,0.6,0.2,0.9c0.1,0.2,0.2,0.4,0.2,0.6c0.1,0.2,0.2,0.3,0.3,0.5c0.2,0.2,0.3,0.3,0.4,0.5
		c0.2,0.3,0.5,0.6,0.9,0.7c0.3,0.1,0.7,0.2,1,0.2c0.4,0,0.8,0,1.2,0c0.4,0,0.9,0,1.4,0c0.7,0,1.4-0.1,2-0.4c0.6-0.3,1.1-0.6,1.6-1.1
		c0.4-0.4,0.8-0.9,1.1-1.4c0.2-0.4,0.4-0.9,0.4-1.4c0-0.2,0-0.5,0-0.8c0-0.3,0-0.7,0-1c0-0.3-0.1-0.7-0.1-1
		c-0.1-0.3-0.2-0.5-0.4-0.7l-0.6-0.7c-0.3-0.3-0.6-0.5-0.9-0.8c-0.4-0.3-0.9-0.5-1.4-0.7c-0.7-0.2-1.4-0.4-2.1-0.5
		c-1.2-0.1-2.2-0.2-2.9-0.4c-0.7-0.1-1.3-0.3-1.9-0.6c-0.5-0.2-1-0.5-1.4-0.8c-0.4-0.3-0.8-0.7-1.3-1.1c-0.9-0.9-1.6-2-2-3.3
		c-0.4-1.3-0.6-2.6-0.6-3.9c0.1-1.3,0.2-2.5,0.3-3.7c0.1-1.2,0.5-2.3,1.2-3.2c0.8-1,1.8-1.8,3-2.2c1.9-0.6,3.9-0.9,5.9-0.8
		c1.6,0.1,3.2,0.3,4.8,0.7c1.1,0.2,2.1,0.7,3,1.3c0.8,0.6,1.4,1.5,1.8,2.4c0.5,1.3,0.9,2.6,1.1,4h-5.6c-0.2-0.8-0.5-1.5-1-2.1
		c-0.4-0.5-0.8-0.8-1.3-1.1c-0.4-0.2-0.8-0.4-1.2-0.5c-0.2,0-0.4-0.1-0.6-0.2c-0.6-0.1-1.1-0.2-1.7-0.2c-0.5,0-1,0.2-1.5,0.3
		c-0.4,0.2-0.9,0.4-1.2,0.7c-0.3,0.2-0.6,0.5-0.8,0.9c-0.2,0.4-0.4,0.8-0.5,1.3c-0.1,0.4-0.1,0.9-0.2,1.4c0,0.4,0,0.8,0,1.2
		c0,0.3,0.1,0.5,0.1,0.8c0.1,0.5,0.3,1,0.7,1.4c0.7,0.8,1.5,1.5,2.5,1.9c0.5,0.2,0.9,0.4,1.4,0.5c1.1,0.2,2,0.4,2.6,0.5
		c0.6,0.1,1.2,0.2,1.6,0.4s0.8,0.2,1.1,0.4c0.4,0.2,0.8,0.4,1.2,0.6c1.7,0.8,3.1,2,4.2,3.6c0.9,1.5,1.4,3.2,1.3,4.9
		c0,2.1-0.6,4.1-1.8,5.8c-1.2,1.8-2.9,3.2-4.9,4c-0.5,0.2-0.9,0.4-1.1,0.5c-0.2,0.1-0.4,0.2-0.7,0.2c-0.3,0-0.6,0-0.9,0h-1.8
		c-1.4,0-2.5,0-3.4-0.1c-0.8,0-1.6-0.2-2.4-0.4c-0.6-0.1-1.2-0.4-1.7-0.7c-0.6-0.4-1.1-0.8-1.6-1.3c-0.4-0.4-0.9-0.9-1.3-1.4
		c-0.3-0.3-0.5-0.7-0.7-1.1c-0.2-0.5-0.3-0.9-0.3-1.4c-0.1-0.5-0.1-1.2-0.2-2L1492.7,271.4z"/>
	<path d="M1540,243.8l0.2,5.8l-8.9,0.6l1.9,29.3l-5.5,0.4l-2.7-29.3l-8.5,1l-0.3-5.8L1540,243.8z"/>
	<path d="M1568,243.9l-0.2,5.3l-14.1,0.1l0.9,11.3l11.4-0.9l0.4,5.6l-11.3-0.1l0.8,10.9l13.1-0.4l0.2,3.7l-20.8,0.5l-0.7-35.2
		L1568,243.9z"/>
	<path d="M1585.6,243.8c1.3,0,2.6,0.1,3.8,0.2c1,0.1,1.9,0.4,2.8,0.7c0.8,0.3,1.5,0.8,2.2,1.3c0.7,0.6,1.3,1.2,1.8,1.9
		c0.7,0.9,1.1,1.9,1.3,3c0.3,1.3,0.5,2.6,0.7,3.9c0.1,1.4,0.2,2.8,0.2,4.2v3.8c0,0.9,0,1.6,0,2.3s0,1.3,0,2s-0.1,1.4-0.2,2.3
		s-0.2,2-0.4,3.3c-0.1,0.6-0.3,1.2-0.5,1.8c-0.3,0.6-0.6,1.2-1,1.8c-0.4,0.6-1,1-1.6,1.5c-0.6,0.4-1.3,0.7-2,0.9
		c-0.6,0.2-1.2,0.3-1.8,0.5l-2,0.4c-0.7,0.1-1.3,0.2-1.9,0.3c-0.5,0.1-1.1,0.1-1.6,0.1h-8.8v-36.2H1585.6z M1583.2,272.2l1-0.2
		c0.4-0.1,0.9-0.2,1.3-0.3s0.9-0.2,1.3-0.4c0.3-0.1,0.7-0.2,1-0.4l0.7-0.4c0.3-0.2,0.6-0.4,0.9-0.7c0.3-0.4,0.6-0.8,0.8-1.2
		c0.3-0.6,0.6-1.3,0.7-1.9c0.1-0.4,0.2-0.8,0.3-1.4s0.2-1.1,0.3-1.7s0.2-1.3,0.2-1.9c0.1-0.6,0.1-1.3,0-1.9
		c-0.2-1.5-0.3-2.6-0.5-3.5c-0.1-0.8-0.3-1.5-0.5-2.2c-0.1-0.5-0.3-1-0.6-1.4c-0.2-0.3-0.5-0.7-0.8-1c-0.4-0.3-0.8-0.6-1.3-0.7
		c-0.6-0.2-1.2-0.3-1.9-0.3c-0.7-0.1-1.3-0.1-1.9-0.1s-1.1,0-1.5,0.1L1583.2,272.2z"/>
	<path d="M1626.5,243.9l-0.2,5.3l-14.1,0.1l0.9,11.3l11.4-0.9l0.4,5.6l-11.3-0.1l0.8,10.9l13.1-0.4l0.2,3.7l-20.8,0.5l-0.7-35.2
		L1626.5,243.9z"/>
	<path d="M1364.5,330.9l-1.6,3.5l-6.7-0.4l14.3-34.7l5.3,0.1l8.3,35.7l-7.2-0.3l-0.7-3.3L1364.5,330.9z M1372.3,310.6l-5.7,14.5
		l8.7,0.6L1372.3,310.6z"/>
	<path d="M1395.1,299.8l2.6,28.8l15.9-0.7l0.4,6.2l-23.1,1.1l-1.6-35.3L1395.1,299.8z"/>
	<path d="M1425.2,299.8l2.6,28.8l15.9-0.7l0.4,6.2l-23.1,1.1l-1.6-35.3L1425.2,299.8z"/>
	<path d="M1470.8,299.1l-0.2,5.3l-14.1,0.1l0.9,11.3l11.4-0.9l0.4,5.6l-11.3-0.1l0.8,10.9l13-0.4l0.2,3.7l-20.8,0.5l-0.7-35.2
		L1470.8,299.1z"/>
	<path d="M1503.8,299c1.3,0,2.6,0.1,3.8,0.2c1,0.1,1.9,0.4,2.8,0.7c0.8,0.3,1.5,0.8,2.2,1.3c0.7,0.6,1.3,1.2,1.8,2
		c0.7,0.9,1.1,1.9,1.3,3c0.3,1.3,0.5,2.6,0.7,3.9c0.1,1.4,0.2,2.8,0.2,4.2v3.8c0,0.9,0,1.6,0,2.3s0,1.3,0,2s-0.1,1.4-0.2,2.3
		s-0.2,2-0.4,3.3c-0.1,0.6-0.3,1.2-0.5,1.8c-0.6,1.3-1.5,2.4-2.6,3.2c-0.6,0.4-1.3,0.7-2,0.9c-0.6,0.2-1.2,0.3-1.8,0.5l-2,0.4
		c-0.7,0.1-1.3,0.2-1.9,0.3c-0.5,0.1-1.1,0.1-1.6,0.1h-8.8V299H1503.8z M1501.3,327.4l1-0.2c0.4-0.1,0.9-0.2,1.3-0.3
		s0.9-0.2,1.3-0.4c0.3-0.1,0.7-0.2,1-0.4l0.7-0.4c0.3-0.2,0.6-0.4,0.8-0.7c0.3-0.4,0.6-0.8,0.9-1.2c0.3-0.6,0.6-1.3,0.7-1.9
		c0.1-0.4,0.2-0.8,0.3-1.4s0.2-1.1,0.3-1.7s0.2-1.3,0.2-1.9c0.1-0.6,0.1-1.3,0-1.9c-0.2-1.5-0.3-2.6-0.5-3.5
		c-0.1-0.7-0.3-1.5-0.5-2.2c-0.1-0.5-0.3-1-0.6-1.4c-0.2-0.3-0.5-0.7-0.8-1c-0.4-0.3-0.8-0.6-1.3-0.7c-0.6-0.2-1.2-0.3-1.9-0.3
		c-0.7,0-1.3-0.1-1.9,0s-1.1,0-1.5,0.1L1501.3,327.4z"/>
	<path d="M1532.6,298.7l0.5,36.8h-7.9v-36.8H1532.6z"/>
	<path d="M1549.2,299.3l6.7,16.4l1.5-15.8l6.9,0.6l-3,34.9l-5.4-1.1l-7.7-16.1l-1.5,15.9l-6.7-0.6l2.9-34.9L1549.2,299.3z"/>
	<path d="M1592.2,299.1l-0.2,5.3l-14.1,0.1l0.9,11.3l11.4-0.9l0.4,5.6l-11.3-0.1l0.8,10.9l13.1-0.4l0.2,3.7l-20.8,0.5l-0.7-35.2
		L1592.2,299.1z"/>
	<path d="M1621,299.8l2.6,28.8l15.9-0.7l0.4,6.2l-23.1,1.1l-1.6-35.3L1621,299.8z"/>
	<path d="M1654.5,298.7l0.5,36.8h-8v-36.8H1654.5z"/>
	<path d="M1668.7,299.6l4.1,17.1l5.1-17l6.6,0.2l-11.3,35.2h-1.7l-8.7-35.7L1668.7,299.6z"/>
	<path d="M1698.9,327.4v8.1h-7.7v-8.1H1698.9z M1698.9,302.6v7.5v15.2h-7.6v-15.2v-7.5H1698.9z"/>
	<rect x="1383.7" y="390.9" class="st31" width="336.8" height="76.1"/>
	<text transform="matrix(1 0 0 1 1383.6825 428.9978)" class="st32 st33">KOM IGEN!</text>
</g>
</svg>
