<svg id="Layer_1" data-name="Layer 1" xmlns="http://www.w3.org/2000/svg" width="670" height="670" viewBox="0 0 670 670">
  <defs>
    <style>
      .cls-1 {
        fill: #ecbcb4;
      }

      .cls-2 {
        stroke: #000;
        stroke-miterlimit: 10;
      }

      .cls-3 {
        fill: #00425e;
      }

      .cls-4 {
        fill: #080045;
      }

      .cls-5 {
        fill: #130077;
      }

      .cls-6 {
        fill: #8b2c00;
      }

      .cls-7 {
        fill: #fff;
      }
    </style>
  </defs>
  <g>
    <circle class="cls-1" cx="339.12" cy="126.75" r="86"/>
    <g>
      <path class="cls-1" d="M371.43,152.92a40.5,40.5,0,0,1-4.39-.24l2.08-16.87,2.05-16.87a34.73,34.73,0,0,1,17.54,7.23c4.55,3.8,6.76,8.34,6.22,12.77-1,8.1-10.87,14-23.49,14Z"/>
      <path d="M371.6,119.5a34,34,0,0,1,16.78,7c4.42,3.69,6.57,8.07,6.05,12.33-.93,7.72-10.82,13.54-23,13.54-1.26,0-2.54-.06-3.84-.19l2-16.36,2-16.37m-.87-1.12-2.11,17.37-2.14,17.37h0a41.36,41.36,0,0,0,4.92.3c12.59,0,23-6,24-14.42,1.15-9.53-10-18.84-24.7-20.62Z"/>
    </g>
    <g>
      <path class="cls-1" d="M375.24,148.24l.88-11,.77-11a11,11,0,0,1-1.27,21.93Z"/>
      <path d="M377.35,126.89a10.5,10.5,0,0,1-1.57,20.86l.84-10.43.73-10.43m-.93-1.11-.8,11.47-.92,11.46h.12c.27,0,.53,0,.8,0a11.5,11.5,0,0,0,.8-23Z"/>
    </g>
    <path d="M244.38,49.32c34-.54,67.73-.07,101.74-.07l42.5-.29c-.18-20.46-19.31-37.21-42.5-37.21-23,0-42,16.46-42.49,36.65"/>
    <circle class="cls-2" cx="346.62" cy="8.25" r="3"/>
    <rect class="cls-3" x="253.62" y="213.25" width="172" height="208" rx="39.39"/>
    <rect class="cls-4" x="310.62" y="213.25" width="49" height="208" rx="16.74"/>
    <rect class="cls-5" x="303.62" y="422.25" width="63" height="235" rx="28.42"/>
    <ellipse class="cls-6" cx="324.62" cy="661.25" rx="43" ry="4"/>
    <ellipse class="cls-7" cx="304.64" cy="102.54" rx="14.5" ry="18.5"/>
    <circle cx="299.14" cy="107.04" r="5"/>
    <ellipse class="cls-2" cx="282.14" cy="167.54" rx="10.5" ry="4"/>
  </g>
</svg>
