<svg id="Layer_1" data-name="Layer 1" xmlns="http://www.w3.org/2000/svg" width="670" height="670" viewBox="0 0 670 670">
  <defs>
    <style>
      .cls-1 {
        fill: #ecbcb4;
      }

      .cls-2 {
        fill: #2effe0;
      }

      .cls-3 {
        fill: #fff;
      }

      .cls-4, .cls-5 {
        stroke: #000;
        stroke-miterlimit: 10;
      }

      .cls-5 {
        fill: none;
      }

      .cls-6 {
        fill: #07d000;
      }

      .cls-7 {
        fill: #72ff2e;
      }

      .cls-8 {
        fill: #0a00a2;
      }

      .cls-9 {
        fill: #8b2c00;
      }

      .cls-10 {
        fill: #f40000;
      }
    </style>
  </defs>
  <g>
    <g>
      <circle class="cls-1" cx="332.53" cy="126.75" r="86"/>
      <path class="cls-2" d="M257.49,106.64c-.1,0-.21.08-.31.12-25.74,11-38.1,39.84-27.61,64.48S269.46,207,295.2,196l.3-.13Z"/>
      <ellipse class="cls-3" cx="310.03" cy="97.25" rx="14.5" ry="18.5"/>
      <circle cx="304.53" cy="101.75" r="5"/>
      <g>
        <path class="cls-1" d="M364.84,152.92a40.5,40.5,0,0,1-4.39-.24l2.08-16.87,2.05-16.87c14.26,1.9,24.88,10.8,23.76,20-1,8.1-10.86,14-23.49,14Z"/>
        <path d="M365,119.5a34.07,34.07,0,0,1,16.79,7c4.41,3.69,6.56,8.07,6,12.33-.93,7.72-10.82,13.54-23,13.54a38.21,38.21,0,0,1-3.83-.19l2-16.36,2-16.37m-.87-1.12L362,135.75l-2.14,17.37h0a41.19,41.19,0,0,0,4.91.3c12.59,0,23-6,24-14.42,1.15-9.53-10-18.84-24.7-20.62Z"/>
      </g>
      <g>
        <path class="cls-1" d="M368.65,148.24l.88-11,.77-11A11,11,0,0,1,369,148.25Z"/>
        <path d="M370.76,126.89A10.58,10.58,0,0,1,379.51,138a10.54,10.54,0,0,1-10.32,9.77l.84-10.43.73-10.43m-.92-1.11L369,137.25l-.92,11.46h.12c.27,0,.53,0,.8,0a11.5,11.5,0,0,0,.81-23Z"/>
      </g>
      <path d="M237.79,49.32c34-.54,67.74-.07,101.74-.07L382,49c-.18-20.46-19.31-37.21-42.5-37.21-23,0-42,16.46-42.49,36.65"/>
      <circle class="cls-4" cx="340.03" cy="8.25" r="3"/>
      <path class="cls-5" d="M361.76,153.43a182.75,182.75,0,0,1-16.87,21.17c-6.54,7.06-13.9,13.78-23,17-8.58,3.09-17.95,2.84-27.06,2.55"/>
      <rect class="cls-6" x="247.03" y="213.25" width="172" height="208" rx="39.39"/>
      <rect class="cls-7" x="304.03" y="213.25" width="49" height="208" rx="16.74"/>
      <rect class="cls-8" x="297.03" y="422.25" width="63" height="235" rx="28.42"/>
      <ellipse class="cls-9" cx="318.03" cy="661.25" rx="43" ry="4"/>
      <path class="cls-5" d="M256.49,107.64c38.54,27.61,106.65,11.74,106.65,11.74"/>
    </g>
    <rect class="cls-10" x="70.99" y="286" width="523" height="44" transform="translate(-120.41 325.31) rotate(-45)"/>
    <rect class="cls-10" x="76.01" y="294.26" width="523" height="44" transform="translate(322.49 -146.03) rotate(45)"/>
  </g>
</svg>
