<svg id="Layer_1" data-name="Layer 1" xmlns="http://www.w3.org/2000/svg" width="670" height="670" viewBox="0 0 670 670">
  <defs>
    <style>
      .cls-1 {
        fill: #ecbcb4;
      }

      .cls-2 {
        fill: #fff;
      }

      .cls-3 {
        fill: #07d000;
      }

      .cls-4 {
        fill: #72ff2e;
      }

      .cls-5 {
        fill: #0a00a2;
      }

      .cls-6 {
        fill: #8b2c00;
      }

      .cls-7 {
        fill: #faf0be;
      }

      .cls-8 {
        fill: #202020;
      }

      .cls-9 {
        stroke: #000;
        stroke-miterlimit: 10;
      }
    </style>
  </defs>
  <g>
    <circle class="cls-1" cx="326.15" cy="130.73" r="86"/>
    <ellipse class="cls-2" cx="303.65" cy="101.23" rx="14.5" ry="18.5"/>
    <circle cx="298.15" cy="105.73" r="5"/>
    <g>
      <path class="cls-1" d="M358.46,156.91a38.3,38.3,0,0,1-4.4-.25l2.08-16.86,2.05-16.88a34.73,34.73,0,0,1,17.54,7.23c4.55,3.81,6.76,8.34,6.22,12.78-1,8.1-10.86,14-23.49,14Z"/>
      <path d="M358.62,123.49a33.94,33.94,0,0,1,16.79,7c4.42,3.69,6.56,8.07,6,12.33-.94,7.72-10.83,13.54-23,13.54-1.27,0-2.55-.07-3.84-.19l2-16.36,2-16.37m-.87-1.13-2.1,17.37L353.5,157.1h0a41.23,41.23,0,0,0,4.92.3c12.59,0,23-6,24-14.42,1.16-9.53-10-18.84-24.7-20.63Z"/>
    </g>
    <g>
      <path class="cls-1" d="M362.26,152.23l.88-11,.77-11a11,11,0,0,1-1.27,21.92Z"/>
      <path d="M364.37,130.88a10.5,10.5,0,0,1-1.57,20.85l.84-10.43.73-10.42m-.92-1.12-.8,11.47-.93,11.47h.12c.27,0,.54,0,.8,0a11.5,11.5,0,0,0,.81-23Z"/>
    </g>
    <path class="cls-3" d="M280,425.23h93.21a39.39,39.39,0,0,0,39.4-39.39V256.63a39.4,39.4,0,0,0-39.4-39.4H280c-6.42,1-32.64-.42-32.64,36.58-19-3-19,53-2,52-.87,48.83.7,100.94,6.78,107.89C262.57,425.55,277.82,425.31,280,425.23Z"/>
    <rect class="cls-4" x="297.65" y="217.23" width="49" height="208" rx="16.74"/>
    <rect class="cls-5" x="290.65" y="426.23" width="63" height="235" rx="28.42"/>
    <ellipse class="cls-6" cx="311.65" cy="665.23" rx="43" ry="4"/>
    <path class="cls-7" d="M256.12,80.81l32.36-13,4.67,14.92,20.32-14.92A196.56,196.56,0,0,0,393.4,204.22a64.81,64.81,0,0,0,68.51-26.35A279.5,279.5,0,0,0,421.4,33.81L399.74,4.31A246.33,246.33,0,0,0,256.12,22.84L219.45,38c-1,.91-13.45,12.3-11,28.8a32.19,32.19,0,0,0,11,19.5c.56.74,7.17,9.08,18,8.5A21.52,21.52,0,0,0,256.12,80.81Z"/>
    <g>
      <path class="cls-8" d="M369.17,155.2c.09,0,.18-.22,0-.28l-.28.21Z"/>
      <path class="cls-8" d="M368.72,154.08a.69.69,0,0,0-.65.45c.33-.16.28,0,.65-.22a.21.21,0,0,1,.06.33c.09,0,.14.21.33.08a.45.45,0,0,0-.53-.47C368.58,154.16,368.67,154.12,368.72,154.08Z"/>
      <path class="cls-8" d="M358.12,144.06l0,.1A.19.19,0,0,0,358.12,144.06Z"/>
      <path class="cls-8" d="M352.47,137.05a.11.11,0,0,0,.12,0S352.49,137,352.47,137.05Z"/>
      <path class="cls-8" d="M351.86,135.61l0,.08S351.89,135.61,351.86,135.61Z"/>
      <path class="cls-8" d="M358.12,144.06l-.09-.24C357.94,143.88,358.05,144,358.12,144.06Z"/>
      <path class="cls-8" d="M366.63,153.49a.29.29,0,0,0,.16,0l-.12,0Z"/>
      <path class="cls-8" d="M361.08,146.71l.05,0,.14-.06Z"/>
      <path class="cls-8" d="M363.36,148.72c0-.05-.25.14-.35.21a.28.28,0,0,1,.24,0A.62.62,0,0,0,363.36,148.72Z"/>
      <path class="cls-8" d="M366.77,152.17l.09,0Z"/>
      <path class="cls-8" d="M359.57,145.15l.05-.09A.19.19,0,0,0,359.57,145.15Z"/>
      <path class="cls-8" d="M337.48,65.89l0,0S337.49,65.87,337.48,65.89Z"/>
      <polygon class="cls-8" points="339.84 62.88 339.84 62.94 339.98 63 339.84 62.88"/>
      <path class="cls-8" d="M350.61,133.07h0C350.68,133.13,350.66,133.1,350.61,133.07Z"/>
      <path class="cls-8" d="M339.87,109.92c-.16.35-.44-.37-.59.13C339.38,110,339.82,110.31,339.87,109.92Z"/>
      <path class="cls-8" d="M366.59,153.42l-.11-.08A.33.33,0,0,0,366.59,153.42Z"/>
      <path class="cls-8" d="M339.28,110.05h0v0Z"/>
      <path class="cls-8" d="M347.15,127.66a.28.28,0,0,0-.08.11S347.12,127.73,347.15,127.66Z"/>
      <path class="cls-8" d="M349.23,132l0-.12A.21.21,0,0,0,349.23,132Z"/>
      <path class="cls-8" d="M345.59,125.66c0-.07,0-.11-.06-.17s0,0,0,0S345.6,125.57,345.59,125.66Z"/>
      <path class="cls-8" d="M344.47,123.31l0,.06.05.07Z"/>
      <path class="cls-8" d="M335.7,73.82a1.47,1.47,0,0,1,.28-.08C335.77,73.75,335.78,73.35,335.7,73.82Z"/>
      <path class="cls-8" d="M366.72,153.37c-.05,0-.09.06-.13,0l.08,0A.14.14,0,0,0,366.72,153.37Z"/>
      <path class="cls-8" d="M343.57,126.57l-.17-.39A1.45,1.45,0,0,0,343.57,126.57Z"/>
      <path class="cls-8" d="M334.65,92.88l0-.09A.08.08,0,0,0,334.65,92.88Z"/>
      <path class="cls-8" d="M342.84,125.05a.72.72,0,0,0,.07-.3.11.11,0,0,0-.08,0Z"/>
      <path class="cls-8" d="M336,73.74Z"/>
      <path class="cls-8" d="M335.9,70.87c-.1.4.31.26.5.39,0,.5-.31.16-.53.29,0,.31.32.61.26.82-.06,0-.09,0-.16,0,.22.37-.18.93.11,1.36l-.1,0a1.34,1.34,0,0,1,.51,0c0,.18.16.37-.09.39,0-.11-.06-.13-.13-.2l.07.21c-.38.1-.07-.28-.32-.32,0,.38.23.85.08,1.11-.35,0,0-.67-.35-.35l.21-.41c-.59.24.09-.25-.53,0-.21.55,0,.66-.16,1.22.17.15.28,0,.45.16.24.86-.92.51-.54,1.17.2.19.62.31.34.7l-.36-.2c-.1.55.51.39.18.94-.13-.12-.07-.45-.12-.37-.35.33.18.29.14.58l-.34,0c0,.6.15,1.27.13,1.93-.09,0-.19-.17-.31,0a4.14,4.14,0,0,1-.13,1.3c-.09.43-.2.86-.32,1.26l.28.32c0,.07-.13.12-.19,0-.12.31.19,0,.3.19a.14.14,0,0,1-.26.1,3,3,0,0,1,.14,2.16l-.08-.11c-.14.45.58.52.29.93l-.05-.08c-.17,1,.06,2.06-.32,2.81.43.13-.15,1,.44,1-.26.57-.38.41-.54,1.21,0,.21.38.3.46.55l-.31,0,.34.33-.36.21.09.24c0-.1.13-.22.22-.21a.91.91,0,0,1-.34,1l.31.88c-.13,0-.18-.16-.26-.27.33.46-.32.11,0,.53.07-.06.19,0,.25,0a1.49,1.49,0,0,0,0,1.1l-.22,0c0,.67.28,1.39.37,2.14a.26.26,0,0,1,.5-.05l-.32.13c.22.11.1-.24.38,0,0,.29-.35.24-.47.09l.15.33c-.09,0-.15,0-.28,0,.22.11-.25.63.12.78l-.09,0c.09.75.24,1.07.33,1.68.28,0,.25.21.5.35a5.88,5.88,0,0,0,0,1.51c.21.35.26.07.46.21-.25.07-.12.6-.36.36a6.93,6.93,0,0,0,.58,1.56c.09-.1.11-.21.21-.18a.27.27,0,0,1-.16.36l0,0c.57.81-.32,2.25.38,2.85l0,0,.48.67c0,.35-.24-.16-.33.13.64.69.3,1.27.76,1.85-.59.71.55,1.77.28,2.59l.16-.09c.22.13,0,.24,0,.39.13-.06.1-.24.23-.16a13.91,13.91,0,0,1,.69,2.27c.17.8.3,1.61.5,2.39.16.57,1,0,.83.82l-.38-.07a5.2,5.2,0,0,1,.79,1.6,6.08,6.08,0,0,0,.86,1.56c-.1,0-.19,0-.23-.1-.12.32.36.82.54.74.05.18-.14.11-.19.26s.53.43.37.64c0,0-.1,0-.14-.06.18.1.29.69.47.43.06.45.46.7.45,1.08.37.07.17.74.6.61-.42.17,0,.86.31,1-.17,0,0,.27-.23.26.15.27.37.48.55.33-.2.75.94.8.48,1.41a21.21,21.21,0,0,1,1.71,2c-.4.2-.48-.78-.87-.51.54.6,1.09.8,1.38,1.53,0,.21-.23,0-.33,0a13.35,13.35,0,0,0,1.37,1.77s-.12,0-.19-.06c.09.11.12.31.29.18l-.12-.08c.13-.34.82.12,1,.06-.63.12.25.65-.58.75a.29.29,0,0,0,.33,0c.05.13,0,.21-.2.18.36.36.45.09.69.46-.08.06-.17,0-.29,0a.88.88,0,0,1,.71.52c-.06,0-.1.1-.16,0,.38.53,1,.63,1.27,1.33-.47.07,0,.28-.27.53a2.72,2.72,0,0,0,.32.25l.05-.23c.2.27.6.34.68.64l-.28-.11.44.46-.1-.37c.36.15.36-.31.55.1-.09,0,.2.27.13.54h0c.19.06.4.11.48.36s-.36.21-.4.29c.35-.06.55.57.94.53a.4.4,0,0,0-.28.15l.28,0c0,.17,0,.22-.12.29.25.4.28-.41.46.15,0,0-.06,0-.14,0,.26.51.78.75,1,1.23-.2.35-.35-.3-.49,0a9.06,9.06,0,0,0,.88.74,3.16,3.16,0,0,1,.84.73l-.06-.12c.47-.28.17.56.6.66-.09,0-.3.11-.24.09a5.22,5.22,0,0,0,1.4,1.07l-.16,0a6.3,6.3,0,0,0,.62.87c.17,0,.27.12.34-.1.1,1.23,1.5,1.07,1.69,2.08-.07-.07-.26-.08-.2,0l.62.4c.12-.2,0-.16,0-.39a.62.62,0,0,1,.52.14c-.34-.11-.25.27-.24.46,0-.07.12-.1.16-.16,0,.56.37-.29.56.26l-.11.07c.19.08.43.08.56.25-.12.25-.24-.05-.4.1.23.19.77,0,.78.39-.14,0-.27-.15-.41-.18a.62.62,0,0,0,.2.57v0l.27.44,0-.14c.73-.28.63.4,1.29.39-.63,0-.22.13-.44.34,0,.15.12.35,0,.37.33,0,.16.41.64.36-.05.09.18.18,0,.33.27.15.06-.18.15-.25.55.07.61,1,1.43,1.05.57.2.86,0,1.39.2.05.24-.34.19-.34.19a.86.86,0,0,0,.62.48c-.09,0-.09.13-.09.27.19.11.33-.2.48.1a1.53,1.53,0,0,1-.41.17c.26.09.57.1.84.19-.05.18-.28.11-.43.14.29.13.72.36.95.19l-.09-.19c.09.06-.1.22-.19.21-.33,0-.24-.3-.2-.39l.19.07c.19-.58-.66-.39-.95-.65l.38-.24-.52,0c0-.14.09-.36.28-.29-.09-.33-.28,0-.33-.36,0,0,0-.05,0-.05l-.29-.06c.1,0,.15-.26.24-.12-.23-.48-.81-.22-.76-.58H366c-.62-.3-.24.2-.87.17l.21-.79-.24.2c-.05-.05-.15-.15-.05-.23-.34,0-.05.13-.29.19-.1-.4-.79-.49-.53-.91-.24.1.12.35-.25.24.27-.47-.36-.21-.42-.6.24-.14.36.16.29-.22-.43.22-.37-.47-.61-.58-.25.26-.51-.26-.91-.46.1-.07-.46-.69-.66-1.05l.05,0c-.31.22-.56-.11-.84-.25a.42.42,0,0,1,.45-.14l-.21-.19a.46.46,0,0,1-.4-.06l.24-.15c-.28-.25-.79-.27-1-.74-.2.16-.24.78-.71.53.08-.11.24-.29.37-.24-.05,0-.19,0-.21-.13l.3,0c-.07-.23-.21.05-.31-.09.14-.14,0-.2.14-.29s0,.17.14.17a.77.77,0,0,1-.13-.59c-.07.09-.19.18-.31.1-.26-.27.09-.26,0-.49-.16,0-.22-.25-.43,0-.08-.08,0-.19,0-.27-.23-.06-.64-.64-.72-.26l0,0,0,0h0c-.65-.26-.78-1.08-1.3-1.45l.08-.07c-.34-.2-.62-.57-1-.63a.25.25,0,0,1,.08-.35c-.25-.16-.37-.1-.5-.53.31.11.05-.17.28.14-.18-.33-.1-.51-.55-.65.27,0,.07-.42-.1-.51l0,.32a1.69,1.69,0,0,1-.33-.44l.32-.13c-.15-.85-1.38-.65-1.21-1.53-.31,0,.13.43-.2.45-.18-.3,0-.88-.09-1-.15-.49-.66-.06-.87-.53a.37.37,0,0,1-.59.13c-.19-.31.13-.64.34-.52s.06.11,0,.14c.11.06.24.15.26,0l-.13,0c0-.2-.31-.57-.09-.6-.25-.14-.22,0-.15.22-.13-.46-.44-.55-.59-1,0,.1-.09.24-.13.18-.26-.65-.35-.12-.65-.48,0-.32.41-.16,0-.46-.05-.31.23-.23.37-.19-.42-.22-.31-.74-.41-1l.21.13a.83.83,0,0,1-.24-.26l-.13.23c0-.13-.1-.22,0-.27-.21,0-.27.3-.6.2,0-.21-.4-.37-.17-.6.21.52.23-.22.53.14a.53.53,0,0,1-.18-.28s.07,0,.1,0c-.05-.59-.43,0-.72-.46.19,0,.22-.28.14-.34.11.19-.19.25-.42.16-.07-.37-.29-.26-.38-.42l.06.2c-.19,0-.27-.12-.45-.29.11-.09.2.13.21,0-.41-.06-.06-.68-.45-.88,0-.21.28-.19.26-.36-.42-.23,0-.51-.39-.8-.15.23-.08.23-.43.07l.49.55-.52-.23c.1.19.35.33.38.46-.28-.09-.21-.1-.33.09.16-.44-.47-.41-.43-.84l.51-.29c0-.59-.7-.65-.9-1.32v.24c-.25,0-.23-.35-.42-.49.19-.08.18-.24.24-.38-.12.08-.22-.44-.6-.3l.08-.39c-.16-.52-.79-.28-1-.77.27,0,.28-.24.58,0-.08-.15-.12-.31-.25-.25.06-.14-.47-.3-.38-.53-.11,0-.31,0-.39-.13a.12.12,0,0,1,.09,0c-.1,0-.26-.22-.38,0,.33-.76-.67-1.36-.39-2a8.7,8.7,0,0,1-.62-1c.06,0,.09,0,.1,0,0-.51-.64,0-.68-.62.17-.38.27.19.31,0,.57-.34-.35-.57-.16-1l.08.06c.08-.34-.51-.52-.66-1a.15.15,0,0,0,.09,0c-.45-.15-.75-.67-1-1.06.28,0,.19.14.4,0-.1-.17-.36.21-.57-.14.09-.17.1-.48.35-.62l.14.35c.27-.31-.18-.45-.19-.66l.16,0c-.25-.52-.62-.39-.8-1l-.09.1c-.48-.18.11-.34-.28-.56l.34-.23a6,6,0,0,1-.84-1,3.46,3.46,0,0,1,.92.72c-.07-.21-.28-.69-.51-.74.07.08.2.15.17.25a1.32,1.32,0,0,1-.79-.85c.75-.17-.22-1.13.28-1.62-.48-.66-.3-1.51-.58-2.35-.49.47-.09-.25-.66,0-.1-.19-.11-.27-.08-.3l.18-.71c.13-.19.19.16.31.1-.08-.45.2-.25.28-.58-.2.12-.35-.07-.34-.34l-.17.42c-.49-.53.34-.66-.14-1.2l.24.15c-.21-.28-.32-1.16-.85-1.38.06-.07.21-.18.28-.05-.08-.79-.86-1.61-.68-2.27l.15,0c-.07-.13-.32-.19-.21-.4.06,0,.16,0,.15,0s-.33-.33-.29-.54l.2.13c0-.79-.63-1.08-.86-1.7.44-.08.44-.69.47-1h.07a8.42,8.42,0,0,0-.82-2.25c.41-.58,0-1.76.15-2.61-.06.13-.34,0-.41-.13s-.37-.5,0-.51v.07c.38-.18.21-.57.21-.88h-.53c.73-.87-.37-2.12.29-2.6-.14-.19-.15-.44-.29-.63H337a5.32,5.32,0,0,0,0-1.48l.21.13c0-.38-.84-.46-.87-.82l.42-.11c-.06-.66.37-1.33,0-2,.06,0,.18,0,.2.14,0-.32.33-1.2-.26-1.1.38,0,.06-.68-.09-1l.28.07c-.35-.32-.45-.33-.53-.76,0-.1.23-.08.15,0,.16-.33-.25-.27-.09-.67l.17.16c0-.34-.06-.32-.26-.52a.57.57,0,0,1,.35-.69c-.15,0-.35-.26-.27-.46.09,0,.15.06.18.1.2-.56-.24-.88.07-1.25a.23.23,0,0,0,.17-.05,5.23,5.23,0,0,1-.13.78c.25,0,.34-.34.66,0-.16-.31-.52-.85-.35-1.19a.19.19,0,0,1,.09,0l0,0a.26.26,0,0,0,0-.23.69.69,0,0,0,.11-.29c.22,0,.17-.4.2-.58-.28,0-.21-.25-.47-.06,0,0,0,0,0,.17s0,.06,0,.08l0,0c0,.12,0,.28,0,.46-.12-.16-.22-.33,0-.51a3.27,3.27,0,0,1-.42-.31c.42-.21.68-.66.93-.7-.09-.57.05-1.32-.43-1.75,0-.17.18-.16.26-.21.05.1,0,.21.09.27-.09-.33.06-.94-.29-1.08.22-.37.3.28.32-.28l.1.09c.8-1-.57-1.9.42-3-.06.08-.09.11-.15.12a6.78,6.78,0,0,0,.46-2.06,3.75,3.75,0,0,1,.66-2c.22-.34,0-.44-.1-.72H339l-.22-.48c-.08-.62,1-.74.75-1.57l-.23,0c.12-.24.13-.83.34-.71,0,0-.18-.15-.05-.21l.15,0-.07-.7c.25-.44.58.27.81-.41,0-.27-.21-.88-.34-.82a.3.3,0,0,1-.33.19v-.26c-.43-.2-.82-.55-1.31-.06l.15.5-.26.06.09-.35c-.26.13-.12.32,0,.5a.32.32,0,0,0-.28.09l.3.54c-.19,0-.29-.29-.47,0,.14.25.44,0,.48.3-.26.13-.41,0-.31.31a.2.2,0,0,1-.2-.18c.07.25-.11.56.09.74-.31.13-.14.71-.56.57a1,1,0,0,1,.19.65c-.4-.49-.24.7-.76.46.38.38-.08,1,0,1.5,0,0-.09-.11-.05-.14-.11.25-.29.28-.41.43.38.13.38.56.57.83-.43.23-.41-.3-.78-.29.31.06.19.63.47.59-.28.19-.15.18-.5.23.47.16,0,.25.29.52-.31.3-.47,0-.4.41C336,71.25,335.9,70.87,335.9,70.87Zm-.65,9.45h0c0-.08,0-.15,0-.2Zm-.09.78a2.49,2.49,0,0,0,0-.34c.1,0,.19,0,.18.1S335.25,81,335.16,81.1Zm2.13-1.45c0,.13,0,.16-.09.17a1.79,1.79,0,0,0,0-.21l0,0Z"/>
      <path class="cls-8" d="M337,79.4s0,0,0-.06l-.07.07.08,0Z"/>
      <path class="cls-8" d="M358.16,144.18v0S358.15,144.19,358.16,144.18Z"/>
      <polygon class="cls-8" points="334.48 92.01 334.55 92 334.48 91.94 334.48 92.01"/>
      <path class="cls-8" d="M360.5,147.92a.13.13,0,0,0,0,.09A.22.22,0,0,0,360.5,147.92Z"/>
      <path class="cls-8" d="M361.84,149.22l.13.26A1,1,0,0,0,361.84,149.22Z"/>
      <path class="cls-8" d="M362.82,150.3l.1-.07h0Z"/>
      <path class="cls-8" d="M347.69,133.09s0,0,0,0S347.6,133,347.69,133.09Z"/>
      <path class="cls-8" d="M352.12,138.33a.87.87,0,0,1-.24-.1C351.93,138.34,352,138.42,352.12,138.33Z"/>
      <polygon class="cls-8" points="343.58 126.61 343.59 126.61 343.56 126.57 343.58 126.61"/>
      <path class="cls-8" d="M351.69,138a.36.36,0,0,0,.19.25A.76.76,0,0,0,351.69,138Z"/>
      <path class="cls-8" d="M367.64,154.3l.05,0s0,0,0,0Z"/>
      <path class="cls-8" d="M367.72,154.32l.08,0S367.75,154.3,367.72,154.32Z"/>
      <path class="cls-8" d="M368,154.38l-.17,0C367.85,154.37,367.9,154.42,368,154.38Z"/>
      <path class="cls-8" d="M366.19,153l-.08.07A.17.17,0,0,0,366.19,153Z"/>
      <path class="cls-8" d="M365.71,152.7c.1.11.15.39.34.45l.06-.05C366,153.16,365.92,152.65,365.71,152.7Z"/>
      <path class="cls-8" d="M364.6,150.26c.1.13.21.24.32.36,0-.13,0-.31.2-.2C364.85,149.8,365.05,150.69,364.6,150.26Z"/>
      <path class="cls-8" d="M363.61,149.14c.22.13.1-.12.15-.16C363.57,149,363.53,148.94,363.61,149.14Z"/>
      <path class="cls-8" d="M356.05,141.57l.21-.15C356.1,141.3,356.19,141.48,356.05,141.57Z"/>
      <polygon class="cls-8" points="353.74 140.81 353.74 141.07 353.97 141 353.74 140.81"/>
      <polygon class="cls-8" points="354.41 138.72 354.49 138.76 354.22 138.56 354.41 138.72"/>
      <path class="cls-8" d="M344.89,123.62l-.26.19C344.74,123.91,345.07,123.78,344.89,123.62Z"/>
      <path class="cls-8" d="M341.59,116.61c.12-.13.14-.37,0-.44C341.58,116.34,341.52,116.54,341.59,116.61Z"/>
      <polygon class="cls-8" points="337.09 93.92 337.2 94.07 337.1 93.79 337.09 93.92"/>
    </g>
    <g>
      <path class="cls-8" d="M390.19,147.72c.1,0,.21-.18.08-.27l-.3.16Z"/>
      <path class="cls-8" d="M389.94,146.54a.69.69,0,0,0-.71.32c.34-.09.28,0,.68-.09a.21.21,0,0,1,0,.34c.1,0,.11.22.31.14a.44.44,0,0,0-.43-.56C389.79,146.6,389.89,146.58,389.94,146.54Z"/>
      <path class="cls-8" d="M381.31,134.79l0,.1A.3.3,0,0,0,381.31,134.79Z"/>
      <path class="cls-8" d="M377,126.87c0,.06.09.07.11.06S377,126.85,377,126.87Z"/>
      <path class="cls-8" d="M376.66,125.34l0,.1S376.7,125.35,376.66,125.34Z"/>
      <path class="cls-8" d="M381.31,134.79l0-.26C381.17,134.57,381.27,134.67,381.31,134.79Z"/>
      <path class="cls-8" d="M388,145.59a.29.29,0,0,0,.16,0,.41.41,0,0,1-.11-.07Z"/>
      <path class="cls-8" d="M383.75,137.92l0,.06.15,0Z"/>
      <path class="cls-8" d="M385.63,140.31c0-.06-.27.09-.38.15.12-.05.19,0,.24,0A.69.69,0,0,0,385.63,140.31Z"/>
      <path class="cls-8" d="M388.37,144.31l.09,0Z"/>
      <path class="cls-8" d="M382.54,136.11a.18.18,0,0,0,.07-.08A.27.27,0,0,0,382.54,136.11Z"/>
      <path class="cls-8" d="M375,54.18l.05,0S375,54.16,375,54.18Z"/>
      <polygon class="cls-8" points="377.88 51.65 377.87 51.7 378 51.78 377.88 51.65"/>
      <path class="cls-8" d="M375.9,122.63h0C376,122.7,375.93,122.66,375.9,122.63Z"/>
      <path class="cls-8" d="M369.48,97.93c-.22.31-.37-.45-.6,0C369,97.9,369.35,98.3,369.48,97.93Z"/>
      <path class="cls-8" d="M388,145.51a.39.39,0,0,1-.08-.1A.49.49,0,0,0,388,145.51Z"/>
      <path class="cls-8" d="M368.88,98h0l0,0Z"/>
      <path class="cls-8" d="M373.46,116.68a.28.28,0,0,0-.09.1A.3.3,0,0,0,373.46,116.68Z"/>
      <path class="cls-8" d="M374.73,121.33l0-.12A.37.37,0,0,0,374.73,121.33Z"/>
      <path class="cls-8" d="M372.29,114.43c0-.06,0-.1,0-.17a.05.05,0,0,0,0,0A.1.1,0,0,1,372.29,114.43Z"/>
      <path class="cls-8" d="M371.61,111.92l-.05.06,0,.08Z"/>
      <path class="cls-8" d="M371.85,61.66a.9.9,0,0,1,.28,0C371.93,61.61,372,61.22,371.85,61.66Z"/>
      <path class="cls-8" d="M388.11,145.48c-.07,0-.11.05-.15,0l.08.05A.18.18,0,0,0,388.11,145.48Z"/>
      <path class="cls-8" d="M370.13,115l-.1-.41A1.74,1.74,0,0,0,370.13,115Z"/>
      <path class="cls-8" d="M367.4,80.23l0-.1A.09.09,0,0,0,367.4,80.23Z"/>
      <path class="cls-8" d="M369.68,113.35a.57.57,0,0,0,.13-.29l-.08,0Z"/>
      <path class="cls-8" d="M372.14,61.64h0Z"/>
      <path class="cls-8" d="M372.57,58.8c-.16.37.26.31.42.47-.08.49-.33.11-.57.19,0,.31.2.66.11.86-.07,0-.1,0-.15,0,.15.4-.35.88-.14,1.36h-.1a1.53,1.53,0,0,1,.49.12c-.06.17.09.4-.16.37,0-.1,0-.14-.09-.21l0,.21c-.39,0,0-.28-.26-.37,0,.38.08.87-.12,1.1-.34-.06.14-.65-.28-.4l.28-.36c-.63.12.14-.24-.52-.15-.3.51-.09.65-.37,1.17.14.18.28.05.42.23.08.89-1,.34-.75,1.06.17.23.56.42.22.75l-.32-.25c-.21.52.43.47,0,1-.11-.15,0-.46-.06-.39-.4.27.13.32,0,.6l-.34,0c-.13.59-.08,1.29-.22,1.93-.08-.06-.15-.2-.3-.08a4.13,4.13,0,0,1-.36,1.25c-.17.41-.35.81-.54,1.18l.22.37a.11.11,0,0,1-.2,0c-.17.28.18.06.26.23A.14.14,0,0,1,369,71a2.9,2.9,0,0,1-.25,2.15l-.06-.13c-.22.42.48.62.12,1l0-.09c-.34.94-.32,2-.82,2.71.39.21-.32.93.25,1.08-.36.51-.45.34-.75,1.09-.05.21.32.37.35.63l-.31,0,.28.39-.4.14.05.25c0-.09.16-.19.25-.16a.91.91,0,0,1-.5.89l.14.92c-.12,0-.14-.19-.2-.31.24.51-.34,0-.11.52.08,0,.18.05.24.06a1.51,1.51,0,0,0-.18,1.08l-.2-.08c-.1.66,0,1.42,0,2.17a.26.26,0,0,1,.5,0l-.33.07c.19.15.13-.22.36.08-.05.28-.38.17-.47,0l.09.35c-.1,0-.15-.07-.27-.1.2.15-.36.58,0,.8h-.1c0,.76.05,1.1,0,1.71.28,0,.2.26.42.45a6,6,0,0,0-.26,1.48c.15.38.24.11.41.28-.25,0-.22.57-.41.29a6.74,6.74,0,0,0,.3,1.65c.1-.09.14-.19.23-.14s-.1.34-.22.32l0,0c.41.91-.72,2.17-.14,2.87l0,0,.35.74c0,.35-.22-.2-.35.07.51.79.06,1.3.41,1.95-.7.59.23,1.84-.18,2.6l.17-.06c.19.16-.08.23-.1.37.13,0,.14-.21.24-.11a13,13,0,0,1,.28,2.36c0,.81,0,1.64.06,2.44.06.59,1,.16.67,1l-.36-.14a5.21,5.21,0,0,1,.49,1.72,6.17,6.17,0,0,0,.57,1.68c-.09,0-.19,0-.21-.14-.18.29.2.87.4.83,0,.18-.17.08-.24.21s.45.52.25.71c0,0-.09,0-.12-.09.15.13.15.73.38.51,0,.45.32.77.25,1.14.35.14,0,.76.48.71-.44.09-.18.84.13,1-.16,0-.06.26-.28.21.11.3.28.54.48.43-.33.7.79,1,.23,1.47a21.52,21.52,0,0,1,1.32,2.3c-.44.13-.34-.85-.77-.66.43.69.93,1,1.08,1.76,0,.21-.22,0-.31-.08a13.72,13.72,0,0,0,1,2s-.11,0-.17-.09c.07.12.07.32.25.22l-.11-.1c.19-.31.79.27.95.23-.64,0,.13.69-.7.63a.28.28,0,0,0,.33.07c0,.14-.05.21-.24.14.29.41.43.17.6.58-.1,0-.17,0-.29,0a.88.88,0,0,1,.6.65c-.06,0-.12.07-.16,0,.28.58.9.8,1,1.53-.47,0,0,.28-.35.47a2.55,2.55,0,0,0,.26.3l.09-.21c.15.3.54.44.56.75l-.25-.15.35.52,0-.38c.33.22.41-.24.52.2-.07-.06.15.3,0,.55h0c.18.09.37.18.4.44s-.39.15-.44.22c.35,0,.44.65.83.68a.41.41,0,0,0-.3.1h.29c0,.17,0,.21-.18.26.18.43.35-.35.43.23,0,0-.06,0-.14,0,.16.54.64.87.77,1.38-.26.32-.29-.35-.49,0a7.5,7.5,0,0,0,.74.88,3.31,3.31,0,0,1,.69.87l0-.13c.51-.19.06.58.47.75-.08,0-.31.06-.25.05.19.46.65.77,1.18,1.3h-.16a6.13,6.13,0,0,0,.46,1c.16,0,.24.17.35,0-.12,1.23,1.28,1.32,1.29,2.34-.06-.08-.24-.12-.19-.06l.54.51c.15-.18.05-.16.11-.39a.68.68,0,0,1,.48.24c-.32-.17-.3.22-.32.4.05-.06.14-.06.19-.12-.1.55.41-.22.5.35l-.11.05c.16.12.4.16.5.35-.17.23-.23-.09-.41,0,.19.22.75.15.7.52-.14-.05-.24-.19-.38-.25a.64.64,0,0,0,.1.6v0l.19.48v-.15c.77-.14.55.51,1.21.62-.63-.11-.25.09-.5.25,0,.15.05.37-.05.38.33,0,.09.43.57.46-.07.08.14.21-.08.32.24.2.09-.16.2-.22.52.17.42,1.08,1.21,1.29.53.31.85.17,1.33.45,0,.24-.37.13-.37.13a.86.86,0,0,0,.53.58c-.1,0-.12.11-.14.25.17.14.36-.14.45.18a1.7,1.7,0,0,1-.43.1c.24.13.54.2.79.34-.08.17-.3.05-.44.06.26.17.64.47.9.36l-.06-.21c.08.07-.13.2-.22.17-.33,0-.19-.34-.13-.42l.18.1c.28-.54-.59-.5-.82-.81l.41-.16-.52-.06c0-.14.16-.34.33-.24,0-.34-.27-.08-.26-.41,0,0,0,0,.06,0l-.27-.11c.1,0,.18-.23.25-.07-.14-.51-.76-.36-.64-.71l.05,0c-.56-.4-.28.15-.89,0l.35-.74-.28.15c0-.05-.11-.17,0-.23-.33,0-.07.12-.32.14,0-.42-.69-.62-.36-1-.25.05.06.36-.28.18.34-.41-.32-.27-.32-.66.27-.09.33.22.33-.17-.46.14-.28-.53-.5-.67-.29.21-.45-.35-.81-.62.12-.05-.33-.76-.46-1.15l0,0c-.34.16-.53-.21-.77-.4a.42.42,0,0,1,.46-.06l-.17-.22a.45.45,0,0,1-.38-.14l.26-.1c-.23-.29-.73-.4-.84-.9-.23.12-.38.73-.8.39.11-.09.29-.24.41-.16,0,0-.18-.07-.18-.18l.3,0c0-.24-.22,0-.3-.14.17-.11.05-.19.19-.26s0,.18.12.19a.81.81,0,0,1,0-.61c-.08.08-.22.15-.32,0-.21-.31.13-.24.1-.48-.16,0-.17-.28-.42-.13-.06-.09.05-.18.09-.26-.21-.09-.51-.74-.66-.39V135l0,0h0c-.59-.38-.56-1.2-1-1.67l.09-.05c-.3-.25-.51-.67-.84-.78a.26.26,0,0,1,.15-.34c-.22-.2-.35-.16-.4-.61.28.17.08-.16.25.19-.11-.36,0-.52-.43-.74.29,0,.15-.4,0-.52l0,.32a1.52,1.52,0,0,1-.25-.49l.33-.08c0-.86-1.24-.88-.91-1.71-.3-.07.05.44-.28.41-.12-.34.13-.88.08-1-.05-.51-.64-.18-.76-.68a.37.37,0,0,1-.61,0c-.12-.33.25-.6.44-.44s0,.12,0,.13.21.19.26,0h-.13c0-.2-.2-.62,0-.61-.22-.18-.22,0-.19.19-.05-.48-.33-.62-.4-1.09,0,.09-.13.21-.16.14-.13-.68-.32-.17-.55-.58.06-.31.43-.09.11-.45,0-.31.27-.19.4-.12-.37-.3-.17-.79-.23-1l.18.16a.66.66,0,0,1-.19-.3l-.17.21c0-.13-.05-.23,0-.27-.2-.06-.32.25-.62.09,0-.2-.33-.43-.06-.61.11.54.27-.18.49.22a.42.42,0,0,1-.12-.3s.07,0,.1,0c.05-.59-.42-.08-.63-.58.19,0,.26-.25.19-.31.09.2-.23.21-.43.07,0-.37-.25-.3-.3-.48l0,.22c-.19,0-.24-.17-.39-.37.12-.07.18.17.2.06-.4-.13.06-.67-.28-.94,0-.2.3-.14.32-.3-.37-.31.08-.52-.25-.86-.18.2-.12.2-.43,0l.38.62-.47-.31c.07.2.29.38.29.52-.25-.14-.19-.14-.34,0,.24-.41-.39-.49-.27-.91l.56-.19c.08-.58-.58-.77-.66-1.46l0,.24c-.26,0-.17-.39-.33-.57.19,0,.22-.19.31-.32-.14.06-.15-.47-.54-.41L373,116c-.07-.55-.74-.42-.84-.94.25.08.31-.18.57.1,0-.16-.07-.32-.2-.28.08-.14-.41-.39-.28-.59-.11,0-.32,0-.36-.2a.1.1,0,0,1,.09,0c-.1,0-.21-.26-.38,0,.46-.7-.41-1.46,0-2.06a11.14,11.14,0,0,1-.43-1.12c.07,0,.1,0,.09,0,.07-.51-.62-.15-.55-.73.24-.35.24.24.31,0,.61-.22-.25-.62,0-1.06l.06.08c.15-.32-.41-.61-.47-1.06a.12.12,0,0,0,.09,0,2.29,2.29,0,0,1-.78-1.22c.27.09.16.17.4,0-.07-.19-.39.14-.53-.24.11-.15.18-.46.45-.54l.07.36c.32-.26-.09-.47-.06-.68h.15c-.14-.55-.53-.49-.61-1.1l-.1.08c-.44-.26.17-.31-.18-.59l.37-.17a7,7,0,0,1-.65-1.08c.33.17.56.61.78.86,0-.21-.16-.73-.37-.81.05.08.17.18.12.27a1.32,1.32,0,0,1-.63-1c.77,0,0-1.16.58-1.55-.36-.73,0-1.53-.16-2.42-.56.38,0-.26-.64-.14-.06-.21-.06-.29,0-.31l.3-.67c.16-.16.15.19.29.16,0-.46.24-.21.37-.53-.21.08-.33-.13-.27-.39l-.24.38c-.39-.61.45-.58.07-1.2l.21.19c-.15-.32-.11-1.21-.58-1.51.07-.06.23-.14.28,0,.06-.79-.56-1.74-.27-2.36l.16.06c-.05-.15-.29-.25-.14-.44.06,0,.15,0,.15,0s-.27-.39-.18-.59l.17.17c.18-.77-.43-1.18-.55-1.83.45,0,.56-.6.65-.9h.06a7.9,7.9,0,0,0-.4-2.36c.51-.49.3-1.73.62-2.54-.09.12-.34,0-.38-.2s-.27-.56.13-.49V83c.41-.11.3-.51.36-.82l-.52-.1c.88-.73,0-2.16.76-2.52-.11-.21-.07-.45-.18-.66l.28,0a4.86,4.86,0,0,0,.24-1.47l.18.17c.07-.37-.74-.61-.71-1l.43,0c.06-.67.61-1.25.36-2,.06,0,.18.07.17.18.08-.31.54-1.12-.05-1.13.37.07.18-.66.1-1l.26.12c-.29-.37-.38-.41-.38-.84.05-.09.23,0,.13.08.22-.3-.2-.32,0-.68l.15.19c.09-.33,0-.33-.17-.56s.21-.63.46-.61c-.13-.09-.29-.32-.18-.5.1,0,.14.08.16.12.3-.51-.07-.9.3-1.21a.31.31,0,0,0,.18,0,4.64,4.64,0,0,1-.28.74c.25.07.4-.27.66.1-.1-.33-.36-.93-.14-1.24l.1,0,0,0a.27.27,0,0,0,0-.23,1.22,1.22,0,0,0,.16-.26c.22,0,.23-.37.3-.55-.28-.06-.16-.28-.45-.13,0,0,0,0,0,.16a.27.27,0,0,0,0,.09l0,0c0,.11-.07.27-.12.44-.09-.18-.16-.36.05-.51a3.79,3.79,0,0,1-.36-.38c.45-.13.8-.53,1.05-.52,0-.58.29-1.29-.11-1.8,0-.17.2-.12.29-.15s0,.2,0,.28c0-.35.23-.92-.09-1.12.28-.33.24.33.37-.22l.08.11c1-.8-.22-2,.94-2.82-.07.06-.11.09-.17.08a7,7,0,0,0,.82-1.94,3.64,3.64,0,0,1,1-1.84c.27-.3.08-.44,0-.73l.31.06-.13-.51c0-.63,1.12-.55,1-1.41h-.23c.16-.22.27-.8.46-.65,0,0-.15-.17,0-.21l.15.06.05-.7c.33-.38.51.37.87-.25.07-.27-.05-.91-.19-.87a.3.3,0,0,1-.36.13l.05-.26c-.39-.27-.71-.68-1.28-.29l.05.52h-.26l.16-.33c-.28.08-.18.29-.13.48a.42.42,0,0,0-.3,0l.2.59c-.19,0-.24-.34-.45-.13.09.27.44,0,.41.38-.28.08-.4,0-.35.25a.21.21,0,0,1-.17-.22c0,.26-.21.53,0,.75-.33.07-.27.67-.65.45a1.17,1.17,0,0,1,.06.68c-.31-.56-.36.64-.83.31.31.45-.25,1-.23,1.49,0,0-.06-.12,0-.15-.16.23-.33.23-.48.35.35.2.27.62.41.92-.47.15-.35-.37-.71-.42.29.11.07.65.36.66-.31.13-.19.15-.54.14.44.24,0,.25.19.56-.36.24-.46-.09-.47.33C372.59,59.19,372.57,58.8,372.57,58.8ZM370.23,68h0c0-.07,0-.14,0-.19Zm-.22.75.11-.32c.1,0,.19,0,.16.13S370.12,68.64,370,68.73Zm2.36-1c0,.12-.07.15-.13.15a1.17,1.17,0,0,0,0-.22l0,0A.43.43,0,0,1,372.37,67.69Z"/>
      <path class="cls-8" d="M372.08,67.37s0,0,0-.05l-.08.05.07.07Z"/>
      <path class="cls-8" d="M381.33,134.9h0s0,0,0,.05Z"/>
      <polygon class="cls-8" points="367.38 79.34 367.45 79.35 367.4 79.27 367.38 79.34"/>
      <path class="cls-8" d="M383,139a.24.24,0,0,0,0,.09A.17.17,0,0,0,383,139Z"/>
      <path class="cls-8" d="M384.05,140.53l.08.27A1,1,0,0,0,384.05,140.53Z"/>
      <path class="cls-8" d="M384.82,141.76a.28.28,0,0,0,.11,0h0Z"/>
      <path class="cls-8" d="M373,122.13l0,0C372.88,122,372.94,122.05,373,122.13Z"/>
      <path class="cls-8" d="M376.44,128.07a1.09,1.09,0,0,1-.23-.14C376.25,128.05,376.29,128.14,376.44,128.07Z"/>
      <polygon class="cls-8" points="370.14 115.02 370.14 115.02 370.13 114.97 370.14 115.02"/>
      <path class="cls-8" d="M376.07,127.65a.4.4,0,0,0,.14.28A.47.47,0,0,0,376.07,127.65Z"/>
      <path class="cls-8" d="M388.84,146.56l0,.06,0,0Z"/>
      <path class="cls-8" d="M388.92,146.59l.08,0S389,146.58,388.92,146.59Z"/>
      <path class="cls-8" d="M389.16,146.7l-.16-.07S389.07,146.73,389.16,146.7Z"/>
      <path class="cls-8" d="M387.65,145.06l-.09.05A.21.21,0,0,0,387.65,145.06Z"/>
      <path class="cls-8" d="M387.23,144.65c.08.12.08.4.25.5l.08,0C387.38,145.14,387.45,144.63,387.23,144.65Z"/>
      <path class="cls-8" d="M386.58,142a3.58,3.58,0,0,0,.25.42c0-.13.06-.31.23-.17C386.91,141.64,387,142.55,386.58,142Z"/>
      <path class="cls-8" d="M385.8,140.76c.2.18.12-.1.18-.12C385.8,140.57,385.76,140.55,385.8,140.76Z"/>
      <path class="cls-8" d="M379.72,132l.24-.11C379.82,131.71,379.87,131.9,379.72,132Z"/>
      <polygon class="cls-8" points="377.58 130.81 377.54 131.06 377.78 131.03 377.58 130.81"/>
      <polygon class="cls-8" points="378.62 128.86 378.69 128.92 378.46 128.67 378.62 128.86"/>
      <path class="cls-8" d="M372,112.3l-.29.14C371.76,112.56,372.11,112.49,372,112.3Z"/>
      <path class="cls-8" d="M370,104.82c.14-.11.2-.35,0-.45C370,104.54,369.91,104.74,370,104.82Z"/>
      <polygon class="cls-8" points="369.61 81.69 369.69 81.86 369.64 81.56 369.61 81.69"/>
    </g>
    <g>
      <path class="cls-8" d="M423.19,148.72c.1,0,.21-.18.08-.27l-.3.16Z"/>
      <path class="cls-8" d="M422.94,147.54a.69.69,0,0,0-.71.32c.34-.09.28,0,.68-.09a.21.21,0,0,1,0,.34c.1,0,.11.22.31.14a.44.44,0,0,0-.43-.56C422.79,147.6,422.89,147.58,422.94,147.54Z"/>
      <path class="cls-8" d="M414.31,135.79l0,.1A.3.3,0,0,0,414.31,135.79Z"/>
      <path class="cls-8" d="M410,127.87c0,.06.09.07.11.06S410,127.85,410,127.87Z"/>
      <path class="cls-8" d="M409.66,126.34l0,.1S409.7,126.35,409.66,126.34Z"/>
      <path class="cls-8" d="M414.31,135.79l0-.26C414.17,135.57,414.27,135.67,414.31,135.79Z"/>
      <path class="cls-8" d="M421,146.59a.29.29,0,0,0,.16,0,.41.41,0,0,1-.11-.07Z"/>
      <path class="cls-8" d="M416.75,138.92l0,.06.15,0Z"/>
      <path class="cls-8" d="M418.63,141.31c0-.06-.27.09-.38.15.12-.05.19,0,.24,0A.69.69,0,0,0,418.63,141.31Z"/>
      <path class="cls-8" d="M421.37,145.31l.09,0Z"/>
      <path class="cls-8" d="M415.54,137.11a.18.18,0,0,0,.07-.08A.27.27,0,0,0,415.54,137.11Z"/>
      <path class="cls-8" d="M408,55.18l.05,0S408,55.16,408,55.18Z"/>
      <polygon class="cls-8" points="410.88 52.65 410.87 52.7 411 52.78 410.88 52.65"/>
      <path class="cls-8" d="M408.9,123.63h0C409,123.7,408.93,123.66,408.9,123.63Z"/>
      <path class="cls-8" d="M402.48,98.93c-.22.31-.37-.45-.6,0C402,98.9,402.35,99.3,402.48,98.93Z"/>
      <path class="cls-8" d="M421,146.51a.39.39,0,0,1-.08-.1A.49.49,0,0,0,421,146.51Z"/>
      <path class="cls-8" d="M401.88,99h0l0,0Z"/>
      <path class="cls-8" d="M406.46,117.68a.28.28,0,0,0-.09.1A.3.3,0,0,0,406.46,117.68Z"/>
      <path class="cls-8" d="M407.73,122.33l0-.12A.37.37,0,0,0,407.73,122.33Z"/>
      <path class="cls-8" d="M405.29,115.43c0-.06,0-.1,0-.17a.05.05,0,0,0,0,0A.1.1,0,0,1,405.29,115.43Z"/>
      <path class="cls-8" d="M404.61,112.92l-.05.06,0,.08Z"/>
      <path class="cls-8" d="M404.85,62.66a.9.9,0,0,1,.28,0C404.93,62.61,405,62.22,404.85,62.66Z"/>
      <path class="cls-8" d="M421.11,146.48c-.07,0-.11.05-.15,0l.08.05A.18.18,0,0,0,421.11,146.48Z"/>
      <path class="cls-8" d="M403.13,116l-.1-.41A1.74,1.74,0,0,0,403.13,116Z"/>
      <path class="cls-8" d="M400.4,81.23l0-.1A.09.09,0,0,0,400.4,81.23Z"/>
      <path class="cls-8" d="M402.68,114.35a.57.57,0,0,0,.13-.29l-.08,0Z"/>
      <path class="cls-8" d="M405.14,62.64h0Z"/>
      <path class="cls-8" d="M405.57,59.8c-.16.37.26.31.42.47-.08.49-.33.11-.57.19,0,.31.2.66.11.86-.07,0-.1,0-.15,0,.15.4-.35.88-.14,1.36h-.1a1.53,1.53,0,0,1,.49.12c-.06.17.09.4-.16.37,0-.1,0-.14-.09-.21l0,.21c-.39,0,0-.28-.26-.37,0,.38.08.87-.12,1.1-.34-.06.14-.65-.28-.4l.28-.36c-.63.12.14-.24-.52-.15-.3.51-.09.65-.37,1.17.14.18.28,0,.42.23.08.89-1,.34-.75,1.06.17.23.56.42.22.75l-.32-.25c-.21.52.43.47,0,1-.11-.15,0-.46-.06-.39-.4.27.13.32,0,.6l-.34,0c-.13.59-.08,1.29-.22,1.93-.08-.06-.15-.2-.3-.08a4.13,4.13,0,0,1-.36,1.25c-.17.41-.35.81-.54,1.18l.22.37a.11.11,0,0,1-.2,0c-.17.28.18.06.26.23A.14.14,0,0,1,402,72a2.9,2.9,0,0,1-.25,2.15l-.06-.13c-.22.42.48.62.12,1l0-.09c-.34.94-.32,2-.82,2.71.39.21-.32.93.25,1.08-.36.51-.45.34-.75,1.09-.05.21.32.37.35.63l-.31,0,.28.39-.4.14.05.25c0-.09.16-.19.25-.16a.91.91,0,0,1-.5.89l.14.92c-.12,0-.14-.19-.2-.31.24.51-.34,0-.11.52.08,0,.18.05.24.06a1.51,1.51,0,0,0-.18,1.08l-.2-.08c-.1.66,0,1.42,0,2.17a.26.26,0,0,1,.5,0l-.33.07c.19.15.13-.22.36.08-.05.28-.38.17-.47,0l.09.35c-.1,0-.15-.07-.27-.1.2.15-.36.58,0,.8h-.1c0,.76.05,1.1,0,1.71.28,0,.2.26.42.45a6,6,0,0,0-.26,1.48c.15.38.24.11.41.28-.25,0-.22.57-.41.29a6.74,6.74,0,0,0,.3,1.65c.1-.09.14-.19.23-.14s-.1.34-.22.32l0,0c.41.91-.72,2.17-.14,2.87l0,0,.35.74c0,.35-.22-.2-.35.07.51.79.06,1.3.41,1.95-.7.59.23,1.84-.18,2.6l.17-.06c.19.16-.08.23-.1.37.13,0,.14-.21.24-.11a13,13,0,0,1,.28,2.36c0,.81,0,1.64.06,2.44.06.59,1,.16.67,1l-.36-.14a5.21,5.21,0,0,1,.49,1.72,6.17,6.17,0,0,0,.57,1.68c-.09,0-.19,0-.21-.14-.18.29.2.87.4.83,0,.18-.17.08-.24.21s.45.52.25.71c0,0-.09,0-.12-.09.15.13.15.73.38.51,0,.45.32.77.25,1.14.35.14,0,.76.48.71-.44.09-.18.84.13,1-.16,0-.06.26-.28.21.11.3.28.54.48.43-.33.7.79,1,.23,1.47a21.52,21.52,0,0,1,1.32,2.3c-.44.13-.34-.85-.77-.66.43.69.93,1,1.08,1.76,0,.21-.22,0-.31-.08a13.72,13.72,0,0,0,1,2s-.11,0-.17-.09c.07.12.07.32.25.22l-.11-.1c.19-.31.79.27.95.23-.64,0,.13.69-.7.63a.28.28,0,0,0,.33.07c0,.14-.05.21-.24.14.29.41.43.17.6.58-.1,0-.17,0-.29,0a.88.88,0,0,1,.6.65c-.06,0-.12.07-.16,0,.28.58.9.8,1,1.53-.47,0,0,.28-.35.47a2.55,2.55,0,0,0,.26.3l.09-.21c.15.3.54.44.56.75l-.25-.15.35.52,0-.38c.33.22.41-.24.52.2-.07-.06.15.3,0,.55h0c.18.09.37.18.4.44s-.39.15-.44.22c.35,0,.44.65.83.68a.41.41,0,0,0-.3.1h.29c0,.17,0,.21-.18.26.18.43.35-.35.43.23,0,0-.06,0-.14,0,.16.54.64.87.77,1.38-.26.32-.29-.35-.49,0a7.5,7.5,0,0,0,.74.88,3.31,3.31,0,0,1,.69.87l0-.13c.51-.19.06.58.47.75-.08,0-.31.06-.25.05.19.46.65.77,1.18,1.3h-.16a6.13,6.13,0,0,0,.46,1c.16,0,.24.17.35,0-.12,1.23,1.28,1.32,1.29,2.34-.06-.08-.24-.12-.19-.06l.54.51c.15-.18.05-.16.11-.39a.68.68,0,0,1,.48.24c-.32-.17-.3.22-.32.4.05-.06.14-.06.19-.12-.1.55.41-.22.5.35l-.11.05c.16.12.4.16.5.35-.17.23-.23-.09-.41,0,.19.22.75.15.7.52-.14-.05-.24-.19-.38-.25a.64.64,0,0,0,.1.6v0l.19.48v-.15c.77-.14.55.51,1.21.62-.63-.11-.25.09-.5.25,0,.15.05.37-.05.38.33,0,.09.43.57.46-.07.08.14.21-.08.32.24.2.09-.16.2-.22.52.17.42,1.08,1.21,1.29.53.31.85.17,1.33.45,0,.24-.37.13-.37.13a.86.86,0,0,0,.53.58c-.1,0-.12.11-.14.25.17.14.36-.14.45.18a1.7,1.7,0,0,1-.43.1c.24.13.54.2.79.34-.08.17-.3.05-.44.06.26.17.64.47.9.36l-.06-.21c.08.07-.13.2-.22.17-.33,0-.19-.34-.13-.42l.18.1c.28-.54-.59-.5-.82-.81l.41-.16-.52-.06c0-.14.16-.34.33-.24,0-.34-.27-.08-.26-.41,0,0,0,0,.06,0l-.27-.11c.1,0,.18-.23.25-.07-.14-.51-.76-.36-.64-.71l.05,0c-.56-.4-.28.15-.89,0l.35-.74-.28.15c0-.05-.11-.17,0-.23-.33,0-.07.12-.32.14,0-.42-.69-.62-.36-1-.25.05.06.36-.28.18.34-.41-.32-.27-.32-.66.27-.09.33.22.33-.17-.46.14-.28-.53-.5-.67-.29.21-.45-.35-.81-.62.12-.05-.33-.76-.46-1.15l0,0c-.34.16-.53-.21-.77-.4a.42.42,0,0,1,.46-.06l-.17-.22a.45.45,0,0,1-.38-.14l.26-.1c-.23-.29-.73-.4-.84-.9-.23.12-.38.73-.8.39.11-.09.29-.24.41-.16,0,0-.18-.07-.18-.18l.3,0c0-.24-.22,0-.3-.14.17-.11.05-.19.19-.26s0,.18.12.19a.81.81,0,0,1,0-.61c-.08.08-.22.15-.32,0-.21-.31.13-.24.1-.48-.16,0-.17-.28-.42-.13-.06-.09.05-.18.09-.26-.21-.09-.51-.74-.66-.39V136l0,0h0c-.59-.38-.56-1.2-1-1.67l.09-.05c-.3-.25-.51-.67-.84-.78a.26.26,0,0,1,.15-.34c-.22-.2-.35-.16-.4-.61.28.17.08-.16.25.19-.11-.36,0-.52-.43-.74.29,0,.15-.4,0-.52l0,.32a1.52,1.52,0,0,1-.25-.49l.33-.08c0-.86-1.24-.88-.91-1.71-.3-.07.05.44-.28.41-.12-.34.13-.88.08-1-.05-.51-.64-.18-.76-.68a.37.37,0,0,1-.61,0c-.12-.33.25-.6.44-.44s0,.12,0,.13.21.19.26,0h-.13c0-.2-.2-.62,0-.61-.22-.18-.22,0-.19.19-.05-.48-.33-.62-.4-1.09,0,.09-.13.21-.16.14-.13-.68-.32-.17-.55-.58.06-.31.43-.09.11-.45,0-.31.27-.19.4-.12-.37-.3-.17-.79-.23-1l.18.16a.66.66,0,0,1-.19-.3l-.17.21c0-.13-.05-.23,0-.27-.2-.06-.32.25-.62.09,0-.2-.33-.43-.06-.61.11.54.27-.18.49.22a.42.42,0,0,1-.12-.3s.07,0,.1,0c.05-.59-.42-.08-.63-.58.19,0,.26-.25.19-.31.09.2-.23.21-.43.07,0-.37-.25-.3-.3-.48l0,.22c-.19,0-.24-.17-.39-.37.12-.07.18.17.2.06-.4-.13.06-.67-.28-.94,0-.2.3-.14.32-.3-.37-.31.08-.52-.25-.86-.18.2-.12.2-.43,0l.38.62-.47-.31c.07.2.29.38.29.52-.25-.14-.19-.14-.34,0,.24-.41-.39-.49-.27-.91l.56-.19c.08-.58-.58-.77-.66-1.46l0,.24c-.26,0-.17-.39-.33-.57.19,0,.22-.19.31-.32-.14.06-.15-.47-.54-.41L406,117c-.07-.55-.74-.42-.84-.94.25.08.31-.18.57.1,0-.16-.07-.32-.2-.28.08-.14-.41-.39-.28-.59-.11,0-.32,0-.36-.2a.1.1,0,0,1,.09,0c-.1,0-.21-.26-.38,0,.46-.7-.41-1.46,0-2.06a11.14,11.14,0,0,1-.43-1.12c.07,0,.1,0,.09,0,.07-.51-.62-.15-.55-.73.24-.35.24.24.31,0,.61-.22-.25-.62,0-1.06l.06.08c.15-.32-.41-.61-.47-1.06a.12.12,0,0,0,.09,0,2.29,2.29,0,0,1-.78-1.22c.27.09.16.17.4,0-.07-.19-.39.14-.53-.24.11-.15.18-.46.45-.54l.07.36c.32-.26-.09-.47-.06-.68h.15c-.14-.55-.53-.49-.61-1.1l-.1.08c-.44-.26.17-.31-.18-.59l.37-.17a7,7,0,0,1-.65-1.08c.33.17.56.61.78.86,0-.21-.16-.73-.37-.81.05.08.17.18.12.27a1.32,1.32,0,0,1-.63-1c.77,0,0-1.16.58-1.55-.36-.73,0-1.53-.16-2.42-.56.38,0-.26-.64-.14-.06-.21-.06-.29,0-.31l.3-.67c.16-.16.15.19.29.16,0-.46.24-.21.37-.53-.21.08-.33-.13-.27-.39l-.24.38c-.39-.61.45-.58.07-1.2l.21.19c-.15-.32-.11-1.21-.58-1.51.07-.06.23-.14.28,0,.06-.79-.56-1.74-.27-2.36l.16.06c-.05-.15-.29-.25-.14-.44.06,0,.15,0,.15,0s-.27-.39-.18-.59l.17.17c.18-.77-.43-1.18-.55-1.83.45,0,.56-.6.65-.9h.06a7.9,7.9,0,0,0-.4-2.36c.51-.49.3-1.73.62-2.54-.09.12-.34,0-.38-.2s-.27-.56.13-.49V84c.41-.11.3-.51.36-.82l-.52-.1c.88-.73,0-2.16.76-2.52-.11-.21-.07-.45-.18-.66l.28,0a4.86,4.86,0,0,0,.24-1.47l.18.17c.07-.37-.74-.61-.71-1l.43,0c.06-.67.61-1.25.36-2,.06,0,.18.07.17.18.08-.31.54-1.12-.05-1.13.37.07.18-.66.1-1l.26.12c-.29-.37-.38-.41-.38-.84.05-.09.23,0,.13.08.22-.3-.2-.32,0-.68l.15.19c.09-.33,0-.33-.17-.56s.21-.63.46-.61c-.13-.09-.29-.32-.18-.5.1,0,.14.08.16.12.3-.51-.07-.9.3-1.21a.31.31,0,0,0,.18,0,4.64,4.64,0,0,1-.28.74c.25.07.4-.27.66.1-.1-.33-.36-.93-.14-1.24l.1,0,0,0a.27.27,0,0,0,0-.23,1.22,1.22,0,0,0,.16-.26c.22,0,.23-.37.3-.55-.28-.06-.16-.28-.45-.13,0,0,0,0,0,.16a.27.27,0,0,0,0,.09l0,0c0,.11-.07.27-.12.44-.09-.18-.16-.36.05-.51a3.79,3.79,0,0,1-.36-.38c.45-.13.8-.53,1.05-.52,0-.58.29-1.29-.11-1.8,0-.17.2-.12.29-.15s0,.2,0,.28c0-.35.23-.92-.09-1.12.28-.33.24.33.37-.22l.08.11c1-.8-.22-2,.94-2.82-.07.06-.11.09-.17.08a7,7,0,0,0,.82-1.94,3.64,3.64,0,0,1,1-1.84c.27-.3.08-.44,0-.73l.31.06-.13-.51c0-.63,1.12-.55,1-1.41h-.23c.16-.22.27-.8.46-.65,0,0-.15-.17,0-.21l.15.06.05-.7c.33-.38.51.37.87-.25.07-.27-.05-.91-.19-.87a.3.3,0,0,1-.36.13l.05-.26c-.39-.27-.71-.68-1.28-.29l.05.52h-.26l.16-.33c-.28.08-.18.29-.13.48a.42.42,0,0,0-.3,0l.2.59c-.19,0-.24-.34-.45-.13.09.27.44,0,.41.38-.28.08-.4,0-.35.25a.21.21,0,0,1-.17-.22c0,.26-.21.53,0,.75-.33.07-.27.67-.65.45a1.17,1.17,0,0,1,.06.68c-.31-.56-.36.64-.83.31.31.45-.25,1-.23,1.49,0,0-.06-.12,0-.15-.16.23-.33.23-.48.35.35.2.27.62.41.92-.47.15-.35-.37-.71-.42.29.11.07.65.36.66-.31.13-.19.15-.54.14.44.24,0,.25.19.56-.36.24-.46-.09-.47.33C405.59,60.19,405.57,59.8,405.57,59.8ZM403.23,69h0c0-.07,0-.14,0-.19Zm-.22.75.11-.32c.1,0,.19,0,.16.13S403.12,69.64,403,69.73Zm2.36-1c0,.12-.07.15-.13.15a1.17,1.17,0,0,0,0-.22l0,0A.43.43,0,0,1,405.37,68.69Z"/>
      <path class="cls-8" d="M405.08,68.37s0,0,0-.05l-.08.05.07.07Z"/>
      <path class="cls-8" d="M414.33,135.9h0s0,0,0,.05Z"/>
      <polygon class="cls-8" points="400.38 80.34 400.45 80.35 400.4 80.27 400.38 80.34"/>
      <path class="cls-8" d="M416,140a.24.24,0,0,0,0,.09A.17.17,0,0,0,416,140Z"/>
      <path class="cls-8" d="M417.05,141.53l.08.27A1,1,0,0,0,417.05,141.53Z"/>
      <path class="cls-8" d="M417.82,142.76a.28.28,0,0,0,.11,0h0Z"/>
      <path class="cls-8" d="M406,123.13l0,0C405.88,123,405.94,123.05,406,123.13Z"/>
      <path class="cls-8" d="M409.44,129.07a1.09,1.09,0,0,1-.23-.14C409.25,129.05,409.29,129.14,409.44,129.07Z"/>
      <polygon class="cls-8" points="403.14 116.02 403.14 116.02 403.13 115.97 403.14 116.02"/>
      <path class="cls-8" d="M409.07,128.65a.4.4,0,0,0,.14.28A.47.47,0,0,0,409.07,128.65Z"/>
      <path class="cls-8" d="M421.84,147.56l0,.06,0,0Z"/>
      <path class="cls-8" d="M421.92,147.59l.08,0S422,147.58,421.92,147.59Z"/>
      <path class="cls-8" d="M422.16,147.7l-.16-.07S422.07,147.73,422.16,147.7Z"/>
      <path class="cls-8" d="M420.65,146.06l-.09.05A.21.21,0,0,0,420.65,146.06Z"/>
      <path class="cls-8" d="M420.23,145.65c.08.12.08.4.25.5l.08,0C420.38,146.14,420.45,145.63,420.23,145.65Z"/>
      <path class="cls-8" d="M419.58,143a3.58,3.58,0,0,0,.25.42c0-.13.06-.31.23-.17C419.91,142.64,420,143.55,419.58,143Z"/>
      <path class="cls-8" d="M418.8,141.76c.2.18.12-.1.18-.12C418.8,141.57,418.76,141.55,418.8,141.76Z"/>
      <path class="cls-8" d="M412.72,133l.24-.11C412.82,132.71,412.87,132.9,412.72,133Z"/>
      <polygon class="cls-8" points="410.58 131.81 410.54 132.06 410.78 132.03 410.58 131.81"/>
      <polygon class="cls-8" points="411.62 129.86 411.69 129.92 411.46 129.67 411.62 129.86"/>
      <path class="cls-8" d="M405,113.3l-.29.14C404.76,113.56,405.11,113.49,405,113.3Z"/>
      <path class="cls-8" d="M403,105.82c.14-.11.2-.35,0-.45C403,105.54,402.91,105.74,403,105.82Z"/>
      <polygon class="cls-8" points="402.61 82.69 402.69 82.86 402.64 82.56 402.61 82.69"/>
    </g>
    <ellipse class="cls-9" cx="256.4" cy="158.31" rx="10.5" ry="4"/>
  </g>
</svg>
