<svg id="Layer_1" data-name="Layer 1" xmlns="http://www.w3.org/2000/svg" width="670" height="670" viewBox="0 0 670 670">
  <defs>
    <style>
      .cls-1 {
        fill: #ecbcb4;
      }

      .cls-2 {
        fill: #2effe0;
      }

      .cls-3 {
        fill: #fff;
      }

      .cls-4, .cls-5 {
        stroke: #000;
        stroke-miterlimit: 10;
      }

      .cls-5 {
        fill: none;
      }

      .cls-6 {
        fill: #00425e;
      }

      .cls-7 {
        fill: #080045;
      }

      .cls-8 {
        fill: #0a00a2;
      }

      .cls-9 {
        fill: #8b2c00;
      }
    </style>
  </defs>
  <g>
    <circle class="cls-1" cx="345.1" cy="126.75" r="86"/>
    <path class="cls-2" d="M270.05,106.64l-.3.12c-25.75,11-38.11,39.84-27.61,64.48S282,207,307.77,196l.3-.13Z"/>
    <ellipse class="cls-3" cx="322.6" cy="97.25" rx="14.5" ry="18.5"/>
    <circle cx="317.1" cy="101.75" r="5"/>
    <g>
      <path class="cls-1" d="M377.41,152.92a40.82,40.82,0,0,1-4.4-.24l2.09-16.87,2-16.87c14.26,1.9,24.88,10.8,23.77,20-1,8.1-10.87,14-23.5,14Z"/>
      <path d="M377.58,119.5a34,34,0,0,1,16.78,7c4.42,3.69,6.57,8.07,6.05,12.33-.94,7.72-10.82,13.54-23,13.54-1.26,0-2.54-.06-3.84-.19l2-16.36,2-16.37m-.87-1.12-2.11,17.37-2.14,17.37h0a41.36,41.36,0,0,0,4.92.3c12.59,0,23-6,24-14.42,1.16-9.53-10-18.84-24.69-20.62Z"/>
    </g>
    <g>
      <path class="cls-1" d="M381.21,148.24l.89-11,.76-11a11,11,0,0,1-1.26,21.93Z"/>
      <path d="M383.33,126.89a10.5,10.5,0,0,1-1.57,20.86l.84-10.43.73-10.43m-.93-1.11-.8,11.47-.92,11.46h.12c.27,0,.53,0,.8,0a11.5,11.5,0,0,0,.8-23Z"/>
    </g>
    <path d="M250.36,49.32c34-.54,67.73-.07,101.74-.07L394.6,49c-.18-20.46-19.31-37.21-42.5-37.21-23,0-42,16.46-42.49,36.65"/>
    <circle class="cls-4" cx="352.6" cy="8.25" r="3"/>
    <path class="cls-5" d="M374.33,153.43a183.82,183.82,0,0,1-16.87,21.17c-6.54,7.06-13.91,13.78-23,17-8.58,3.09-17.95,2.84-27.06,2.55"/>
    <rect class="cls-6" x="259.6" y="213.25" width="172" height="208" rx="39.39"/>
    <rect class="cls-7" x="316.6" y="213.25" width="49" height="208" rx="16.74"/>
    <rect class="cls-8" x="309.6" y="422.25" width="63" height="235" rx="28.42"/>
    <ellipse class="cls-9" cx="330.6" cy="661.25" rx="43" ry="4"/>
    <path class="cls-5" d="M269.05,107.64c38.55,27.61,106.66,11.74,106.66,11.74"/>
  </g>
</svg>
