<svg id="Layer_1" data-name="Layer 1" xmlns="http://www.w3.org/2000/svg" width="670" height="670" viewBox="0 0 670 670">
  <defs>
    <style>
      .cls-1 {
        fill: #ecbcb4;
      }

      .cls-2 {
        fill: #2effe0;
      }

      .cls-3 {
        fill: #fff;
      }

      .cls-4, .cls-5 {
        stroke: #000;
        stroke-miterlimit: 10;
      }

      .cls-5 {
        fill: none;
      }

      .cls-6 {
        fill: #00425e;
      }

      .cls-7 {
        fill: #080045;
      }

      .cls-8 {
        fill: #0a00a2;
      }

      .cls-9 {
        fill: #8b2c00;
      }

      .cls-10 {
        fill: #f40000;
      }
    </style>
  </defs>
  <g>
    <circle class="cls-1" cx="334.01" cy="126.75" r="86"/>
    <path class="cls-2" d="M259,106.64c-.1,0-.21.08-.31.12-25.74,11-38.1,39.84-27.61,64.48S270.94,207,296.68,196l.3-.13Z"/>
    <ellipse class="cls-3" cx="311.51" cy="97.25" rx="14.5" ry="18.5"/>
    <circle cx="306.01" cy="101.75" r="5"/>
    <g>
      <path class="cls-1" d="M366.33,152.92a40.54,40.54,0,0,1-4.4-.24L364,135.81l2.05-16.87a34.73,34.73,0,0,1,17.54,7.23c4.55,3.8,6.76,8.34,6.22,12.77-1,8.1-10.86,14-23.49,14Z"/>
      <path d="M366.49,119.5c13.51,2,23.89,10.71,22.83,19.38-.93,7.72-10.82,13.54-23,13.54a38.21,38.21,0,0,1-3.83-.19l2-16.36,2-16.37m-.87-1.12-2.11,17.37-2.14,17.37h0a41.19,41.19,0,0,0,4.91.3c12.59,0,23-6,24-14.42,1.15-9.53-10-18.84-24.7-20.62Z"/>
    </g>
    <g>
      <path class="cls-1" d="M370.13,148.24l.88-11,.77-11a11,11,0,0,1-1.27,21.93Z"/>
      <path d="M372.24,126.89a10.5,10.5,0,0,1-1.57,20.86l.84-10.43.73-10.43m-.92-1.11-.81,11.47-.92,11.46h.12c.27,0,.53,0,.8,0a11.5,11.5,0,0,0,.81-23Z"/>
    </g>
    <path d="M239.27,49.32c34-.54,67.74-.07,101.74-.07l42.5-.29C383.33,28.5,364.2,11.75,341,11.75c-23,0-42,16.46-42.49,36.65"/>
    <circle class="cls-4" cx="341.51" cy="8.25" r="3"/>
    <path class="cls-5" d="M363.24,153.43a182.75,182.75,0,0,1-16.87,21.17c-6.54,7.06-13.9,13.78-23,17-8.58,3.09-18,2.84-27.06,2.55"/>
    <rect class="cls-6" x="248.51" y="213.25" width="172" height="208" rx="39.39"/>
    <rect class="cls-7" x="305.51" y="213.25" width="49" height="208" rx="16.74"/>
    <rect class="cls-8" x="298.51" y="422.25" width="63" height="235" rx="28.42"/>
    <ellipse class="cls-9" cx="319.51" cy="661.25" rx="43" ry="4"/>
    <path class="cls-5" d="M258,107.64c38.54,27.61,106.65,11.74,106.65,11.74"/>
    <rect class="cls-10" x="74.01" y="286.75" width="523" height="44" transform="translate(316.59 -146.81) rotate(45)"/>
    <rect class="cls-10" x="72.99" y="295.49" width="523" height="44" transform="translate(-126.53 329.51) rotate(-45)"/>
  </g>
</svg>
