<svg id="Layer_1" data-name="Layer 1" xmlns="http://www.w3.org/2000/svg" width="1920" height="1080" viewBox="0 0 1920 1080">
  <defs>
    <style>
      .cls-1 {
        fill: #8e9291;
      }

      .cls-2 {
        fill: #d00500;
      }

      .cls-3 {
        fill: #fff;
      }

      .cls-4 {
        fill: #e60c00;
      }

      .cls-5 {
        fill: #adebff;
      }

      .cls-6 {
        fill: #82b0bf;
      }

      .cls-7 {
        opacity: 0.1;
      }

      .cls-8 {
        fill: #9a6800;
      }

      .cls-9 {
        fill: #c5c2c2;
      }

      .cls-10 {
        fill: #ee2d00;
      }
    </style>
  </defs>
  <rect class="cls-1" y="443" width="1920" height="637"/>
  <rect class="cls-2" x="-0.29" y="0.14" width="173" height="1080"/>
  <rect x="85.71" y="443.14" width="57" height="637"/>
  <rect class="cls-3" x="160.71" y="150.14" width="23" height="199"/>
  <rect class="cls-4" x="179.71" y="160.14" width="6" height="126"/>
  <rect class="cls-1" x="142.71" y="444.14" width="37" height="636"/>
  <path class="cls-5" d="M114.71,1048.14l14-18q-.5-290.49-1-581-6.49,12-13,24Z"/>
  <path class="cls-6" d="M99.71,1063.14l14-15v-575q-7,12-14,24Z"/>
  <polygon class="cls-1" points="142.71 1080.14 99.71 1080.14 142.71 1033.14 142.71 1080.14"/>
  <polygon class="cls-7" points="142.71 1033.14 296.97 49.34 281.98 75.33 266.97 49.34 250.8 77.38 234.61 49.34 219.62 75.33 204.61 49.34 188.88 76.61 173.14 49.34 172.21 150.14 183.71 150.14 183.71 160.14 185.71 160.14 185.71 286.14 183.71 286.14 183.71 349.14 172.71 349.14 172.21 443.14 142.71 444.14 142.71 1033.14"/>
  <rect class="cls-8" x="472" y="324" width="11" height="177"/>
  <path class="cls-9" d="M575.15,279c-.4,0-.79.17-.86.32s.26.12.74,0,.57-.3.12-.27Z"/>
  <rect class="cls-10" x="418" y="235" width="122" height="122" rx="13.49"/>
  <rect class="cls-3" x="500" y="308" width="2" height="2"/>
  <path d="M451.93,309.36h42.63l-.95,4.93h-39a3.65,3.65,0,0,0-3.4,4.52l.8,3.75a8.68,8.68,0,0,0-4.59,7.77,8.15,8.15,0,1,0,16.28.24,8.86,8.86,0,0,0-2.44-6.41h30.49a8.89,8.89,0,0,0-2.45,6.17,8.15,8.15,0,1,0,16.28.47,8.76,8.76,0,0,0-4.08-8l10.21-53h10.17a3.61,3.61,0,0,0,3.49-3.7V263.7a3.61,3.61,0,0,0-3.49-3.7H506.93a3.55,3.55,0,0,0-3.42,3l-1.34,6.91H445.05a3.65,3.65,0,0,0-3.4,4.52l6.87,32.08A3.55,3.55,0,0,0,451.93,309.36Z"/>
  <path class="cls-3" d="M475.16,302.68v-7.25h10.1a2,2,0,0,0,2-2v-4a2,2,0,0,0-2-2h-10.1v-7.24a2,2,0,0,0-3.45-1.43L460.42,290a2,2,0,0,0,0,2.86l11.29,11.29a2,2,0,0,0,3.45-1.43Z"/>
</svg>
