<svg id="Layer_1" data-name="Layer 1" xmlns="http://www.w3.org/2000/svg" width="100.86" height="100.86" viewBox="0 0 100.86 100.86">
  <defs>
    <style>
      .cls-1 {
        fill: #e90000;
      }
    </style>
  </defs>
  <g>
    <rect class="cls-1" width="100.86" height="100.86" rx="15.27"/>
    <path d="M39.11,58.13A11.67,11.67,0,0,0,37.22,58c-5.21,0-9.43,3.38-9.43,7.55s4.22,7.54,9.43,7.54,9.44-3.38,9.44-7.54V42.05L65.53,40V54.36a11.67,11.67,0,0,0-1.89-.15c-5.21,0-9.43,3.37-9.43,7.54s4.22,7.55,9.43,7.55,9.43-3.38,9.43-7.55v-34l-34,3.77V58.13Zm34-45.43H27.79A15.08,15.08,0,0,0,12.7,27.79V73.07a15.09,15.09,0,0,0,15.09,15.1H73.07a15.1,15.1,0,0,0,15.1-15.1V27.79A15.09,15.09,0,0,0,73.07,12.7Zm7.55,56.6A11.32,11.32,0,0,1,69.3,80.62H31.56A11.32,11.32,0,0,1,20.24,69.3V31.56A11.32,11.32,0,0,1,31.56,20.24H69.3A11.32,11.32,0,0,1,80.62,31.56V69.3Z"/>
  </g>
</svg>
