<svg id="Layer_1" data-name="Layer 1" xmlns="http://www.w3.org/2000/svg" width="100" height="100" viewBox="0 0 100 100">
  <defs>
    <style>
      .cls-1 {
        fill: red;
      }
    </style>
  </defs>
  <path class="cls-1" d="M74.69,8.58v2a20.89,20.89,0,0,1,14.13,5,21.5,21.5,0,0,1,6.53,15,26.89,26.89,0,0,1-5.89,17.87L49.4,88.59l-40-40c-6.76-10.42-6.33-23.85,1-31.32,3.76-3.82,9.49-6,15.71-6A28.4,28.4,0,0,1,49.08,23.08l1.73,2.33L52.37,23A26.48,26.48,0,0,1,74.69,10.58v-2m0,0a28.54,28.54,0,0,0-24,13.31A30.6,30.6,0,0,0,26.14,9.26c-6.64,0-12.89,2.3-17.13,6.6-7.7,7.82-8.85,22.33-1.17,34L49.4,91.42,91,49.86c9.39-11.75,7.92-27.81-.8-35.72A23,23,0,0,0,74.69,8.58Z"/>
</svg>
