<svg id="Layer_1" data-name="Layer 1" xmlns="http://www.w3.org/2000/svg" width="500" height="500" viewBox="0 0 500 500">
  <defs>
    <style>
      .cls-1 {
        fill: #d00500;
      }
    </style>
  </defs>
  <rect class="cls-1" y="158" width="500" height="226" rx="113"/>
  <g>
    <path d="M94.56,215.05a32.45,32.45,0,0,1,14.24,3.06,26.79,26.79,0,0,1,9.35,7.59,28.17,28.17,0,0,1,5,10.78,49.07,49.07,0,0,1,1.29,12.65,28.34,28.34,0,0,1-2.82,10.95,26.31,26.31,0,0,1-7.23,8.94,35.48,35.48,0,0,1-11.71,6.06,56,56,0,0,1-16,2.34l-15.45.14-1.75,44.89H49.62L52,214.3ZM82.43,259.19a33.57,33.57,0,0,0,9-.78,16.16,16.16,0,0,0,5.86-2.58,9.43,9.43,0,0,0,3.11-3.88,14.51,14.51,0,0,0,1.08-4.59,19.93,19.93,0,0,0-.74-5,13.67,13.67,0,0,0-2.7-5.17,15.6,15.6,0,0,0-5.45-4,21.71,21.71,0,0,0-8.8-1.8l-7.31-.14-.16,27.89Z"/>
    <path d="M169.06,215.46l9.72,87.33,58.64-2.24,1.42,18.84-85.56,3.19-5.81-106.85Z"/>
    <path d="M284.52,309.59l-5.73,10.61L254,319.05l52.83-105,19.6.27L357.2,322.45l-26.75-.89-2.74-9.86ZM313.26,248l-20.93,44,32.14,1.71Z"/>
    <path d="M401.55,216.55l26,33.73,25.92-34.82,25.16.54-39.95,53.33.66,53.12-22.67,1.09-1-55.71-39.12-51.55Z"/>
  </g>
</svg>
