<svg id="Layer_1" data-name="Layer 1" xmlns="http://www.w3.org/2000/svg" width="500" height="500" viewBox="0 0 500 500">
  <defs>
    <style>
      .cls-1 {
        fill: #d00500;
      }
    </style>
  </defs>
  <g>
    <rect class="cls-1" x="37" y="119.9" width="414" height="259.4" rx="113"/>
    <g>
      <path d="M176.51,148.4a8.44,8.44,0,0,1,5.72,2.24,15.77,15.77,0,0,1,3.76,5.55,30.94,30.94,0,0,1,2,7.89,65.3,65.3,0,0,1,.52,9.27,35.58,35.58,0,0,1-1.13,8,21.64,21.64,0,0,1-2.91,6.55,14.18,14.18,0,0,1-4.7,4.43,13.41,13.41,0,0,1-6.43,1.72l-6.21.1-.7,32.87h-8l1-79.19Zm-4.87,32.32a7.82,7.82,0,0,0,3.61-.57,5.88,5.88,0,0,0,2.35-1.9,7.67,7.67,0,0,0,1.25-2.83,18.37,18.37,0,0,0,.43-3.37,25.56,25.56,0,0,0-.3-3.68,14.45,14.45,0,0,0-1.08-3.79,8.38,8.38,0,0,0-2.19-3,5.63,5.63,0,0,0-3.53-1.32l-2.94-.1-.06,20.42Z"/>
      <path d="M206.43,148.7l3.9,63.94L233.88,211l.57,13.8-34.36,2.34-2.33-78.25Z"/>
      <path d="M252.79,217.63l-2.3,7.76-10-.84,21.21-76.9,7.87.2L282,227l-10.73-.65-1.11-7.22Zm11.54-45.08-8.4,32.23,12.9,1.24Z"/>
      <path d="M299.79,149.49l10.43,24.71,10.41-25.5,10.11.39-16.05,39L315,227l-9.1.79-.4-40.79-15.71-37.75Z"/>
      <path d="M167.47,340l-2.3,7.76-10-.84,21.21-76.9,7.88.2,12.37,79.19-10.74-.65-1.1-7.22ZM179,295l-8.41,32.23,12.91,1.24Z"/>
      <path d="M229.91,314.33l13-2.25.9,17.34a27.91,27.91,0,0,1-3,9.58,14.44,14.44,0,0,1-5.42,5.61,29.54,29.54,0,0,1-4.82,2.16,31.58,31.58,0,0,1-6.18,1.42,23.11,23.11,0,0,1-6.23.15,7.27,7.27,0,0,1-3.55-1.47,8.76,8.76,0,0,1-2.28-3c-.61-1.23-1.4-2.66-2.35-4.28a16.07,16.07,0,0,1-1.89-5,64.48,64.48,0,0,1-1.15-6.62q-.44-3.51-.68-7t-.39-6.39q-.39-5.94-.88-11.48c-.32-3.71-.46-7.18-.42-10.44a42.65,42.65,0,0,1,1-8.91,17.23,17.23,0,0,1,3.37-7,30,30,0,0,1,2.24-2.36,15,15,0,0,1,2.45-1.9,12.55,12.55,0,0,1,3-1.31,28.34,28.34,0,0,1,3.75-.85q4-.5,6.74-.6a12.86,12.86,0,0,1,4.73.6c1.16.43,2.12.83,2.89,1.19a8.53,8.53,0,0,1,1.9,1.22,6.23,6.23,0,0,1,1.23,1.5,12.32,12.32,0,0,1,.89,1.92,22.32,22.32,0,0,1,1.26,5.4q.38,3.06.67,6.95L231,290a12.59,12.59,0,0,0-1.23-5.53,4.52,4.52,0,0,0-2.57-2.19,7,7,0,0,0-3.42-.05c-1.25.27-2.54.57-3.85.9a6.68,6.68,0,0,0-4.34,3.39,16.82,16.82,0,0,0-1.63,6.57,68.19,68.19,0,0,0,.07,9.54q.36,5.5.76,12.22t1,10.71a23.14,23.14,0,0,0,1.64,6.23,5,5,0,0,0,2.48,2.71,6.1,6.1,0,0,0,3.6.08,8.88,8.88,0,0,1,1.57-.2h1.2a4.19,4.19,0,0,0,1.42-.28A15.86,15.86,0,0,0,230,333l1.5-1.24a16.08,16.08,0,0,0,1.68-3.09,8.37,8.37,0,0,0,.69-2.91,2.91,2.91,0,0,0-.75-2.15,3.61,3.61,0,0,0-2.65-.82Z"/>
      <path d="M263,340l-2.3,7.76-10-.84,21.21-76.9,7.87.2,12.38,79.19-10.74-.65-1.1-7.22ZM274.5,295l-8.4,32.23L279,328.42Z"/>
      <path d="M313.46,268.66l.8,81.58H302.45V268.66Z"/>
      <path d="M338.11,270l9.9,36.31,2.27-35,10.17,1.3L356,349.94l-8-2.34-11.4-35.71-2.17,35.31-10-1.45,4.37-77.29Z"/>
    </g>
  </g>
</svg>
