<svg id="Layer_1" data-name="Layer 1" xmlns="http://www.w3.org/2000/svg" width="351" height="128" viewBox="0 0 351 128">
  <defs>
    <style>
      .cls-1 {
        fill: #00f4ea;
      }

      .cls-2 {
        fill: #ecbcb4;
      }

      .cls-3 {
        fill: #fff;
      }

      .cls-4 {
        fill: #07d000;
      }

      .cls-5 {
        fill: #72ff2e;
      }

      .cls-6 {
        fill: #0a00a2;
      }

      .cls-7 {
        fill: #8b2c00;
      }

      .cls-8 {
        fill: #faf0be;
      }

      .cls-9 {
        fill: #202020;
      }

      .cls-10 {
        stroke: #000;
        stroke-miterlimit: 10;
      }

      .cls-11 {
        fill: #f40000;
      }
    </style>
  </defs>
  <rect class="cls-1" width="351" height="128" rx="64"/>
  <g>
    <circle class="cls-2" cx="279.87" cy="29.98" r="13.22"/>
    <ellipse class="cls-3" cx="276.42" cy="25.44" rx="2.23" ry="2.84"/>
    <circle cx="275.57" cy="26.13" r="0.77"/>
    <g>
      <path class="cls-2" d="M284.64,33.57l.53-4.3c1.72.36,3,1.45,2.86,2.53s-1.49,1.78-3.19,1.78Z"/>
      <path d="M285.59,29.9a3.73,3.73,0,0,1,1.31.7,1.4,1.4,0,0,1,.64,1.14c-.08.59-1,1.23-2.33,1.32l.19-1.58.19-1.58m-.86-1.21-.32,2.67L284.08,34h0a6.61,6.61,0,0,0,.76,0c1.94,0,3.53-.92,3.69-2.22.18-1.46-1.54-2.9-3.8-3.17Z"/>
    </g>
    <g>
      <path class="cls-2" d="M286,31.63l.08-1.17a1.27,1.27,0,0,1-.17,2.33Z"/>
      <path d="M285.61,29.83l-.13,1.76-.14,1.76h.14a1.77,1.77,0,0,0,.13-3.53Z"/>
    </g>
    <path class="cls-4" d="M272.79,75.24h14.32a6.05,6.05,0,0,0,6.06-6V49.33a6.06,6.06,0,0,0-6.06-6.06H272.79c-1,.16-5-.06-5,5.62-2.92-.46-2.92,8.15-.31,8-.13,7.5.11,15.51,1.05,16.58A5.63,5.63,0,0,0,272.79,75.24Z"/>
    <rect class="cls-5" x="275.49" y="43.27" width="7.53" height="31.97" rx="2.18"/>
    <rect class="cls-6" x="274.42" y="75.4" width="9.68" height="36.12" rx="2.81"/>
    <ellipse class="cls-7" cx="283.77" cy="112.26" rx="7.97" ry="0.74"/>
    <path class="cls-8" d="M269.11,22.3l5-2,.71,2.3,3.13-2.3a30.15,30.15,0,0,0,12.28,21,10,10,0,0,0,10.53-4.05,42.86,42.86,0,0,0-6.22-22.14l-3.33-4.54a38,38,0,0,0-22.08,2.85l-5.64,2.33a5.32,5.32,0,0,0-1.69,4.43,5,5,0,0,0,1.69,3,3.47,3.47,0,0,0,2.76,1.3A3.29,3.29,0,0,0,269.11,22.3Z"/>
    <g>
      <path class="cls-9" d="M286.17,34.2c.05-.07.16-.23.12-.21l-.2.26Z"/>
      <path class="cls-9" d="M286.39,33.6a4.38,4.38,0,0,0-.47.58c.21-.24.14-.13.38-.42,0,0,0,.11-.1.21.06-.06,0,.08.12-.08s.1-.26-.06-.11Z"/>
      <path class="cls-9" d="M285.07,31.76v0A0,0,0,0,0,285.07,31.76Z"/>
      <path class="cls-9" d="M284.36,30.62s0,0,.07,0S284.38,30.6,284.36,30.62Z"/>
      <path class="cls-9" d="M284.52,30.23v0S284.55,30.22,284.52,30.23Z"/>
      <path class="cls-9" d="M285.07,31.76l.06-.1C285.05,31.73,285.08,31.73,285.07,31.76Z"/>
      <path class="cls-9" d="M285.66,34.05l.07-.06,0,0Z"/>
      <path class="cls-9" d="M285.67,32h0l.1-.09Z"/>
      <path class="cls-9" d="M286,32.25a2.51,2.51,0,0,0-.27.28.59.59,0,0,1,.14-.13Z"/>
      <path class="cls-9" d="M286.27,33.08l0,0Z"/>
      <path class="cls-9" d="M285.49,31.72l.07-.07Z"/>
      <path class="cls-9" d="M280.55,19.69l0,0Z"/>
      <polygon class="cls-9" points="282.04 19.57 282.05 19.58 282.2 19.63 282.04 19.57"/>
      <path class="cls-9" d="M284.6,29.7Z"/>
      <path class="cls-9" d="M282.93,26.51c-.23.11-.33,0-.58.16A2,2,0,0,0,282.93,26.51Z"/>
      <path class="cls-9" d="M285.67,34h0S285.66,34,285.67,34Z"/>
      <path class="cls-9" d="M282.35,26.67Z"/>
      <path class="cls-9" d="M284,29l-.1.07Z"/>
      <path class="cls-9" d="M284,29.81l0,0Z"/>
      <path class="cls-9" d="M283.47,28.89s0,0,0,0l0,0S283.5,28.86,283.47,28.89Z"/>
      <path class="cls-9" d="M283.31,28.54l-.05,0h0Z"/>
      <path class="cls-9" d="M280.36,21.05l.25,0C280.41,21.05,280.36,21,280.36,21.05Z"/>
      <path class="cls-9" d="M285.76,33.92l-.09.09h0Z"/>
      <path class="cls-9" d="M281.49,29.88V29.8A.06.06,0,0,0,281.49,29.88Z"/>
      <path class="cls-9" d="M280.22,24.22l0,0S280.18,24.22,280.22,24.22Z"/>
      <path class="cls-9" d="M281.36,29.63a.92.92,0,0,0,.16-.13l-.07,0Z"/>
      <path class="cls-9" d="M280.61,21.08h0Z"/>
      <path class="cls-9" d="M280.05,20.48c0,.07.35.11.55.17s-.27,0-.46,0c.09.07.41.18.39.21l-.16,0c.28.11,0,.16.33.28h-.09a4.39,4.39,0,0,1,.5.08s.22.09,0,.06c0,0-.08,0-.15-.06l.09.05c-.34,0-.11-.06-.36-.11.1.08.37.2.26.23-.33,0-.09-.13-.4-.12l.14-.05c-.54,0,.05,0-.53-.08-.11.08.15.13,0,.21.18.05.28,0,.46.09s-.86,0-.42.14c.22.06.64.13.41.17l-.38-.08c-.05.09.54.13.27.19s-.11-.09-.16-.08c-.31,0,.21.07.21.12l-.34,0c0,.1.27.24.32.35a.82.82,0,0,0-.31,0c.15.15-.08.29-.28.41l.29.07a.57.57,0,0,1-.19,0c-.11,0,.19,0,.3,0s-.17,0-.25,0c.24.11.52.28.2.36l-.08,0c-.12.08.6.1.32.16h-.05c-.14.16.13.33-.31.46.43,0-.18.16.41.16-.29.1-.39.07-.58.21,0,0,.37,0,.43.08l-.31,0,.33,0-.37.05.08,0a.8.8,0,0,1,.23,0c.14.05-.21.16-.37.18l.27.13a.85.85,0,0,1-.25,0c.32.06-.32,0,0,.09h.25c-.19.05-.18.13-.09.19H280c0,.11.13.22.15.35a1,1,0,0,1,.5-.06l-.33,0c.21,0,.12,0,.37,0a1.25,1.25,0,0,1-.47.06l.12,0a2.13,2.13,0,0,1-.27,0c.2,0-.32.14,0,.13l-.1,0c0,.12.13.16.16.26a2.24,2.24,0,0,1,.45,0c-.07.09-.28.21-.23.29s.23,0,.4,0c-.25.06-.21.14-.4.13.07.09.08.12.31.21a1.19,1.19,0,0,1,.23-.07c.05,0-.09.08-.21.1h0c.4.06-.66.51-.11.51h0l.3.05c0,.07-.19,0-.34.09.46,0,0,.23.31.26-.7.29.13.28-.3.53l.17-.06c.18,0-.09.07-.12.1.13,0,.15-.08.24-.09.28.18-.07.58-.13.9,0,.11.88-.28.53,0l-.32.09c.43,0,.13.38.52.42-.07,0-.17.06-.17,0-.21.13.05.14.23.06,0,0-.16.08-.24.14s.32,0,.11.08a.22.22,0,0,1-.1,0c.12,0,0,.12.27,0-.09.12.17.07,0,.19.3-.1-.08.18.32,0-.41.19-.28.28-.07.22-.12.05-.1.1-.28.17,0,0,.13,0,.33-.07-.43.33.48,0-.11.33a2,2,0,0,1,.66.13c-.4.22-.11-.11-.52.13.22,0,.59-.11.56.06s-.18.08-.25.11c.22,0,.1.24.37.2l-.12,0s0,.08.15,0l-.06,0a4.14,4.14,0,0,1,.71-.35c-.52.29-.07.17-.72.53a1,1,0,0,0,.24-.12s-.08.09-.23.15c.14,0,.31-.14.34-.07l-.22.12c.18-.08.36-.15.33-.06s-.12.08-.12.07.52-.15.43.05c-.37.22-.1.12-.4.34H283l.13-.13c0,.05.28-.08.21,0l-.15.06.12,0,.08-.13c.18-.07.37-.28.33-.17s0,0-.13.2h0c.11-.05.23-.11.18,0s-.33.24-.39.3c.26-.17.14.05.42-.13l-.25.18.22-.14a.67.67,0,0,1-.21.19c0,.09.36-.31.25-.11,0,0,0,0-.08,0s.23,0,.18.18c-.27.26-.12,0-.34.22.12.06.49-.09.51,0v0c.41-.34-.14.24.09.11,0,0-.23.19-.19.15s.21,0,.41,0l-.11.09c-.06.11,0,.13,0,.21.11-.08.11,0,.25-.19-.45.65.48-.08.13.46,0,0-.11.06-.1.07h.17a1.68,1.68,0,0,0,.19-.26c.11-.09.2-.14.22-.12a1,1,0,0,0-.32.37l.15-.16c-.24.34.33-.33.2-.07l-.09.08c.06,0,.19-.12.19-.07-.17.2-.1.07-.26.23.05,0,.41-.32.26-.09-.06,0-.08,0-.15.06-.17.27-.12.21-.12.27h0l0,.16,0-.07c.51-.48.18,0,.53-.31-.33.28-.17.18-.37.41a1,1,0,0,1-.14.22c.18-.16-.08.19.19,0-.06.07,0,0-.14.21.09,0,.1-.14.18-.23.27-.2-.11.43.26.14.19-.09.41-.34.57-.42a1,1,0,0,1-.23.27c-.05.14,0,.14.09.08a1,1,0,0,0-.15.22c.05,0,.24-.27.19-.13s-.19.22-.27.29c.09,0,.23-.16.32-.21a1.35,1.35,0,0,1-.25.27.62.62,0,0,0,.36-.25l0-.1a.87.87,0,0,1-.17.22c-.16.15,0-.11.07-.19l.06,0c.31-.48-.15,0-.18-.06l.27-.32-.26.24a1.78,1.78,0,0,1,.25-.32c.09-.18-.12.1,0-.11l0-.05-.11.07c.06-.06.17-.23.16-.17.09-.23-.29.17-.11-.09l0,0c-.17.05-.2.24-.49.47l.44-.62L286,33s0,0,.07-.13c-.16.13-.08.1-.22.24.14-.24-.19,0,.12-.37-.17.17-.08.17-.23.26.33-.41-.1,0,0-.19s.12-.06.25-.27c-.32.33,0-.13-.09-.09-.24.27-.16.06-.29.1.09-.09.05-.23.1-.36l0,0c-.26.26-.26.16-.34.19a1.48,1.48,0,0,1,.3-.27l0,0a.48.48,0,0,1-.19.13l.2-.19c-.05,0-.31.16-.23,0-.18.17-.46.55-.64.61a2.66,2.66,0,0,1,.32-.3s-.1.07-.07,0l.19-.15c.05-.09-.15.13-.15.09s.08-.11.2-.22-.05.08,0,0a.62.62,0,0,1,.16-.27c-.08.08-.19.19-.22.19s.16-.18.21-.27c-.11.08,0,0-.25.16,0,0,.09-.11.15-.17-.12.07-.12-.07-.33.17v0h0c-.28.13,0-.26-.17-.24l.08-.07c-.13,0-.14-.05-.32.06,0,0,.1-.14.2-.22-.09,0-.18.09-.09-.06s.11-.11.12-.05c0-.1.15-.21-.09-.08.2-.15.22-.24.14-.21l-.11.15c-.05,0-.05,0-.05-.07l.27-.2c.25-.34-.66.27-.18-.21-.2.12-.09.14-.32.29,0-.07.34-.4.34-.41.1-.17-.43.24-.38.11a1.47,1.47,0,0,1-.46.3c0-.07.36-.35.46-.38s0,0,0,.05a.32.32,0,0,0,.19-.12l-.1.07c.08-.09,0-.14.19-.24a.37.37,0,0,0-.2.16c.1-.15-.06-.08,0-.21-.05.05-.15.14-.16.13.07-.17-.21.09-.29.07.13-.14.37-.24.2-.21a1.24,1.24,0,0,1,.35-.23c-.22.08.06-.17.08-.22l.09,0s-.06,0-.07,0l-.19.15s0-.06.1-.11c-.14.07-.32.23-.51.32.08-.09-.16,0,.1-.18,0,.13.26-.18.34-.15s0,0,0,0l.07,0c.2-.22-.31.17-.35.1.16-.09.27-.2.24-.19s-.25.17-.38.22c.09-.11-.11,0-.11,0l0,.06c-.16.09-.15.05-.22.05.12-.07.1,0,.14-.06-.28.13.23-.25,0-.18.09-.09.28-.18.34-.24-.23.07.18-.18,0-.13a1.09,1.09,0,0,1-.37.19h.19l-.33.12s.16,0,.14,0a.69.69,0,0,0-.29.16c.28-.22-.23,0,0-.14l.51-.3c.19-.19-.33,0-.25-.12l-.07.08c-.21.1-.06,0-.16,0a2.64,2.64,0,0,0,.33-.22c-.13.07,0-.07-.37.11l.2-.16c.06-.12-.54.19-.51.09a2,2,0,0,1,.47-.2s0-.06-.12,0c.11-.07-.27.06-.11-.05-.08,0-.27.12-.27.09l.09,0a.92.92,0,0,0-.33.14c.52-.35-.13-.19.32-.48a.59.59,0,0,1-.21-.1l.08,0c.14-.14-.54.2-.38,0s.17,0,.27-.11c.59-.27-.12-.05.21-.25h0c.18-.13-.27,0-.26-.07l.09,0a.85.85,0,0,1-.56,0,1.36,1.36,0,0,0,.37-.13c-.05,0-.38.17-.47.14a2.39,2.39,0,0,1,.48-.26l0,0c.32-.15,0-.06,0-.11l.15-.05c-.08-.06-.45.08-.45,0l-.11.05c-.38.09.19-.11-.1-.06l.37-.15a2.66,2.66,0,0,1-.49,0,4.77,4.77,0,0,1,.63-.07s-.06-.09-.25,0c0,0,.13,0,.08,0-.31.07-.47.07-.49,0,.73-.23.13-.22.68-.44-.29,0,.06-.25,0-.36-.56.21,0,0-.61.15,0,0,0,0,0,0l.33-.19c.16-.06.13,0,.27,0s.24-.1.38-.18c-.21.07-.3.06-.23,0l-.26.13c-.34,0,.47-.21.14-.21l.19,0c-.12,0,0-.17-.53-.1a1.09,1.09,0,0,1,.28-.06c.05-.12-.56-.13-.28-.28l.15,0c-.05,0-.29,0-.14,0l.15,0c-.05,0-.27,0-.19-.05h.17c.17-.14-.43-.09-.55-.17a1.19,1.19,0,0,0,.62-.23h.06c0-.13-.39-.15-.57-.25.46-.14.17-.27.42-.42a1.33,1.33,0,0,1-.39,0c.08,0-.31-.05.09-.08h0c.39-.06.28-.11.29-.15l-.53,0c.76-.18-.29-.3.39-.4a2.58,2.58,0,0,1-.26-.08h.28c.07-.08.1-.11,0-.21l.2,0s-.82,0-.84-.1l.43,0c0-.1.36-.19,0-.29l.2,0s.29-.16-.29-.15c.38,0,0-.1-.12-.16l.28,0c-.36-.06-.45-.06-.55-.13s.22,0,.15,0c.15,0-.26-.05-.11-.1l.18,0c0-.05-.08-.05-.28-.09s.07-.09.32-.08c-.15,0-.35-.06-.28-.08l.18,0c.19-.07-.31-.15,0-.18h.17c0,.07,0,.12-.06.11a3.25,3.25,0,0,1,.66,0c-.19-.05-.6-.16-.48-.2h.12s0,0,0,0l.09,0c.21,0,.12-.05.13-.07a2.09,2.09,0,0,0-.47-.05s0,0,.05,0l0,0h0a.15.15,0,0,1,0,.07c-.14,0-.25-.07-.1-.08l-.44-.09c.39,0,.61,0,.85,0a.93.93,0,0,0-.6-.32c-.06,0,.16,0,.24,0a.58.58,0,0,0,.11.05c-.12-.07,0-.14-.39-.21.17,0,.33.08.28,0l.11,0c.61,0-.88-.42-.1-.45h-.13c.37-.12-.23-.49.35-.55.12,0-.11-.09-.27-.17l.29.06-.32-.15c-.22-.15.76.07.33-.17l-.2,0s-.08-.16.14-.08c0,0-.2-.08-.09-.06l.15.05-.23-.17c.13,0,.59.2.65.11a2.23,2.23,0,0,0-.51-.27.57.57,0,0,1-.25-.05l-.07-.06a4.66,4.66,0,0,0-1.22-.36l.25.16-.22-.05v-.06c-.21,0,0,.05.07.11l-.24-.05.4.21c-.18-.05-.34-.15-.44-.13.18.09.39.09.51.19-.21,0-.38-.1-.22,0l-.23-.1c.13.08,0,.11.26.2-.26,0,0,.14-.39,0a1.31,1.31,0,0,1,.33.19c-.49-.2-.07.11-.61-.06.44.17.16.21.39.36,0,0-.11,0-.08,0s-.2,0-.29,0a3.7,3.7,0,0,1,.68.28,5.22,5.22,0,0,1-.8-.21c.31.08.29.17.55.21a2.06,2.06,0,0,1-.44,0c.48.12.08.06.36.16-.24,0-.45-.09-.32,0A.7.7,0,0,1,280.05,20.48Zm.59,1.69h0l0,0Zm0,.12a.08.08,0,0,0,0-.05.59.59,0,0,1,.19,0A.82.82,0,0,0,280.63,22.29Zm2-.06s0,0-.08,0,0,0,0,0h0Z"/>
      <path class="cls-9" d="M282.24,22.16h0Z"/>
      <path class="cls-9" d="M285.05,31.8h0l0,0Z"/>
      <polygon class="cls-9" points="280.07 24.08 280.14 24.08 280.08 24.07 280.07 24.08"/>
      <path class="cls-9" d="M284.84,33l0,.06Z"/>
      <path class="cls-9" d="M285,33.2l0,.11Z"/>
      <path class="cls-9" d="M285.1,33.46l.08-.08h0Z"/>
      <path class="cls-9" d="M282.41,30.83h0C282.34,30.84,282.37,30.84,282.41,30.83Z"/>
      <path class="cls-9" d="M283.58,31.36l-.13.05S283.45,31.46,283.58,31.36Z"/>
      <polygon class="cls-9" points="281.49 29.89 281.49 29.89 281.49 29.88 281.49 29.89"/>
      <path class="cls-9" d="M283.43,31.37c0,.05,0,.05,0,0S283.47,31.36,283.43,31.37Z"/>
      <path class="cls-9" d="M285.82,34.2h0l0,0Z"/>
      <path class="cls-9" d="M285.85,34.18l0,0S285.86,34.15,285.85,34.18Z"/>
      <path class="cls-9" d="M285.94,34.12l-.07,0S285.89,34.18,285.94,34.12Z"/>
      <path class="cls-9" d="M285.64,33.91l-.06.07Z"/>
      <path class="cls-9" d="M285.55,33.87s-.09.21,0,.18l.05-.07C285.47,34.09,285.67,33.75,285.55,33.87Z"/>
      <path class="cls-9" d="M286.05,32.66v.11c.06-.09.14-.21.18-.21C286.37,32.25,286.09,32.76,286.05,32.66Z"/>
      <path class="cls-9" d="M286,32.4c.06,0,.1-.12.14-.17A.33.33,0,0,0,286,32.4Z"/>
      <path class="cls-9" d="M284.88,31.29l.2-.17C285,31.13,285,31.19,284.88,31.29Z"/>
      <polygon class="cls-9" points="283.67 31.89 283.57 32.02 283.76 31.88 283.67 31.89"/>
      <polygon class="cls-9" points="284.98 30.6 285.01 30.59 284.91 30.61 284.98 30.6"/>
      <path class="cls-9" d="M283.56,28.5l-.28.14C283.34,28.64,283.66,28.49,283.56,28.5Z"/>
      <path class="cls-9" d="M282.83,27.59c.14-.06.23-.13.07-.09C282.89,27.53,282.79,27.59,282.83,27.59Z"/>
      <polygon class="cls-9" points="282.61 24.24 282.71 24.25 282.62 24.22 282.61 24.24"/>
    </g>
    <g>
      <path class="cls-9" d="M289.32,33c.07-.06.2-.2.16-.19l-.25.22Z"/>
      <path class="cls-9" d="M289.65,32.44a3.42,3.42,0,0,0-.57.49c.25-.2.16-.11.45-.35.05,0,0,.11-.14.19.07-.06,0,.08.13-.06s.15-.24,0-.12A1.1,1.1,0,0,1,289.65,32.44Z"/>
      <path class="cls-9" d="M288.68,30.39l0,0Z"/>
      <path class="cls-9" d="M288.18,29.14a.07.07,0,0,0,.07,0Z"/>
      <path class="cls-9" d="M288.41,28.79v0S288.44,28.78,288.41,28.79Z"/>
      <path class="cls-9" d="M288.68,30.39l.07-.09C288.66,30.36,288.69,30.36,288.68,30.39Z"/>
      <path class="cls-9" d="M288.85,32.75a.25.25,0,0,0,.08,0h0Z"/>
      <path class="cls-9" d="M289.23,30.72h0l.11-.07Z"/>
      <path class="cls-9" d="M289.54,31a2.11,2.11,0,0,0-.32.23.46.46,0,0,1,.16-.1Z"/>
      <path class="cls-9" d="M289.62,31.9l0,0Z"/>
      <path class="cls-9" d="M289.1,30.43l.08-.06Z"/>
      <path class="cls-9" d="M286.39,17.71l0,0A.06.06,0,0,0,286.39,17.71Z"/>
      <polygon class="cls-9" points="287.88 17.85 287.89 17.86 288.02 17.95 287.88 17.85"/>
      <path class="cls-9" d="M288.59,28.28h0S288.61,28.27,288.59,28.28Z"/>
      <path class="cls-9" d="M287.52,24.84c-.25.07-.33,0-.6.05A2.2,2.2,0,0,0,287.52,24.84Z"/>
      <path class="cls-9" d="M288.87,32.71h0S288.86,32.72,288.87,32.71Z"/>
      <path class="cls-9" d="M286.92,24.89h0Z"/>
      <path class="cls-9" d="M288.11,27.49l-.11.05Z"/>
      <path class="cls-9" d="M288,28.28l0,0S288,28.27,288,28.28Z"/>
      <path class="cls-9" d="M287.62,27.28s.05,0,0,0l0,0S287.66,27.25,287.62,27.28Z"/>
      <path class="cls-9" d="M287.52,26.91l0,0h0Z"/>
      <path class="cls-9" d="M286,19l.25.07C286,19,286,18.93,286,19Z"/>
      <path class="cls-9" d="M289,32.64l-.1.07h0Z"/>
      <path class="cls-9" d="M285.49,27.9l0-.08A.08.08,0,0,0,285.49,27.9Z"/>
      <path class="cls-9" d="M285.25,22.1l0,0S285.22,22.09,285.25,22.1Z"/>
      <path class="cls-9" d="M285.41,27.62a.41.41,0,0,0,.18-.09l-.07,0Z"/>
      <path class="cls-9" d="M286.21,19.08Z"/>
      <path class="cls-9" d="M285.76,18.4c0,.06.33.16.52.26s-.27-.07-.45-.12c.07.09.37.25.34.28a.58.58,0,0,1-.15-.06c.25.16,0,.16.28.34l-.09,0c.18.05.35.12.48.17s.19.13,0,.06c0,0-.07,0-.14-.09l.09.07c-.34-.1-.1-.08-.34-.17.08.09.33.25.22.26-.33-.1-.07-.14-.38-.18l.15,0c-.52-.14.05,0-.5-.18-.13.05.12.16,0,.21.17.09.27.09.44.17.28.24-.84-.17-.44.07.21.1.61.24.37.23l-.35-.14c-.07.08.51.22.23.24s-.1-.11-.15-.11c-.3,0,.2.11.18.15l-.32-.09c0,.11.22.28.25.4a1,1,0,0,0-.3-.08c.12.18-.12.27-.35.35l.28.12a.52.52,0,0,1-.19,0c-.12,0,.18,0,.29.1s-.17,0-.26-.05c.23.15.47.37.14.4l-.08,0c-.13.05.57.2.29.21l0,0c-.16.13.07.35-.38.4.42.09-.21.13.37.23a1.72,1.72,0,0,0-.61.1s.36.1.41.15l-.3,0,.31.09h-.37l.07,0a.56.56,0,0,1,.23,0c.13.07-.23.12-.39.11l.24.17a.68.68,0,0,1-.24-.07c.31.11-.32,0-.05.08l.25,0c-.19,0-.2.11-.12.17l-.21,0c-.06.1.09.24.07.36a1.16,1.16,0,0,1,.51,0h-.33c.2,0,.12,0,.37,0,0,.05-.37,0-.48,0l.11.06-.27,0c.2,0-.33.08,0,.13h-.1c0,.13.1.19.11.29a2.18,2.18,0,0,1,.44.08c-.09.07-.31.15-.28.24s.24,0,.41.05c-.26,0-.24.09-.42,0,0,.1.05.13.26.26a1.06,1.06,0,0,1,.24,0s-.1.05-.23.05h0c.38.13-.75.38-.2.48h0l.29.11c0,.06-.2,0-.35,0,.44.1,0,.22.25.31-.74.16.08.3-.38.47l.17,0c.18,0-.1.05-.13.08.13,0,.15-.06.25,0,.24.23-.18.56-.29.86,0,.11.91-.11.52.08l-.33,0c.41.12.06.4.44.51-.08,0-.18,0-.18,0-.22.1,0,.15.21.1,0,0-.17,0-.26.09s.32,0,.1.11h-.1c.12,0,0,.13.26,0-.11.1.16.1,0,.19.31,0-.11.16.31.06-.43.11-.32.22-.1.2-.13,0-.12.08-.31.11,0,.05.12.07.34,0-.49.25.47,0-.17.31a2.1,2.1,0,0,1,.62.24c-.42.14-.09-.13-.53,0,.22.07.6,0,.54.16s-.19.05-.26.07c.21.05.05.25.32.26a.42.42,0,0,1-.12,0s0,.07.15,0h-.06a4.28,4.28,0,0,1,.76-.21c-.56.19-.1.16-.81.39a.72.72,0,0,0,.27-.08.58.58,0,0,1-.25.11c.13,0,.32-.08.34,0s-.13,0-.24.08c.19,0,.39-.09.33,0s-.12.06-.13,0,.54,0,.42.14c-.41.15-.12.09-.45.26h.13l.15-.1c0,.05.28,0,.2.07l-.16,0,.11.06.1-.12c.2,0,.42-.21.36-.1s0,0-.16.17h0c.12,0,.25-.07.18,0s-.37.18-.44.22c.29-.12.14.08.45-.05a2.4,2.4,0,0,0-.28.14l.23-.1a.69.69,0,0,1-.23.15c0,.09.41-.24.27-.07a.29.29,0,0,1-.1,0c-.05.13.22.07.15.21-.32.2-.11,0-.38.16.12.07.51,0,.5.13l0,0c.46-.26-.18.21.07.13,0,0-.27.13-.21.11s.2.06.4.07l-.12.06c-.08.11,0,.14,0,.22A.83.83,0,0,0,288,31c-.56.56.49,0,0,.48a.26.26,0,0,0-.12,0l.18,0a1.23,1.23,0,0,0,.23-.22c.12-.07.23-.1.24-.08a1.22,1.22,0,0,0-.39.31l.18-.13c-.29.29.38-.26.21,0l-.1.07c.07,0,.21-.09.2,0-.2.17-.11.05-.29.18,0,0,.46-.23.27,0-.07,0-.09,0-.16,0-.22.22-.16.18-.17.24h0l-.06.15.05-.07c.58-.38.17,0,.58-.2-.39.21-.21.14-.45.33a.68.68,0,0,1-.18.2c.22-.13-.11.17.2,0-.07.06,0,0-.17.18.09,0,.12-.12.22-.19.3-.15-.19.4.23.18.2,0,.46-.26.64-.31a.94.94,0,0,1-.28.22c-.08.13,0,.14.08.1a.85.85,0,0,0-.19.19s.28-.23.2-.1l-.31.24c.09,0,.25-.12.35-.15a1.18,1.18,0,0,1-.3.22.61.61,0,0,0,.4-.18l.05-.09a1.26,1.26,0,0,1-.2.19c-.18.11,0-.11.09-.18l.07,0c.39-.41-.15,0-.17-.09l.33-.27-.3.19a1.35,1.35,0,0,1,.3-.26c.13-.17-.13.07,0-.11a.23.23,0,0,1,.05-.05l-.12.05c.07-.05.21-.2.19-.14.13-.21-.32.12-.1-.11h0c-.18,0-.24.2-.56.37l.53-.52-.24.19s0-.05.11-.13c-.19.11-.1.1-.27.21.18-.22-.19,0,.18-.35-.19.14-.11.16-.26.21.39-.34-.11,0,.05-.18s.13,0,.29-.22c-.37.27,0-.13-.07-.1-.28.22-.16,0-.3,0,.1-.07.09-.22.16-.34l.05,0c-.3.21-.29.12-.37.13a1.48,1.48,0,0,1,.34-.21l0,0a.64.64,0,0,1-.21.09l.23-.15c-.05,0-.34.1-.22-.07a3.36,3.36,0,0,1-.74.49,1.87,1.87,0,0,1,.36-.23s-.11,0-.06,0l.2-.11c.07-.08-.17.1-.16.06.16-.11.1-.09.24-.18s-.06.07,0,0a.64.64,0,0,1,.21-.23c-.09.06-.22.15-.25.14s.18-.15.25-.23c-.12.07,0,0-.27.12,0,0,.11-.09.17-.14-.12.05-.1-.09-.35.11h0c-.3.07,0-.26-.12-.27l.08-.05c-.13,0-.12-.07-.33,0a1.06,1.06,0,0,1,.24-.18c-.08,0-.19.06-.07-.08s.12-.09.13,0c0-.09.18-.18-.09-.1.23-.11.26-.19.19-.18l-.15.12s0,0,0-.07l.3-.15c.31-.29-.7.15-.14-.24-.22.08-.11.13-.37.23a4.86,4.86,0,0,1,.41-.34c.13-.15-.46.16-.38,0a1.62,1.62,0,0,1-.51.21,1.24,1.24,0,0,1,.52-.29s0,0-.06,0a.29.29,0,0,0,.21-.08l-.11.05c.1-.08.06-.13.24-.2a.34.34,0,0,0-.23.12c.13-.13,0-.09,0-.2a.7.7,0,0,1-.18.09c.09-.15-.22.06-.3,0,.15-.11.4-.17.24-.17a.85.85,0,0,1,.37-.16c-.23,0,.1-.17.12-.21h.1c-.05,0-.06,0-.06,0l-.22.11a.25.25,0,0,1,.12-.09c-.15,0-.36.17-.57.22.11-.07-.14,0,.14-.15-.07.11.29-.13.36-.09s0,0,0-.05l.08,0c.23-.18-.34.11-.37,0,.17-.06.31-.14.27-.14a1,1,0,0,1-.41.15c.11-.1-.11,0-.11,0l-.05,0c-.17.06-.15,0-.22,0,.13-.05.1,0,.15,0-.3.08.27-.2,0-.17.1-.07.31-.12.38-.17-.24,0,.2-.15,0-.14a.84.84,0,0,1-.4.12l.19,0-.34.06s.16,0,.13.05a.71.71,0,0,0-.32.1c.32-.17-.22,0,0-.14l.55-.21c.23-.15-.33,0-.22-.16l-.08.06c-.23.07-.05,0-.15,0a2.64,2.64,0,0,0,.36-.16c-.14.05,0-.07-.39.05l.23-.13c.08-.1-.56.09-.52,0a2.86,2.86,0,0,1,.5-.11s0-.06-.11,0c.11-.05-.28,0-.11-.06-.09,0-.29.07-.28,0l.09,0a1.15,1.15,0,0,0-.34.08c.57-.25-.1-.21.4-.42a.62.62,0,0,1-.19-.13c.06,0,.1,0,.08,0,.16-.11-.56.09-.38,0s.18,0,.29-.05c.63-.16-.11-.07.24-.21h0c.21-.09-.26,0-.23-.11l.1,0a1,1,0,0,1-.57-.09,1.67,1.67,0,0,0,.39-.06s-.4.09-.48,0a2.84,2.84,0,0,1,.51-.16l0,.05c.34-.1,0-.07,0-.11l.15,0c-.06-.07-.45,0-.44-.09l-.11,0c-.39,0,.21-.08-.09-.08l.39-.08a2.4,2.4,0,0,1-.48-.1,4.73,4.73,0,0,1,.63,0s0-.1-.24-.08c0,0,.14,0,.08,0-.31,0-.47,0-.48-.09.76-.1.16-.2.75-.32-.29-.07.1-.23.05-.35-.59.1,0,0-.63,0,0,0,0,0,0-.05l.36-.12c.17,0,.14,0,.27,0s.26-.05.42-.1c-.22,0-.32,0-.24,0l-.28.07c-.33-.06.51-.11.18-.18l.19,0c-.12,0,0-.17-.5-.19a1.47,1.47,0,0,1,.28,0c.08-.11-.52-.23-.22-.32h.15s-.28,0-.13-.06a.68.68,0,0,0,.15,0c-.05,0-.26-.05-.17-.08l.17,0c.19-.11-.42-.17-.52-.26a1.17,1.17,0,0,0,.65-.12h.06c.07-.12-.35-.22-.51-.35.48-.05.21-.24.49-.34a1.12,1.12,0,0,1-.39-.05c.09,0-.3-.1.1-.06h0c.4,0,.3-.05.31-.09l-.52-.06c.78,0-.24-.34.45-.32-.12,0-.12-.07-.25-.12l.28,0c.09-.06.13-.1.07-.2l.2.05c0-.05-.8-.2-.81-.25l.42.06c0-.1.39-.12,0-.29.06,0,.18,0,.19.06s.32-.1-.25-.21c.37.08,0-.08-.1-.17l.27.07c-.34-.12-.43-.14-.51-.23s.22,0,.14,0c.16,0-.25-.09-.09-.12l.17.06s-.06-.06-.26-.13.09-.08.34,0c-.15,0-.34-.12-.27-.13a.51.51,0,0,1,.18.06c.2,0-.28-.21,0-.19l.16,0c0,.06-.05.11-.07.1a3.94,3.94,0,0,1,.64.16c-.18-.09-.56-.27-.43-.28h.09l0,0s0,0,0,0h.09c.2.05.13,0,.14-.05a2.52,2.52,0,0,0-.45-.14s0,0,0,0l0,0h0s0,0,0,.07-.24-.12-.08-.1l-.42-.17c.38.08.61.08.84.14-.13-.12-.05-.21-.53-.43-.06,0,.15,0,.23,0s0,.05.11.08c-.12-.09,0-.15-.36-.28.18,0,.31.14.28,0l.1.05c.61.07-.78-.57,0-.46l-.13,0c.39-.06-.13-.53.44-.48.12,0-.09-.11-.23-.22l.28.12-.29-.21c-.19-.19.73.2.35-.11l-.19-.08c.05,0-.05-.16.15-.05,0,0-.18-.11-.08-.07l.14.07-.19-.21c.13,0,.54.31.62.23a2.37,2.37,0,0,0-.45-.36s-.11,0-.25-.09l-.05-.07a4.5,4.5,0,0,0-1.13-.58l.21.21-.2-.09v-.06c-.2-.08,0,0,.06.12a.82.82,0,0,0-.24-.09l.36.27c-.16-.08-.3-.2-.41-.2.17.12.37.16.47.27-.2-.07-.35-.16-.21,0a.7.7,0,0,1-.21-.13c.11.1,0,.11.22.24-.25-.08,0,.14-.39-.06a1.3,1.3,0,0,1,.29.25c-.45-.29-.09.09-.59-.17.41.25.12.24.32.42,0,0-.1-.06-.07-.06s-.2,0-.29,0a3.73,3.73,0,0,1,.62.4,7.41,7.41,0,0,1-.75-.35c.29.13.26.22.51.3a1.79,1.79,0,0,1-.43-.12c.45.2.06.07.33.22-.25,0-.43-.16-.32,0A.75.75,0,0,1,285.76,18.4Zm.28,1.76h0v0Zm0,.12a.08.08,0,0,0,0-.05.56.56,0,0,1,.19.06A.7.7,0,0,0,286,20.28Zm1.95.29s0,0-.08,0l0,0h0Z"/>
      <path class="cls-9" d="M287.61,20.44h-.08l.08,0Z"/>
      <path class="cls-9" d="M288.65,30.43h0l0,0Z"/>
      <polygon class="cls-9" points="285.14 21.94 285.21 21.95 285.15 21.93 285.14 21.94"/>
      <path class="cls-9" d="M288.23,31.52s0,0-.05.05Z"/>
      <path class="cls-9" d="M288.37,31.8l-.06.09A.43.43,0,0,0,288.37,31.8Z"/>
      <path class="cls-9" d="M288.4,32.07l.09-.07h0Z"/>
      <path class="cls-9" d="M286.23,29h0C286.16,29,286.18,29,286.23,29Z"/>
      <path class="cls-9" d="M287.28,29.73l-.13,0S287.14,29.8,287.28,29.73Z"/>
      <polygon class="cls-9" points="285.49 27.91 285.49 27.91 285.49 27.9 285.49 27.91"/>
      <path class="cls-9" d="M287.13,29.71s0,.05,0,.05S287.18,29.71,287.13,29.71Z"/>
      <path class="cls-9" d="M289,32.92v0l0,0Z"/>
      <path class="cls-9" d="M289,32.91l0,0Z"/>
      <path class="cls-9" d="M289.11,32.86l-.07,0S289.05,32.92,289.11,32.86Z"/>
      <path class="cls-9" d="M288.86,32.6l-.08.07Z"/>
      <path class="cls-9" d="M288.77,32.55s-.12.19,0,.17l.06,0C288.66,32.76,288.92,32.45,288.77,32.55Z"/>
      <path class="cls-9" d="M289.48,31.45l0,.11c.08-.08.18-.18.22-.18C289.87,31.11,289.5,31.55,289.48,31.45Z"/>
      <path class="cls-9" d="M289.47,31.18c.06,0,.12-.1.17-.13A.31.31,0,0,0,289.47,31.18Z"/>
      <path class="cls-9" d="M288.58,29.89l.22-.13C288.75,29.76,288.72,29.81,288.58,29.89Z"/>
      <polygon class="cls-9" points="287.28 30.27 287.15 30.37 287.37 30.27 287.28 30.27"/>
      <polygon class="cls-9" points="288.79 29.23 288.83 29.23 288.73 29.23 288.79 29.23"/>
      <path class="cls-9" d="M287.77,26.91l-.3.09C287.53,27,287.87,26.91,287.77,26.91Z"/>
      <path class="cls-9" d="M287.22,25.89c.15,0,.25-.09.09-.08S287.18,25.88,287.22,25.89Z"/>
      <polygon class="cls-9" points="287.6 22.55 287.7 22.58 287.62 22.53 287.6 22.55"/>
    </g>
    <g>
      <path class="cls-9" d="M294.39,33.14c.07-.06.2-.2.16-.19l-.25.22Z"/>
      <path class="cls-9" d="M294.72,32.59a3.06,3.06,0,0,0-.56.49c.24-.2.15-.1.44-.35,0,0,0,.11-.13.19s0,.08.13-.06.14-.23,0-.12Z"/>
      <path class="cls-9" d="M293.76,30.54l0,0Z"/>
      <path class="cls-9" d="M293.26,29.3l.07,0A.08.08,0,0,0,293.26,29.3Z"/>
      <path class="cls-9" d="M293.49,28.94l0,0S293.51,28.93,293.49,28.94Z"/>
      <path class="cls-9" d="M293.76,30.54l.06-.09C293.73,30.51,293.77,30.51,293.76,30.54Z"/>
      <path class="cls-9" d="M293.92,32.9l.08,0h0Z"/>
      <path class="cls-9" d="M294.3,30.87h0l.11-.07Z"/>
      <path class="cls-9" d="M294.61,31.19s-.22.16-.32.23a.71.71,0,0,1,.17-.1Z"/>
      <path class="cls-9" d="M294.69,32.05h0Z"/>
      <path class="cls-9" d="M294.17,30.58l.08-.06Z"/>
      <path class="cls-9" d="M291.46,17.86l.05,0Z"/>
      <polygon class="cls-9" points="292.95 18 292.96 18.02 293.1 18.1 292.95 18"/>
      <path class="cls-9" d="M293.66,28.43Z"/>
      <path class="cls-9" d="M292.59,25c-.25.06-.33,0-.6.05A3.38,3.38,0,0,0,292.59,25Z"/>
      <path class="cls-9" d="M293.94,32.87l0,0S293.93,32.87,293.94,32.87Z"/>
      <path class="cls-9" d="M292,25.05Z"/>
      <path class="cls-9" d="M293.18,27.65l-.11.05Z"/>
      <path class="cls-9" d="M293,28.43l0,0Z"/>
      <path class="cls-9" d="M292.69,27.43s.05,0,0,0h0S292.73,27.41,292.69,27.43Z"/>
      <path class="cls-9" d="M292.59,27.06l0,0h0Z"/>
      <path class="cls-9" d="M291,19.16l.25.07C291.09,19.17,291.05,19.08,291,19.16Z"/>
      <path class="cls-9" d="M294,32.79l-.1.08h0Z"/>
      <path class="cls-9" d="M290.56,28.05l0-.08A.09.09,0,0,0,290.56,28.05Z"/>
      <path class="cls-9" d="M290.33,22.25l0,0S290.3,22.25,290.33,22.25Z"/>
      <path class="cls-9" d="M290.49,27.78l.17-.09h-.07Z"/>
      <path class="cls-9" d="M291.28,19.23Z"/>
      <path class="cls-9" d="M290.84,18.55c0,.06.32.17.51.26s-.27-.07-.45-.11c.07.08.37.25.34.27l-.15,0c.26.15,0,.15.28.34l-.09,0,.48.17s.2.13,0,.06c0,0-.08-.05-.15-.08l.09.06c-.34-.1-.1-.08-.34-.17.08.1.33.26.22.27-.32-.11-.07-.14-.37-.19l.14,0c-.52-.13.06,0-.5-.18-.13.06.12.16,0,.22.18.08.27.08.44.17s-.84-.18-.44.06c.21.1.61.24.38.24l-.36-.14c-.07.07.51.22.23.23s-.1-.11-.14-.11c-.31,0,.19.11.18.15l-.33-.09c0,.11.22.29.25.41a1,1,0,0,0-.3-.09c.12.18-.12.27-.34.36l.27.12a.42.42,0,0,1-.19,0c-.12,0,.18.05.29.1s-.17,0-.25,0c.22.15.46.37.14.4l-.08,0c-.14.05.57.2.28.21l0,0c-.16.13.06.35-.39.4.42.09-.2.13.38.23-.31.05-.41,0-.62.11,0,0,.36.1.41.15l-.3,0,.31.1-.37,0,.08.05a.78.78,0,0,1,.22,0c.13.08-.23.12-.39.11l.24.18a.76.76,0,0,1-.23-.08c.3.11-.33,0-.05.09a.93.93,0,0,1,.24,0c-.19,0-.19.1-.12.17l-.21,0c-.06.11.09.24.08.37a1,1,0,0,1,.5,0h-.33c.2,0,.13,0,.37,0a1,1,0,0,1-.48,0l.11.07-.27,0c.2,0-.33.08,0,.13h-.1c0,.13.1.19.11.29a2.18,2.18,0,0,1,.44.08c-.08.07-.3.16-.28.25s.24,0,.41,0c-.26,0-.23.1-.42.05,0,.11.06.14.27.27a.66.66,0,0,1,.23,0s-.1.06-.23.06h0c.39.13-.74.38-.2.48h0l.29.1c0,.06-.2,0-.35,0,.44.11,0,.22.25.31-.74.16.09.3-.38.47l.17,0c.18,0-.09.05-.13.08.13,0,.15-.05.25,0,.24.22-.17.55-.29.85,0,.11.92-.11.52.09l-.33,0c.42.12.06.4.44.52a1.74,1.74,0,0,1-.18,0c-.22.09,0,.14.22.1,0,0-.17,0-.27.09s.33,0,.1.1h-.1c.12,0,0,.12.27,0-.11.1.15.1,0,.2.31-.05-.11.16.31,0-.43.12-.32.22-.1.2-.13,0-.12.08-.31.12,0,.05.12.07.34,0-.48.25.48.05-.17.31a2.31,2.31,0,0,1,.63.24c-.43.15-.09-.13-.54,0,.22.06.61,0,.54.15s-.18.06-.26.07c.21.06.06.25.33.27l-.13,0s0,.07.15,0h-.06a4.28,4.28,0,0,1,.76-.21c-.56.19-.09.16-.8.39a.69.69,0,0,0,.26-.08.46.46,0,0,1-.25.12c.13,0,.32-.08.35,0s-.14,0-.25.08c.2,0,.39-.08.34,0s-.13.06-.14,0,.54,0,.42.13c-.41.15-.11.1-.45.26h.13l.15-.1c0,.05.29,0,.2.07l-.16,0,.11.06.1-.11c.2,0,.42-.22.36-.11s0,.05-.16.17h0c.12,0,.24-.06.17,0s-.37.19-.43.23c.29-.12.13.07.44-.06l-.28.14.23-.1a.68.68,0,0,1-.23.16c0,.08.41-.25.27-.07l-.1,0c-.05.12.22.07.15.2-.31.21-.11,0-.37.16.11.08.5,0,.49.13l0,0c.47-.26-.18.21.07.13,0,0-.26.14-.21.11s.2.07.4.08l-.12.06c-.08.1,0,.14,0,.21s.12,0,.27-.15c-.56.56.5,0,.05.49,0,0-.12,0-.11,0l.17,0a3,3,0,0,0,.24-.21c.12-.07.22-.11.24-.09a1.12,1.12,0,0,0-.39.31l.18-.12c-.3.29.38-.27.2,0l-.1.07c.07,0,.21-.09.21,0-.21.18-.12,0-.3.18,0,0,.46-.23.27,0-.07,0-.09,0-.16,0-.22.23-.15.18-.17.24h0l-.06.16.05-.07c.59-.39.18,0,.58-.21-.38.21-.2.15-.44.33a1.16,1.16,0,0,1-.18.2c.21-.12-.11.17.2,0-.08.06,0,0-.18.19.09,0,.12-.12.22-.2.3-.15-.19.4.23.18.2,0,.46-.26.64-.31a1.06,1.06,0,0,1-.28.23c-.08.12,0,.13.08.09a1.13,1.13,0,0,0-.19.19s.28-.22.2-.09l-.31.24c.1,0,.26-.12.35-.15a2,2,0,0,1-.3.22.68.68,0,0,0,.41-.19l0-.09s-.16.17-.2.19,0-.11.1-.17l.06,0c.4-.42-.15,0-.16-.1l.32-.26-.3.19a1.07,1.07,0,0,1,.31-.27c.12-.17-.14.07,0-.11l.05-.05-.12.06c.07-.06.22-.2.19-.15.13-.21-.31.13-.09-.1h0c-.18,0-.24.19-.56.37l.54-.53-.24.19s0-.05.1-.12c-.19.11-.1.09-.26.2.17-.21-.19,0,.17-.34-.19.13-.11.15-.26.21.39-.35-.11,0,.05-.18s.13,0,.29-.22c-.37.26,0-.14-.06-.11-.29.22-.17,0-.31.05.1-.07.09-.22.16-.34l.05,0c-.3.21-.28.12-.37.13a2,2,0,0,1,.35-.21l0,0a.47.47,0,0,1-.21.09l.23-.15s-.33.1-.22-.06a3.67,3.67,0,0,1-.74.48,3.26,3.26,0,0,1,.36-.23s-.1,0-.06,0l.21-.1c.06-.09-.17.09-.17.06.16-.11.11-.1.24-.19s-.06.07,0,0a.64.64,0,0,1,.21-.23.93.93,0,0,1-.25.15s.18-.15.25-.24c-.12.07,0,0-.27.12l.17-.14c-.12.05-.1-.09-.34.11l0,0h0c-.3.08,0-.26-.12-.27l.08,0c-.12,0-.12-.07-.33,0a.79.79,0,0,1,.24-.18c-.08,0-.18.05-.07-.08s.12-.09.13,0,.18-.18-.08-.1c.23-.1.26-.19.18-.17l-.14.12s0,0,0-.08l.29-.15c.31-.28-.69.16-.14-.24-.21.09-.11.13-.37.24,0-.07.42-.34.41-.35s-.46.16-.38,0a1.53,1.53,0,0,1-.51.21,1.61,1.61,0,0,1,.52-.29s0,0-.05.05a.44.44,0,0,0,.2-.08l-.11,0c.1-.07.06-.13.24-.2a.33.33,0,0,0-.22.12c.12-.13-.05-.09,0-.2a.69.69,0,0,1-.18.1c.1-.16-.22.05-.29,0,.14-.11.39-.17.23-.17a1.14,1.14,0,0,1,.38-.16c-.23,0,.09-.16.12-.21h.1c-.06,0-.07,0-.07,0l-.21.11s0-.05.11-.09a5.48,5.48,0,0,1-.56.22c.1-.07-.15,0,.13-.15-.06.12.29-.13.36-.09s0,0,0,0l.08,0c.23-.18-.34.11-.36,0,.16-.05.3-.14.26-.14s-.27.13-.4.15c.1-.09-.12,0-.12,0l-.05.06a.27.27,0,0,1-.22,0c.13-.06.1,0,.15,0-.3.08.27-.2.05-.18.11-.06.31-.12.38-.17-.24,0,.21-.14,0-.13a.93.93,0,0,1-.4.12l.19,0-.34.06s.16,0,.13,0a.92.92,0,0,0-.32.1c.32-.16-.22,0,0-.14l.55-.2c.23-.16-.32,0-.21-.17l-.09.07c-.23.06-.05,0-.15,0a2.31,2.31,0,0,0,.36-.15c-.14,0,0-.07-.39,0l.24-.12c.07-.11-.57.08-.53,0a3,3,0,0,1,.5-.12s0,0-.11,0c.11-.05-.28,0-.11-.07-.08,0-.28.07-.28,0l.1,0a1.67,1.67,0,0,0-.35.08c.58-.25-.1-.21.4-.42a.33.33,0,0,1-.18-.13h.07c.16-.11-.56.1-.38,0s.18,0,.29-.06c.63-.16-.11-.07.25-.21h0c.2-.09-.27,0-.24-.12l.1,0a.86.86,0,0,1-.56-.09,1.26,1.26,0,0,0,.38-.06s-.4.09-.48.05a2.68,2.68,0,0,1,.51-.17l0,.05c.34-.1,0-.07,0-.11l.15,0c-.06-.07-.45,0-.43-.1l-.12,0c-.39,0,.21-.08-.08-.08l.38-.08a2,2,0,0,1-.48-.1,3.44,3.44,0,0,1,.64.05s0-.1-.25-.09c0,0,.14,0,.08,0-.31,0-.47,0-.47-.09.75-.1.16-.19.75-.32-.3-.07.09-.23,0-.35-.59.11,0,0-.63,0,0,0,0,0,0,0l.35-.13c.18,0,.14,0,.27,0s.26-.05.42-.11c-.22,0-.32,0-.24,0l-.27.08c-.34-.07.5-.12.17-.19l.2,0c-.12,0,0-.17-.5-.19a.9.9,0,0,1,.28,0c.07-.11-.53-.23-.23-.33h.15s-.28,0-.13-.06h.16c-.06,0-.27-.05-.18-.08l.17,0c.19-.11-.41-.16-.52-.26a1.17,1.17,0,0,0,.65-.12h.07c.06-.12-.35-.22-.52-.35.48,0,.21-.24.49-.33a1.18,1.18,0,0,1-.39-.06c.09,0-.3-.1.1-.06h0c.39,0,.29-.05.31-.09l-.53-.06c.78,0-.24-.34.45-.32-.12,0-.12-.08-.24-.13l.28,0c.08-.06.12-.09.06-.2l.2.05s-.79-.19-.8-.25l.41.06c0-.1.4-.12,0-.28a.53.53,0,0,1,.19.06c0-.05.32-.11-.25-.21.37.07.06-.09-.1-.18l.27.07c-.33-.12-.43-.14-.51-.22s.22,0,.15,0c.15,0-.25-.1-.1-.13l.17.07c0-.05-.06-.06-.26-.14s.09-.08.34,0c-.15-.05-.34-.13-.26-.14a1,1,0,0,1,.17.06c.2,0-.28-.2,0-.19l.16,0c0,.06-.05.11-.07.1a2.86,2.86,0,0,1,.64.15c-.18-.08-.56-.26-.43-.28l.09,0h0s0,0,0,0l.09,0c.21.05.13,0,.15,0a2,2,0,0,0-.45-.13,0,0,0,0,1,0,0s0,0,0,0h0a.09.09,0,0,1,0,.07c-.13-.06-.24-.11-.08-.1l-.42-.16c.39.07.61.07.84.13-.12-.12,0-.21-.53-.42-.06-.05.15,0,.23,0s0,0,.11.07c-.12-.09,0-.15-.36-.28.18,0,.31.14.28.05l.1,0c.62.07-.78-.57,0-.46l-.12,0c.38-.05-.14-.52.43-.48.13,0-.08-.11-.23-.22l.28.12-.29-.2c-.19-.2.73.2.35-.11l-.19-.08c.05,0-.05-.17.15,0,0,0-.18-.12-.08-.08l.14.07-.19-.21c.13,0,.54.31.62.24a1.86,1.86,0,0,0-.45-.37s-.11,0-.24-.09L293,18a4.43,4.43,0,0,0-1.13-.57l.22.2-.21-.09V17.5c-.2-.07,0,0,.06.12l-.23-.09.35.27c-.16-.07-.3-.2-.41-.2.17.13.37.17.47.28-.2-.07-.35-.16-.21,0a.68.68,0,0,1-.21-.14c.11.1,0,.12.22.25-.25-.09,0,.13-.38-.07.09.06.28.21.28.25-.45-.29-.08.1-.59-.17.41.25.12.24.32.42,0,0-.1-.06-.07-.05a1.17,1.17,0,0,1-.29,0,3.73,3.73,0,0,1,.62.4,5.6,5.6,0,0,1-.74-.35c.29.13.25.22.5.31a2.17,2.17,0,0,1-.42-.12c.44.2.06.07.32.22-.24,0-.43-.17-.32-.05A.68.68,0,0,1,290.84,18.55Zm.27,1.76h0v0Zm0,.13a.13.13,0,0,0,0-.05c.09,0,.19.05.18.06A.48.48,0,0,0,291.08,20.44Zm1.95.29s0,0-.08,0,0,0,0,0h0Z"/>
      <path class="cls-9" d="M292.68,20.59h-.08l.08,0Z"/>
      <path class="cls-9" d="M293.73,30.58h0l0,0Z"/>
      <polygon class="cls-9" points="290.21 22.09 290.28 22.1 290.22 22.08 290.21 22.09"/>
      <path class="cls-9" d="M293.31,31.67l-.06,0Z"/>
      <path class="cls-9" d="M293.44,32l-.06.1A.41.41,0,0,0,293.44,32Z"/>
      <path class="cls-9" d="M293.47,32.22l.1-.07h0Z"/>
      <path class="cls-9" d="M291.3,29.15h0Z"/>
      <path class="cls-9" d="M292.36,29.88l-.14,0S292.21,30,292.36,29.88Z"/>
      <polygon class="cls-9" points="290.56 28.06 290.56 28.06 290.56 28.05 290.56 28.06"/>
      <path class="cls-9" d="M292.2,29.86c0,.05,0,.06,0,.05S292.25,29.86,292.2,29.86Z"/>
      <path class="cls-9" d="M294.05,33.07v0l0,0Z"/>
      <path class="cls-9" d="M294.08,33.06h0S294.1,33,294.08,33.06Z"/>
      <path class="cls-9" d="M294.18,33l-.07,0S294.12,33.07,294.18,33Z"/>
      <path class="cls-9" d="M293.93,32.76l-.08.06Z"/>
      <path class="cls-9" d="M293.85,32.71s-.13.18-.06.16l.06,0C293.73,32.91,294,32.61,293.85,32.71Z"/>
      <path class="cls-9" d="M294.55,31.61l0,.1c.08-.08.18-.18.22-.17C294.94,31.26,294.58,31.71,294.55,31.61Z"/>
      <path class="cls-9" d="M294.54,31.33c.06,0,.12-.09.17-.13A.31.31,0,0,0,294.54,31.33Z"/>
      <path class="cls-9" d="M293.65,30l.22-.12S293.79,30,293.65,30Z"/>
      <polygon class="cls-9" points="292.35 30.42 292.23 30.52 292.44 30.42 292.35 30.42"/>
      <polygon class="cls-9" points="293.87 29.39 293.9 29.38 293.8 29.39 293.87 29.39"/>
      <path class="cls-9" d="M292.85,27.06l-.3.09C292.6,27.16,293,27.07,292.85,27.06Z"/>
      <path class="cls-9" d="M292.29,26c.15,0,.25-.09.09-.08C292.37,26,292.25,26,292.29,26Z"/>
      <polygon class="cls-9" points="292.67 22.7 292.78 22.73 292.69 22.68 292.67 22.7"/>
    </g>
    <ellipse class="cls-10" cx="269.15" cy="34.22" rx="1.61" ry="0.61"/>
    <rect class="cls-11" x="239.95" y="54.69" width="80.39" height="6.76" transform="translate(40.99 215.1) rotate(-45)"/>
    <rect class="cls-11" x="238.41" y="56.12" width="80.39" height="6.76" transform="translate(123.67 -179.58) rotate(45)"/>
  </g>
</svg>
