<svg id="Layer_1" data-name="Layer 1" xmlns="http://www.w3.org/2000/svg" width="725.93" height="604.64" viewBox="0 0 725.93 604.64">
  <defs>
    <style>
      .cls-1 {
        fill: #d00500;
      }
    </style>
  </defs>
  <g>
    <path class="cls-1" d="M408.56,604.14a196.69,196.69,0,0,1-22.6-1.28c-63.53-7.35-120.76-48.48-171.26-84.76-44.83-32.21-87.16-62.64-125.35-62.64a66.94,66.94,0,0,0-30.08,7c-14.93,7.32-29.21,18.86-39.64,27.29-8.37,6.76-15,12.11-17.89,12.11a1.26,1.26,0,0,1-.91-.31c-1.74-1.66,3.26-8.45,10.17-17.85,15.54-21.11,41.54-56.45,48-103.72,3.67-26.88-.69-43.95-6.2-65.55-2.31-9.05-4.7-18.41-6.8-29.61C39.44,249.89,38,209.05,42,172.7c5-45.6,18.49-83.48,38.85-109.53C114.3,20.41,171.11.5,259.67.5c41.89,0,84.74,4.25,126.18,8.36l1.06.1c88.47,8.77,158.35,15.7,225.26,70.29,12,9.8,117.25,99.42,113.14,226.59-1.23,38.05-12,76.22-32,113.45-18.37,34.17-44.62,67.07-75.92,95.13-62.67,56.18-140.72,89.72-208.8,89.72Z"/>
    <path d="M259.67,1c41.86,0,84.7,4.25,126.13,8.36l1.06.1c88.39,8.76,158.2,15.68,225,70.18,12,9.78,117.06,99.25,112.95,226.19-1.22,38-12,76.06-31.94,113.22-18.34,34.12-44.56,67-75.82,95-62.58,56.11-140.52,89.6-208.49,89.6A198.06,198.06,0,0,1,386,602.37c-63.4-7.34-120.58-48.43-171-84.68-23-16.5-44.66-32.09-65.51-43.65C126,461,106.89,455,89.35,455a68.34,68.34,0,0,0-30.3,7c-15,7.34-29.29,18.91-39.74,27.35-8,6.44-14.84,12-17.57,12a.76.76,0,0,1-.56-.17c-1.43-1.36,4.5-9.41,10.22-17.19C27,462.8,53,427.39,59.48,380c3.68-27-.69-44.09-6.22-65.75-2.31-9-4.69-18.39-6.79-29.57-6.53-34.83-8-75.63-3.94-111.92,5-45.51,18.44-83.3,38.75-109.28,18.2-23.29,43.22-39.58,76.48-49.8C185.52,5.15,218.85,1,259.67,1m0-1C187.05,0,119.48,13,80.49,62.86c-45.66,58.42-46.56,160.35-35,222,7.15,38.12,18.17,57.05,13,95-9.63,70.66-64.2,116.09-58,122a1.76,1.76,0,0,0,1.25.45c6.91,0,30.85-26.27,57.75-39.45A66.8,66.8,0,0,1,89.35,456c80.61,0,176,133.46,296.55,147.4a197.28,197.28,0,0,0,22.66,1.28c139.89,0,312.12-140,317.25-298.78C730,177.38,623.12,87.53,612.49,78.86,545.19,24,475.07,17.2,385.9,8.36,345.17,4.32,301.57,0,259.67,0Z"/>
  </g>
  <g>
    <path d="M106.11,61.91h9.74c8.07,0,13.65,5.63,13.65,14.45s-5.46,15-13.69,15h-9.7Zm2.26,27.3h7.1c7.77,0,11.6-5.46,11.6-12.72,0-6.47-3.45-12.48-11.6-12.48h-7.1Z"/>
    <path d="M150.88,85.18c0,2.06,0,5.34,0,6.13h-2a31.76,31.76,0,0,1-.13-3.65c-.88,2.48-3,4.16-6.76,4.16-3,0-6.89-1.18-6.89-7.61V70.31h2.06v13.4c0,3.07,1,6.05,5.12,6.05,4.71,0,6.47-2.65,6.47-8.65V70.31h2.1Z"/>
    <path d="M170.79,60.35V73.84a7.32,7.32,0,0,1,6.93-4c3,0,7.1,1.51,7.1,8.15V91.31h-2.1V78.38c0-4.16-1.89-6.51-5.38-6.51-4.16,0-6.55,2.56-6.55,7.72V91.31h-2.1v-31Z"/>
    <path d="M205.86,87.32a24.79,24.79,0,0,0,.29,4h-2a14.1,14.1,0,0,1-.37-3.23c-.72,1.55-2.57,3.74-6.89,3.74-4.88,0-7-3.15-7-6.3,0-4.62,3.57-6.72,9.88-6.72h4V76.65c0-2.1-.63-4.91-5.42-4.91-4.25,0-4.88,2.23-5.34,4h-2.1c.25-2.31,1.68-5.88,7.48-5.88,4.79,0,7.48,2,7.48,6.63ZM203.8,80.6h-4.12c-4.66,0-7.56,1.22-7.56,4.83,0,2.65,1.89,4.46,4.83,4.46,6,0,6.85-4,6.85-8.53Z"/>
    <path d="M212.78,76c0-3.52,0-5,0-5.71h2.06c0,.67.08,2,.08,4.71a8,8,0,0,1,7.31-5.21v2.27c-4.37.29-7.31,3.31-7.31,8.31V91.31h-2.1Z"/>
    <path d="M237.14,69.89c.47-3.4,2.9-6.72,8.11-6.72S253,66.57,253,70.1a5.78,5.78,0,0,1-3.86,5.8V76c2.94.88,5.12,3.15,5.12,7.19,0,4.66-2.94,8.65-9.07,8.65-5.63,0-8.45-3.66-8.95-7.35h2.18a6.74,6.74,0,0,0,6.93,5.33c4.75,0,6.6-3.19,6.6-6.55,0-4.41-2.9-6.18-7-6.18h-1.64V75.14h1.3c4.2,0,6.09-1.76,6.09-5,0-2.9-2-4.91-5.54-4.91s-5.25,1.93-5.93,4.7Z"/>
    <path d="M276.8,77.28c0,6.35-1.64,14.54-9,14.54-7.18,0-9-7.52-9-14.33s1.94-14.32,9.12-14.32S276.8,70.73,276.8,77.28Zm-15.67.26c0,5.37,1.13,12.26,6.63,12.26s6.73-6.59,6.73-12.52c0-5.29-1.1-12.09-6.56-12.09C262.22,65.19,261.13,71.4,261.13,77.54Z"/>
    <path d="M293.47,85.52c.71,2.73,2.64,4.37,6,4.37,3.74,0,5.25-1.73,5.25-4.08s-1-3.57-5.71-4.7c-5.42-1.31-6.76-2.94-6.76-5.72s2.18-5.58,6.93-5.58,7,2.9,7.35,5.88h-2.1c-.38-1.77-1.77-4-5.34-4s-4.7,1.8-4.7,3.49c0,1.93,1,2.89,5.17,3.9,5.92,1.43,7.39,3.36,7.39,6.51,0,3.83-3.11,6.18-7.52,6.18-4.79,0-7.48-2.52-8.07-6.3Z"/>
    <path d="M312.57,81.06c.05,5.42,2.78,8.78,6.81,8.78a5.92,5.92,0,0,0,6.05-3.94h2.14a8.05,8.05,0,0,1-8.27,5.92c-6.39,0-8.87-5.5-8.87-10.84,0-6,3-11.17,9.12-11.17,6.47,0,8.53,5.58,8.53,9.53,0,.59,0,1.18-.05,1.72Zm13.32-1.84c0-4.16-2.31-7.44-6.43-7.44-4.32,0-6.3,3-6.76,7.44Z"/>
    <path d="M335.47,81.15c1.93-2.06,7.81-8,10.62-10.84h2.69l-8.32,8.36,9.37,12.64h-2.6L339,80l-3.48,3.37v7.93h-2.11v-31h2.11Z"/>
    <path d="M367.81,85.18c0,2.06,0,5.34,0,6.13h-2a35.28,35.28,0,0,1-.12-3.65c-.89,2.48-3,4.16-6.77,4.16-3,0-6.89-1.18-6.89-7.61V70.31h2.06v13.4c0,3.07,1,6.05,5.13,6.05,4.7,0,6.47-2.65,6.47-8.65V70.31h2.1Z"/>
    <path d="M374.69,75.6c0-1.85,0-3.61,0-5.29h2.06c.08.67.12,3.4.08,4,.93-2.14,2.65-4.49,7-4.49,3.73,0,7.05,2.1,7.05,7.89V91.31h-2.1V78c0-3.74-1.55-6.17-5.21-6.17-5,0-6.72,4.15-6.72,8.73V91.31h-2.1Z"/>
    <path d="M413.92,60.35V85.27c0,2,0,3.94,0,6h-2c-.09-.5-.13-2.47-.13-3.52-1.05,2.56-3.4,4-7.05,4-5.47,0-8.74-4.45-8.74-10.76,0-6.46,3.57-11.25,9.28-11.25,4.2,0,5.88,1.8,6.51,3.15V60.35ZM398.25,81c0,5.76,3,8.86,6.6,8.86,5.54,0,7.06-3.82,7.06-9.53,0-5.42-1.31-8.53-6.68-8.53C401.07,71.78,398.25,75.1,398.25,81Z"/>
    <path d="M421.27,81.06c0,5.42,2.77,8.78,6.8,8.78a5.91,5.91,0,0,0,6.05-3.94h2.15A8.06,8.06,0,0,1,428,91.82c-6.38,0-8.86-5.5-8.86-10.84,0-6,3-11.17,9.11-11.17,6.47,0,8.53,5.58,8.53,9.53,0,.59,0,1.18,0,1.72Zm13.32-1.84c0-4.16-2.31-7.44-6.43-7.44-4.33,0-6.3,3-6.76,7.44Z"/>
    <path d="M441.89,76c0-3.52,0-5,0-5.71h2.06c0,.67.08,2,.08,4.71a8,8,0,0,1,7.31-5.21v2.27c-4.37.29-7.31,3.31-7.31,8.31V91.31h-2.1Z"/>
    <path d="M463.27,70.31h3.91V63.76h2.1v6.55h5v2h-5V85.94c0,2.35.5,3.69,2.52,3.69a7.9,7.9,0,0,0,2.18-.25v1.85a7.44,7.44,0,0,1-2.6.38c-2.69,0-4.2-1.35-4.2-4.71V72.29h-3.91Z"/>
    <path d="M478.56,60.35h2.1v4.08h-2.1Zm0,10h2.1v21h-2.1Z"/>
    <path d="M487.54,91.31v-31h2.1v31Z"/>
    <path d="M521.86,87.32a24.79,24.79,0,0,0,.29,4h-2a13.31,13.31,0,0,1-.38-3.23c-.71,1.55-2.56,3.74-6.89,3.74-4.87,0-7-3.15-7-6.3,0-4.62,3.57-6.72,9.87-6.72h4V76.65c0-2.1-.63-4.91-5.42-4.91-4.24,0-4.87,2.23-5.33,4h-2.1c.25-2.31,1.68-5.88,7.47-5.88,4.79,0,7.48,2,7.48,6.63ZM519.8,80.6h-4.12c-4.66,0-7.56,1.22-7.56,4.83,0,2.65,1.89,4.46,4.83,4.46,6,0,6.85-4,6.85-8.53Z"/>
    <path d="M525.43,70.31h3.9V63.76h2.1v6.55h5v2h-5V85.94c0,2.35.51,3.69,2.52,3.69a8,8,0,0,0,2.19-.25v1.85a7.49,7.49,0,0,1-2.61.38c-2.68,0-4.2-1.35-4.2-4.71V72.29h-3.9Z"/>
    <path d="M105.43,135.92c.72,2.73,2.65,4.37,6,4.37,3.74,0,5.25-1.73,5.25-4.08s-1-3.57-5.71-4.7c-5.42-1.31-6.77-2.94-6.77-5.72s2.19-5.58,6.93-5.58,7,2.89,7.36,5.88h-2.1c-.38-1.77-1.77-4-5.34-4s-4.7,1.8-4.7,3.48c0,1.94,1,2.9,5.16,3.91,5.93,1.43,7.4,3.36,7.4,6.51,0,3.83-3.11,6.18-7.52,6.18-4.79,0-7.48-2.52-8.07-6.3Z"/>
    <path d="M120.81,120.71h3.9v-6.55h2.1v6.55h5v2h-5v13.66c0,2.35.51,3.69,2.52,3.69a8,8,0,0,0,2.19-.25v1.85a7.53,7.53,0,0,1-2.61.38c-2.69,0-4.2-1.35-4.2-4.71V122.68h-3.9Z"/>
    <path d="M152.85,131.17c0,5.84-3.23,11.05-9.49,11.05-5.67,0-9.2-4.67-9.2-11,0-6,3.32-11,9.41-11C149.16,120.21,152.85,124.58,152.85,131.17Zm-16.46,0c0,5,2.68,9,7.14,9s7.1-3.74,7.1-9c0-5-2.52-9-7.19-9S136.39,126.17,136.39,131.21Z"/>
    <path d="M160.16,138.61v11.51h-2.1V125.88c0-1.73,0-3.57,0-5.17h2c.09.8.09,2.06.09,3.78a7.71,7.71,0,0,1,7.39-4.28c5,0,8.4,4.16,8.4,10.46,0,7.56-4,11.55-9.11,11.55C163.14,142.22,161.21,140.58,160.16,138.61Zm13.57-7.86c0-4.87-2.36-8.53-6.51-8.53-5.09,0-7.19,3.2-7.19,8.91s1.64,9.11,6.89,9.11C171.29,140.24,173.73,136.55,173.73,130.75Z"/>
    <path d="M183.3,138.61v11.51h-2.1V125.88c0-1.73,0-3.57,0-5.17h2.06c.08.8.08,2.06.08,3.78a7.71,7.71,0,0,1,7.39-4.28c5,0,8.41,4.16,8.41,10.46,0,7.56-4,11.55-9.12,11.55C186.28,142.22,184.35,140.58,183.3,138.61Zm13.57-7.86c0-4.87-2.35-8.53-6.51-8.53-5.08,0-7.19,3.2-7.19,8.91s1.64,9.11,6.89,9.11C194.43,140.24,196.87,136.55,196.87,130.75Z"/>
    <path d="M205.06,131.46c0,5.42,2.77,8.78,6.8,8.78a5.91,5.91,0,0,0,6-4h2.14a8,8,0,0,1-8.27,5.93c-6.39,0-8.87-5.51-8.87-10.84,0-6,3-11.17,9.12-11.17,6.47,0,8.53,5.58,8.53,9.53,0,.59,0,1.18-.05,1.72Zm13.31-1.84c0-4.16-2.31-7.44-6.42-7.44-4.33,0-6.31,3-6.77,7.44Z"/>
    <path d="M241,141.71v-25a18.62,18.62,0,0,1-6.22,3.23v-2a22.86,22.86,0,0,0,6.59-4.12h1.81v27.85Z"/>
    <path d="M266.38,116.13H254.49c-.29,2.73-1.13,7.94-1.47,9.66a7.57,7.57,0,0,1,6.34-2.73c4.79,0,8.19,3.24,8.19,9.16,0,5.42-2.77,10-8.94,10A8.29,8.29,0,0,1,250,135h2.23a6.39,6.39,0,0,0,6.55,5.21c4.37,0,6.56-3.07,6.56-7.85,0-4-1.77-7.23-6.05-7.23-3.87,0-5.46,1.6-6.68,4.2l-2.1-.59c.88-3.69,1.85-11.38,2.22-14.66h14Z"/>
    <path d="M286.11,131.55c1.94-2.06,7.82-8,10.63-10.84h2.69l-8.32,8.36,9.37,12.64h-2.6l-8.28-11.3-3.49,3.36v7.94H284v-31h2.1Z"/>
    <path d="M318.46,135.58c0,2.06,0,5.34,0,6.13h-2a35.28,35.28,0,0,1-.12-3.65c-.89,2.48-3,4.16-6.77,4.16-3,0-6.89-1.18-6.89-7.61v-13.9h2.06v13.4c0,3.07,1,6,5.13,6,4.7,0,6.47-2.65,6.47-8.65v-10.8h2.1Z"/>
    <path d="M325.34,126c0-1.85,0-3.61,0-5.29h2.06c.08.67.12,3.4.08,4,.93-2.14,2.65-4.49,7-4.49,3.73,0,7.05,2.1,7.05,7.89v13.61h-2.1V128.44c0-3.74-1.55-6.18-5.21-6.18-5,0-6.72,4.16-6.72,8.74v10.71h-2.1Z"/>
    <path d="M364.57,110.75v24.92c0,2,0,3.94,0,6h-2c-.09-.5-.13-2.47-.13-3.52-1.05,2.56-3.4,4-7.06,4-5.46,0-8.73-4.45-8.73-10.76,0-6.46,3.57-11.25,9.28-11.25,4.2,0,5.88,1.8,6.51,3.15V110.75ZM348.9,131.38c0,5.75,3,8.86,6.6,8.86,5.54,0,7.06-3.82,7.06-9.53,0-5.42-1.31-8.53-6.68-8.53C351.72,122.18,348.9,125.5,348.9,131.38Z"/>
    <path d="M371.92,131.46c0,5.42,2.77,8.78,6.8,8.78a5.9,5.9,0,0,0,6-4h2.15a8.06,8.06,0,0,1-8.28,5.93c-6.38,0-8.86-5.51-8.86-10.84,0-6,3-11.17,9.11-11.17,6.47,0,8.53,5.58,8.53,9.53,0,.59,0,1.18,0,1.72Zm13.32-1.84c-.05-4.16-2.31-7.44-6.43-7.44-4.33,0-6.3,3-6.76,7.44Z"/>
    <path d="M392.54,126.42c0-3.53,0-5,0-5.71h2.06c0,.67.08,2,.08,4.71a7.94,7.94,0,0,1,7.31-5.21v2.26c-4.37.3-7.31,3.32-7.31,8.32v10.92h-2.1Z"/>
    <path d="M432.78,135.58c0,2.06,0,5.34,0,6.13h-2a35.28,35.28,0,0,1-.12-3.65c-.88,2.48-3,4.16-6.76,4.16-3,0-6.89-1.18-6.89-7.61v-13.9h2.05v13.4c0,3.07,1,6,5.13,6,4.7,0,6.47-2.65,6.47-8.65v-10.8h2.1Z"/>
    <path d="M455.88,110.75v24.92c0,2,0,3.94,0,6h-2c-.09-.5-.13-2.47-.13-3.52-1,2.56-3.4,4-7.06,4-5.46,0-8.74-4.45-8.74-10.76,0-6.46,3.57-11.25,9.29-11.25,4.2,0,5.88,1.8,6.51,3.15V110.75Zm-15.67,20.63c0,5.75,3,8.86,6.6,8.86,5.54,0,7.05-3.82,7.05-9.53,0-5.42-1.3-8.53-6.68-8.53C443,122.18,440.21,125.5,440.21,131.38Z"/>
    <path d="M463.23,131.46c0,5.42,2.77,8.78,6.8,8.78a5.91,5.91,0,0,0,6.05-4h2.14a8,8,0,0,1-8.27,5.93c-6.39,0-8.87-5.51-8.87-10.84,0-6,3-11.17,9.12-11.17,6.47,0,8.53,5.58,8.53,9.53,0,.59,0,1.18-.05,1.72Zm13.31-1.84c0-4.16-2.31-7.44-6.43-7.44-4.32,0-6.3,3-6.76,7.44Z"/>
    <path d="M483.85,126c0-1.85,0-3.61,0-5.29h2.05c.09.67.13,3.4.09,4,.92-2.14,2.64-4.49,7-4.49,3.74,0,7.06,2.1,7.06,7.89v13.61h-2.1V128.44c0-3.74-1.56-6.18-5.21-6.18-5,0-6.72,4.16-6.72,8.74v10.71h-2.1Z"/>
    <path d="M105.43,176.53c0-1.81,0-3.78,0-5.42h2.06c0,.71.13,2.52.08,3.74a6.58,6.58,0,0,1,6.3-4.24,6,6,0,0,1,6.1,4.16,7.14,7.14,0,0,1,6.84-4.16c3.24,0,6.6,1.85,6.6,7.68v13.82h-2.1V178.55c0-2.82-1-5.88-4.92-5.88-4.07,0-5.92,3.27-5.92,7.35v12.09h-2.06V178.59c0-3.07-.92-5.92-4.79-5.92-4.07,0-6,3.61-6,7.89v11.55h-2.1Z"/>
    <path d="M154.41,188.12a24.79,24.79,0,0,0,.29,4h-2a13.31,13.31,0,0,1-.38-3.23c-.72,1.55-2.57,3.74-6.89,3.74-4.87,0-7-3.15-7-6.3,0-4.62,3.57-6.72,9.87-6.72h4v-2.15c0-2.1-.63-4.91-5.42-4.91-4.24,0-4.87,2.23-5.34,4h-2.1c.26-2.31,1.68-5.88,7.48-5.88,4.79,0,7.48,2,7.48,6.63Zm-2.06-6.72h-4.12c-4.66,0-7.56,1.22-7.56,4.83,0,2.65,1.89,4.46,4.83,4.46,6,0,6.85-4,6.85-8.53Z"/>
    <path d="M161.13,186.32c.71,2.73,2.64,4.37,6,4.37,3.74,0,5.25-1.73,5.25-4.08s-1-3.57-5.71-4.7c-5.42-1.31-6.76-2.94-6.76-5.72s2.18-5.58,6.93-5.58,7,2.89,7.35,5.88h-2.1c-.38-1.77-1.77-4-5.34-4s-4.7,1.8-4.7,3.49c0,1.93,1,2.89,5.17,3.9,5.92,1.43,7.39,3.36,7.39,6.51,0,3.83-3.11,6.18-7.52,6.18-4.79,0-7.48-2.52-8.07-6.3Z"/>
    <path d="M181.54,182c1.93-2.06,7.81-8,10.63-10.84h2.68l-8.31,8.36,9.36,12.64h-2.6L185,180.81l-3.48,3.36v7.94h-2.1v-31h2.1Z"/>
    <path d="M199.3,181.86c0,5.42,2.77,8.78,6.81,8.78a5.92,5.92,0,0,0,6-3.94h2.14a8.05,8.05,0,0,1-8.28,5.92c-6.38,0-8.86-5.5-8.86-10.84,0-6,3-11.17,9.12-11.17,6.46,0,8.52,5.58,8.52,9.53,0,.59,0,1.18,0,1.72ZM212.62,180c0-4.16-2.31-7.44-6.43-7.44-4.33,0-6.3,3-6.76,7.44Z"/>
    <path d="M222.86,182.7l-.2-14.78v-5.21H225v5.21l-.21,14.78Zm-.16,9.46v-5h2.14v5Z"/>
    <path d="M246.59,183.75c.7,3.11,2.89,4.59,6.55,4.59s5.31-1.6,5.31-3.93c0-2.56-1.41-3.79-6.67-5-7.54-1.79-9.64-4.49-9.64-8.46,0-4.81,3.58-8.28,10.32-8.28,7.44,0,10.44,4.1,10.84,8.2h-5.5c-.38-2.06-1.58-4.07-5.5-4.07-2.88,0-4.58,1.24-4.58,3.55s1.38,3.17,6.21,4.3c8.39,2,10.11,5.18,10.11,9.15,0,5.09-3.83,8.74-11.31,8.74s-11-3.76-11.65-8.76Z"/>
    <path d="M266,170.52h3.47v-6h5.22v6h4.41v4h-4.41v11.32c0,1.8.5,2.58,2.34,2.58a9.52,9.52,0,0,0,1.54-.1V192a12.49,12.49,0,0,1-3.75.41c-3.93,0-5.35-2.08-5.35-5.8V174.53H266Z"/>
    <path d="M302.12,181.28c0,6.42-3.79,11.34-10.55,11.34-6.53,0-10.38-4.78-10.38-11.24S285.1,170,291.84,170C298.07,170,302.12,174.5,302.12,181.28Zm-15.61,0c0,4.35,2,7.14,5.2,7.14s5.09-2.73,5.09-7.11c0-4.64-1.84-7.18-5.18-7.18S286.51,176.63,286.51,181.32Z"/>
    <path d="M311.68,190v10.51h-5.19V175.75c0-1.75,0-3.51-.05-5.23h5.07a28.12,28.12,0,0,1,.17,2.93c1-1.79,3-3.43,6.54-3.43,4.89,0,8.6,4.1,8.6,10.75,0,7.65-4.18,11.85-9.41,11.85C314.22,192.62,312.55,191.36,311.68,190Zm9.83-9c0-4.16-1.77-6.7-4.9-6.7-3.75,0-5.15,2.4-5.15,7,0,4.45,1.23,7.09,4.89,7.09C319.78,188.41,321.51,185.68,321.51,181Z"/>
    <path d="M336.37,190v10.51h-5.19V175.75c0-1.75,0-3.51,0-5.23h5.06a25.6,25.6,0,0,1,.17,2.93c1-1.79,3-3.43,6.54-3.43,4.9,0,8.61,4.1,8.61,10.75,0,7.65-4.18,11.85-9.41,11.85C338.91,192.62,337.25,191.36,336.37,190Zm9.83-9c0-4.16-1.76-6.7-4.89-6.7-3.76,0-5.15,2.4-5.15,7,0,4.45,1.23,7.09,4.89,7.09C344.47,188.41,346.2,185.68,346.2,181Z"/>
    <path d="M360,182.39c0,3.27,1.65,6.07,4.86,6.07,2.8,0,3.64-1.25,4.25-2.65h5.24c-.8,2.69-3.14,6.81-9.63,6.81-7,0-10-5.39-10-11,0-6.65,3.4-11.58,10.21-11.58,7.26,0,9.7,5.44,9.7,10.56a14.72,14.72,0,0,1-.07,1.81Zm9.4-3.32c0-2.86-1.31-5.22-4.49-5.22s-4.5,2.2-4.79,5.22Z"/>
    <path d="M379.06,176.38c0-2.44,0-4.27,0-5.86h5.12c.07.53.14,2.52.14,4,1-2.62,3.41-4.45,7.05-4.5v5c-4.37,0-7.05,1.53-7.05,7.29v9.77h-5.22Z"/>
    <path d="M424.54,161.39v24.73c0,2,0,4,0,6h-5c-.11-.62-.21-1.91-.24-2.52-1.05,1.88-3,3-6.35,3-5.49,0-8.94-4.42-8.94-11.11S407.71,170,413.78,170c3.35,0,5,1.24,5.54,2.29V161.39Zm-15.14,20c0,4.55,1.92,7,5,7,4.42,0,5.11-3.53,5.11-7.18,0-4.07-.68-6.94-4.91-6.94C411.25,174.26,409.4,176.9,409.4,181.37Z"/>
    <path d="M448.62,185.83c0,2.09,0,4.57.05,6.28h-5.11c-.09-.57-.13-1.78-.16-2.74-1.2,2.25-3.17,3.25-6.14,3.25-4.15,0-7.19-2.39-7.19-8V170.52h5.21v13c0,2.53.79,4.72,3.71,4.72,3.15,0,4.41-1.7,4.41-6.35V170.52h5.22Z"/>
    <path d="M464.65,161.39h5.23v5.11h-5.23Zm0,9.13h5.23v21.59h-5.23Z"/>
    <path d="M480.8,180c1.66-2.14,5.16-6.05,8.12-9.51H495l-7.73,8.24,8.51,13.35h-6l-6.07-10-2.92,2.83v7.17h-5.23V161.39h5.23Z"/>
    <path d="M503.43,180c1.67-2.14,5.17-6.05,8.13-9.51h6l-7.72,8.24,8.51,13.35h-6l-6.07-10-2.93,2.83v7.17h-5.22V161.39h5.22Z"/>
    <path d="M524.25,182.39c0,3.27,1.66,6.07,4.86,6.07,2.8,0,3.65-1.25,4.26-2.65h5.23c-.79,2.69-3.14,6.81-9.63,6.81-7,0-10-5.39-10-11,0-6.65,3.39-11.58,10.2-11.58,7.27,0,9.71,5.44,9.71,10.56a14.72,14.72,0,0,1-.07,1.81Zm9.4-3.32c0-2.86-1.31-5.22-4.48-5.22s-4.51,2.2-4.79,5.22Z"/>
    <path d="M110.81,212a56.29,56.29,0,0,0-1.92,12h-5.28a36,36,0,0,1,3.22-12Zm8.46,0a49.43,49.43,0,0,0-1.92,12h-5.28a34.23,34.23,0,0,1,3.26-12Z"/>
    <path d="M128.84,230.43c1.67-2.14,5.16-6.05,8.13-9.51h6l-7.73,8.24,8.52,13.35h-6l-6.06-10-2.93,2.83v7.17h-5.22V211.79h5.22Z"/>
    <path d="M164,237.23a41.9,41.9,0,0,0,.3,5.28h-5a9.37,9.37,0,0,1-.32-2.35c-.78,1.29-2.33,2.86-6.27,2.86-5.17,0-7.36-3.39-7.36-6.71,0-4.89,3.89-7.14,10.25-7.14h3.29v-1.49c0-1.66-.57-3.44-3.77-3.44-2.89,0-3.46,1.31-3.78,2.91h-5c.31-3.54,2.5-6.76,9-6.73,5.61,0,8.68,2.25,8.68,7.31Zm-5.09-4.78h-2.79c-3.84,0-5.5,1.13-5.5,3.54,0,1.79,1.15,3.21,3.48,3.21,4.26,0,4.81-2.93,4.81-6.14Z"/>
    <path d="M169.78,226.78c0-2.44,0-4.27-.05-5.86h5.12c.08.53.15,2.52.15,4,1-2.62,3.4-4.45,7-4.5v5c-4.37,0-7,1.53-7,7.29v9.77h-5.22Z"/>
    <path d="M189.27,232.79c0,3.27,1.65,6.08,4.86,6.08,2.8,0,3.64-1.26,4.25-2.66h5.23c-.79,2.69-3.13,6.81-9.63,6.81-7,0-10-5.39-10-11,0-6.65,3.4-11.58,10.21-11.58,7.26,0,9.7,5.44,9.7,10.56a14.72,14.72,0,0,1-.07,1.81Zm9.39-3.32c0-2.86-1.3-5.22-4.48-5.22s-4.5,2.2-4.79,5.22Z"/>
    <path d="M208.32,226.36c0-1.85,0-3.82,0-5.44h5.06c.11.59.18,2.34.2,3,.78-1.52,2.53-3.52,6.44-3.52,4.24,0,7.18,2.78,7.18,8.31v13.78h-5.22V229.33c0-2.71-1-4.62-3.83-4.62-3.05,0-4.57,2-4.57,6v11.83h-5.22Z"/>
    <path d="M230.82,223.78a48.87,48.87,0,0,0,1.92-12H238a34.39,34.39,0,0,1-3.26,12Zm8.47,0a57.41,57.41,0,0,0,1.92-12h5.28a35.86,35.86,0,0,1-3.23,12Z"/>
    <path d="M259,220.92h3.46v-6h5.22v6h4.41v4h-4.41v11.32c0,1.8.51,2.58,2.35,2.58a9.4,9.4,0,0,0,1.53-.1v3.67a12.42,12.42,0,0,1-3.75.41c-3.92,0-5.35-2.08-5.35-5.8V224.93H259Z"/>
    <path d="M293,237.23a41.9,41.9,0,0,0,.3,5.28h-5a9.37,9.37,0,0,1-.32-2.35c-.78,1.29-2.33,2.86-6.27,2.86-5.17,0-7.36-3.39-7.36-6.71,0-4.89,3.89-7.14,10.25-7.14h3.29v-1.49c0-1.66-.57-3.44-3.77-3.44-2.89,0-3.46,1.31-3.78,2.91h-5c.31-3.54,2.5-6.76,8.95-6.73,5.61,0,8.68,2.25,8.68,7.31Zm-5.09-4.78h-2.79c-3.84,0-5.5,1.13-5.5,3.54,0,1.79,1.15,3.21,3.48,3.21,4.27,0,4.81-2.93,4.81-6.14Z"/>
    <path d="M298.76,211.79H304v11.69c.92-1.54,2.77-3.06,6.42-3.06,5.72,0,8.81,4.72,8.81,10.9S316,243,309.82,243c-3.29,0-4.84-1.08-5.9-2.82a14.28,14.28,0,0,1-.2,2.31h-5c.05-2.36.05-4.76.05-7.12Zm15.13,19.63c0-4-1.6-6.76-5-6.76-3.81,0-5.16,2.51-5.16,7.16,0,3.93,1.2,7,5,7C312.08,238.81,313.89,235.9,313.89,231.42Z"/>
    <path d="M327.74,232.79c0,3.27,1.65,6.08,4.86,6.08,2.8,0,3.64-1.26,4.25-2.66h5.24c-.8,2.69-3.14,6.81-9.64,6.81-7,0-10-5.39-10-11,0-6.65,3.4-11.58,10.21-11.58,7.26,0,9.7,5.44,9.7,10.56a14.72,14.72,0,0,1-.07,1.81Zm9.4-3.32c-.05-2.86-1.31-5.22-4.49-5.22s-4.5,2.2-4.79,5.22Z"/>
    <path d="M346.76,226.78c0-2.44,0-4.27,0-5.86h5.12c.07.53.14,2.52.14,4,1-2.62,3.41-4.45,7-4.5v5c-4.37,0-7,1.53-7,7.29v9.77h-5.22Z"/>
    <path d="M392.24,211.79v24.73c0,2,0,4,0,6h-5c-.11-.62-.21-1.91-.24-2.52-1,1.88-3,3-6.35,3-5.49,0-8.95-4.42-8.95-11.11s3.69-11.49,9.76-11.49c3.35,0,5,1.25,5.54,2.29V211.79Zm-15.14,20c0,4.55,1.92,7,5,7,4.42,0,5.11-3.53,5.11-7.18,0-4.07-.68-6.94-4.91-6.94C379,224.66,377.1,227.3,377.1,231.77Z"/>
    <path d="M416.32,236.23c0,2.09,0,4.57,0,6.28h-5.1c-.09-.57-.13-1.78-.16-2.74C409.89,242,407.93,243,405,243c-4.15,0-7.19-2.39-7.19-8V220.92H403V234c0,2.53.79,4.72,3.71,4.72,3.15,0,4.41-1.7,4.41-6.35V220.92h5.22Z"/>
    <path d="M424.51,232.25l-.68-13.73v-5.06h5.58v5.09l-.65,13.7ZM424,242.53V236h5.14v6.56Z"/>
    <path d="M105.43,287.12c.72,2.73,2.65,4.37,6,4.37,3.74,0,5.25-1.73,5.25-4.08s-1-3.57-5.71-4.7c-5.42-1.31-6.77-2.94-6.77-5.72s2.19-5.58,6.93-5.58,7,2.89,7.36,5.88h-2.1c-.38-1.77-1.77-4-5.34-4s-4.7,1.8-4.7,3.49c0,1.93,1,2.89,5.16,3.9,5.93,1.43,7.4,3.36,7.4,6.51,0,3.83-3.11,6.18-7.52,6.18-4.79,0-7.48-2.52-8.07-6.3Z"/>
    <path d="M120.81,271.91h3.9v-6.55h2.1v6.55h5v2h-5v13.66c0,2.35.51,3.69,2.52,3.69a8,8,0,0,0,2.19-.25v1.85a7.53,7.53,0,0,1-2.61.38c-2.69,0-4.2-1.35-4.2-4.71V273.88h-3.9Z"/>
    <path d="M152.85,282.37c0,5.84-3.23,11.05-9.49,11.05-5.67,0-9.2-4.67-9.2-11,0-6,3.32-11,9.41-11C149.16,271.41,152.85,275.78,152.85,282.37Zm-16.46,0c0,5,2.68,9,7.14,9s7.1-3.73,7.1-9c0-5-2.52-9-7.19-9S136.39,277.37,136.39,282.41Z"/>
    <path d="M160.16,289.81v11.51h-2.1V277.08c0-1.73,0-3.57,0-5.17h2c.09.8.09,2.06.09,3.78a7.71,7.71,0,0,1,7.39-4.28c5,0,8.4,4.16,8.4,10.46,0,7.56-4,11.55-9.11,11.55C163.14,293.42,161.21,291.78,160.16,289.81ZM173.73,282c0-4.87-2.36-8.53-6.51-8.53-5.09,0-7.19,3.2-7.19,8.91s1.64,9.11,6.89,9.11C171.29,291.44,173.73,287.75,173.73,282Z"/>
    <path d="M183.3,289.81v11.51h-2.1V277.08c0-1.73,0-3.57,0-5.17h2.06c.08.8.08,2.06.08,3.78a7.71,7.71,0,0,1,7.39-4.28c5,0,8.41,4.16,8.41,10.46,0,7.56-4,11.55-9.12,11.55C186.28,293.42,184.35,291.78,183.3,289.81ZM196.87,282c0-4.87-2.35-8.53-6.51-8.53-5.08,0-7.19,3.2-7.19,8.91s1.64,9.11,6.89,9.11C194.43,291.44,196.87,287.75,196.87,282Z"/>
    <path d="M205.06,282.66c0,5.42,2.77,8.78,6.8,8.78a5.92,5.92,0,0,0,6-3.94h2.14a8.05,8.05,0,0,1-8.27,5.92c-6.39,0-8.87-5.5-8.87-10.84,0-6,3-11.17,9.12-11.17,6.47,0,8.53,5.58,8.53,9.53,0,.59,0,1.18-.05,1.72Zm13.31-1.84c0-4.16-2.31-7.44-6.42-7.44-4.33,0-6.31,3-6.77,7.44Z"/>
    <path d="M222.86,271.91h3.91v-6.55h2.1v6.55h5v2h-5v13.66c0,2.35.5,3.69,2.52,3.69a7.9,7.9,0,0,0,2.18-.25v1.85a7.44,7.44,0,0,1-2.6.38c-2.69,0-4.2-1.35-4.2-4.71V273.88h-3.91Z"/>
    <path d="M251.17,282.75c1.93-2.06,7.82-8,10.63-10.84h2.69l-8.32,8.36,9.37,12.64h-2.61l-8.27-11.3L251.17,285v7.94h-2.1V262h2.1Z"/>
    <path d="M283.51,286.78c0,2.06.05,5.34.05,6.13h-2a31.76,31.76,0,0,1-.13-3.65c-.88,2.48-3,4.16-6.76,4.16-3,0-6.89-1.18-6.89-7.61v-13.9h2.06v13.4c0,3.07,1,6.05,5.12,6.05,4.71,0,6.47-2.65,6.47-8.65v-10.8h2.1Z"/>
    <path d="M290.4,277.2c0-1.85,0-3.61,0-5.29h2.05c.09.67.13,3.4.09,4,.92-2.14,2.65-4.49,7-4.49,3.74,0,7.06,2.1,7.06,7.89v13.61h-2.1V279.64c0-3.74-1.56-6.18-5.21-6.18-5,0-6.72,4.16-6.72,8.74v10.71h-2.1Z"/>
    <path d="M329.63,262v24.92c0,2,0,3.94,0,6h-2c-.09-.5-.13-2.47-.13-3.52-1,2.56-3.4,4-7.06,4-5.46,0-8.74-4.45-8.74-10.76,0-6.46,3.57-11.25,9.29-11.25,4.2,0,5.88,1.8,6.51,3.15V262ZM314,282.58c0,5.75,3,8.86,6.6,8.86,5.54,0,7.05-3.82,7.05-9.53,0-5.42-1.3-8.53-6.68-8.53C316.78,273.38,314,276.7,314,282.58Z"/>
    <path d="M337,282.66c0,5.42,2.77,8.78,6.8,8.78a5.92,5.92,0,0,0,6.05-3.94H352a8.05,8.05,0,0,1-8.27,5.92c-6.39,0-8.87-5.5-8.87-10.84,0-6,3-11.17,9.12-11.17,6.47,0,8.53,5.58,8.53,9.53,0,.59,0,1.18-.05,1.72Zm13.31-1.84c0-4.16-2.31-7.44-6.43-7.44-4.32,0-6.3,3-6.76,7.44Z"/>
    <path d="M384.23,286.78c0,2.06,0,5.34,0,6.13h-2a35.28,35.28,0,0,1-.12-3.65c-.88,2.48-3,4.16-6.77,4.16-3,0-6.88-1.18-6.88-7.61v-13.9h2v13.4c0,3.07,1,6.05,5.13,6.05,4.7,0,6.47-2.65,6.47-8.65v-10.8h2.1Z"/>
    <path d="M407.33,262v24.92c0,2,0,3.94,0,6h-2c-.08-.5-.12-2.47-.12-3.52-1.05,2.56-3.41,4-7.06,4-5.46,0-8.74-4.45-8.74-10.76,0-6.46,3.57-11.25,9.29-11.25,4.2,0,5.88,1.8,6.51,3.15V262Zm-15.67,20.63c0,5.75,3,8.86,6.59,8.86,5.55,0,7.06-3.82,7.06-9.53,0-5.42-1.3-8.53-6.68-8.53C394.47,273.38,391.66,276.7,391.66,282.58Z"/>
    <path d="M414.67,282.66c.05,5.42,2.78,8.78,6.81,8.78a5.92,5.92,0,0,0,6-3.94h2.14a8.05,8.05,0,0,1-8.27,5.92c-6.39,0-8.87-5.5-8.87-10.84,0-6,3-11.17,9.12-11.17,6.47,0,8.53,5.58,8.53,9.53,0,.59,0,1.18-.05,1.72ZM428,280.82c0-4.16-2.31-7.44-6.43-7.44-4.32,0-6.3,3-6.76,7.44Z"/>
    <path d="M435.3,277.2c0-1.85,0-3.61-.05-5.29h2.06c.09.67.13,3.4.09,4,.92-2.14,2.64-4.49,7-4.49,3.74,0,7.06,2.1,7.06,7.89v13.61h-2.1V279.64c0-3.74-1.56-6.18-5.21-6.18-5,0-6.72,4.16-6.72,8.74v10.71h-2.1Z"/>
    <path d="M469.23,277.33c0-1.81,0-3.78,0-5.42h2.06c0,.71.12,2.52.08,3.74a6.57,6.57,0,0,1,6.3-4.24,6,6,0,0,1,6.1,4.16,7.14,7.14,0,0,1,6.84-4.16c3.24,0,6.6,1.84,6.6,7.68v13.82h-2.1V279.35c0-2.82-1-5.89-4.92-5.89-4.07,0-5.92,3.28-5.92,7.36v12.09h-2.06V279.39c0-3.07-.92-5.93-4.79-5.93-4.07,0-6.05,3.62-6.05,7.9v11.55h-2.1Z"/>
    <path d="M518.21,288.92a23.65,23.65,0,0,0,.29,4h-2a14.1,14.1,0,0,1-.37-3.23c-.72,1.55-2.57,3.74-6.89,3.74-4.88,0-7-3.15-7-6.3,0-4.62,3.57-6.72,9.87-6.72h4v-2.15c0-2.1-.63-4.91-5.42-4.91-4.25,0-4.88,2.23-5.34,4h-2.1c.25-2.31,1.68-5.88,7.48-5.88,4.79,0,7.48,2,7.48,6.63Zm-2.06-6.72H512c-4.66,0-7.56,1.22-7.56,4.83,0,2.65,1.89,4.46,4.83,4.46,6,0,6.85-4,6.85-8.53Z"/>
    <path d="M524.92,287.12c.72,2.73,2.65,4.37,6,4.37,3.74,0,5.25-1.73,5.25-4.08s-1-3.57-5.71-4.7c-5.42-1.31-6.77-2.94-6.77-5.72s2.19-5.58,6.94-5.58,7,2.89,7.35,5.88h-2.1c-.38-1.77-1.77-4-5.34-4s-4.7,1.8-4.7,3.49c0,1.93,1,2.89,5.16,3.9,5.93,1.43,7.4,3.36,7.4,6.51,0,3.83-3.11,6.18-7.52,6.18-4.79,0-7.48-2.52-8.07-6.3Z"/>
    <path d="M545.34,282.75c1.93-2.06,7.81-8,10.62-10.84h2.69l-8.31,8.36,9.36,12.64h-2.6l-8.28-11.3L545.34,285v7.94h-2.1V262h2.1Z"/>
    <path d="M563.1,282.66c0,5.42,2.77,8.78,6.81,8.78A5.92,5.92,0,0,0,576,287.5h2.14a8.05,8.05,0,0,1-8.28,5.92c-6.38,0-8.86-5.5-8.86-10.84,0-6,3-11.17,9.11-11.17,6.47,0,8.53,5.58,8.53,9.53,0,.59,0,1.18,0,1.72Zm13.32-1.84c0-4.16-2.31-7.44-6.43-7.44-4.33,0-6.3,3-6.76,7.44Z"/>
    <path d="M128.37,325.33v2.11H105.56v-2.11Zm0,10.25v2.11H105.56v-2.11Z"/>
    <path d="M150.67,343.31v-25a18.62,18.62,0,0,1-6.22,3.23v-2a22.89,22.89,0,0,0,6.6-4.12h1.8v27.85Z"/>
    <path d="M162.72,340.21v11.51h-2.1V327.48c0-1.73,0-3.57,0-5.17h2.06c.08.8.08,2.06.08,3.78a7.71,7.71,0,0,1,7.39-4.28c5,0,8.41,4.16,8.41,10.46,0,7.56-4,11.55-9.12,11.55C165.7,343.82,163.77,342.18,162.72,340.21Zm13.57-7.86c0-4.87-2.35-8.53-6.51-8.53-5.08,0-7.19,3.2-7.19,8.91s1.64,9.11,6.89,9.11C173.85,341.84,176.29,338.15,176.29,332.35Z"/>
    <path d="M201,332.77c0,5.84-3.24,11.05-9.5,11.05-5.67,0-9.2-4.66-9.2-11,0-6,3.32-11,9.41-11C197.33,321.81,201,326.18,201,332.77Zm-16.47,0c0,5,2.69,9,7.14,9s7.1-3.73,7.1-9c0-4.95-2.52-9-7.18-9S184.56,327.77,184.56,332.81Z"/>
    <path d="M206.4,312.35h2.1v4.08h-2.1Zm0,10h2.1v21h-2.1Z"/>
    <path d="M215.39,327.6c0-1.85,0-3.61,0-5.29h2.05c.09.67.13,3.4.09,4,.92-2.14,2.64-4.49,7-4.49,3.74,0,7.06,2.1,7.06,7.89v13.61h-2.1V330c0-3.74-1.56-6.17-5.21-6.17-5,0-6.72,4.15-6.72,8.73v10.71h-2.1Z"/>
    <path d="M235.13,322.31H239v-6.55h2.1v6.55h5v2h-5v13.65c0,2.35.51,3.69,2.52,3.69a8,8,0,0,0,2.19-.25v1.85a7.49,7.49,0,0,1-2.61.38c-2.68,0-4.2-1.35-4.2-4.71V324.29h-3.9Z"/>
    <path d="M105.43,387.92c.72,2.73,2.65,4.37,6,4.37,3.74,0,5.25-1.73,5.25-4.08s-1-3.57-5.71-4.7c-5.42-1.31-6.77-2.94-6.77-5.72s2.19-5.58,6.93-5.58,7,2.89,7.36,5.88h-2.1c-.38-1.77-1.77-3.95-5.34-3.95s-4.7,1.8-4.7,3.48c0,1.94,1,2.9,5.16,3.91,5.93,1.43,7.4,3.36,7.4,6.51,0,3.83-3.11,6.18-7.52,6.18-4.79,0-7.48-2.52-8.07-6.3Z"/>
    <path d="M120.81,372.71h3.9v-6.55h2.1v6.55h5v2h-5v13.66c0,2.35.51,3.69,2.52,3.69a8,8,0,0,0,2.19-.25v1.85a7.53,7.53,0,0,1-2.61.38c-2.69,0-4.2-1.35-4.2-4.71V374.68h-3.9Z"/>
    <path d="M152.85,383.17c0,5.84-3.23,11.05-9.49,11.05-5.67,0-9.2-4.67-9.2-11,0-6,3.32-11,9.41-11C149.16,372.21,152.85,376.58,152.85,383.17Zm-16.46,0c0,5,2.68,9,7.14,9s7.1-3.74,7.1-9c0-5-2.52-9-7.19-9S136.39,378.17,136.39,383.21Z"/>
    <path d="M160.16,390.61v11.51h-2.1V377.88c0-1.73,0-3.57,0-5.17h2c.09.8.09,2.06.09,3.78a7.71,7.71,0,0,1,7.39-4.28c5,0,8.4,4.16,8.4,10.46,0,7.56-4,11.55-9.11,11.55C163.14,394.22,161.21,392.58,160.16,390.61Zm13.57-7.86c0-4.87-2.36-8.53-6.51-8.53-5.09,0-7.19,3.2-7.19,8.91s1.64,9.11,6.89,9.11C171.29,392.24,173.73,388.55,173.73,382.75Z"/>
    <path d="M183.3,390.61v11.51h-2.1V377.88c0-1.73,0-3.57,0-5.17h2.06c.08.8.08,2.06.08,3.78a7.71,7.71,0,0,1,7.39-4.28c5,0,8.41,4.16,8.41,10.46,0,7.56-4,11.55-9.12,11.55C186.28,394.22,184.35,392.58,183.3,390.61Zm13.57-7.86c0-4.87-2.35-8.53-6.51-8.53-5.08,0-7.19,3.2-7.19,8.91s1.64,9.11,6.89,9.11C194.43,392.24,196.87,388.55,196.87,382.75Z"/>
    <path d="M205.06,383.46c0,5.42,2.77,8.78,6.8,8.78a5.91,5.91,0,0,0,6-3.95h2.14a8,8,0,0,1-8.27,5.93c-6.39,0-8.87-5.51-8.87-10.84,0-6,3-11.17,9.12-11.17,6.47,0,8.53,5.58,8.53,9.53,0,.59,0,1.18-.05,1.72Zm13.31-1.84c0-4.16-2.31-7.44-6.42-7.44-4.33,0-6.31,3-6.77,7.44Z"/>
    <path d="M222.86,372.71h3.91v-6.55h2.1v6.55h5v2h-5v13.66c0,2.35.5,3.69,2.52,3.69a7.9,7.9,0,0,0,2.18-.25v1.85a7.44,7.44,0,0,1-2.6.38c-2.69,0-4.2-1.35-4.2-4.71V374.68h-3.91Z"/>
    <path d="M251.17,383.55c1.93-2.06,7.82-8,10.63-10.84h2.69l-8.32,8.36,9.37,12.64h-2.61l-8.27-11.3-3.49,3.36v7.94h-2.1v-31h2.1Z"/>
    <path d="M283.51,387.58c0,2.06.05,5.34.05,6.13h-2a31.76,31.76,0,0,1-.13-3.65c-.88,2.48-3,4.16-6.76,4.16-3,0-6.89-1.18-6.89-7.61v-13.9h2.06v13.4c0,3.07,1,6.05,5.12,6.05,4.71,0,6.47-2.65,6.47-8.65v-10.8h2.1Z"/>
    <path d="M290.4,378c0-1.85,0-3.61,0-5.29h2.05c.09.67.13,3.4.09,4,.92-2.14,2.65-4.49,7-4.49,3.74,0,7.06,2.1,7.06,7.89v13.61h-2.1V380.44c0-3.74-1.56-6.18-5.21-6.18-5,0-6.72,4.16-6.72,8.74v10.71h-2.1Z"/>
    <path d="M329.63,362.75v24.92c0,2,0,3.94,0,6h-2c-.09-.5-.13-2.47-.13-3.52-1,2.56-3.4,4-7.06,4-5.46,0-8.74-4.45-8.74-10.76s3.57-11.25,9.29-11.25c4.2,0,5.88,1.8,6.51,3.15V362.75ZM314,383.38c0,5.75,3,8.86,6.6,8.86,5.54,0,7.05-3.82,7.05-9.53,0-5.42-1.3-8.53-6.68-8.53C316.78,374.18,314,377.5,314,383.38Z"/>
    <path d="M337,383.46c0,5.42,2.77,8.78,6.8,8.78a5.91,5.91,0,0,0,6.05-3.95H352a8,8,0,0,1-8.27,5.93c-6.39,0-8.87-5.51-8.87-10.84,0-6,3-11.17,9.12-11.17,6.47,0,8.53,5.58,8.53,9.53,0,.59,0,1.18-.05,1.72Zm13.31-1.84c0-4.16-2.31-7.44-6.43-7.44-4.32,0-6.3,3-6.76,7.44Z"/>
    <path d="M368.52,378.13c0-1.81,0-3.78,0-5.42h2c.05.71.13,2.52.09,3.74a6.56,6.56,0,0,1,6.3-4.24,6,6,0,0,1,6.09,4.16,7.14,7.14,0,0,1,6.85-4.16c3.23,0,6.59,1.84,6.59,7.68v13.82h-2.1V380.15c0-2.82-1-5.89-4.91-5.89-4.08,0-5.93,3.28-5.93,7.36v12.09h-2.05V380.19c0-3.07-.93-5.93-4.79-5.93-4.08,0-6.05,3.62-6.05,7.9v11.55h-2.1Z"/>
    <path d="M403.8,383.46c0,5.42,2.77,8.78,6.8,8.78a5.9,5.9,0,0,0,6-3.95h2.14a8,8,0,0,1-8.27,5.93c-6.39,0-8.86-5.51-8.86-10.84,0-6,3-11.17,9.11-11.17,6.47,0,8.53,5.58,8.53,9.53,0,.59,0,1.18,0,1.72Zm13.31-1.84c0-4.16-2.31-7.44-6.42-7.44-4.33,0-6.3,3-6.77,7.44Z"/>
    <path d="M440.84,362.75v24.92c0,2,0,3.94.05,6h-2c-.08-.5-.13-2.47-.13-3.52-1.05,2.56-3.4,4-7.05,4-5.46,0-8.74-4.45-8.74-10.76s3.57-11.25,9.28-11.25c4.2,0,5.88,1.8,6.51,3.15V362.75Zm-15.67,20.63c0,5.75,3,8.86,6.6,8.86,5.55,0,7.06-3.82,7.06-9.53,0-5.42-1.3-8.53-6.68-8.53C428,374.18,425.17,377.5,425.17,383.38Z"/>
    <path d="M458.65,378.13c0-1.81,0-3.78,0-5.42h2.05c0,.71.13,2.52.09,3.74a6.56,6.56,0,0,1,6.3-4.24,6,6,0,0,1,6.09,4.16,7.14,7.14,0,0,1,6.85-4.16c3.23,0,6.59,1.84,6.59,7.68v13.82h-2.1V380.15c0-2.82-1-5.89-4.91-5.89-4.08,0-5.92,3.28-5.92,7.36v12.09h-2.06V380.19c0-3.07-.93-5.93-4.79-5.93-4.08,0-6.05,3.62-6.05,7.9v11.55h-2.1Z"/>
    <path d="M507.62,389.72a23.34,23.34,0,0,0,.3,4h-2a13.87,13.87,0,0,1-.38-3.23c-.71,1.55-2.56,3.74-6.89,3.74-4.87,0-7-3.15-7-6.3,0-4.62,3.57-6.72,9.87-6.72h4v-2.15c0-2.1-.63-4.91-5.42-4.91-4.24,0-4.87,2.23-5.33,3.95h-2.1c.25-2.31,1.68-5.88,7.48-5.88,4.78,0,7.47,2,7.47,6.63ZM505.56,383h-4.11c-4.67,0-7.56,1.22-7.56,4.83,0,2.65,1.89,4.46,4.83,4.46,6,0,6.84-4,6.84-8.53Z"/>
    <path d="M514.34,387.92c.71,2.73,2.65,4.37,6,4.37,3.73,0,5.25-1.73,5.25-4.08s-1-3.57-5.72-4.7c-5.42-1.31-6.76-2.94-6.76-5.72s2.18-5.58,6.93-5.58,7,2.89,7.35,5.88h-2.1c-.38-1.77-1.76-3.95-5.33-3.95s-4.71,1.8-4.71,3.48c0,1.94,1,2.9,5.17,3.91,5.92,1.43,7.39,3.36,7.39,6.51,0,3.83-3.11,6.18-7.52,6.18-4.79,0-7.47-2.52-8.06-6.3Z"/>
    <path d="M534.75,383.55c1.94-2.06,7.82-8,10.63-10.84h2.69l-8.32,8.36,9.37,12.64h-2.61l-8.27-11.3-3.49,3.36v7.94h-2.1v-31h2.1Z"/>
    <path d="M552.52,383.46c0,5.42,2.77,8.78,6.8,8.78a5.9,5.9,0,0,0,6-3.95h2.15a8.06,8.06,0,0,1-8.28,5.93c-6.38,0-8.86-5.51-8.86-10.84,0-6,3-11.17,9.11-11.17,6.47,0,8.53,5.58,8.53,9.53,0,.59,0,1.18,0,1.72Zm13.31-1.84c0-4.16-2.3-7.44-6.42-7.44-4.33,0-6.3,3-6.76,7.44Z"/>
    <path d="M128.37,426.13v2.11H105.56v-2.11Zm0,10.25v2.11H105.56v-2.11Z"/>
    <path d="M156,432.35v2.06H145.38v-2.06Z"/>
    <path d="M166.29,444.11v-25a18.62,18.62,0,0,1-6.22,3.23v-2a22.89,22.89,0,0,0,6.6-4.12h1.81v27.85Z"/>
    <path d="M178.34,441v11.51h-2.1V428.28c0-1.73,0-3.57,0-5.17h2.06c.08.8.08,2.06.08,3.78a7.73,7.73,0,0,1,7.4-4.28c5,0,8.4,4.16,8.4,10.46,0,7.56-4,11.55-9.12,11.55C181.33,444.62,179.39,443,178.34,441Zm13.57-7.86c0-4.87-2.35-8.53-6.51-8.53-5.08,0-7.18,3.2-7.18,8.91s1.64,9.11,6.89,9.11C189.48,442.64,191.91,439,191.91,433.15Z"/>
    <path d="M216.65,433.57c0,5.84-3.23,11.05-9.49,11.05-5.67,0-9.2-4.66-9.2-11,0-6,3.32-11,9.41-11C213,422.61,216.65,427,216.65,433.57Zm-16.47,0c0,5,2.69,9,7.14,9s7.1-3.73,7.1-9c0-4.95-2.52-9-7.18-9S200.18,428.57,200.18,433.61Z"/>
    <path d="M222,413.15h2.1v4.08H222Zm0,10h2.1v21H222Z"/>
    <path d="M231,428.4c0-1.85,0-3.61,0-5.29H233c.08.67.12,3.4.08,4,.92-2.14,2.65-4.49,7-4.49,3.74,0,7.06,2.1,7.06,7.89v13.61H245V430.84c0-3.74-1.55-6.17-5.21-6.17-5,0-6.72,4.15-6.72,8.73v10.71H231Z"/>
    <path d="M250.75,423.11h3.91v-6.55h2.1v6.55h5v2h-5v13.66c0,2.35.5,3.69,2.52,3.69a7.9,7.9,0,0,0,2.18-.25V444a7.44,7.44,0,0,1-2.6.38c-2.69,0-4.2-1.35-4.2-4.71V425.08h-3.91Z"/>
  </g>
  <g>
    <path d="M313.49,523.7V505.24a15.52,15.52,0,0,1-4.5,1.38v-3.41a12.06,12.06,0,0,0,5.83-3.25H318V523.7Z"/>
    <path d="M338.84,503.72h-9.63c-.18,1.49-.64,4.21-.83,5.28a6.33,6.33,0,0,1,4.5-1.48c4.56,0,7.25,3.25,7.25,7.87s-2.48,8.74-8.66,8.74c-4.52,0-7.84-2.38-8.39-6.54h4.48a3.84,3.84,0,0,0,4,3c2.71,0,4-2,4-4.89,0-2.67-1-4.63-3.95-4.63a3.79,3.79,0,0,0-4.06,2.62l-4.07-.58c.66-3,1.64-10,2-13.14h13.93Z"/>
    <path d="M348.53,521.84v9h-4.45V509.68c0-1.5,0-3,0-4.48h4.34a23.82,23.82,0,0,1,.14,2.51,6,6,0,0,1,5.61-2.94c4.19,0,7.37,3.51,7.37,9.21,0,6.56-3.58,10.15-8.06,10.15C350.71,524.13,349.28,523.06,348.53,521.84Zm8.43-7.68c0-3.58-1.52-5.75-4.2-5.75-3.22,0-4.41,2.06-4.41,6,0,3.82,1,6.07,4.19,6.07C355.47,520.52,357,518.19,357,514.16Z"/>
    <path d="M382.24,514.41c0,5.51-3.25,9.72-9,9.72-5.59,0-8.89-4.09-8.89-9.63s3.34-9.73,9.12-9.73C378.77,504.77,382.24,508.61,382.24,514.41Zm-13.38,0c0,3.73,1.7,6.12,4.46,6.12s4.36-2.34,4.36-6.09c0-4-1.57-6.15-4.44-6.15S368.86,510.43,368.86,514.45Z"/>
    <path d="M386,497.37h4.48v4.38H386Zm0,7.83h4.48v18.5H386Z"/>
    <path d="M395.41,509.86c0-1.58,0-3.27,0-4.66h4.34a23.63,23.63,0,0,1,.17,2.59c.67-1.31,2.17-3,5.52-3,3.64,0,6.15,2.38,6.15,7.12V523.7h-4.47V512.4c0-2.32-.83-3.95-3.28-3.95-2.62,0-3.92,1.69-3.92,5.11V523.7h-4.47Z"/>
    <path d="M414.09,505.2h3V500h4.47v5.16h3.78v3.43h-3.78v9.71c0,1.53.44,2.2,2,2.2a9,9,0,0,0,1.32-.08v3.14a10.55,10.55,0,0,1-3.22.35c-3.36,0-4.58-1.78-4.58-5V508.63h-3Z"/>
    <path d="M449,507v3.79h-19.9V507Zm0,9.13v3.8h-19.9v-3.8Z"/>
    <path d="M457.27,505.2c1.88,7.85,2.92,12.32,3.26,14.48h.06c.36-1.94,1.16-5.43,3.53-14.48h4.22c2.36,9.56,3.07,12.36,3.34,14.24h0c.4-1.93,1-4.7,3.43-14.24h4.46L474,523.7h-4.8c-1.62-6.93-2.8-11.48-3.21-13.77h0c-.31,2.22-1.53,6.9-3.32,13.77h-4.86l-5.29-18.5Z"/>
    <path d="M482.68,497.37h4.48v4.38h-4.48Zm0,7.83h4.48v18.5h-4.48Z"/>
    <path d="M492.07,509.86c0-1.58,0-3.27,0-4.66h4.34a23.63,23.63,0,0,1,.17,2.59c.67-1.31,2.17-3,5.52-3,3.64,0,6.15,2.38,6.15,7.12V523.7h-4.47V512.4c0-2.32-.83-3.95-3.28-3.95-2.62,0-3.92,1.69-3.92,5.11V523.7h-4.47Z"/>
  </g>
</svg>
