<svg id="Layer_1" data-name="Layer 1" xmlns="http://www.w3.org/2000/svg" width="297" height="153" viewBox="0 0 297 153">
  <defs>
    <style>
      .cls-1 {
        fill: #d00500;
      }
    </style>
  </defs>
  <g>
    <rect class="cls-1" width="297" height="153" rx="76.5"/>
    <g>
      <path d="M41.16,49.28l19.18,1c1.16.09,2.08.18,2.75.27a11.93,11.93,0,0,1,1.74.34,6.81,6.81,0,0,1,1.33.52,15.87,15.87,0,0,0,1.52.66A11.2,11.2,0,0,1,73.35,57a9.15,9.15,0,0,1,.8,2.26,23,23,0,0,1,.48,3c.1,1,.16,2.07.19,3.1s0,2,0,2.73a15,15,0,0,1-2.23,7,13.09,13.09,0,0,1-5.1,4.52,8,8,0,0,1-2.79.62c-1.23.1-2.42.24-3.55.42.13.23.44.72.92,1.49s1.22,2,2.25,3.69,2.38,4,4.07,6.86,3.8,6.6,6.33,11.16l-10.3-.71L55.17,88a17.73,17.73,0,0,1-1-1.75c-.35-.72-.72-1.43-1.11-2.14s-.75-1.34-1.07-1.91a5.9,5.9,0,0,0-.75-1.11,4,4,0,0,1-.58-.44.85.85,0,0,0-.32-.2L50,80.4a6.91,6.91,0,0,0-.73,0l-1.37-.13-1.94,20.7-8.67-.84ZM55.24,70c.18,0,.53,0,1,.05s1.1,0,1.75,0,1.29,0,2,0a14.89,14.89,0,0,0,1.8-.19,4.13,4.13,0,0,0,2.69-1.33,4.6,4.6,0,0,0,1.28-2.88c0-.45.08-.86.1-1.23a4.11,4.11,0,0,0-.1-1.15A5.25,5.25,0,0,0,65.34,62a6.49,6.49,0,0,0-1.1-1.47,3.7,3.7,0,0,0-1.38-1A9.3,9.3,0,0,0,61,59a19.94,19.94,0,0,0-2-.3l-1.81-.21L49.77,58l-1,11.6Z"/>
      <path d="M118.74,48.88l2.2,32.1c.09,1.48.14,3,.14,4.48a32.09,32.09,0,0,1-.3,4.4,20.15,20.15,0,0,1-1,4.15,11.32,11.32,0,0,1-2.09,3.56c-.46.49-.85.89-1.15,1.19a9,9,0,0,1-.88.8,6.07,6.07,0,0,1-1,.59l-1.25.59-1.59.6c-.32.14-.64.26-.95.36a12.48,12.48,0,0,1-1.26.32c-.54.11-1.35.3-2.44.57-.58.14-1.09.26-1.55.39a8.16,8.16,0,0,1-1.33.25c-.44,0-.91.08-1.44.1s-1.13,0-1.81,0a26.81,26.81,0,0,1-3.42-.39,11.7,11.7,0,0,1-2.72-.93,20.16,20.16,0,0,1-2.44-1.26,8.89,8.89,0,0,1-1.71-1.38,7.82,7.82,0,0,1-1.24-1.76,22.45,22.45,0,0,1-1.05-2.44,20.3,20.3,0,0,1-.75-2.8c-.23-1.12-.43-2.28-.58-3.46s-.29-2.28-.4-3.32-.19-1.84-.24-2.42L84.66,51.27l9.1-.6L96.23,86.3q.27,4.15,1.87,6.14t5.57,1.72a8,8,0,0,0,6-2.58,8.64,8.64,0,0,0,1.82-6.52l-2.87-35.57Z"/>
      <path d="M139.19,50.26l3.9,43.29,23.55-1.11.56,9.34-34.35,1.59-2.33-53Z"/>
      <path d="M206.93,49.15l-.27,8-21,.13,1.37,17L204,72.82l.57,8.36L187.75,81l1.17,16.39,19.37-.64.27,5.53-30.85.68-1-52.87Z"/>
      <path d="M227.57,90.38a9.36,9.36,0,0,0,.3,1.4,7.86,7.86,0,0,0,.37,1,2.66,2.66,0,0,0,.48.72,7.32,7.32,0,0,1,.62.78,3.41,3.41,0,0,0,1.28,1.08,4.81,4.81,0,0,0,1.47.37,12.74,12.74,0,0,0,1.75,0c.65-.05,1.32-.07,2-.07a6.75,6.75,0,0,0,3-.66,9.58,9.58,0,0,0,2.39-1.62,7.6,7.6,0,0,0,1.62-2.1,4.8,4.8,0,0,0,.58-2.16q0-.51,0-1.26a12.85,12.85,0,0,0,0-1.52,6.76,6.76,0,0,0-.21-1.45,2.47,2.47,0,0,0-.59-1.1l-1-1a7,7,0,0,0-1.4-1.15,11.5,11.5,0,0,0-2.08-1,11.64,11.64,0,0,0-3.07-.69c-1.78-.18-3.24-.39-4.37-.61A13.85,13.85,0,0,1,228,78.4a9.5,9.5,0,0,1-2.05-1.22c-.59-.46-1.23-1-1.92-1.66a10.76,10.76,0,0,1-3-4.89,20.18,20.18,0,0,1-.9-5.87q.14-2.84.45-5.56a10.64,10.64,0,0,1,1.75-4.84A9.6,9.6,0,0,1,226.84,51a23.72,23.72,0,0,1,8.77-1.18,52.9,52.9,0,0,1,7.1,1,10.89,10.89,0,0,1,4.41,2,8.81,8.81,0,0,1,2.6,3.66,32.25,32.25,0,0,1,1.6,6h-8.41a7.61,7.61,0,0,0-1.41-3.07,6.74,6.74,0,0,0-2-1.68,7.14,7.14,0,0,0-1.81-.73,7.09,7.09,0,0,1-.95-.25,7.43,7.43,0,0,0-2.54-.24,8.63,8.63,0,0,0-2.28.49,6.92,6.92,0,0,0-1.84,1,5.38,5.38,0,0,0-1.21,1.3,6.18,6.18,0,0,0-.74,1.94,16,16,0,0,0-.26,2,10.91,10.91,0,0,0,0,1.81,4.12,4.12,0,0,0,.2,1.14,5,5,0,0,0,1,2.11,9.83,9.83,0,0,0,1.7,1.65,11.31,11.31,0,0,0,2,1.22,9.91,9.91,0,0,0,2.1.69q2.44.54,3.87.81c1,.18,1.76.36,2.4.55s1.21.38,1.69.56a17.2,17.2,0,0,1,1.81.84A15.41,15.41,0,0,1,250.92,80a14,14,0,0,1,2,7.35,15.81,15.81,0,0,1-2.59,8.75,16.34,16.34,0,0,1-7.32,6.09q-1.14.47-1.65.72a3.22,3.22,0,0,1-1,.32,8.86,8.86,0,0,1-1.29.07h-2.6c-2,0-3.75,0-5.12-.15a20.54,20.54,0,0,1-3.52-.53,8.25,8.25,0,0,1-2.56-1.09,16.7,16.7,0,0,1-2.34-1.91A25.55,25.55,0,0,1,221,97.55a6.38,6.38,0,0,1-1-1.72,9,9,0,0,1-.46-2.11c-.09-.81-.18-1.83-.27-3.07Z"/>
    </g>
  </g>
</svg>
